<?xml version="1.0" standalone="no"?>
<!DOCTYPE svg PUBLIC "-//W3C//DTD SVG 20010904//EN"
 "http://www.w3.org/TR/2001/REC-SVG-20010904/DTD/svg10.dtd">
<svg version="1.0" xmlns="http://www.w3.org/2000/svg"
 width="2064.000000pt" height="996.000000pt" viewBox="0 0 2064.000000 996.000000"
 preserveAspectRatio="xMidYMid meet">
<metadata>
Created by potrace 1.15, written by Peter Selinger 2001-2017
</metadata>
<g transform="translate(0.000000,996.000000) scale(0.100000,-0.100000)"
fill="#000000" stroke="none">
<path d="M16920 9949 c-765 -60 -1492 -279 -2000 -602 -300 -191 -559 -446
-695 -687 -159 -280 -200 -587 -120 -890 33 -124 135 -329 222 -445 330 -443
954 -803 1722 -995 422 -106 822 -152 1306 -152 292 0 467 10 720 42 878 112
1661 441 2112 887 155 154 255 290 337 463 305 638 -1 1337 -790 1809 -525
314 -1208 513 -1963 571 -156 12 -696 11 -851 -1z m1490 -1080 c146 -14 331
-53 444 -93 293 -105 452 -269 527 -543 l22 -83 279 0 278 0 0 -75 0 -75 -278
0 -279 0 -17 -82 c-90 -424 -461 -628 -1208 -664 l-138 -7 0 145 0 145 133 7
c352 18 559 80 682 202 46 47 96 133 109 189 4 17 9 38 12 48 5 16 -35 17
-781 15 l-786 -3 -34 -83 c-117 -287 -343 -484 -635 -556 -247 -60 -579 -69
-825 -20 -184 37 -417 131 -539 218 -133 95 -216 223 -238 369 l-12 77 -188 0
-188 0 0 75 0 75 187 2 186 3 13 65 c8 36 32 103 55 150 100 204 324 348 650
418 104 23 261 42 339 42 l50 0 0 -139 0 -138 -87 -6 c-110 -7 -267 -47 -358
-91 -125 -59 -211 -160 -231 -268 l-6 -38 703 0 704 0 55 103 c67 125 173 284
235 355 199 224 601 314 1165 261z"/>
<path d="M18065 8589 c-207 -27 -361 -103 -459 -229 -39 -51 -126 -191 -126
-204 0 -3 340 -6 756 -6 l757 0 -7 47 c-10 72 -50 148 -109 207 -147 148 -490
225 -812 185z"/>
<path d="M15554 7953 c13 -100 88 -208 173 -251 21 -11 78 -34 127 -51 244
-86 570 -82 763 10 91 43 206 158 251 250 18 37 32 72 32 78 0 8 -181 11 -676
11 l-677 0 7 -47z"/>
<path d="M10065 7683 c-740 -36 -1394 -196 -1940 -477 -587 -301 -952 -696
-1067 -1154 -19 -74 -22 -114 -22 -262 1 -156 4 -186 27 -272 67 -250 190
-452 412 -673 189 -189 386 -328 675 -474 466 -237 1006 -383 1650 -448 240
-24 804 -24 1040 1 796 81 1462 295 1965 631 523 349 795 774 795 1240 0 535
-362 1019 -1036 1385 -657 356 -1604 547 -2499 503z m1241 -1083 c515 -41 837
-198 973 -474 22 -44 51 -119 64 -166 l25 -85 276 -3 276 -2 0 -75 0 -75 -275
0 c-212 0 -276 -3 -279 -12 -2 -7 -11 -47 -20 -88 -58 -260 -253 -445 -580
-549 -164 -53 -446 -91 -667 -91 l-89 0 0 140 c0 128 2 140 18 140 10 0 79 5
153 10 189 15 355 44 446 80 92 35 196 110 236 167 34 49 76 149 77 181 l0 22
-783 0 -782 0 -30 -76 c-62 -165 -205 -345 -341 -435 -124 -80 -324 -146 -517
-169 -118 -14 -413 -14 -507 0 -118 18 -264 57 -374 100 -305 120 -471 286
-507 506 l-12 74 -188 0 -189 0 0 75 0 75 188 0 188 0 14 67 c7 37 33 108 58
157 36 72 62 107 122 167 65 64 95 85 201 137 184 92 362 137 592 149 l117 6
0 -135 c0 -153 3 -147 -85 -148 -92 -1 -316 -65 -403 -116 -100 -59 -166 -147
-178 -238 l-7 -46 701 0 701 0 61 112 c208 377 348 501 654 578 188 48 409 61
672 40z"/>
<path d="M11040 6314 c-205 -25 -356 -97 -461 -220 -47 -54 -139 -198 -139
-216 0 -5 342 -8 759 -8 l760 0 -6 38 c-30 191 -163 307 -433 377 -91 24 -128
28 -275 30 -93 2 -186 1 -205 -1z"/>
<path d="M8516 5683 c25 -142 99 -229 240 -285 285 -112 621 -115 835 -7 85
42 195 153 237 238 18 35 32 70 32 78 0 11 -117 13 -675 13 l-676 0 7 -37z"/>
<path d="M14096 7553 c-14 -48 -26 -158 -26 -249 0 -334 155 -664 450 -953
446 -439 1203 -762 2060 -880 289 -39 399 -46 775 -46 376 0 486 7 775 46
1032 142 1893 573 2288 1147 103 150 185 348 212 515 19 120 8 377 -19 425 -5
9 -17 -15 -35 -74 -222 -720 -1174 -1311 -2407 -1494 -1417 -210 -2913 153
-3644 885 -61 60 -141 151 -178 200 -81 110 -177 293 -212 409 -14 47 -28 86
-30 86 -2 0 -6 -8 -9 -17z"/>
<path d="M14097 6796 c-18 -45 -29 -193 -24 -305 14 -323 155 -610 438 -892
514 -512 1414 -854 2444 -929 180 -13 620 -13 800 0 1038 76 1938 420 2455
940 287 288 430 596 430 925 0 117 -13 234 -29 263 -5 9 -17 -15 -36 -74 -169
-547 -758 -1025 -1605 -1305 -998 -329 -2223 -330 -3223 -3 -625 205 -1119
523 -1400 899 -81 110 -177 293 -212 409 -14 47 -28 86 -30 86 -1 0 -5 -6 -8
-14z"/>
<path d="M14096 6033 c-14 -48 -26 -159 -26 -251 0 -535 405 -1048 1108 -1405
1152 -585 2840 -635 4097 -120 263 107 574 287 771 446 44 36 129 117 190 179
272 283 404 579 404 905 0 113 -13 222 -29 252 -5 8 -18 -18 -34 -70 -71 -229
-242 -483 -449 -670 -655 -591 -1781 -923 -2984 -878 -1378 51 -2551 594
-2934 1358 -38 78 -90 217 -90 245 0 22 -18 29 -24 9z"/>
<path d="M2925 5289 c-1320 -83 -2431 -621 -2797 -1354 -178 -355 -172 -738
17 -1093 271 -508 935 -942 1780 -1162 684 -178 1477 -218 2194 -109 746 113
1392 370 1846 735 115 92 283 266 358 371 120 169 213 387 238 561 18 128 7
335 -24 454 -222 847 -1394 1498 -2875 1598 -175 11 -545 11 -737 -1z m1495
-1093 c345 -49 575 -145 722 -305 69 -74 136 -204 168 -324 l23 -87 279 0 278
0 0 -75 0 -75 -280 0 -279 0 -6 -37 c-13 -75 -37 -149 -73 -223 -43 -89 -172
-224 -264 -278 -206 -121 -479 -184 -855 -199 l-163 -6 0 140 0 141 103 6
c369 24 571 80 696 192 69 62 109 133 135 237 l6 27 -783 0 -784 0 -28 -67
c-120 -290 -321 -477 -600 -558 -164 -47 -261 -59 -510 -59 -202 -1 -244 2
-343 22 -158 32 -278 73 -422 144 -112 55 -134 71 -210 147 -100 100 -135 164
-159 288 l-16 83 -187 0 -188 0 0 75 0 75 185 0 185 0 5 28 c19 87 28 118 50
168 127 287 452 452 963 489 l92 7 0 -139 0 -139 -103 -12 c-331 -39 -537
-167 -566 -353 l-8 -49 701 0 701 0 53 104 c131 254 277 427 427 503 129 66
258 100 475 127 72 9 479 -4 580 -18z"/>
<path d="M4002 3930 c-183 -23 -326 -85 -424 -183 -58 -58 -153 -201 -165
-248 -5 -19 10 -19 752 -19 l758 0 -7 47 c-10 72 -59 167 -114 221 -79 77
-205 134 -372 167 -93 19 -331 27 -428 15z"/>
<path d="M1483 3291 c13 -107 92 -213 198 -263 77 -36 200 -74 291 -88 121
-20 384 -8 473 20 137 44 231 107 300 205 35 49 85 149 85 170 0 3 -304 5
-676 5 l-677 0 6 -49z"/>
<path d="M14090 5248 c-19 -82 -24 -285 -10 -379 67 -460 432 -893 1025 -1217
405 -222 953 -391 1495 -461 298 -39 410 -46 765 -45 364 0 521 11 820 55
1152 170 2073 703 2361 1368 60 140 85 250 91 408 5 134 -7 275 -26 311 -4 7
-17 -21 -30 -65 -35 -121 -130 -305 -219 -423 -285 -377 -763 -687 -1374 -891
-371 -124 -786 -205 -1223 -239 -180 -14 -640 -14 -820 0 -926 72 -1738 355
-2270 791 -87 71 -256 244 -317 324 -102 135 -177 277 -223 428 -15 48 -29 87
-30 87 -2 0 -9 -24 -15 -52z"/>
<path d="M7056 5263 c-54 -266 -21 -507 105 -758 171 -343 527 -663 997 -899
430 -216 964 -366 1522 -430 467 -53 1015 -44 1470 25 1391 211 2378 910 2449
1734 10 120 -4 311 -27 349 -3 5 -20 -35 -38 -90 -240 -727 -1186 -1305 -2429
-1483 -345 -50 -864 -68 -1195 -41 -930 73 -1728 350 -2266 783 -256 207 -468
498 -545 747 -28 90 -35 101 -43 63z"/>
<path d="M7051 4477 c-32 -170 -23 -348 25 -515 213 -738 1173 -1336 2444
-1521 491 -72 1106 -72 1600 -1 648 94 1245 305 1675 592 176 117 271 195 402
332 267 278 403 578 405 896 1 113 -16 255 -32 265 -4 3 -20 -34 -35 -82 -169
-544 -765 -1024 -1615 -1303 -360 -118 -784 -198 -1215 -230 -180 -13 -600
-13 -780 0 -1307 95 -2389 628 -2752 1355 -41 81 -93 221 -93 249 0 8 -4 17
-9 20 -5 3 -14 -22 -20 -57z"/>
<path d="M14090 4378 c-19 -83 -24 -276 -11 -368 62 -422 366 -820 862 -1129
1204 -749 3223 -814 4565 -147 292 146 499 291 699 491 152 152 234 264 316
430 80 163 110 279 116 458 5 124 -6 256 -25 306 -3 8 -18 -23 -34 -73 -38
-119 -86 -219 -154 -323 -435 -670 -1465 -1137 -2694 -1223 -188 -13 -609 -13
-781 0 -655 50 -1245 203 -1737 451 -296 148 -489 285 -693 488 -199 200 -315
383 -384 604 -15 48 -29 87 -30 87 -2 0 -9 -24 -15 -52z"/>
<path d="M7049 3712 c-9 -41 -14 -125 -13 -217 1 -127 5 -165 27 -248 156
-588 747 -1085 1640 -1378 352 -116 764 -195 1192 -229 206 -17 686 -14 900 5
1020 89 1866 422 2375 934 264 266 400 531 429 836 9 104 1 253 -20 328 l-11
42 -33 -101 c-69 -209 -178 -385 -357 -569 -65 -68 -170 -163 -233 -212 -1142
-885 -3341 -1019 -4784 -293 -459 231 -806 542 -980 880 -45 88 -101 235 -101
266 0 7 -4 15 -9 18 -5 3 -15 -25 -22 -62z"/>
<path d="M14090 3618 c-21 -93 -24 -292 -6 -397 48 -273 184 -518 421 -756
734 -738 2208 -1099 3655 -894 605 86 1199 289 1615 552 237 150 475 362 608
542 119 161 208 359 241 535 25 130 19 353 -11 455 -4 14 -14 -6 -34 -69 -40
-130 -127 -297 -217 -416 -439 -583 -1335 -994 -2432 -1116 -196 -22 -736 -30
-956 -15 -661 46 -1262 200 -1763 452 -295 148 -488 285 -692 488 -199 200
-315 383 -384 604 -15 48 -29 87 -30 87 -2 0 -9 -24 -15 -52z"/>
<path d="M7051 2963 c-34 -165 -21 -378 34 -547 230 -704 1117 -1270 2308
-1471 546 -92 1179 -99 1732 -19 370 53 773 160 1095 290 171 68 425 202 577
303 524 348 803 774 805 1229 0 106 -18 258 -32 267 -4 3 -15 -23 -25 -56
-204 -730 -1166 -1335 -2415 -1519 -291 -43 -453 -53 -805 -54 -356 0 -538 12
-825 55 -1219 183 -2149 752 -2391 1462 -21 60 -40 111 -42 113 -2 3 -10 -22
-16 -53z"/>
<path d="M26 2900 c-28 -79 -34 -335 -10 -460 165 -870 1345 -1560 2859 -1670
181 -13 643 -13 816 0 1195 92 2184 526 2635 1157 197 275 278 582 233 876
-17 108 -23 110 -53 16 -156 -492 -659 -939 -1366 -1216 -537 -211 -1085 -316
-1725 -330 -1249 -28 -2398 348 -3001 980 -171 180 -280 353 -348 557 -19 57
-37 98 -40 90z"/>
<path d="M14088 2853 c-8 -37 -13 -118 -12 -223 1 -144 4 -177 27 -262 213
-799 1232 -1412 2622 -1578 227 -28 777 -39 1026 -21 1359 97 2473 665 2797
1426 78 184 111 423 82 602 -13 86 -25 119 -34 93 -2 -8 -16 -52 -31 -97 -143
-444 -611 -873 -1250 -1146 -553 -237 -1147 -358 -1825 -374 -1010 -23 -1948
211 -2610 652 -377 251 -629 552 -741 886 -17 52 -32 95 -34 97 -2 2 -9 -23
-17 -55z"/>
<path d="M26 2140 c-28 -79 -34 -335 -10 -460 164 -869 1334 -1553 2853 -1670
173 -13 646 -13 821 0 672 51 1270 206 1772 462 684 348 1081 834 1105 1351 5
111 -9 284 -26 315 -5 9 -20 -25 -39 -85 -198 -617 -925 -1140 -1927 -1388
-939 -232 -2016 -199 -2900 90 -521 170 -962 427 -1250 726 -180 187 -289 361
-360 572 -19 55 -36 95 -39 87z"/>
<path d="M7051 2093 c-85 -414 97 -867 489 -1218 505 -453 1262 -746 2200
-851 196 -22 758 -30 973 -15 897 66 1669 321 2225 736 135 100 338 303 421
420 135 192 223 418 240 622 10 114 -5 320 -27 357 -3 5 -20 -37 -38 -94 -112
-342 -398 -672 -804 -928 -813 -512 -2061 -725 -3229 -552 -1015 151 -1853
581 -2233 1144 -77 116 -121 204 -163 327 -18 55 -35 102 -38 105 -2 2 -9 -22
-16 -53z"/>
<path d="M14090 2103 c-19 -72 -24 -278 -10 -374 25 -175 105 -370 224 -544
79 -116 309 -349 443 -448 790 -583 2056 -850 3303 -696 1016 125 1878 526
2303 1071 125 161 204 313 254 493 30 110 42 328 24 444 -17 111 -25 115 -51
30 -51 -168 -134 -321 -260 -478 -417 -518 -1268 -917 -2220 -1040 -300 -39
-410 -46 -755 -45 -352 1 -518 12 -804 54 -1233 183 -2186 776 -2407 1498 -14
45 -27 82 -28 82 -2 0 -9 -21 -16 -47z"/>
</g>
</svg>
