<!-- Generated by IcoMoon.io -->
<svg version="1.1" xmlns="http://www.w3.org/2000/svg" width="1024" height="1024" viewBox="0 0 1024 1024">
<title></title>
<g id="icomoon-ignore">
</g>
<path d="M839.425 265.415c-37.95 2.978-74.014 13.841-99.215 29.863-14.882 9.475-27.73 22.126-34.479 34.079-7.889 13.889-9.922 29.119-5.952 44.151 1.637 6.152 6.697 16.322 11.012 22.075 16.371 21.975 47.328 39.835 85.425 49.361 20.934 5.259 40.779 7.541 64.788 7.541 14.486 0 23.167-0.496 35.718-2.085 43.557-5.556 82.399-21.878 104.773-44.002 7.689-7.641 12.649-14.386 16.718-22.968 15.13-31.649-0.049-66.325-39.191-89.741-26.045-15.578-59.928-25.449-97.381-28.326-7.738-0.596-34.528-0.545-42.217 0.049zM913.341 318.992c7.242 0.695 16.419 2.63 22.026 4.614 14.534 5.208 22.423 13.345 26.143 26.938l1.092 4.118h27.631v7.441h-27.631l-0.844 4.067c-4.464 21.034-22.869 31.153-59.928 32.938l-6.845 0.348v-14.386l6.597-0.348c17.463-0.893 27.73-3.968 33.832-10.021 2.281-2.332 4.763-6.597 5.407-9.375 0.199-0.844 0.448-1.885 0.596-2.381 0.248-0.793-1.737-0.844-38.744-0.744l-38.991 0.148-1.686 4.118c-5.804 14.237-17.015 24.011-31.501 27.582-12.252 2.978-28.723 3.422-40.928 0.992-9.126-1.837-20.686-6.5-26.738-10.815-6.597-4.712-10.715-11.063-11.807-18.304l-0.596-3.819h-18.652v-7.441l9.278-0.1 9.226-0.148 0.645-3.226c0.396-1.785 1.589-5.111 2.73-7.441 4.96-10.119 16.074-17.263 32.245-20.737 5.159-1.141 12.948-2.085 16.816-2.085h2.481v13.741l-4.315 0.297c-5.456 0.348-13.245 2.332-17.759 4.515-6.2 2.926-10.467 7.937-11.459 13.295l-0.297 1.885h69.799l2.73-5.111c3.323-6.2 8.582-14.089 11.659-17.611 9.871-11.112 29.815-15.578 57.795-12.948z"></path>
<path d="M896.227 332.881c-10.269 1.34-17.908 5.111-22.77 11.36-1.934 2.53-6.251 9.475-6.251 10.119 0 0.148 16.867 0.297 37.505 0.297h37.554l-0.348-2.332c-0.496-3.571-2.481-7.341-5.407-10.269-7.292-7.341-24.308-11.163-40.283-9.178z"></path>
<path d="M771.66 364.434c0.645 4.96 4.366 10.319 8.582 12.452 1.041 0.545 3.87 1.686 6.3 2.53 12.104 4.267 28.275 4.067 37.85-0.496 4.515-2.133 10.219-7.837 12.452-12.401 0.893-1.837 1.589-3.571 1.589-3.87 0-0.396-8.978-0.545-33.534-0.545h-33.585l0.348 2.332z"></path>
<path d="M499.361 377.827c-36.709 1.785-69.154 9.723-96.24 23.663-29.119 14.932-47.228 34.528-52.932 57.247-0.942 3.671-1.092 5.655-1.092 12.997 0.049 7.738 0.199 9.226 1.34 13.493 3.323 12.401 9.426 22.423 20.438 33.386 9.375 9.375 19.148 16.271 33.486 23.515 23.116 11.756 49.906 19 81.855 22.223 11.906 1.189 39.886 1.189 51.592-0.049 39.488-4.019 72.528-14.634 97.481-31.301 25.945-17.312 39.439-38.398 39.439-61.514 0-26.541-17.959-50.551-51.394-68.707-32.593-17.66-79.572-27.134-123.971-24.952zM560.925 431.552c25.549 2.033 41.524 9.823 48.269 23.515 1.092 2.182 2.53 5.904 3.174 8.234l1.24 4.215 13.693 0.148 13.693 0.1v7.441h-13.641c-10.516 0-13.693 0.148-13.841 0.596-0.1 0.348-0.545 2.332-0.992 4.366-2.878 12.897-12.552 22.075-28.772 27.234-8.137 2.63-22.126 4.515-33.089 4.515h-4.415v-6.945c0-6.349 0.1-6.945 0.893-6.945 0.496 0 3.919-0.248 7.589-0.496 9.375-0.744 17.611-2.182 22.126-3.968 4.564-1.737 9.723-5.456 11.707-8.285 1.686-2.43 3.771-7.392 3.819-8.978v-1.092h-77.637l-1.489 3.771c-3.074 8.185-10.17 17.115-16.916 21.579-6.152 3.968-16.074 7.242-25.648 8.385-5.853 0.695-20.489 0.695-25.152 0-5.853-0.893-13.096-2.826-18.552-4.96-15.13-5.952-23.364-14.189-25.152-25.101l-0.596-3.671h-18.701v-7.441h18.652l0.695-3.323c0.348-1.837 1.637-5.358 2.878-7.789 1.785-3.571 3.074-5.308 6.052-8.285 3.226-3.174 4.712-4.215 9.971-6.796 9.126-4.564 17.959-6.796 29.367-7.392l5.804-0.297v6.697c0 7.589 0.148 7.292-4.215 7.341-4.564 0.049-15.675 3.226-19.993 5.755-4.96 2.926-8.234 7.292-8.83 11.807l-0.348 2.281h69.551l3.026-5.556c10.319-18.701 17.263-24.852 32.443-28.674 9.326-2.381 20.289-3.026 33.337-1.985z"></path>
<path d="M547.73 445.741c-10.17 1.24-17.66 4.812-22.869 10.914-2.332 2.678-6.896 9.823-6.896 10.715 0 0.248 16.966 0.396 37.654 0.396h37.702l-0.297-1.885c-1.489-9.475-8.085-15.23-21.479-18.701-4.515-1.189-6.349-1.389-13.641-1.489-4.614-0.1-9.226-0.049-10.17 0.049z"></path>
<path d="M422.518 477.043c1.24 7.044 4.911 11.36 11.906 14.137 14.137 5.556 30.806 5.704 41.424 0.348 4.215-2.085 9.674-7.589 11.756-11.807 0.893-1.737 1.589-3.474 1.589-3.87 0-0.545-5.804-0.645-33.486-0.645h-33.534l0.348 1.837z"></path>
<path d="M699.331 384.276c-0.695 2.381-1.289 7.837-1.289 12.352 0 16.569 7.689 32.938 22.323 47.276 22.126 21.778 59.68 37.802 102.192 43.654 14.337 1.934 19.793 2.281 38.447 2.281s24.108-0.348 38.447-2.281c51.195-7.044 93.907-28.426 113.504-56.902 5.111-7.441 9.178-17.263 10.516-25.549 0.942-5.952 0.396-18.701-0.942-21.082-0.248-0.448-0.844 0.744-1.737 3.671-11.012 35.718-58.239 65.036-119.408 74.114-70.295 10.418-144.509-7.589-180.773-43.903-3.026-2.978-6.995-7.489-8.83-9.922-4.019-5.456-8.782-14.534-10.516-20.289-0.695-2.332-1.389-4.267-1.489-4.267s-0.297 0.396-0.448 0.844z"></path>
<path d="M699.38 421.83c-0.893 2.233-1.438 9.575-1.189 15.13 0.695 16.023 7.689 30.26 21.727 44.251 25.497 25.4 70.147 42.365 121.242 46.087 8.93 0.645 30.756 0.645 39.687 0 51.494-3.771 96.14-20.834 121.789-46.632 14.237-14.286 21.331-29.567 21.331-45.887 0-5.804-0.645-11.608-1.438-13.048-0.248-0.448-0.844 0.744-1.785 3.671-8.385 27.134-37.602 50.85-79.621 64.739-49.51 16.322-110.279 16.371-159.887 0.148-31.004-10.17-55.513-25.945-69.451-44.598-4.019-5.456-8.782-14.534-10.516-20.289-0.695-2.332-1.389-4.267-1.489-4.267-0.049 0-0.248 0.297-0.396 0.695z"></path>
<path d="M699.331 459.679c-0.695 2.381-1.289 7.889-1.289 12.452 0 26.541 20.090 51.991 54.966 69.699 57.15 29.020 140.887 31.501 203.245 5.952 13.048-5.308 28.475-14.237 38.249-22.126 2.182-1.785 6.4-5.804 9.426-8.879 13.493-14.038 20.041-28.723 20.041-44.895 0-5.605-0.645-11.012-1.438-12.5-0.248-0.396-0.893 0.893-1.686 3.474-3.522 11.36-12.004 23.96-22.274 33.238-32.493 29.319-88.352 45.788-148.031 43.557-68.361-2.53-126.55-29.467-145.55-67.369-1.885-3.87-4.464-10.764-4.464-12.153 0-1.092-0.893-1.438-1.189-0.448z"></path>
<path d="M145.159 496.588c-65.484 4.118-120.597 30.806-138.754 67.169-8.83 17.611-8.533 36.613 0.844 54.221 13.445 25.201 46.384 46.731 88.303 57.644 33.931 8.83 73.271 10.815 108.841 5.407 37.009-5.605 69.054-18.356 91.577-36.461 5.704-4.564 14.038-13.196 17.759-18.404 5.952-8.385 10.567-19.197 11.807-27.83 0.893-6.349 0.348-16.619-1.189-22.522-11.012-42.018-69.154-74.313-142.624-79.273-8.682-0.545-27.037-0.545-36.561 0.049zM219.323 550.812c17.115 2.43 28.523 7.193 35.817 15.13 3.422 3.671 6.748 10.119 8.334 16.074l1.141 4.315h27.631v7.441h-27.73l-0.297 1.837c-0.645 3.721-1.837 7.392-3.622 11.063-2.133 4.415-8.533 11.112-13.096 13.79-10.219 6.003-23.763 9.126-42.417 9.871l-8.085 0.297v-13.941l5.111-0.297c18.304-1.189 28.326-3.968 34.528-9.526 3.422-3.074 5.407-6.597 6.697-11.756l0.297-1.34h-77.736l-1.389 3.323c-5.952 14.386-15.923 23.663-29.764 27.682-8.137 2.332-12.948 2.926-25.301 2.926-10.021 0.049-12.104-0.1-17.015-1.092-7.837-1.589-13.79-3.622-20.934-7.144-5.556-2.73-6.648-3.522-10.418-7.292-4.96-4.96-6.697-8.137-7.889-14.286l-0.793-4.118h-18.604v-7.441h18.356l0.248-1.389c0.942-4.315 1.389-5.853 2.481-8.334 6.3-14.237 22.423-22.423 47.773-24.259l4.564-0.348v13.79l-5.111 0.596c-16.419 1.934-26.638 8.285-28.078 17.511l-0.396 2.43h69.551l2.63-5.159c6.5-12.6 13.741-21.182 21.182-24.952 6.4-3.274 12.8-4.96 23.563-6.3 3.571-0.448 23.763 0.199 28.772 0.893z"></path>
<path d="M198.586 564.006c-9.078 1.141-16.171 4.215-21.034 9.078-2.878 2.878-7.589 9.971-8.185 12.304-0.248 0.942 0.496 0.942 37.306 0.942h37.602l-0.348-2.332c-0.496-3.571-2.926-8.285-5.655-10.963-3.919-3.819-10.17-6.648-18.453-8.285-4.614-0.942-16.419-1.34-21.232-0.744z"></path>
<path d="M73.623 595.706c0.645 5.308 4.564 10.567 9.823 13.048 3.819 1.785 9.922 3.671 14.437 4.366 6.003 0.992 19.049 0.396 23.464-0.992 6.796-2.182 11.459-5.308 14.882-10.17 1.737-2.43 4.215-7.392 4.215-8.434 0-0.148-15.082-0.248-33.534-0.248h-33.585l0.297 2.43z"></path>
<path d="M699.034 498.623c-0.942 4.067-1.189 14.137-0.496 18.8 3.323 22.819 21.43 44.301 50.85 60.373 20.090 11.012 47.276 19.397 74.165 22.869 14.782 1.934 20.338 2.281 37.95 2.233 18.056 0 25.845-0.545 40.679-2.73 57.15-8.434 102.838-34.875 117.126-67.865 2.978-6.945 4.215-12.401 4.515-20.241 0.248-6.648-0.348-13.641-1.289-15.427-0.199-0.348-0.844 1.041-1.489 3.226-1.737 6.003-6.448 15.13-10.864 20.985-14.137 18.701-37.85 34.079-68.162 44.202-18.404 6.152-38.991 10.17-60.671 11.856-8.93 0.695-31.749 0.695-40.679 0-45.939-3.571-86.218-17.611-112.612-39.24-4.315-3.522-12.7-12.104-15.726-16.074-5.060-6.697-8.782-13.741-11.063-21.232-0.744-2.381-1.438-4.315-1.489-4.315-0.1 0-0.448 1.189-0.744 2.579z"></path>
<path d="M350.089 497.88c-2.678 13.196-1.041 25.152 5.208 37.602 8.482 17.015 26.143 32.89 49.46 44.598 21.331 10.715 47.823 18.156 75.503 21.331 23.167 2.63 50.353 2.182 72.925-1.24 69.006-10.467 117.968-45.143 121.49-86.021 0.496-5.952-0.199-15.427-1.34-17.312-0.148-0.248-0.992 1.737-1.885 4.464-11.906 36.065-58.836 64.739-120.498 73.569-17.115 2.481-42.861 3.374-59.282 2.033-46.135-3.622-85.722-17.363-112.412-38.843-12.7-10.269-23.216-24.704-27.037-37.058-1.389-4.464-1.737-5.011-2.133-3.126z"></path>
<path d="M349.841 536.87c-1.589 8.434-1.141 17.263 1.24 25.549 10.567 36.613 58.191 66.277 121.242 75.454 24.356 3.571 54.866 3.571 79.373 0.049 32.145-4.663 61.762-15.13 83.092-29.367 8.73-5.804 13.445-9.674 19.941-16.47 13.245-13.79 19.993-28.674 20.090-44.45 0.049-5.605-0.793-12.649-1.589-13.145-0.199-0.148-0.992 1.686-1.737 4.067-8.385 26.986-37.95 50.799-80.117 64.64-17.859 5.853-38.894 9.823-60.273 11.411-8.93 0.645-29.764 0.645-38.695 0-64.839-4.712-118.515-31.153-136.521-67.218-2.033-4.019-4.614-10.963-4.614-12.352 0-0.396-0.199-0.844-0.448-0.992s-0.695 1.092-0.992 2.826z"></path>
<path d="M699.034 541.781c-0.942 4.118-1.189 13.693-0.545 18.256 3.074 20.934 18.156 40.679 42.762 56.008 59.728 37.158 159.887 40.381 226.46 7.292 14.486-7.242 24.753-14.437 34.676-24.356 7.541-7.541 11.608-13.096 15.675-21.331 3.968-8.085 5.456-13.841 5.755-22.72 0.248-6.152-0.297-12.7-1.24-15.179-0.148-0.396-0.893 1.141-1.686 3.622-1.885 5.904-4.267 10.864-7.641 16.023-21.579 33.238-72.676 56.405-133.645 60.671-9.326 0.645-30.212 0.645-38.744 0-32.493-2.481-61.762-10.071-86.169-22.374-14.685-7.341-24.259-14.137-34.379-24.208-9.871-9.922-15.627-19-19.049-29.963-0.744-2.381-1.438-4.315-1.489-4.315-0.1 0-0.448 1.189-0.744 2.579z"></path>
<path d="M349.743 574.821c-0.448 2.033-0.695 6.2-0.645 10.764 0.049 6.3 0.248 8.185 1.34 12.304 7.738 29.169 37.058 53.825 81.358 68.361 17.463 5.755 37.902 9.674 59.132 11.36 10.219 0.844 34.031 0.695 44.647-0.248 50.601-4.415 92.57-20.934 117.82-46.335 13.096-13.196 19.843-26.342 21.282-41.472 0.448-5.159 0.049-12.552-0.992-16.271l-0.545-2.085-1.637 5.011c-3.422 10.367-8.83 19.1-17.711 28.227-3.226 3.374-8.434 8.085-11.559 10.516-56.654 43.903-165.739 50.551-237.324 14.534-22.77-11.459-39.984-26.886-48.617-43.654-2.233-4.366-5.011-11.659-5.011-13.196 0-0.348-0.199-0.744-0.448-0.893s-0.744 1.24-1.092 3.074z"></path>
<path d="M699.034 579.484c-1.041 4.614-1.189 14.486-0.297 19.693 2.381 13.542 9.126 25.697 20.886 37.505 36.413 36.613 109.534 54.521 181.318 44.35 30.012-4.267 59.48-14.337 80.117-27.383 11.756-7.441 23.563-17.959 30.16-26.886 5.904-7.986 10.319-17.808 11.956-26.541 1.24-6.448 0.942-17.511-0.545-22.571-0.199-0.695-0.695 0.297-1.686 3.422-1.985 6.448-6.3 14.734-10.764 20.637-21.778 28.922-66.228 49.31-120.647 55.362-9.723 1.092-36.513 1.489-47.425 0.744-32.79-2.281-62.606-9.922-87.459-22.423-14.634-7.341-24.208-14.137-34.328-24.208-9.871-9.922-15.627-19-19.049-29.963-0.744-2.381-1.438-4.315-1.489-4.315-0.1 0-0.448 1.189-0.744 2.579z"></path>
<path d="M349.841 611.977c-1.686 8.185-1.041 18.752 1.686 27.134 11.411 34.924 55.413 63.002 114.497 72.973 27.086 4.564 58.488 4.911 85.921 0.942 18.356-2.63 38.347-7.937 54.321-14.386 8.482-3.374 21.082-10.021 28.623-15.030 25.993-17.263 39.835-38.398 39.935-60.969 0-5.259-0.893-12.8-1.589-13.245-0.199-0.148-0.744 1.141-1.24 2.778-10.119 36.213-57.843 66.228-119.805 75.355-14.437 2.133-22.471 2.63-39.935 2.678-17.66 0-26.689-0.596-40.928-2.73-60.473-9.078-106.608-37.306-118.613-72.528-1.041-2.978-1.985-5.507-2.085-5.605-0.1-0.148-0.496 1.092-0.793 2.63z"></path>
<path d="M1.345 615.104c-1.389 3.919-1.686 16.619-0.496 22.819 8.185 43.16 66.724 77.388 141.831 82.845 8.978 0.645 31.897 0.645 40.48 0 59.282-4.564 108.345-26.093 130.717-57.397 9.774-13.641 13.79-28.871 11.559-43.458-0.844-5.358-1.141-5.456-2.63-0.793-7.738 24.408-32.69 46.583-67.765 60.324-26.638 10.467-53.825 15.675-85.573 16.371-61.961 1.389-118.96-17.263-148.874-48.617-8.482-8.93-13.889-17.511-17.263-27.631-0.942-2.826-1.837-4.863-1.985-4.464z"></path>
<path d="M698.935 617.434c-0.396 1.837-0.645 5.853-0.596 11.063 0.049 7.144 0.199 8.782 1.34 12.997 10.567 39.638 61.117 70.047 130.072 78.281 11.26 1.389 38.546 1.934 50.898 1.041 67.417-4.812 122.682-32.989 138.754-70.74 3.87-9.126 5.507-20.985 4.067-29.863-0.645-4.267-1.24-5.904-1.686-4.614-0.1 0.396-0.793 2.579-1.537 4.812-7.093 22.026-30.312 43.309-62.010 56.851-27.434 11.756-56.902 17.759-90.535 18.552-50.105 1.141-96.636-10.467-129.478-32.345-18.701-12.452-31.204-27.383-36.761-43.954-0.844-2.579-1.589-4.712-1.686-4.812s-0.448 1.141-0.844 2.73z"></path>
<path d="M1.345 652.805c-1.389 3.919-1.686 16.619-0.496 22.819 8.137 43.11 66.177 77.040 141.531 82.845 8.582 0.645 32.046 0.645 40.728 0 33.337-2.53 63.002-10.219 87.907-22.919 33.931-17.263 53.628-41.373 54.817-67.021 0.248-5.507-0.448-14.089-1.289-15.627-0.248-0.448-0.992 1.24-1.934 4.215-9.823 30.608-45.887 56.554-95.595 68.855-46.583 11.508-100.010 9.871-143.865-4.464-25.845-8.434-47.724-21.182-62.010-36.016-8.93-9.278-14.337-17.908-17.859-28.375-0.942-2.73-1.785-4.712-1.934-4.315z"></path>
<path d="M349.841 655.138c-4.215 20.538 4.812 43.010 24.259 60.424 25.052 22.471 62.606 37.009 109.138 42.217 9.723 1.092 37.602 1.489 48.269 0.744 44.499-3.274 82.796-15.923 110.379-36.513 6.697-4.96 16.767-15.030 20.886-20.834 6.697-9.526 11.063-20.737 11.906-30.856 0.496-5.655-0.248-15.875-1.34-17.711-0.148-0.248-0.992 1.837-1.885 4.663-5.556 16.966-19.745 33.337-39.886 46.036-40.332 25.4-102.241 35.965-160.184 27.383-50.353-7.489-91.924-28.822-110.775-56.751-3.819-5.755-6.003-10.119-8.085-16.222-0.893-2.73-1.737-5.060-1.885-5.208-0.1-0.1-0.448 1.092-0.793 2.63z"></path>
<path d="M699.034 654.642c-0.942 3.571-1.189 13.79-0.496 18.552 1.24 8.682 5.208 18.356 11.112 26.986 3.919 5.755 15.33 17.312 21.975 22.223 39.191 28.922 101.993 42.169 163.855 34.528 50.402-6.2 93.163-26.093 114.249-53.132 6.2-7.986 10.119-15.527 12.6-24.456 1.489-5.456 2.085-16.271 1.189-22.026-0.844-5.507-1.24-5.704-2.53-1.489-2.53 8.334-6.648 15.923-12.897 23.712-20.686 25.697-62.903 45.491-110.131 51.592-14.882 1.934-20.338 2.281-37.454 2.233-17.463-0.049-25.697-0.596-39.886-2.678-61.166-9.078-108.445-38.497-119.408-74.313-0.695-2.233-1.34-4.067-1.389-4.067-0.1 0-0.448 1.041-0.793 2.332z"></path>
</svg>
