<svg id="Capa_1" data-name="Capa 1" xmlns="http://www.w3.org/2000/svg" viewBox="0 0 495.29 238.85"><defs><style>.cls-1{fill:#191919;}</style></defs><title>Funding</title><path class="cls-1" d="M442,184.41c-5.63,0-10,1.2-13,3.69-1.77,1.38-3.38,3.71-5,6.93h36.11c-.41-4.44-3.22-7.57-8.63-9.27a28.48,28.48,0,0,0-9.51-1.36" transform="translate(-4.38 -151.68)"/><path class="cls-1" d="M409.86,198.83H377.71a8.19,8.19,0,0,0,5.47,7.41,27.34,27.34,0,0,0,10.73,2.19c4.52,0,8.07-.89,10.65-2.58a13.89,13.89,0,0,0,5.3-7" transform="translate(-4.38 -151.68)"/><path class="cls-1" d="M377.79,195h33.37c3-6,5.8-10.15,8.3-12.4q6.53-5.32,19.11-5.32c12.18,0,20.8,2.33,26,6.85,2.83,2.5,4.66,6.21,5.55,10.88h13.39v3.8H470.08c-.8,7.66-5.47,12.9-14.1,15.56-4.6,1.53-10.81,2.33-18.7,2.33v-7.1c6.27-.17,10.79-.72,13.7-1.69,5.16-1.61,8-4.66,8.69-9.1H422.28c-1.86,5.72-5,9.91-9.35,12.65s-10.48,4-18.22,4a39.39,39.39,0,0,1-18.86-4.42c-5.57-2.91-8.38-7-8.46-12.26h-9.18V195h9a15.49,15.49,0,0,1,8-12c4.83-2.83,11-4.27,18.7-4.44v6.93a28.71,28.71,0,0,0-9,1.61c-4.5,1.69-7,4.35-7.16,7.9m43.13-43.36c-43.63,0-78.85,20.31-78.85,45.3s35.31,45.38,78.85,45.38,78.75-20.31,78.75-45.38-35.23-45.3-78.75-45.3" transform="translate(-4.38 -151.68)"/><path class="cls-1" d="M420.92,248.4c-40,0-72.89-17.09-78-39.33a26.47,26.47,0,0,0-.8,6c0,25.16,35.23,45.38,78.77,45.38s78.83-20.22,78.83-45.38a26.47,26.47,0,0,0-.8-6c-5.16,22.25-38.05,39.33-77.95,39.33Zm0,0" transform="translate(-4.38 -151.68)"/><path class="cls-1" d="M420.92,266.63c-40,0-72.89-17.09-78-39.33a26.43,26.43,0,0,0-.8,6.13c0,25,35.23,45.3,78.77,45.3s78.83-20.33,78.83-45.3a26.43,26.43,0,0,0-.8-6.13c-5.16,22.16-38.05,39.33-77.95,39.33Zm0,0" transform="translate(-4.38 -151.68)"/><path class="cls-1" d="M420.92,284.77c-40,0-72.89-17.09-78-39.27a25.45,25.45,0,0,0-.8,6c0,25.07,35.23,45.32,78.77,45.32s78.83-20.25,78.83-45.32a25.45,25.45,0,0,0-.8-6c-5.16,22.18-38.05,39.27-77.95,39.27Zm0,0" transform="translate(-4.38 -151.68)"/><path class="cls-1" d="M420.92,303c-40,0-72.89-17.09-78-39.35a26.72,26.72,0,0,0-.8,6.13c0,25.07,35.23,45.32,78.77,45.32s78.83-20.24,78.83-45.32a26.72,26.72,0,0,0-.8-6.13C493.71,285.9,460.81,303,420.92,303Zm0,0" transform="translate(-4.38 -151.68)"/><path class="cls-1" d="M420.92,323.85c-40,0-72.89-17.17-78-39.33a26.47,26.47,0,0,0-.8,6c0,25.07,35.23,45.38,78.77,45.38s78.83-20.31,78.83-45.3a26.58,26.58,0,0,0-.8-6.13c-5.16,22.16-38.05,39.33-77.95,39.33Zm0,0" transform="translate(-4.38 -151.68)"/><path class="cls-1" d="M420.92,342.08c-40,0-72.89-17.17-78-39.33a26.47,26.47,0,0,0-.8,6c0,25.07,35.23,45.38,78.77,45.38s78.83-20.31,78.83-45.38a26.47,26.47,0,0,0-.8-6c-5.16,22.16-38.05,39.33-77.95,39.33Zm0,0" transform="translate(-4.38 -151.68)"/><path class="cls-1" d="M420.92,360.22c-40,0-72.89-17.09-78-39.33a26.42,26.42,0,0,0-.8,6.13c0,25,35.23,45.3,78.77,45.3S499.67,352,499.67,327a25.16,25.16,0,0,0-.8-6c-5.16,22.16-38.05,39.25-77.95,39.25Zm0,0" transform="translate(-4.38 -151.68)"/><path class="cls-1" d="M420.92,378.44c-40,0-72.89-17.17-78-39.33a26.32,26.32,0,0,0-.8,6c0,25.05,35.23,45.38,78.77,45.38s78.83-20.33,78.83-45.38a26.32,26.32,0,0,0-.8-6c-5.16,22.16-38.05,39.33-77.95,39.33Zm0,0" transform="translate(-4.38 -151.68)"/><path class="cls-1" d="M273.08,239.06c-5.65,0-10,1.22-13,3.63a20.67,20.67,0,0,0-5,7H291.2c-.39-4.52-3.22-7.66-8.63-9.29a28.54,28.54,0,0,0-9.49-1.36" transform="translate(-4.38 -151.68)"/><path class="cls-1" d="M241,253.4H208.81a8.23,8.23,0,0,0,5.49,7.43A27.34,27.34,0,0,0,225.1,263c4.52,0,8-.8,10.57-2.58a13.19,13.19,0,0,0,5.32-7" transform="translate(-4.38 -151.68)"/><path class="cls-1" d="M209,249.62h33.37c3-6,5.8-10.15,8.32-12.42q6.53-5.32,19.09-5.32c12.18,0,20.8,2.35,25.88,6.85,2.83,2.5,4.68,6.21,5.65,10.9h13.29v3.78H301.29c-.89,7.66-5.57,12.82-14.12,15.56-4.66,1.53-10.88,2.27-18.7,2.27v-7c6.29-.25,10.79-.8,13.7-1.69,5.08-1.69,8-4.68,8.71-9.12H253.47c-1.86,5.65-5,9.93-9.35,12.59s-10.48,4.11-18.22,4.11A39.22,39.22,0,0,1,207,265.66c-5.55-2.91-8.46-7-8.54-12.26h-9.1v-3.78h9a15.77,15.77,0,0,1,8-12c4.77-2.83,11-4.27,18.7-4.44v6.93a28.48,28.48,0,0,0-8.94,1.69c-4.6,1.61-7,4.27-7.18,7.82m43-43.38c-43.52,0-78.75,20.25-78.75,45.3S208.5,296.86,252,296.86s78.75-20.25,78.75-45.32-35.23-45.3-78.75-45.3" transform="translate(-4.38 -151.68)"/><path class="cls-1" d="M252,303c-40,0-72.87-17.09-78-39.27a29,29,0,0,0-.8,6c0,25.07,35.31,45.38,78.83,45.38s78.75-20.31,78.75-45.38a24.42,24.42,0,0,0-.8-6C324.9,285.9,292,303,252,303Zm0,0" transform="translate(-4.38 -151.68)"/><path class="cls-1" d="M252,321.19c-40,0-72.87-17.17-78-39.33a30.57,30.57,0,0,0-.8,6c0,25.07,35.31,45.38,78.83,45.38S330.78,313,330.78,287.9a25.51,25.51,0,0,0-.8-6C324.9,304,292,321.19,252,321.19Zm0,0" transform="translate(-4.38 -151.68)"/><path class="cls-1" d="M252,339.33c-40,0-72.87-17.09-78-39.25a30.36,30.36,0,0,0-.8,6c0,25.07,35.31,45.38,78.83,45.38s78.75-20.31,78.75-45.38a25.37,25.37,0,0,0-.8-6c-5.08,22.16-38,39.25-77.95,39.25Zm0,0" transform="translate(-4.38 -151.68)"/><path class="cls-1" d="M252,357.55c-40,0-72.87-17.09-78-39.33a30.36,30.36,0,0,0-.8,6c0,25.07,35.31,45.38,78.83,45.38s78.75-20.31,78.75-45.38a25.36,25.36,0,0,0-.8-6c-5.08,22.25-38,39.33-77.95,39.33Zm0,0" transform="translate(-4.38 -151.68)"/><path class="cls-1" d="M252,378.44c-40,0-72.87-17.09-78-39.33a30.19,30.19,0,0,0-.8,6.13c0,25,35.31,45.3,78.83,45.3s78.75-20.33,78.75-45.3a25.35,25.35,0,0,0-.8-6.13c-5.08,22.25-38,39.33-77.95,39.33Zm0,0" transform="translate(-4.38 -151.68)"/><path class="cls-1" d="M104.27,296.22c-5.74,0-10,1.28-13,3.69-1.77,1.38-3.38,3.71-5,7h36.11c-.41-4.52-3.24-7.66-8.63-9.35a30.76,30.76,0,0,0-9.51-1.36" transform="translate(-4.38 -151.68)"/><path class="cls-1" d="M72.09,310.65H39.94a8.25,8.25,0,0,0,5.47,7.41,26.54,26.54,0,0,0,10.81,2.19c4.5,0,8-.8,10.63-2.58a12.73,12.73,0,0,0,5.24-7" transform="translate(-4.38 -151.68)"/><path class="cls-1" d="M40.09,306.93H73.48c3-6.13,5.8-10.24,8.38-12.49,4.27-3.55,10.65-5.24,19-5.24,12.18,0,20.8,2.25,26,6.77,2.81,2.5,4.66,6.21,5.55,11h13.39v3.72H132.4c-.8,7.66-5.47,12.9-14.09,15.64-4.6,1.44-10.81,2.25-18.72,2.25v-7c6.29-.25,10.81-.8,13.7-1.77,5.16-1.61,8.07-4.66,8.71-9.1H84.68c-1.94,5.72-5.08,9.91-9.43,12.65s-10.48,4-18.22,4A40,40,0,0,1,38.17,323q-8.36-4.46-8.46-12.32H20.5v-3.8h9a15.64,15.64,0,0,1,8-12c4.77-2.83,11-4.27,18.8-4.44v6.93a31.39,31.39,0,0,0-9,1.61c-4.52,1.69-7,4.35-7.18,8m43.13-43.44c-43.61,0-78.83,20.31-78.83,45.3s35.23,45.38,78.83,45.38S162,333.86,162,308.79s-35.23-45.3-78.77-45.3" transform="translate(-4.38 -151.68)"/><path class="cls-1" d="M83.22,360.22c-40,0-72.87-17.09-78.11-39.33A31.67,31.67,0,0,0,4.38,327c0,25.07,35.23,45.3,78.75,45.3S162,352.09,162,327a30.06,30.06,0,0,0-.8-6c-5.08,22.16-38.06,39.25-78,39.25Zm0,0" transform="translate(-4.38 -151.68)"/><path class="cls-1" d="M83.22,378.44c-40,0-72.87-17.09-78.11-39.33a31.67,31.67,0,0,0-.72,6.13c0,25,35.23,45.3,78.75,45.3S162,370.2,162,345.23a31.72,31.72,0,0,0-.8-6.13c-5.08,22.25-38.06,39.33-78,39.33Zm0,0" transform="translate(-4.38 -151.68)"/></svg>