<!-- Generated by IcoMoon.io -->
<svg version="1.1" xmlns="http://www.w3.org/2000/svg" width="1024" height="1024" viewBox="0 0 1024 1024">
<title></title>
<g id="icomoon-ignore">
</g>
<path d="M883.017 269.261l132.154-131.994c5.433-5.43 8.794-12.931 8.794-21.219 0-16.565-13.427-29.995-29.992-29.999h-59.997v-55.998c0-0.006 0-0.013 0-0.019 0-16.568-13.43-29.999-29.999-29.999-8.458 0-16.098 3.5-21.551 9.131l-0.008 0.008-127.994 132.174c-5.222 5.392-8.44 12.749-8.44 20.86 0 0.007 0 0.014 0 0.020v-0.001 69.477c-81.676-70.697-185.292-109.275-295.187-109.275-248.959 0-450.78 201.821-450.78 450.78s201.821 450.78 450.78 450.78c248.952 0 450.769-201.81 450.78-450.759v-0.001c0-109.895-38.578-213.511-109.275-295.187h69.517c8.279-0.002 15.772-3.357 21.199-8.78v0zM727.564 850.015c-73.577 73.497-171.832 113.995-276.768 113.995-217.071 0-390.783-173.632-390.783-390.783 0-0.033 0-0.073 0-0.113 0-216.012 175.111-391.123 391.123-391.123 97.388 0 186.462 35.593 254.924 94.481l-0.515-0.433-42.598 42.598c-56.69-47.451-130.389-76.269-210.819-76.269-181.981 0-329.506 147.525-329.506 329.506s147.525 329.506 329.506 329.506c181.981 0 329.506-147.525 329.506-329.506 0-80.429-28.817-154.129-76.69-211.337l0.421 0.517 42.598-42.598c131.874 153.573 125.055 386.063-20.399 531.557zM601.709 573.227c0 138.174-166.333 198.691-257.989 107.055s-31.499-257.989 107.055-257.989c0.212-0.001 0.463-0.002 0.715-0.002 30.89 0 59.617 9.258 83.56 25.149l-0.559-0.349-43.898 43.898c-11.308-5.518-24.603-8.745-38.651-8.745-49.593 0-89.796 40.203-89.796 89.796s40.203 89.796 89.796 89.796c49.593 0 89.796-40.203 89.796-89.796 0-14.034-3.22-27.316-8.96-39.148l0.234 0.534 43.898-43.898c15.543 23.384 24.801 52.112 24.801 83.001 0 0.244-0.001 0.488-0.002 0.732v-0.038zM481.714 572.227c-0.060 16.522-13.467 29.893-29.999 29.893-8.238 0-15.7-3.321-21.121-8.696l0.002 0.002c-5.449-5.432-8.82-12.945-8.82-21.245 0-16.568 13.43-29.999 29.999-29.999s29.999 13.43 29.999 29.999c0 0.009 0 0.019 0 0.028v-0.001zM577.57 404.035c-34.562-26.072-78.237-41.758-125.574-41.758-115.809 0-209.691 93.882-209.691 209.691s93.882 209.691 209.691 209.691c115.809 0 209.691-93.882 209.691-209.691 0-47.303-15.662-90.947-42.084-126.029l0.386 0.535 42.758-42.758c36.698 45.687 58.9 104.381 58.9 168.262 0 0.433-0.001 0.865-0.003 1.298v-0.067c0 150.693-119.995 270.848-270.848 270.848s-270.788-120.035-270.788-270.828 119.995-270.848 270.788-270.848c0.364-0.002 0.795-0.003 1.226-0.003 63.891 0 122.596 22.209 168.814 59.329l-0.527-0.409zM805.98 218.043v-43.678l67.997-70.217v11.899c0 16.568 13.43 29.999 29.999 29.999v0h17.519l-71.997 71.997z"></path>
</svg>
