<svg id="Capa_1" data-name="Capa 1" xmlns="http://www.w3.org/2000/svg" viewBox="0 0 512 512"><defs><style>.cls-1{fill:#191919;}</style></defs><title>goal</title><path class="cls-1" d="M441.52,134.61l66.08-66A15,15,0,0,0,497,43H467V15A15,15,0,0,0,441.22,4.56l-64,66.09A15,15,0,0,0,373,81.09v34.74c-40.84-35.35-92.65-54.64-147.6-54.64A225.4,225.4,0,1,0,450.8,286.6c0-54.95-19.29-106.76-54.64-147.6h34.76A15,15,0,0,0,441.52,134.61ZM363.79,425C327,461.75,277.87,482,225.4,482,116.86,482,30,395.18,30,286.6A195.57,195.57,0,0,1,352.78,138l-21.3,21.3a164.76,164.76,0,1,0,21.21,21.21l21.3-21.3C439.93,236,436.52,352.25,363.79,425ZM300.86,286.6c0,69.09-83.17,99.35-129,53.53s-15.75-129,53.53-129a75.65,75.65,0,0,1,41.86,12.4l-21.95,21.95a44.9,44.9,0,1,0,21.21,21.22l21.95-21.95A75.65,75.65,0,0,1,300.86,286.6Zm-60-.5A15,15,0,0,1,215.3,296.7h0a15,15,0,1,1,25.59-10.61ZM288.79,202A104.85,104.85,0,1,0,310,223.22l21.38-21.38a134.9,134.9,0,0,1,29.45,84.75c0,75.35-60,135.43-135.43,135.43S90,362,90,286.6,150,151.17,225.4,151.17a134.9,134.9,0,0,1,84.76,29.46ZM403,109V87.16l34-35.11V58a15,15,0,0,0,15,15h8.76l-36,36Z" transform="translate(0 0)"/></svg>