<svg id="Capa_1" data-name="Capa 1" xmlns="http://www.w3.org/2000/svg" xmlns:xlink="http://www.w3.org/1999/xlink" viewBox="0 0 512 512"><defs><style>.cls-1{fill:none;}.cls-2{clip-path:url(#clip-path);}.cls-3{fill:#191919;}</style><clipPath id="clip-path"><rect class="cls-1" x="2" y="62.65" width="512" height="406.35"/></clipPath></defs><title>Home</title><g class="cls-2"><path class="cls-3" d="M256.16,144.3,74.86,293.78a3.61,3.61,0,0,1-.15.94,4.87,4.87,0,0,0-.15.94V447a20.49,20.49,0,0,0,20.16,20.18H215.81V346.1h80.73V467.19H417.61A20.49,20.49,0,0,0,437.79,447V295.66a4.4,4.4,0,0,0-.32-1.89Zm0,0"/><path class="cls-3" d="M506.82,259.72l-69-57.39V73.68A9.7,9.7,0,0,0,427.68,63.6H367.15a9.7,9.7,0,0,0-10.09,10.09v61.49L280.14,70.86a39.09,39.09,0,0,0-47.92,0L5.5,259.72A9.13,9.13,0,0,0,2,266.49a10.29,10.29,0,0,0,2.21,7.43l19.54,23.32a10.74,10.74,0,0,0,6.61,3.48A11.73,11.73,0,0,0,38,298.5L256.16,116.56,474.36,298.5a9.66,9.66,0,0,0,6.61,2.21h1a10.78,10.78,0,0,0,6.61-3.48l19.56-23.34a10.2,10.2,0,0,0,2.19-7.41,9.15,9.15,0,0,0-3.48-6.77Zm0,0"/></g></svg>