<!-- Generated by IcoMoon.io -->
<svg version="1.1" xmlns="http://www.w3.org/2000/svg" width="1024" height="1024" viewBox="0 0 1024 1024">
<title></title>
<g id="icomoon-ignore">
</g>
<path d="M511.984 269.070l-365.132 301.047c-0.018 0.682-0.127 1.33-0.315 1.944l0.013-0.051c-0.152 0.554-0.259 1.2-0.301 1.865l-0.001 0.028v304.793c0.345 22.292 18.313 40.274 40.566 40.642h243.906v-243.851h162.587v243.871h243.831c22.313-0.345 40.307-18.348 40.642-40.63v-304.826c0.008-0.137 0.012-0.298 0.012-0.459 0-1.206-0.242-2.357-0.678-3.406l0.021 0.058z"></path>
<path d="M1016.804 501.521l-138.964-115.581v-259.096c0.010-0.235 0.016-0.51 0.016-0.786 0-10.789-8.747-19.535-19.535-19.535-0.317 0-0.632 0.008-0.947 0.022l0.044-0.002h-121.905c-0.24-0.010-0.52-0.016-0.802-0.016-10.789 0-19.535 8.747-19.535 19.535 0 0.282 0.006 0.563 0.018 0.842l-0.001-0.040v123.839l-154.914-129.538c-13.182-10.304-29.992-16.523-48.255-16.523s-35.072 6.218-48.429 16.653l0.174-0.131-456.606 380.357c-4.1 3.223-6.783 8.091-7.047 13.592l-0.002 0.042c-0.062 0.602-0.098 1.301-0.098 2.009 0 4.92 1.715 9.44 4.58 12.995l-0.031-0.040 39.353 46.966c3.366 3.743 7.99 6.298 13.202 6.997l0.111 0.012c0.446 0.030 0.967 0.047 1.492 0.047 5.222 0 10.050-1.695 13.961-4.565l-0.066 0.046 439.366-366.421 439.447 366.421c3.341 2.782 7.678 4.472 12.41 4.472 0.317 0 0.633-0.008 0.947-0.022l-0.044 0.002h2.014c5.32-0.718 9.942-3.271 13.295-6.989l0.017-0.019 39.393-47.006c2.813-3.485 4.515-7.969 4.515-12.85 0-0.73-0.038-1.451-0.113-2.162l0.007 0.089c-0.262-5.536-2.928-10.401-6.97-13.605l-0.038-0.029z"></path>
</svg>
