<!-- Generated by IcoMoon.io -->
<svg version="1.1" xmlns="http://www.w3.org/2000/svg" width="1024" height="1024" viewBox="0 0 1024 1024">
<title></title>
<g id="icomoon-ignore">
</g>
<path fill="#000" d="M558.815 240.449c47.121-0.604 84.576-39.268 83.972-85.784 0-46.517-37.455-83.972-83.972-83.972s-83.972 37.455-83.972 83.972c-0.604 47.121 36.851 85.18 83.972 85.784 0 0 0 0 0 0z"></path>
<path fill="#000" d="M195.136 204.806l61.62 8.457-79.743 83.972 18.123-92.43zM322.001 470.618l-50.746-42.288 94.847-42.288-44.1 84.576zM538.276 816.173c-12.082 8.457-33.227 22.957-33.227 22.957l-10.27 25.373-14.498 16.915h-25.977l-64.037 48.329h633.72l-28.394-29.602-22.957-23.561-36.851 2.416-24.769-27.186c0 0-18.728-31.414-18.728-38.059s4.229-29.602-1.812-33.227-26.581-16.915-26.581-16.915l-48.933 1.812-26.581-33.227-26.581-38.059-32.622-6.645c0 0-20.54 1.812-28.998 12.686s-26.581 18.728-45.309 27.186c-5.437 2.416-10.27 4.833-15.707 7.853l-247.689-207.213 119.615-237.418-120.823-178.819h-254.334l-33.227 175.194-49.537-41.080c-10.27-8.457-25.977-7.249-34.435 3.021 0 0 0 0.604-0.604 0.604-8.457 10.874-6.645 26.581 3.625 35.039l96.055 79.743-60.412 67.057 4.229 232.585-59.808 225.94c-7.249 26.581 7.853 54.37 34.435 61.62 4.229 1.208 8.457 1.812 12.686 1.812 22.353 0 42.288-15.103 47.725-37.455l63.433-239.835 10.27-180.027 125.656 152.238-117.199 221.711c-12.686 24.165-4.229 54.974 19.936 68.265 7.249 4.229 15.103 6.041 23.561 6.041 18.123 0 35.039-10.27 43.496-26.581l149.217-282.123-59.808-72.494 247.085 206.609-16.915 23.561c-16.311 6.645-32.018 14.498-47.121 22.957z"></path>
</svg>
