<!-- Generated by IcoMoon.io -->
<svg version="1.1" xmlns="http://www.w3.org/2000/svg" width="1024" height="1024" viewBox="0 0 1024 1024">
<title></title>
<g id="icomoon-ignore">
</g>
<path d="M851.855 406.177s75.034 33.125 69.786 204.18l54.090 54.022s57.581-132.545 36.639-246.066c0 0-1.734-106.47-191.952-247.777 0 0-94.265 10.426-87.261-87.284l-75.034-75.079-136.127 136.127 66.387 66.387s164.051 6.845 106.47 141.306l-246.134 247.868-47.133-7.050-280.879 281.039s-19.323 68.007 29.657 109.916c0 0 31.391 38.441 97.732 36.639l275.654-286.149 5.248-47.133 280.925-279.236s15.742-24.433 41.932-1.734zM319.551 437.5l117.215 118.949 120.431-120.409-120.728-122.394c97.732-223.434-183.237-310.65-183.237-310.65-52.333-14.008-41.886 26.143-41.886 26.143 109.961 90.729 92.486 120.409 92.486 120.409-13.939 104.736-104.714 144.911-104.714 144.911-90.729 38.281-165.762-89.018-165.762-89.018-29.657-5.248-26.189 27.946-26.189 27.946 73.323 322.924 312.384 204.111 312.384 204.111zM561.236 692.783l316.765 331.205 136.15-136.127-330.794-317.107-122.12 122.028z"></path>
</svg>
