<?xml version="1.0" encoding="utf-8"?>
<!-- Generator: Adobe Illustrator 21.0.0, SVG Export Plug-In . SVG Version: 6.00 Build 0)  -->
<svg version="1.1" id="Layer_1" xmlns="http://www.w3.org/2000/svg" xmlns:xlink="http://www.w3.org/1999/xlink" x="0px" y="0px"
	 viewBox="0 0 1128.3 1221.5" style="enable-background:new 0 0 1128.3 1221.5;" xml:space="preserve">
<path d="M829.6,650.3H281c-9.4,0-17.1,7.6-17.1,17.1v69.4c0,9.2,7.2,17.5,16.3,17.1c9.8-0.4,17.8,7.4,17.8,17.1v68.3
	c0,9.4,7.6,17.1,17.1,17.1h52.4c9.4,0,17.1-7.6,17.1-17.1v-68.3c0-18.9,15.3-34.1,34.1-34.1h273.2c18.9,0,34.1,15.3,34.1,34.1v68.3
	c0,9.4,7.6,17.1,17.1,17.1h52.4c9.4,0,17.1-7.6,17.1-17.1v-68.3c0-9.1,7.2-17.5,16.3-17.1c9.8,0.4,17.9-7.4,17.9-17.1v-69.4
	C846.7,657.9,839,650.3,829.6,650.3L829.6,650.3z M829.6,650.3"/>
<path d="M665.9,829.5c-0.8-1.2-1.3-2.6-1.3-4v-0.9l-15.1-57.8H569v19.6c0,5.4-6.1,9.8-13.7,9.8s-13.7-4.4-13.7-9.8v-19.6h-80.5
	l-15.1,57.8v0.9c0,1.5-0.5,2.8-1.3,4l-39.5,151.4c-0.8,2.9,0.3,5.8,2.9,8.1c2.6,2.2,6.4,3.5,10.5,3.5H692c4.1,0,7.9-1.3,10.5-3.5
	c2.6-2.2,3.7-5.2,2.9-8.1L665.9,829.5z M569,963.1c0,5.4-6.1,9.8-13.7,9.8s-13.7-4.4-13.7-9.8v-19.6c0-5.4,6.1-9.8,13.7-9.8
	s13.7,4.4,13.7,9.8V963.1z M569,903.8c0,5.4-6.1,9.8-13.7,9.8s-13.7-4.4-13.7-9.8v-19.6c0-5.4,6.1-9.8,13.7-9.8s13.7,4.4,13.7,9.8
	V903.8z M569,845c0,5.4-6.1,9.8-13.7,9.8s-13.7-4.4-13.7-9.8v-19.6c0-5.4,6.1-9.8,13.7-9.8s13.7,4.4,13.7,9.8V845z M569,845"/>
<g>
	<path d="M512,362.2v71.7h26.1v-45.7c0-3.6,2.9-6.5,6.5-6.5h39.1c3.6,0,6.5,2.9,6.5,6.5v45.7h26.1v-71.7c0-3.6,2.9-6.5,6.5-6.5h6.9
		l-65.6-50.5l-65.6,50.5h6.9C509.1,355.6,512,358.6,512,362.2L512,362.2z M512,362.2"/>
	<rect x="551.1" y="394.8" width="26.1" height="39.1"/>
	<path d="M564.2,612.7c24.5-30.6,130.4-166.6,130.4-231c0-72-58.4-130.4-130.4-130.4c-72,0-130.4,58.4-130.4,130.4
		C433.7,446.1,539.6,582,564.2,612.7L564.2,612.7z M475.4,357l84.8-65.2c2.3-1.8,5.6-1.8,8,0l84.8,65.2c2.2,1.7,3.1,4.6,2.2,7.3
		c-0.9,2.6-3.4,4.4-6.1,4.4h-19.6v71.7c0,3.6-2.9,6.5-6.5,6.5H505.5c-3.6,0-6.5-2.9-6.5-6.5v-71.7h-19.6c-2.8,0-5.3-1.8-6.2-4.4
		C472.3,361.6,473.2,358.7,475.4,357L475.4,357z M475.4,357"/>
</g>
</svg>
