<!-- Generated by IcoMoon.io -->
<svg version="1.1" xmlns="http://www.w3.org/2000/svg" width="1024" height="1024" viewBox="0 0 1024 1024">
<title></title>
<g id="icomoon-ignore">
</g>
<path d="M890.884 551.235h-757.906c-12.986 0-23.624 10.499-23.624 23.624v95.878c0 12.709 9.947 24.176 22.52 23.624 13.538-0.552 24.592 10.224 24.592 23.624v94.359c0 12.986 10.499 23.624 23.624 23.624h72.393c12.986 0 23.624-10.499 23.624-23.624v-94.359c0-26.111 21.137-47.109 47.109-47.109h377.433c26.111 0 47.109 21.137 47.109 47.109v94.359c0 12.986 10.499 23.624 23.624 23.624h72.393c12.986 0 23.624-10.499 23.624-23.624v-94.359c0-12.572 9.947-24.176 22.52-23.624 13.538 0.552 24.73-10.224 24.73-23.624v-95.878c-0.138-13.124-10.776-23.624-23.763-23.624v0z"></path>
<path d="M664.728 798.805c-1.106-1.658-1.796-3.593-1.796-5.526v-1.243l-20.862-79.853h-111.212v27.078c0 7.46-8.428 13.538-18.928 13.538s-18.928-6.079-18.928-13.538v-27.078h-111.212l-20.862 79.853v1.243c0 2.071-0.69 3.868-1.796 5.526l-54.57 209.164c-1.106 4.006 0.414 8.012 4.006 11.189 3.593 3.039 8.841 4.835 14.505 4.835h377.71c5.664 0 10.914-1.796 14.505-4.835s5.112-7.183 4.006-11.189l-54.57-209.164zM530.858 983.378c0 7.46-8.428 13.538-18.928 13.538s-18.928-6.079-18.928-13.538v-27.078c0-7.46 8.428-13.538 18.928-13.538s18.928 6.079 18.928 13.538v27.078zM530.858 901.453c0 7.46-8.428 13.538-18.928 13.538s-18.928-6.079-18.928-13.538v-27.078c0-7.46 8.428-13.538 18.928-13.538s18.928 6.079 18.928 13.538v27.078zM530.858 820.219c0 7.46-8.428 13.538-18.928 13.538s-18.928-6.079-18.928-13.538v-27.078c0-7.46 8.428-13.538 18.928-13.538s18.928 6.079 18.928 13.538v27.078z"></path>
<path d="M452.112 153.218v99.056h36.058v-63.136c0-4.973 4.006-8.98 8.98-8.98h54.018c4.973 0 8.98 4.006 8.98 8.98v63.136h36.058v-99.056c0-4.973 4.006-8.98 8.98-8.98h9.532l-90.628-69.767-90.628 69.767h9.532c5.112-0.138 9.118 4.006 9.118 8.98v0z"></path>
<path d="M506.13 198.255h36.058v54.018h-36.058v-54.018z"></path>
<path d="M524.227 499.291c33.848-42.274 180.151-230.163 180.151-319.132 0-99.471-80.682-180.151-180.151-180.151s-180.151 80.682-180.151 180.151c-0.138 88.97 146.166 276.72 180.151 319.132v0zM401.547 146.033l117.153-90.076c3.177-2.487 7.737-2.487 11.053 0l117.153 90.076c3.039 2.348 4.283 6.354 3.039 10.085-1.243 3.593-4.697 6.079-8.428 6.079h-27.078v99.056c0 4.973-4.006 8.98-8.98 8.98h-162.33c-4.973 0-8.98-4.006-8.98-8.98v-99.056h-27.078c-3.868 0-7.322-2.487-8.566-6.079-1.243-3.729 0-7.737 3.039-10.085v0z"></path>
</svg>
