<!-- Generated by IcoMoon.io -->
<svg version="1.1" xmlns="http://www.w3.org/2000/svg" width="1024" height="1024" viewBox="0 0 1024 1024">
<title></title>
<g id="icomoon-ignore">
</g>
<path d="M501.063 78.138c-6.481-0.030-12.321-2.747-16.469-7.093l-0.008-0.009c-3.92-3.92-6.344-9.336-6.344-15.317 0-0.346 0.008-0.69 0.024-1.032l-0.002 0.049c0.162-6.334 2.928-11.992 7.264-15.966l0.017-0.015c4.045-4.030 9.626-6.522 15.789-6.522 0.355 0 0.707 0.008 1.059 0.024l-0.050-0.002c6.481 0.035 12.319 2.75 16.469 7.094l0.008 0.008c4.104 4.122 6.642 9.808 6.642 16.086 0 0.076 0 0.151-0.001 0.227v-0.011c0 0.040 0 0.088 0 0.136 0 6.325-2.812 11.992-7.254 15.822l-0.027 0.022c-4.176 3.93-9.817 6.346-16.023 6.346-0.372 0-0.743-0.008-1.111-0.026l0.052 0.002z"></path>
<path d="M420.982 154.49l34.837-18.112 28.41-43.467c4.731-5.909 11.945-9.66 20.035-9.66 0.073 0 0.146 0 0.219 0.001h-0.011c6.169 0.184 11.72 2.681 15.846 6.648l-0.007-0.007 43.112 41.798c1.203 1.519 2.084 3.349 2.507 5.349l0.015 0.085 5.682 46.486v1.208c-0.013 2.812-1.227 5.339-3.153 7.096l-0.007 0.007c-1.917 1.868-4.54 3.020-7.432 3.020-0.059 0-0.118-0.001-0.177-0.002h0.008c-0.087 0.003-0.189 0.005-0.292 0.005-2.753 0-5.235-1.16-6.984-3.018l-0.005-0.005c-1.77-1.754-3.029-4.021-3.537-6.559l-0.014-0.082-4.439-39.845-15.2-14.489 13.922 111.048 24.859 52.523c0.759 1.967 1.223 4.242 1.278 6.617v0.023c0.002 0.081 0.003 0.176 0.003 0.273 0 4.296-1.829 8.164-4.752 10.87l-0.009 0.008c-2.581 2.484-6.095 4.013-9.967 4.013-0.618 0-1.226-0.039-1.823-0.114l0.071 0.007c-0.181 0.008-0.394 0.012-0.607 0.012-5.855 0-10.911-3.422-13.275-8.376l-0.038-0.089-26.6-56.82c-0.1-0.793-0.325-1.512-0.657-2.169l0.018 0.038q-0.639-1.527-1.278-2.699c-0.392-0.697-0.627-1.527-0.639-2.411v-0.004l-3.161-27.168-27.239 89.315c-1.927 6.182-7.599 10.591-14.301 10.591-0.542 0-1.077-0.029-1.603-0.085l0.066 0.006c-0.037 0-0.082 0.001-0.127 0.001-4.273 0-8.143-1.723-10.955-4.512l0.001 0.001c-2.932-2.714-4.761-6.583-4.761-10.879 0-0.096 0.001-0.191 0.003-0.287v0.014c0.028-0.543 0.142-1.052 0.331-1.524l-0.011 0.032c0.176-0.439 0.29-0.948 0.32-1.48l0.001-0.012 37.821-123.904-4.262-40.448-10.654 16.301c-0.851 1.211-1.902 2.217-3.117 2.992l-0.044 0.026-37.359 19.922c-1.476 0.566-3.193 0.99-4.978 1.198l-0.1 0.009c-0.036 0-0.078 0.001-0.119 0.001-2.96 0-5.622-1.271-7.474-3.296l-0.007-0.007c-1.942-1.922-3.148-4.583-3.161-7.526v-0.003c-0.001-0.036-0.001-0.077-0.001-0.119 0-3.609 2.039-6.741 5.027-8.309l0.052-0.024z"></path>
<path d="M238.695 479.715c-0.009-4.826-1.109-9.392-3.064-13.47l0.082 0.188c-0.177-1.065-0.426-2.095-0.71-3.125l-20.704-51.351v-0.462c-7.103-21.592-17.579-41.549-43.716-41.549h-100.288c-26.812 0-36.258 20.456-43.68 41.442l-21.663 51.458c-3.073 4.778-4.909 10.606-4.936 16.861v15.989c0.010 2.525 0.32 4.973 0.897 7.315l-0.044-0.213c-0.535 1.337-0.848 2.886-0.853 4.508v47.517c0 6.963 5.645 12.607 12.607 12.607v0h26.209c6.963 0 12.607-5.645 12.607-12.607v0-23.616h137.185v23.759c0 6.963 5.645 12.607 12.607 12.607v0h24.859c6.963 0 12.607-5.645 12.607-12.607v0-47.551c-0.007-1.624-0.319-3.173-0.882-4.595l0.030 0.085c0.53-2.13 0.841-4.577 0.853-7.095v-0.007zM41.991 416.538c8.239-23.261 14.88-30.399 28.41-30.399h99.898c13.317 0 20.74 7.92 28.41 30.293l15.129 30.648c-4.74-1.799-10.221-2.841-15.946-2.841-0.050 0-0.099 0-0.149 0h-156.781c-0.028 0-0.062 0-0.095 0-5.185 0-10.171 0.844-14.831 2.404l0.33-0.096zM54.989 501.768h-27.665c-4.982 0-9.020-4.039-9.020-9.020s4.039-9.020 9.020-9.020v0h27.63c4.982 0 9.020 4.039 9.020 9.020s-4.039 9.020-9.020 9.020v0zM152.577 499.957h-64.278c-2.958-0.241-5.267-2.701-5.267-5.7s2.31-5.459 5.247-5.698l0.021-0.001h64.278c2.958 0.241 5.267 2.701 5.267 5.7s-2.31 5.459-5.247 5.698l-0.021 0.001zM210.534 501.768h-27.63c-4.982 0-9.020-4.039-9.020-9.020s4.039-9.020 9.020-9.020v0h27.63c4.982 0 9.020 4.039 9.020 9.020s-4.039 9.020-9.020 9.020v0z"></path>
<path d="M598.581 923.303c18.583 0.418 33.489 15.581 33.489 34.226 0 18.908-15.327 34.235-34.235 34.235-18.905 0-34.23-15.322-34.235-34.226v0c0.219-18.955 15.636-34.237 34.622-34.237 0.126 0 0.251 0.001 0.377 0.002h-0.019zM598.581 972.382c8.079-0.179 14.561-6.771 14.561-14.876 0-8.218-6.662-14.88-14.88-14.88s-14.878 6.66-14.88 14.876v0c0.1 8.239 6.803 14.881 15.056 14.881 0.051 0 0.1 0 0.151-0.001h-0.007z"></path>
<path d="M393.176 923.303c18.583 0.418 33.489 15.581 33.489 34.226 0 18.908-15.327 34.235-34.235 34.235-18.905 0-34.23-15.322-34.235-34.226v0c0.2-18.951 15.608-34.237 34.587-34.237 0.138 0 0.275 0.001 0.413 0.003h-0.021zM393.176 972.382c8.079-0.179 14.561-6.771 14.561-14.876 0-8.218-6.662-14.88-14.88-14.88s-14.878 6.66-14.88 14.876v0c0.080 8.236 6.775 14.881 15.022 14.881 0.063 0 0.126 0 0.187-0.001h-0.009z"></path>
<path d="M326.412 784.733h313.825c12.064 0.343 22.094 8.656 25.031 19.844l0.041 0.186 12.536 44.781c2.407 12.034 3.921 25.994 4.188 40.256l0.004 0.228v47.019c-0.159 11.332-9.384 20.457-20.738 20.457-0.063 0-0.127 0-0.189-0.001h-21.299c0-22.791-18.476-41.265-41.265-41.265s-41.265 18.476-41.265 41.265v0h-122.873c0-22.791-18.476-41.265-41.265-41.265s-41.265 18.476-41.265 41.265v0h-25.463c-0.053 0.001-0.116 0.001-0.18 0.001-11.354 0-20.578-9.125-20.738-20.442v-131.873c0.159-11.332 9.384-20.457 20.738-20.457 0.063 0 0.127 0 0.189 0.001h-0.009zM595.172 871.030h48.723l-7.706-17.757c-0.301-0.698-0.476-1.511-0.476-2.365 0-2.547 1.558-4.729 3.774-5.647l0.040-0.015c0.717-0.306 1.552-0.484 2.428-0.484 2.561 0 4.766 1.523 5.76 3.713l0.016 0.039 9.553 22.16c5.413-1.317 9.369-6.123 9.369-11.852 0-0.973-0.114-1.92-0.33-2.827l0.017 0.082-11.222-43.858c-2.045-8.559-9.524-14.862-18.513-15.093l-0.025-0.001h-41.408v74.008zM502.128 871.030h80.508v-74.008h-80.508zM409.085 871.030h80.508v-74.008h-80.436zM318.279 855.688c0.12 8.499 7.037 15.342 15.553 15.342 0.051 0 0.101 0 0.151-0.001h62.565v-74.008h-62.538c-0.043 0-0.093-0.001-0.143-0.001-8.516 0-15.434 6.843-15.553 15.331v0.011z"></path>
<path d="M958.040 469.559c-0.001 0-0.003 0-0.005 0-6.19 0-12.181 0.856-17.86 2.455l0.463-0.112-16.975-44.142 6.144-6.321c1.174-1.192 1.898-2.828 1.898-4.635s-0.725-3.443-1.899-4.636l-13.175-13.175c-1.189-1.198-2.833-1.942-4.651-1.953h-32.959c-0.145-0.011-0.314-0.018-0.484-0.018-3.648 0-6.605 2.957-6.605 6.605s2.957 6.605 6.605 6.605c0.171 0 0.339-0.007 0.506-0.019l-0.022 0.001h30.221l6.676 6.641-4.546 4.688c-1.16 1.189-1.875 2.816-1.875 4.61 0 0.831 0.154 1.628 0.434 2.36l-0.015-0.045 6.073 15.768-89.67 11.222v-12.287h19.639c0.145 0.011 0.314 0.018 0.484 0.018 3.648 0 6.605-2.957 6.605-6.605s-2.957-6.605-6.605-6.605c-0.171 0-0.339 0.007-0.506 0.019l0.022-0.001h-39.525c-3.434 0.26-6.122 3.11-6.122 6.587s2.687 6.328 6.099 6.586l0.022 0.001h6.605v17.97l-9.198 15.768c-8.811-4.666-19.262-7.404-30.352-7.404-36.401 0-65.911 29.51-65.911 65.911s29.51 65.911 65.911 65.911c31.745 0 58.247-22.442 64.51-52.325l0.075-0.429h9.056c2.772 7.796 10.086 13.277 18.681 13.277 10.925 0 19.781-8.856 19.781-19.781 0-4.612-1.578-8.855-4.224-12.219l0.032 0.042 42.224-65.663 4.724 12.359c-21.602 11.11-36.121 33.246-36.121 58.773 0 36.381 29.494 65.876 65.876 65.876s65.876-29.494 65.876-65.876c0-36.381-29.494-65.876-65.876-65.876-0.023 0-0.047 0-0.069 0h0.004zM865.706 522.295c-1.262 0.010-2.488 0.139-3.675 0.376l0.124-0.021-31.713-54.37 81.679-10.192-41.62 64.739c-1.337-0.317-2.873-0.499-4.451-0.499-0.096 0-0.191 0.001-0.287 0.002h0.014zM773.373 588.207c-0.016 0-0.036 0-0.054 0-29.126 0-52.736-23.612-52.736-52.736s23.612-52.736 52.736-52.736c8.659 0 16.83 2.087 24.039 5.785l-0.297-0.139-29.227 50.357c-0.573 0.955-0.912 2.107-0.912 3.339 0 3.628 2.941 6.57 6.57 6.57 0.008 0 0.017 0 0.024 0h51.137c-6.088 22.935-26.663 39.561-51.118 39.561-0.020 0-0.038 0-0.058 0h0.003zM826.074 535.47h-41.087l23.154-39.702c11.102 9.7 18.076 23.885 18.076 39.698 0 0.002 0 0.004 0 0.006v0zM814.746 484.225l4.759-8.168 31.039 53.269c-1.487 1.753-2.691 3.803-3.507 6.040l-0.044 0.139h-7.706c0-0.040 0-0.088 0-0.137 0-20.597-9.462-38.983-24.278-51.049l-0.12-0.095zM865.635 548.68c-3.648 0-6.605-2.957-6.605-6.605s2.957-6.605 6.605-6.605c3.648 0 6.605 2.957 6.605 6.605 0 0.012 0 0.025 0 0.037v-0.002c-0.038 3.568-2.901 6.455-6.456 6.534h-0.007zM957.968 588.207c-29.091-0.020-52.665-23.608-52.665-52.7 0-19.99 11.13-37.379 27.53-46.312l0.276-0.138 18.787 48.829c0.98 2.488 3.358 4.219 6.143 4.226h0.001c0.858-0.011 1.674-0.18 2.425-0.478l-0.046 0.016c2.498-0.98 4.235-3.37 4.235-6.166 0-0.848-0.159-1.658-0.451-2.403l0.015 0.045-18.822-48.829c3.826-0.992 8.217-1.562 12.742-1.562 29.126 0 52.736 23.612 52.736 52.736s-23.612 52.736-52.736 52.736c-0.035 0-0.070 0-0.105 0h0.006z"></path>
</svg>
