<?xml version="1.0" encoding="utf-8"?>
<!-- Generator: Adobe Illustrator 21.0.0, SVG Export Plug-In . SVG Version: 6.00 Build 0)  -->
<svg version="1.1" id="Layer_1" xmlns="http://www.w3.org/2000/svg" xmlns:xlink="http://www.w3.org/1999/xlink" x="0px" y="0px"
	 viewBox="0 0 1128.3 1221.5" style="enable-background:new 0 0 1128.3 1221.5;" xml:space="preserve">
<style type="text/css">
	.st0{fill-rule:evenodd;clip-rule:evenodd;fill:#010101;}
</style>
<path d="M829.6,650.3H281c-9.4,0-17.1,7.6-17.1,17.1v69.4c0,9.2,7.2,17.5,16.3,17.1c9.8-0.4,17.8,7.4,17.8,17.1v68.3
	c0,9.4,7.6,17.1,17.1,17.1h52.4c9.4,0,17.1-7.6,17.1-17.1v-68.3c0-18.9,15.3-34.1,34.1-34.1h273.2c18.9,0,34.1,15.3,34.1,34.1v68.3
	c0,9.4,7.6,17.1,17.1,17.1h52.4c9.4,0,17.1-7.6,17.1-17.1v-68.3c0-9.1,7.2-17.5,16.3-17.1c9.8,0.4,17.9-7.4,17.9-17.1v-69.4
	C846.7,657.9,839,650.3,829.6,650.3L829.6,650.3z M829.6,650.3"/>
<path d="M665.9,829.5c-0.8-1.2-1.3-2.6-1.3-4v-0.9l-15.1-57.8H569v19.6c0,5.4-6.1,9.8-13.7,9.8s-13.7-4.4-13.7-9.8v-19.6h-80.5
	l-15.1,57.8v0.9c0,1.5-0.5,2.8-1.3,4l-39.5,151.4c-0.8,2.9,0.3,5.8,2.9,8.1c2.6,2.2,6.4,3.5,10.5,3.5H692c4.1,0,7.9-1.3,10.5-3.5
	c2.6-2.2,3.7-5.2,2.9-8.1L665.9,829.5z M569,963.1c0,5.4-6.1,9.8-13.7,9.8s-13.7-4.4-13.7-9.8v-19.6c0-5.4,6.1-9.8,13.7-9.8
	s13.7,4.4,13.7,9.8V963.1z M569,903.8c0,5.4-6.1,9.8-13.7,9.8s-13.7-4.4-13.7-9.8v-19.6c0-5.4,6.1-9.8,13.7-9.8s13.7,4.4,13.7,9.8
	V903.8z M569,845c0,5.4-6.1,9.8-13.7,9.8s-13.7-4.4-13.7-9.8v-19.6c0-5.4,6.1-9.8,13.7-9.8s13.7,4.4,13.7,9.8V845z M569,845"/>
<path class="st0" d="M311,304.3l0.2,0.7l-0.3,0.4c0,0,0,0.5,0.7,1.3c0.7,0.8,1.6,0,1.6,0.6c0.1,0.6-0.1,0.9,0,1.1
	c0.1,0.2,0.7,1,0.6,1.5c-0.1,0.5-1.1-0.8-0.9-0.1c0.2,0.7,0.8,1.5,0.4,1.5c-0.4,0-1.2-0.5-0.8,0.2c0.3,0.6,1.7,1.4,1.8,1.8
	c0.1,0.4-1.6,0.7-1.4,1c0.2,0.3,1.4-0.7,1.4-0.4c0,0.4-0.9,0.7-0.5,1.2c0.4,0.5,1.2,0,1.2,0.3c0,0.3,1.2,1.5,0.9,1.7
	c-0.3,0.2-1.2,1.2-1.2,1.4c0,0.2-0.3,0.6-0.2,0.8c0,0.2,0.4,0.6,0.2,0.8c-0.2,0.2-0.2,0.4-0.3,0.5c-0.1,0.1-0.4,0.2-0.2,0.4
	c0.2,0.2,0.6,0.1,0.5,0.3c0,0.1,0.6,0.3,0.4,0.6c-0.2,0.2-0.7,0.3-0.6,0.7c0.2,0.4,0.3,0.7,0.3,0.9c0,0.2,0.3,0.5,0.2,0.7
	c-0.1,0.2,0.1,0.5-0.3,0.7c-0.4,0.2-0.3,0.2-0.4,0.3c0,0.1-0.2,0.6-0.4,0.4c-0.2-0.1-0.6-0.3-0.6-0.3s0.1,0-0.1,0.4
	c-0.2,0.3-0.3,1-0.6,1.4c-0.3,0.4-1.1,1.1-1.2,0.9c-0.1-0.2-0.2-0.7-0.5-0.6c-0.3,0.1-1.5,1.1-1.7,0.9c-0.2-0.2-1.7-0.9-1.5-1.1
	c0.1-0.1,0.8-0.5,1-0.6c0.2-0.1,1.9-2.2,2-2.1c0,0.1-0.5,1.9-0.1,1.8c0.4-0.1,0.5-1.9,0.8-1.8c0.3,0.1,1-0.9,1.1-0.6
	c0,0.3-0.5,1.4-0.1,1.4c0.4,0,0.7,0.2,0.7-0.2c0-0.4,0.1-0.9,0-1.3c-0.1-0.3,0.2-0.6,0.2-0.8c0-0.2-0.2-0.9-0.4-1
	c-0.2-0.1-1.1,1-1.2,0.6c0-0.5,0.3-0.7,0.2-0.8c-0.1-0.1-0.6-0.6-0.4-0.8c0.2-0.2,0.7,0.3,0.7,0c0-0.3-0.2-1.3,0-1.3s0.7,0.2,0.7,0
	c0-0.2,0.2-0.5,0.4-0.4c0.2,0.2,0.7,0.4,0.5,0.1c-0.2-0.3-0.4-1.1-0.7-0.8c-0.4,0.2-0.3,0.5-0.6,0.3c-0.2-0.1-0.7,0.1-0.9,0.5
	c-0.3,0.4-0.2,0.9-0.6,1.2c-0.4,0.3-1.2,0.8-1.3,0.9c-0.1,0.1-0.8,0-0.5-0.4c0.3-0.5,0.8-1,0.8-1.1c0-0.1,0.8-1.3,0.8-1
	c0,0.3,0.3,0.9,0.4,0.5c0.2-0.4,0.1-0.6,0.3-0.9c0.2-0.3,0.6-0.4,0.5-0.7c-0.1-0.3-0.4-1-0.7-1.3c-0.3-0.3-0.7-0.7-0.7-0.8
	c0-0.1,0.4-0.8,0.4-0.8s-0.5-0.4-0.8,0c-0.3,0.4,0.3,0.5,0.3,0.7c-0.1,0.2-0.1,0.3-0.2,0.5c-0.1,0.2-0.4,1.1-0.6,0.5
	c-0.2-0.5-0.2-1.2-0.5-1.3c-0.2-0.1,0,0.9-0.5,0.7c-0.5-0.2-0.8-1.1-0.9-1.2c-0.1-0.1-0.9-0.3-1.1-0.2c-0.2,0.1-1.6,0-1.8,0
	c-0.2,0-1.5,0-1.5,0s-0.2-0.3-0.3-0.2c-0.1,0.1-0.1,0.3-0.3,0.3c-0.1,0-0.5-0.5-0.7-0.4c-0.3,0.1-2.7,0.2-2.7,0.1
	c-0.1-0.1-0.3-0.2-0.5-0.3c-0.1,0-1.7-0.9-2.3-1.1c-0.6-0.2-2.7-1.1-3-1.4c-0.3-0.3-1-0.5-1.1-0.4c0,0.1,0.2,0.5,0.2,0.8
	c0,0.2-0.2,0.4-0.2,0.6c0,0.2-0.1,0.7-0.1,1.1c0,0.3-0.4,0.6-0.2,0.9c0.2,0.3,0.7,0.9,0.6,1.2c-0.1,0.2-0.5,0.3-0.3,0.6
	c0.2,0.2,0.3,0.5,0.4,0.7c0.1,0.2-0.1,0.3,0.1,0.5c0.2,0.2,0.3,0.1,0.5,0.3c0.2,0.2,1.3,0.8,1.6,1.4c0.2,0.6,0.3,1.1,0.4,1.3
	c0.1,0.2,0.2,0.1,0.2,0.6c0,0.5,0,0.7,0.1,0.9c0.1,0.2-0.3,0.9,0.1,1.5c0.4,0.6,0.8,0.9,0.9,1.5c0.2,0.6,0.2,0.8,0.4,1.3
	c0.2,0.5,0.2,0.8,0.2,1.1c0,0.3,0.4,0.8,0.6,0.8c0.2,0,0.7-0.2,0.8,0c0.1,0.2,0.2,0.6,0.3,0.7c0.2,0.1,2,0.3,1.6,0.5
	c-0.4,0.2-1.1,0.1-1.2,0.2c-0.1,0.1-0.4,0.2-0.5,0.3c-0.1,0-0.1,0.2-0.1,0.3c0,0.1-0.5,0.1-0.3,0.4c0.3,0.3,0.4,0.3,0.5,0.5
	c0,0.2-0.4,0.2,0,0.7c0.4,0.5,0.7,0,1.3,0.3c0.6,0.3,1.2,0.5,0.9,0.6c-0.4,0.2-1.4-0.6-1.4,0c0,0.6,0.4,0.7,0.4,1.2
	c0,0.5-0.5,1-0.5,1.4c0,0.4,0.2,0.7,0.1,0.9c-0.1,0.1-0.6,0.3-0.8,0.5c-0.2,0.3-0.2,0.7,0,0.8c0.2,0.1,0.8,0.6,1.4,0.8
	c0.6,0.2,3.2-0.3,3,0.1c-0.2,0.4-0.8,0.1-0.9,0.5c-0.1,0.4-1.2,0.4-1.3,0.2c-0.1-0.2-0.7-0.6-0.7-0.2c0,0.4,1.2,1.4,0.3,1
	c-0.9-0.4-0.7-1.4-1-1.1c-0.3,0.3-0.6,0.3-0.4,0.7c0.2,0.3,0.8,0.6,0.7,0.8c-0.1,0.2-0.3,0.6-0.4,1c-0.1,0.4-0.7,0.4-0.4,0.7
	s0.3,0.5,0.2,1c-0.1,0.5-0.4,0.5-0.3,1c0.2,0.5,0.3,0.6,0.3,0.8c0,0.2,0.5,0.4,0.3,0.7c-0.2,0.3-0.5,0.8-0.4,0.9
	c0.1,0.2,0.5,0.7,0.3,0.9c-0.2,0.3-0.8,0.1-0.6,0.5c0.3,0.4,0.5,0.7,0.4,0.8c0,0.1-0.5,0.7-0.4,0.9c0.1,0.2,0.2,0.3,0.3,0.4
	c0,0.1-0.2,0.7-0.2,1c0,0.4,0.4,0.5,0.2,0.9c-0.2,0.5-0.7,0.8-0.6,1.2c0.1,0.4,0,1.8-0.3,2.2c-0.3,0.4-0.4,0.6-0.4,1
	c0.1,0.4,0.3,1.4,0.2,1.7c-0.1,0.3-0.6,3.2-0.7,4.1c-0.1,0.9,0,2.6,0,2.6s-0.2,0.5-0.1,0.8c0.1,0.3,0.4,0.7,0.3,0.9
	s-0.4,0.1-0.3,0.3c0.1,0.2-0.3,1.7-0.3,2.1c0,0.3,0.8,1.1,0.4,1.2c-0.4,0.2-0.6,0.4-0.6,0.5c0,0.2,0,0.8-0.2,0.9
	c-0.2,0.1-0.5,1.2-0.5,1.2s-0.2,1.6-0.5,1.8c-0.3,0.3-0.5,0.2-0.6,0.4c-0.1,0.2-0.1,1.9-0.2,2c-0.1,0.1-0.1,1.6-0.3,1.9
	c-0.3,0.3-0.4,1.3-0.6,1.3c-0.1,0-0.6,0.7-0.5,0.9c0.1,0.2,0.3,0.7,0.3,0.9c0,0.2,1,1.2,1.2,1.5c0.1,0.3,0,0.4,0,0.6
	c0,0.2-0.1,1.1-0.2,1.4c-0.1,0.3,0.1,1.7,0.1,2c0,0.3-0.2,0.5,0.1,1c0.3,0.5,0.4,2,1,2.5c0.6,0.5,0.9,0.1,0.9,0.7
	c0,0.6,0.1,1.2,0,1.5c0,0.3-0.2,0.7-0.3,0.9c-0.1,0.1-0.4,0-0.2,0.3c0.2,0.3,0.6,0.2,0.7,0.5c0.2,0.3,0.3,0.7,0.4,1
	c0.1,0.3,0.9,2.7,0.8,3c-0.1,0.4-1.1,3.4-0.9,3.9c0.2,0.5,0.3,0.7,0.3,0.9c0,0.2-0.2,0.6-0.2,0.9c0,0.3-0.1,0.9,0,1.1
	c0.1,0.2,0.7,0.5,0.3,0.6c-0.3,0.1-0.6,0.1-0.6,0.2c0,0.1-0.2,0.5-0.3,0.6c-0.1,0.1-0.2,0.4-0.1,0.4c0,0,0.3,0.5-0.1,0.4
	c-0.5-0.1-0.6-0.1-0.6,0.1c0,0.1-0.1,0.8-0.1,0.9c-0.1,0.1-0.3,0.1-0.3,0.3c0,0.2-0.5,0.9-0.5,1.1c0.1,0.2-0.6,0.1-0.3,0.7
	c0.3,0.6,0.5,0.3,0.5,0.5c0,0.2,0.1,0.7,0.2,0.9c0.1,0.1-0.3,0.7,0,1.1c0.4,0.4,0.8,0,0.9,0.4c0.2,0.5,0.4,0.6,0.7,0.8
	c0.3,0.2,0.9,0.7,0.9,0.9c0.1,0.2-0.1,0.4,0.2,0.5s0.3,0.3,0.5,0.5c0.1,0.2,0.9,0.8,1,1c0,0.2,0.1,0.3,0.2,0.6
	c0.2,0.3,0.3,0.5,0.4,0.6c0,0.1,0,0.7,0.1,1.2c0.1,0.5,0.7,1,0.6,1.8c-0.1,0.8-0.4,0.6-0.4,1c0,0.5,0.2,1.3,0,1.4
	c-0.2,0.1-0.5,0-0.2,0.5c0.3,0.5,0.2,0.7,0.4,1c0.2,0.3,1.1,2.9,1,3.1c0,0.2-0.9,0.6-0.8,1.2c0.2,0.5,1.3,1.1,1.4,1.2
	c0.2,0.1,1,0.6,1.6,1.7c0.5,1.1,1.6,1.8,1.8,2.2c0.2,0.3,1.1,0.7,1.3,1.2c0.2,0.6,0.6,1.3,0.8,1.4c0.3,0.2,0.4,0.4,0.5,0.7
	c0.1,0.3,0.3,0.4,0.7,0.9c0.4,0.5,0.2,0.3-0.1,0.5c-0.3,0.2-0.3,0.4-0.3,0.6c0,0.2-1.1,0.7-0.4,1c0.7,0.3,1.3-0.2,1.5,0
	c0.2,0.2,1.4,1.3,1.9,1.6c0.5,0.3,0.9,0.5,1.1,0.7c0.1,0.2,0.5,0,0.4-0.2c-0.1-0.2,0-3.7,0.5-3.6c0.5,0.1,1.4-0.4,1.6,0.2
	c0.2,0.6,0.6,0.7,0.6,0.7s1.7-1.2,2-0.7c0.2,0.4,0.1,0.7,0.7,0.7c0.6-0.1,2.3-0.3,2.5-0.3c0.2,0,2.5,1.1,2,1
	c-0.5-0.2-1.5-0.5-1.5-0.5s-0.4-0.4-0.5-0.2c-0.1,0.3-0.2,0.3-0.2,0.5c0,0.2,0.3,0.3,0.2,0.4c-0.2,0.1-0.4-0.2-0.8-0.3
	c-0.3-0.2-0.4-0.1-0.9-0.1c-0.4,0-1.3,0.1-1.6-0.1c-0.3-0.3-0.8-0.3-0.9-0.1c-0.2,0.2-1.2,0.4-1.2,0.4s-0.5-0.4-0.7-0.1
	c-0.2,0.3-0.7,0.5-0.8,0.7c-0.1,0.3-0.3,0.4,0.1,0.9c0.4,0.5,0.6,0.5,0.5,0.9c-0.1,0.5,0.2,0.4,0.7,1.1c0.5,0.7,0.5,0.8,0.6,1.2
	c0.1,0.4,0.3,1.1,0.4,1.3c0.2,0.3,1.4,0.6,1,0.9c-0.5,0.3-0.8,0.6-0.9,0.3c-0.1-0.3,0-0.4-0.3-0.6c-0.3-0.2-0.6-0.3-1-0.7
	c-0.4-0.5-1.2-1.5-1.2-1.5s0.3-0.2,0.3-0.8c0-0.7-0.5-1.2-0.8-0.9c-0.3,0.2-0.9,0-0.7,0.5c0.2,0.4,0.2,0.9,0.2,1.3
	c-0.1,0.4-0.5,0.8-0.4,1.2c0.1,0.4,0.3,0.6,0.4,0.8c0.1,0.2,0.8,0.6,0.7,0.9c-0.1,0.3,0,0.3,0.1,0.7c0.2,0.4-0.8,1.5,0,2.4
	c0.8,0.9,2.5,2.9,2.9,3.1c0.4,0.2,1.3-1.1,1.9-0.2c0.6,0.9,1.1,1.2,1,1.9c-0.1,0.6,0.3,0.5,0.2,0.9c-0.2,0.4-0.6,1.3-0.7,1.4
	c-0.2,0.1-0.6,0.1-0.6,0c0-0.1-0.2-0.2-0.3,0c-0.1,0.2,0.1,0.5,0.1,0.6c0,0.1,0.1,0.3,0.1,0.4c0,0.1-0.1,0.3-0.1,0.5
	c0.1,0.2,0,0.5,0.1,0.6c0,0.1,0.2,0.1,0.3,0.4c0.1,0.3-0.1,1.2,0.2,1.5c0.3,0.4,0.5,0.6,0.6,0.7c0,0.1,0.3,0,0.4,0.1
	c0.1,0.1,0.2,0.3,0.4,0.4c0.2,0.1,0.4,0,0.5,0.2c0.1,0.2,0.5,0.8,0.7,1.1c0.2,0.3,0,0.6,0.1,0.7c0.2,0.1,0.5,0.3,0.6,0.4
	c0.1,0,0.4,0.1,0.5,0.5c0.1,0.4,0.1,0.6,0.3,0.8c0.2,0.2,0.6,1.3,0.7,1.4c0.1,0.1,0.5,0.6,0.6,0.7c0.1,0.2-0.2,0.7,0.3,0.9
	c0.5,0.2,1,0.1,1.2,0.4c0.1,0.3,1,1.6,1.5,2.1c0.6,0.5,1.1,0.3,1.1,0.5c0,0.2,0.9,0.7,0.6,1.1c-0.3,0.5-0.5-0.1-0.5,0.3
	c0,0.4-0.3,0.8-0.1,1.1c0.2,0.3,0.6,0.5,1.1,0.5c0.5,0.1,1.6,0.4,1.5,0.7c-0.1,0.3,0.1,1.3-0.2,1.6c-0.3,0.3-0.5,0.3-0.3,0.9
	c0.2,0.6,0.4,0.5,0.5,1.2c0,0.6-0.2,0.6-0.1,0.9c0.1,0.3,0.3,0.6,0.1,1c-0.2,0.4-0.5,1.2-0.2,1.5c0.3,0.3,0.7,0.2,0.9,0.5
	c0.2,0.2,0.8,0.5,1,0.7c0.2,0.2,1.5,0.2,1.8,0.1c0.3-0.1,0.5-0.6,0.9-0.3c0.3,0.4,0.5,0.3,0.8,0.3c0.3,0,0.5,0,1.1,0.4
	c0.5,0.3,1,0.3,1.2,0.3c0.2,0,1,0.3,1.2,0.3c0.2,0,1.1-0.7,1.5-0.3c0.4,0.4,0.6,0.3,0.9,0.6c0.3,0.3,0.9,0.6,1.2,0.8
	c0.2,0.2,0.6,0.1,0.8,0.7c0.2,0.6-0.1,1,0.7,1.4c0.9,0.4,1.2,0.5,1.7,0.7c0.5,0.3,1.2,0.9,1.5,0.7c0.3-0.1,0.5-0.7,0.9-0.5
	c0.4,0.2,2.1-0.2,2.2,0.2c0.1,0.3,0.1,0.6,0.3,0.8c0.3,0.2,0.6,0.6,0.7,0.9c0,0.4,0.3,0.9,0.1,1.1c-0.1,0.2-0.3,0.3-0.2,0.5
	c0.1,0.2,0.4,0.7,0.5,0.7c0.1-0.1,0.3-0.4,0.4-0.2c0.1,0.1,0.3,0.2,0.4,0c0.1-0.2-0.1-0.4,0.5-0.3c0.7,0.1,1.1-0.1,1.3,0.3
	c0.2,0.4,1.4,1.2,2.1,1.9c0.7,0.7,1.2,0.8,1.2,0.8s1.6,0.9,2.7,2.7c1.1,1.8,1.4,2.8,1.5,3.3c0.1,0.5,0.3,1.3,0.4,1.5
	c0.1,0.3,0.4,0.4,0.4,0.5c-0.1,0.2-0.4,0.2-0.3,0.4c0,0.2-0.4,1.2,0,1.6c0.4,0.4,1.6,0.4,1.5,0.7c-0.1,0.4-0.5,0.5-0.3,0.8
	c0.2,0.3,0.3,0.8,0.9,0.7c0.6-0.1,22.2-2.1,22.2-2.1s-0.2,0.4-0.3,0.7c-0.1,0.3-0.5,0.2-0.3,0.7c0.1,0.5,0.2,1.6,0.2,1.6
	s0.6-0.1,1.5,0.3c0.9,0.4,34.3,14.1,34.3,14.1h27.1l0.1-5.8l16,0.1c0,0,0.8,0.1,1.2,0.4c0.3,0.2,0.6,0.2,0.7,0.4
	c0.2,0.3,0.1,0.5,0.2,0.8c0,0.3,0.2,0.1,0.2,0.5c0,0.4,0.2,0.7,0.6,1.3c0.4,0.6,0.8,1.2,1.4,1.3c0.6,0.1,0.9,0,1,0.3
	c0.2,0.3,0.3,0.3,0.6,0.6c0.2,0.3,0.8,0.7,0.9,1c0.1,0.3,0.2,0.5,0.4,0.6c0.2,0.2,1.5,1.4,1.6,1.4c0.1,0.1,0.5,0,0.5,0.4
	c0,0.4,0,0.7,0.2,0.9c0.2,0.2,1.3,1,1.3,1s1.1,1.2,1.3,1.3c0.2,0.2,0.4,0,0.5,0c0.1,0,0.3-0.2,0.5,0.1c0.2,0.3,1,0.9,1.4,1
	c0.4,0.2,0.2,0.3,0.2,0.6c0.1,0.3,0.1,0.5,0.3,0.7c0.2,0.2,0.4,0.1,0.5,0.3c0.1,0.3,0.5,0.5,0.6,0.8c0.1,0.3-0.4,0.1-0.2,0.6
	c0.2,0.5,0.6,1.2,0.7,1.3c0.1,0.2,1.2,1.6,1.2,1.9c0,0.3,0,1.8-0.1,2.1c-0.1,0.2,0.1,0.5,0.1,0.7c0,0.2,0.6,1.5,0.6,1.6
	c0.1,0.2-0.2,0.5,0.1,0.7c0.3,0.2,0.3,0,0.5,0.4s-0.1,0.5,0.1,0.7c0.1,0.2,0.3,0.8,0.6,1.2c0.3,0.4,1.1,1.1,1.3,1.2
	c0.2,0.1,0.9,0,1.2,0.5c0.2,0.4,0.1,0.5,0.4,0.8c0.3,0.2,2.4,1.8,2.4,1.8s0.6,0.2,1,0.3c0.4,0,0.6-0.3,0.6,0c0,0.3,0,0.6,0,0.6
	s1.1,0.6,1.3,0.7c0.2,0.2,0.6,0.1,0.9,0.4c0.3,0.2,0.6,0.3,0.7,0.6c0.1,0.3,0.7,0.7,0.7,0.7s0.3-0.2,0.5,0c0.2,0.2,0,0.4,0.7,0.4
	c0.6,0,0.9,0.3,1.1-0.1c0.3-0.3,0.4-1,0.5-1.1c0.2-0.1,0.5-0.4,0.7-0.6c0.1-0.3,0.3-0.5,0.6-0.7c0.4-0.2,0.4-0.1,0.4-0.6
	c0-0.5,0.1-1,0.3-1.2c0.2-0.2,0.1,0,0.5-0.9c0.3-0.8-0.3-0.9,0.3-1.7c0.6-0.8,0.3-1,0.7-1.6c0.4-0.6,0.4-0.9,0.7-0.9
	c0.3,0,0.7-0.4,0.9-0.3c0.2,0.2,0.2,0.3,0.3,0.1c0.1-0.2,0.3-0.5,0.5-0.4c0.2,0.1,0.6,0.7,0.8,0.2c0.2-0.4,0.8-1.8,1.2-1.3
	c0.4,0.5,1.1,1.1,1.8,0.9c0.7-0.2,0.7-0.3,1.1,0c0.4,0.3,1,0.1,1,0.1s1.1,0,1.8,0.2c0.8,0.2,1.8-0.6,2.1-0.1
	c0.3,0.5,0.4,0.3,0.7,1.2c0.2,0.9,0.2,1,0.8,0.9c0.6-0.1,0.6-0.2,0.6-0.2s0.3,0.7,0.2,1c-0.1,0.3,0.5,0.3,0.7,0.6c0.1,0.3,1,0,1,0.5
	c0,0.5,0,0.9,0.4,1.2c0.4,0.2,1,0.4,1.2,0.7c0.1,0.3,0.7,0.3,0.8,0.9c0.1,0.6,0.7,0.4,1.1,1.5c0.4,1.1,0.3,1.1,0.5,1.8
	c0.2,0.7-0.1,0.8,0.4,1.4c0.5,0.6,2.1,4.4,2.2,4.8c0.2,0.4,0.2,0.9,0.3,1.1c0.1,0.3,0.3,0.3,0.3,0.5c0,0.2,0,1.2,0.8,1.7
	c0.8,0.6,1.4,0.5,1.6,1.1c0.2,0.7,0.7,1.7,0.9,1.8c0.2,0.1,0.5-0.2,0.5,0.3s0.2,0.9,0.5,1.2c0.2,0.3,0.1,0.9,0.3,1.2
	c0.1,0.3,2.9,1.9,3,2.3c0.1,0.4,0.5,2.5,0.2,2.8c-0.2,0.4-0.3,0.4,0,0.7c0.3,0.3,0.3,0.2,0.5,0.7c0.1,0.5-0.4,1.9,0.1,2.5
	c0.5,0.5-0.1,0.5,0.5,1.3c0.6,0.8,0.9,0.7,1.2,1.3c0.3,0.6,0.3,1.1,0.7,1.9c0.3,0.8-0.2,1.1,0.3,1.8c0.5,0.8,0.3,1.4,0.7,1.8
	c0.5,0.4,1.3,0,1.8,0.3c0.5,0.3,1.3,0.4,1.4,0.6c0.1,0.2,0.3,0.9,0.9,1.1s1.2-0.3,1.4,0.1c0.2,0.4,0.6,0.3,1.1,0.8
	c0.5,0.6,2.6,1.4,3.9,1.4c1.3,0,1.8-0.4,2.4,0.2c0.6,0.6,0.9,0.4,1.5,1.1c0.5,0.7,0.8,1.4,1.8,0.9c1-0.5,1.3-0.6,1.4-0.8
	c0.2-0.2,0.3-1,0-1.6c-0.3-0.5-0.7-0.8-0.8-1.4c0-0.6-0.3-1.8-0.5-2.1c-0.2-0.3-1.1-0.5-0.7-1.4c0.4-0.9,0.3-1.9,0.1-2.2
	c-0.2-0.3-0.5-1.7-0.8-2c-0.3-0.2-0.7-0.8-0.6-1c0.1-0.2,0.5-0.3,0.3-0.6c-0.2-0.2-0.6-1.2-0.2-1.2c0.4,0,0.7-0.7,0.7-0.9
	c0-0.2,0.7-1.8,0.4-1.9c-0.3-0.1-1.1,0.3-1.4,0.1c-0.3-0.3-0.6-0.5-0.9-0.3c-0.2,0.2-1,0.4-0.7,0c0.3-0.4,0.9-0.5,0.6-1
	c-0.3-0.5-0.6-1.5-0.4-1.3c0.2,0.2,0.6,0.5,0.8,0.8c0.2,0.3,0.4,0.4,0.7,0.1c0.2-0.3,1.2-0.9,1.4-0.4c0.2,0.5,0.6,0.3,0.4-0.2
	c-0.1-0.5-0.9-1-0.5-1.4c0.4-0.3,1-0.2,1-0.5c0-0.3,1.2-1.2,0.5-1.9c-0.7-0.6-1-0.6-1.4-0.9c-0.4-0.3-1.2-0.6-0.9-0.8
	c0.3-0.2,2.1-0.8,2.7-0.3c0.6,0.6,0.7,0.5,0.8,0.1c0.2-0.4,1-0.8,0.6-1.4c-0.5-0.7-0.7-0.6-0.8-0.8c-0.2-0.2-0.5-1.2-0.1-1.3
	c0.4-0.1,1.1-0.3,1.5-0.6c0.3-0.3,1.2-1.3,1.4-0.8c0.2,0.6,0.4,0.7,0.6,0.5c0.2-0.2,0.8-1.3,0.6-1.5c-0.3-0.2-1.2-0.7-0.8-1.1
	c0.4-0.4,1-0.9,1.1-0.6c0.1,0.3,0.1,0.7,0.4,1.1c0.3,0.4,0.4,0.4,0.9,0.1c0.5-0.3,2.2-0.2,1.6-0.8c-0.6-0.6-1.7-0.9-1.4-1.1
	c0.3-0.2,0.5-0.5,0.2-0.7c-0.3-0.2-1.3-1.4-0.9-1.7c0.5-0.2,0.9-0.6,1.3,0c0.3,0.7,0.7,1,0.7,0.7c0-0.3-0.5-2,0.1-1.5
	c0.6,0.4,1.2,0.8,1.2,0.9c0,0.2,0,0.7,0.3,0.4c0.3-0.3,0.7-0.7,0.9-0.5c0.1,0.2-0.5,0.3-0.2,0.8c0.4,0.4,1,0.3,1.1,0.3
	c0.2-0.1,1.1-0.6,2-1.1c0.9-0.5,1.8-0.4,2.4-0.6c0.6-0.2,1-1,1.7-1.5c0.7-0.4,2.2-1.1,2.2-1.5c0.1-0.3,0.7-1.5,0.7-1.9
	c-0.1-0.4-0.3-1,0.1-0.8c0.4,0.2,0.5,0.4,0.8,0.1c0.3-0.3,1.7-0.9,1.3-1.8c-0.4-0.9-0.2-1.3-0.4-1.6c-0.3-0.3-1.1-0.7-0.9-1.1
	c0.2-0.4,0.7-0.3,0.3-0.6c-0.3-0.3-0.6-0.9-0.4-1.1c0.2-0.1,1.7,1,1.7,0.5c0-0.5,0.3-1.4,0.8-1.5c0.5-0.1,1-0.4,1.1,0.2
	c0,0.6,0,1.1-0.1,1.4c-0.1,0.3-0.7,0.9-0.4,1.1c0.3,0.2,0.2,0.1,1,0c0.8-0.1,1.2-0.4,1.3-0.2c0.1,0.2,0.2,0.4,0.4,0.3
	c0.2-0.1-0.2,0.7,0.7,0.1c0.9-0.6,1.4-0.6,2.1-1c0.6-0.4,1.6-0.9,2-0.7c0.4,0.2,1.5,0.3,1.2,0c-0.3-0.3-1.3-1.5-0.9-2.1
	c0.4-0.6,2-2,1.9-1.7c-0.1,0.3,0,1.2-0.3,1.5c-0.3,0.3-0.9-0.3-0.8,0.6c0.2,0.8-0.2,1.5,0.6,1.3c0.7-0.2,1.6-0.7,2.2-0.6
	c0.6,0.2,2.4-0.1,2.2-0.3c-0.1-0.2-1.6-0.8-0.8-1.1c0.7-0.3,1-0.5,0.9-0.7c0-0.3-0.2-1.6,0.1-1.4c0.2,0.2,0.8,1.1,0.8,1.1
	s0.4,0,0.2,0.7c-0.3,0.7-0.5,0.9-0.7,1c-0.2,0.1-0.7-0.1-0.3,0.3c0.3,0.4,0.5,0.2,0.7,0.3c0.3,0.1,0.6-0.2,1.3,0.2
	c0.7,0.4,3.1,2.2,4,2.3c0.9,0.2,1.6,0.2,2.1,0.3c0.5,0.1,2.3,0,2.8-0.2c0.5-0.2,0.9-0.8,1.2-0.4c0.3,0.3,1.1,1.1,1.6,1.3
	c0.6,0.2,1.3,0.2,1.4,0c0.1-0.3,0.3-1-0.3-1.2c-0.6-0.2-1.7-0.3-1.8-0.2c-0.1,0.1-0.1,0.3-0.5,0.1c-0.4-0.2-0.6-0.2-0.7-0.3
	c-0.1-0.1-0.4-0.5-0.2-0.6c0.2-0.2-1-0.3-0.6-0.6c0.4-0.3,0.9-0.4,1.2-0.5c0.3-0.1,1-0.5,1.2-0.6c0.2,0,1.9-0.5,1.1,0.2
	c-0.8,0.7-1.2,0.7-0.4,0.9c0.8,0.1,2.5-0.2,2.4,0.2c0,0.4-0.2,1.2,0,1.3c0.3,0.2,0.6,0.6,0.9,0.9c0.3,0.3,0.9,0,1.2,0.3
	c0.3,0.3,1.1,0.7,1.2,0.1c0.1-0.6,0.4-1,0.4-0.7c0,0.3,0,0.7-0.1,0.8c-0.2,0.2-0.3,0.4-0.3,0.6s0.6,0.8,0.7,0.9
	c0.1,0.2,0.9,0.6,0.5,0.6c-0.5,0-0.8-0.5-1.2,0c-0.3,0.4-0.4,0.6-0.2,0.8c0.1,0.2,0.4,1,0.9,0.7c0.5-0.3,0.7-0.6,0.6-0.9
	c-0.1-0.3,0-0.5,0.1-0.4c0.1,0.1,0.2,0.3,0.1,0.7c0,0.4-0.2,0.8,0,0.9c0.2,0.1,1.2-0.6,1.3-0.3c0,0.3,0.5,0.4,0.7,0.6
	c0.2,0.2,0.7,0.1,0.8,0.2c0.2,0.1,0.5,0.6,0.9,0.3c0.4-0.2,0.5-0.2,0.7-0.5c0.2-0.2,0.1-0.8,0.3-0.9c0.1-0.1,0.3-0.9,0.5-0.8
	c0.2,0.1,1,0.3,1.3,0.1c0.3-0.2,0.6,0,0.6,0s0.9,0.4,1,0.8c0,0.3,0.1,1.3,0.3,1.4c0.1,0.1,0,0.4,0.5,0.3c0.5-0.1,1.3-0.5,1.2-1
	c0-0.5-0.8-0.6-0.3-1.1c0.5-0.4,0.6-0.3,0.6-0.7c0-0.4-0.1-0.8-0.2-1.2c-0.1-0.4-0.8-0.7-0.9-1c-0.1-0.3,0.2-0.8,0.6-0.3
	c0.3,0.5,0.4,0.7,0.7,0.7s0.5,0.2,0.7,0.4c0.2,0.1,0.2-0.3,0.6-0.2c0.3,0.1,0.7,0.1,0.8,0.6c0.2,0.5,0.2,0.7,0.1,0.9
	c-0.1,0.2-0.2,0.3,0,0.5c0.2,0.2,0.9,0.3,1.3,0.2s0.2,0.1,0.3,0.4c0.1,0.3,0.3,0.3,0.4,0.3c0.1,0,1-0.1,1.1,0.1
	c0.1,0.2,0,0.4,0.2,0.7c0.2,0.3,0.4,0.2,0.4,0.6c0.1,0.4,0.2,0.7,0.3,0.7c0.1,0,0.4-1.2,0.6-0.9c0.2,0.3,0.5,0.7,0.7,0.8
	c0.2,0.1,0.2,0.1,0.3,0.3c0.1,0.2,0.3,0.5,0.5,0.2c0.2-0.3,0.3-0.3,0.4-0.5c0.2-0.2,0.6-0.2,0.5-0.8s0-0.9-0.3-1
	c-0.3-0.1-0.5-0.1-0.4-0.2c0.2-0.1,0.3-0.3,0.1-0.4c-0.2-0.2-0.3-0.2-0.5-0.4c-0.2-0.2-0.6-0.5-0.6-0.3c0,0.2,0.1,0.6-0.1,0.3
	c-0.2-0.3-0.2-0.6-0.5-0.6c-0.3,0-0.6,0-0.8-0.1s-0.2-0.3-0.6-0.3c-0.4,0-1-0.2-1-0.3c0-0.1,0.1-0.6-0.1-0.7
	c-0.2-0.1,0.3-0.6-0.2-0.9c-0.5-0.3-0.8,0.3-0.9,0.2c-0.1-0.2-0.5-0.4-0.5-0.7c0-0.4-0.7-1.1-0.2-0.8c0.5,0.3,0.4,0.6,0.6,0.2
	c0.1-0.4-0.5-0.7-0.2-0.8c0.3-0.1,0.4,0.1,0.7,0.1c0.3,0,0.6-0.3,0.8-0.5c0.2-0.2,0.3-0.7,0.4-0.9c0.2-0.2,0.4-0.5,0.6-0.3
	c0.2,0.3,0.6,0.6,0.5,0.1c-0.2-0.5-0.7-1-0.8-1.3c-0.2-0.3-0.5-1.4-0.7-0.9c-0.3,0.4-0.3,0.6-0.5,1c-0.2,0.5-0.7,0.7-0.9,0.3
	c-0.3-0.4,0.1-0.8-0.5-0.8c-0.5,0-1-0.1-1-0.4c0-0.3,0.5-0.3,0.8-0.4c0.3-0.1,0.2-1.5,0.2-1.5s-1,0.3-1.2,0.4
	c-0.2,0.1,0.1-0.8-0.4-0.3c-0.5,0.4-0.5,0.6-0.7,0.8c-0.2,0.2-0.1,0.6-1.4,0.6c-1.3,0-2.5-0.3-2.8-0.7c-0.2-0.4-0.4-0.8-0.4-1.1
	c0-0.3,0.7-0.8,0.3-0.7c-0.5,0.1-1.1,0.6-1.1,0.6s-0.8-0.2-0.7-0.7c0.2-0.6,0.4-1.1,0.8-1.2c0.4-0.1,0.9-0.3,1.2,0
	c0.3,0.3,0.3,0.8,0.3,0.8s-0.2,0.8,0.1,0.4c0.3-0.4,0.4-0.7,0.4-0.8s0.3-1.3,0.7-1.1c0.3,0.3,0.5-0.4,0.9-0.1
	c0.4,0.3,0.8,0.3,1.2,0.6c0.4,0.4,1,1.4,1.7,1.4c0.7,0,1,0.8,1.3,0.8c0.3,0.1,0.5,0.1,0.8-0.3c0.3-0.4,0.3,0.3,1,0.3s0.7-0.1,1-0.4
	c0.3-0.3,1.3-1.7,1.3-1.7s0.1-0.4,0.6-0.1c0.5,0.3,0.8,0.3,0.9,0.2c0.1-0.2,1-0.6,1.2-0.6c0.2,0,0.8-0.7,1.4-0.3
	c0.6,0.4,1,0.4,1.4,0.4c0.4,0,1.1-0.2,1.2,0.1c0.2,0.3,1.3,0.5,1.3,0.3c0-0.2,0.6-0.7,0.6-0.7s1.2-0.2,1.6,0.2
	c0.4,0.4,0.4,0.7,0.8,0.5c0.3-0.2,0.5-2.3,0.5-2.4s0.6-2.1,0.9-1.9c0.3,0.2,0.9,0.5,0.9,0.6c0.1,0.1,0.1,0.4,0,0.8
	c-0.1,0.4-0.3,0.5-0.2,0.8c0.1,0.3,0.3,0.1,0.3,0.5c0,0.4-0.1,0.5,0.2,0.7c0.2,0.2,0.8,0,0.8,0.3c0,0.3,0,0.7,0.2,0.9
	c0.2,0.1,0.4,0.2,0.4,0.3c-0.1,0.1-0.4,0.5,0.2,0.4c0.6-0.1,1-0.3,1.2-0.6c0.2-0.3,0-0.9,0.1-0.7c0.2,0.2,0.3,0.3,0.4,0.1
	c0.1-0.2,0.3-0.3,0.3-0.3s1.2-0.3,1.1-0.1c-0.1,0.2-0.5,0.3-0.4,0.5c0.1,0.1,0.5,0.3,0.9,0.2c0.3-0.1,0.5-0.5,0.7-0.8
	c0.2-0.3,0.7-0.6,0.9-0.8c0.2-0.2,0.5-0.5,0.2-0.8c-0.2-0.3-0.4-0.3-0.2-0.6c0.2-0.3,0.6-0.1,0.7,0.2c0.1,0.2,0.2,0.5,0.4,0.3
	c0.1-0.1,0.5-1.3,0.7-0.8c0.1,0.4,0.3,0.6,0,0.9c-0.4,0.4-0.8,0.6,0,0.8c0.8,0.2,1-0.2,1.1,0.3c0.1,0.4,0.2,0.4,1.1,0.2
	s2-0.5,2.2-0.4c0.2,0.1,0.4-1.4,1.1-0.8c0.7,0.6,0.5,0.3,0.7,0.2c0.2-0.1,1.5-0.4,1.9,0.1c0.3,0.5,1.1,1.1,0.4,1
	c-0.8-0.1-1.4,0-1.5,0c-0.1,0.1,0,0.4,0.6,0.6c0.6,0.1,1,0.3,1.2,0.4c0.2,0.1,1.7,1,1.9,1c0.2,0,0.8-1.1,1.1-1
	c0.3,0.1,0.4,0.5,1,0.4c0.6-0.1,1.4-0.6,0.9-0.1c-0.4,0.4-1.6,0.4-1.4,0.8c0.1,0.4-0.3,1.1,0.3,1.3c0.6,0.3,1.3,0.1,1.5,0.2
	c0.2,0.1,0.7,1.1,0.7,1.1s-0.6-0.4-0.4,0.1c0.1,0.5,0.5,0.8,0.7,0.9c0.2,0.2,1,0.8,1,1.2c0,0.4,0,1.8,0.5,1.9
	c0.5,0.1,1.3-0.1,1.5-0.2c0.3,0,1.3-0.4,1.7-0.5c0.4-0.1,0.7-0.7,0.8-0.4c0.1,0.3,0.4,0.4,0.6,0.2c0.2-0.2,2.1-1.8,2.5-1.8
	c0.4,0,2.2,0.3,1.9-0.1c-0.2-0.4-1.7-0.4-1.2-0.8c0.5-0.4,1-1.2,1.4-1.3c0.4,0,0.7,0.1,0.8,0.1c0.2,0,0-0.1,0.2,0
	c0.1,0.1,0.4-0.1,0.7-0.1c0.2,0,0.6-0.3,0.9-0.2c0.3,0.1,0.4-0.1,0.7,0.5c0.3,0.5,0.2,0.7,0.5,0.8c0.4,0.1,0.9,0.1,1,0.3
	c0.1,0.1,0.5,0,0.7,0.2c0.2,0.3,0.5,0.4,0.5,0.4s0.9,0.7,1,1.4c0.2,0.7,0.1,0.9,0.4,1.2c0.3,0.3,1,0.4,1.1,0.6
	c0.1,0.2,0.3,1,0.4,1.6c0.1,0.5,0.1,0.7,0.9,1.3c0.8,0.6,1.7,2.6,2.1,3c0.3,0.4,1.2,0.6,1.9,0.7c0.7,0.1,0.6-0.3,0.9,0.3
	c0.3,0.6,0.4,1.1,0.4,1.1s-0.2,1,0,1.3c0.2,0.3,0.6,0.3,0.6,0.7c0,0.3,0,0.8,0,1c0,0.2,0.1,0.4,0.2,0.5c0,0.2,0.1,0.3,0.1,0.7
	c0,0.3-0.6,5-0.8,5.4c-0.2,0.4-0.9,0.8-0.8,1.3c0.1,0.5,0.7,0.8,0.5,1.1c-0.2,0.3-0.2,0.7-0.4,0.8c-0.2,0.2-0.2,1.4-0.4,1.6
	c-0.2,0.2-0.3,0.4-0.1,0.8c0.3,0.4,0.8,0.6,1,1c0.2,0.5,0,0.8,0.5,0.6c0.4-0.3,0.5-0.5,0.7-0.7c0.2-0.3,0.3-0.6,0-1
	c-0.2-0.4-0.9-0.7-0.9-0.9c0-0.2-0.1-1.5,0.2-1.2c0.3,0.3,0.7,0.1,0.9,0.4c0.1,0.3,0.6,0.4,0.5,0.7c0,0.3-0.1,0.9,0,1.1
	c0.1,0.2,0.3-0.1,0.4-0.4c0.1-0.3,0-0.8,0.3-0.9c0.3,0,0.3-0.1,0.5,0.5c0.2,0.5,0.6,1,0.3,1.3c-0.3,0.3-0.6,0.7-0.7,0.9
	c-0.1,0.2-1.1,1.4-1.1,1.7c0,0.3,0.3,0.7-0.1,1c-0.3,0.3-0.9,0.1-0.6,0.7c0.3,0.6,0.5,1,0.7,1.3c0.2,0.4,0.2,0.5,0.5,1.2
	c0.3,0.7,1.9,4.6,2.2,5c0.3,0.3,0.7,0.6,0.9,0.5c0.2-0.1,0.4-0.8,0.3-1c-0.1-0.2-1.9-2-1.2-1.7c0.6,0.3,0.7,0.4,0.9,0.6
	c0.2,0.2,0.6,0.2,1,0.1c0.4-0.2,0.7-0.7,0.7-0.2c0,0.5-0.9,0.7-0.9,0.9c0,0.3,0.4,0.8,0.4,0.8s0.1,0.8,0.1,1.2c0,0.4,0,1.5,0,1.8
	c0,0.3-0.1,1,0.3,1.1c0.4,0.1,0.6-0.1,0.7-0.3c0.1-0.2,0.7-1.9,0.9-1.7c0.1,0.2,0.2,0.2,0,0.4c-0.1,0.1-0.2,0.2-0.2,0.5
	c0,0.3-0.6,0.9-0.4,1.2c0.2,0.3,0.6,0.4,0.6,0.4c0,0.1,0.2,0,0.3,0.2c0,0.2-0.1,1.3,0,1.8c0.1,0.5,0.4,2.7,0.9,3.5
	c0.5,0.8,1.9,1.2,2.5,1.9c0.6,0.6,3.5,1.8,3.1,2.2c-0.4,0.3-0.6,0.1-0.6,0.1s-0.7-0.6-0.6-0.2c0,0.4,0.4,0.8,0.5,1
	c0.1,0.2,0.5,0.5,0.5,0.6c0,0.1,0.1,0.1,0.1,0.4c0.1,0.3-0.3,0.3-0.2,0.6c0.2,0.2,0.3,0.7,0.5,0.9c0.2,0.2,0,0.3,0.1,0.5
	c0.1,0.2,0.6,0.9,0.8,1.2c0.2,0.3,1.2,0.3,1.1,0.6c0,0.3-0.1,0.7-0.3,0.8c-0.3,0.1-1.4-1.8-1.6-1.5c-0.2,0.3-0.6,0.5-0.4,1
	c0.2,0.4,0.5,1.3,0.7,1.3c0.2,0,0.7,0,0.9-0.2c0.2-0.1,0.9-0.6,1-0.5c0.2,0.1,0.4-0.3,0.5,0c0.1,0.3,0.5,0.5,0.7,0.5
	c0.2,0,0.6,0.1,0.7-0.1c0.2-0.3,0.2-0.5,0.4-0.5c0.2,0,1.5-0.4,1.6-0.3c0.1,0.1,0.5-0.6,0.6-0.3s0.1,0.8-0.1,1.2
	c-0.2,0.4-0.5,0.6-0.5,1c0,0.4-0.4,0.8-0.7,1c-0.3,0.3-0.6,0.5-0.6,0.7c0,0.2-0.5,0.6-0.6,0.7c-0.1,0.1-0.6,0-0.6,0.3
	c0,0.3-0.1,0.7-0.3,0.6c-0.2-0.1-0.9,0-0.9,0.2c0,0.2-0.3,0.5-0.4,0.5c-0.1,0-0.7-0.3-0.7,0c0,0.2-0.7,0.5-0.7,0.5s-1.1,0.3-0.7,0.4
	c0.4,0.1,0.7,0.5,0.9,0.3c0.2-0.2,0.5-0.9,0.6-0.8c0.2,0.1,0.5-0.3,0.6-0.2c0.1,0,1.3-0.5,1.3-0.6c0.1-0.1,0.1-0.2,0.1-0.2
	c0.1,0,0.1-0.1,0.1-0.2c0-0.1,0.6-0.3,0.6-0.4c0-0.2,0-0.3,0.3-0.3c0.2,0,0.4-0.1,0.5-0.2c0.1-0.1,0.3-0.3,0.4-0.3
	c0.1-0.1,0.3-0.3,0.3-0.4c0-0.1,0.5-1,0.8-1.2c0.2-0.2,0.9-0.8,0.9-0.9c0,0,0.2-0.7,0.1-0.9c-0.1-0.3-0.4-0.4-0.1-0.6
	c0.2-0.3,0.7-0.7,0.7-0.7c0-0.1,1-1.5,1-1.6c0-0.1,0-0.7-0.2-0.4c-0.2,0.3-0.1,0.6-0.3,0.7c-0.2,0.1-0.1,0.5-0.2,0.6
	c-0.1,0.1-0.3,0.5-0.5,0.2c-0.1-0.2,0-0.2-0.2-0.5c-0.2-0.3-0.4-0.6-0.2-0.5c0.2,0.1,0-0.2,0-0.5c0-0.3-0.2-0.3,0-0.5
	c0.1-0.2,0.3-0.1,0.3-0.5c0-0.5-0.2-1.1,0.1-1.2c0.3-0.1,0.9-1,0.9-0.9c0,0.1,0.3,0.4,0.4,0.4s0.1-0.9,0.1-0.9s-0.1-0.2-0.1-0.6
	c0-0.3,0.1-0.6,0.2-0.7s0.3,0.4,0.3,0.1c0-0.3,0-0.6,0-0.8c0-0.2-0.1-1.6,0-1.6c0.1,0,0.2-0.3,0.2-0.3s-0.2,0-0.1-0.4
	c0.1-0.4,0-1.6,0.1-1.8c0.1-0.2,0.3-0.3,0.4-0.5c0-0.2,0.1-5.8,0-6c-0.1-0.1,0.3-1.3,0-1.5c-0.3-0.2-0.6-0.5-0.6-0.8
	c0.1-0.3,0.3-1.4,0.1-1.6c-0.2-0.2-0.8-1.3-1.2-1.6c-0.4-0.3-0.6-0.1-0.4-0.4c0.2-0.3,0.4-0.2,0.2-0.7c-0.2-0.5-0.2-1.4-0.5-1.9
	c-0.2-0.4-1.5-6.1-2.3-7.3c-0.8-1.2-1.2-2.9-1.5-3.6c-0.3-0.8-0.7-3.3-1-4.4c-0.3-1,0.4-2.9-0.3-4c-0.7-1.1-1.4-2.9-1.9-3.8
	c-0.5-0.9-2.2-5.5-2.6-7.9c-0.4-2.4-1-6.5-1.4-7.2c-0.4-0.7-0.4-0.9-0.2-1.4c0.1-0.6,0.2-1,0.2-1s-0.3-0.4-0.3-0.9
	c0-0.5,0.5-1.3,0.3-1.5c-0.1-0.2-0.4-0.6-0.5-0.7c0-0.1,0.3-0.7,0.1-1c-0.2-0.3-0.8-0.3-0.5-0.8c0.3-0.5,0.9-2.2,1.2-1.7
	c0.3,0.5,0.3,0.8,0.6,0.4c0.3-0.3,0.7-1.3,0.4-1.5c-0.3-0.2-1.7-0.6-1.6-0.8c0.1-0.2,0.5-0.4,0.6-0.3c0.2,0.2,0.8,0.4,0.8,0.4
	s0.3-0.2,0-0.5c-0.3-0.3-0.6-0.9-0.3-0.9c0.3,0,0.6,0.6,0.7,0.2c0.2-0.4,0.1-0.8-0.1-0.9s-0.8-0.6-0.4-0.8c0.4-0.2,1.8,0.3,1.4-0.3
	c-0.5-0.7-0.5-1-0.5-1.2c0.1-0.3,0-0.8,0.2-0.8c0.2,0.1,0.8,0.3,0.8,0.3s0.7-0.5,0.5-0.8c-0.2-0.2-0.8-0.7-0.6-1
	c0.3-0.3,0.4-0.8,0.8-0.4c0.4,0.4,0.7,0.5,0.7,0.2c0-0.3,0-1.4,0.2-1.3c0.2,0,0.5-0.5,0.3-0.6c-0.2-0.1,0.4-0.2,0.6-0.4
	c0.2-0.2,0.6-0.7,0.5-1.2c-0.1-0.4-0.2-4.5,0.1-3.8c0.3,0.7,0.3,1.1,0.3,1.3c0,0.2,0.2,0.6,0.4,0.4c0.2-0.2,0.3-0.8,0.2-1.2
	c-0.1-0.4,0.2-1.2,0.5-1.2c0.2,0.1,1.1-0.6,1.3-0.2c0.2,0.3,0.4,0.5,0.3,0.8c0,0.3,0,0.2,0.5,0.1c0.5-0.2,1-0.2,1.2-0.5
	c0.2-0.3,0.4-1.1,0.6-0.9c0.2,0.2,0.4,0.4,0.7,0.4c0.3,0,0.3,0,0.9-0.5c0.6-0.4,0.6-0.9,0.8-0.7c0.2,0.2,0.9-0.1,0.7-0.5
	c-0.2-0.4-0.4-0.8-0.5-0.9c-0.2-0.1,0.3-0.9,0.4-0.9c0.1,0,0.5,0.1,0.3,0.3c-0.1,0.2-0.3,0.2-0.1,0.4c0.2,0.2,0.3,0.2,0.6,0.2
	c0.3,0,0.6,0,0.9-0.4c0.3-0.4,0.3-0.7,0.5-0.9c0.1-0.2,0.6-0.6,0.7-1.1c0.2-0.5,0.2-0.9,0.6-0.9c0.3,0,0.8-0.2,0.8,0.2
	c0,0.4,0.5,0.3,0.7,0.1c0.1-0.3,0.4-0.6,0.6-0.9c0.2-0.3,0.5-0.9,0.5-0.9s1-0.3,0.5-0.8c-0.5-0.5-0.7-0.7-0.8-0.9
	c-0.1-0.3,1.5-2.5,1.4-2.1c-0.2,0.4-0.2,0.5-0.4,0.8s-0.3,0.4-0.5,0.7c-0.1,0.2-0.3,0.4,0,0.5c0.3,0.1,0.6,0.3,0.8-0.2
	c0.3-0.5,0.2-0.7,0.3-1.1c0.1-0.4,0-0.3,0.5-1c0.5-0.6,0.4-0.3,1-1.4c0.6-1.1,1.1-1.7,1.6-2c0.6-0.3,1.2-0.9,1.2-0.9l1.3-0.5
	c0,0,0.4-0.3,0.4-0.2c0.1,0.1,0.4,0.2,0.4,0.2s0.1,0,0.2-0.2c0.2-0.2,0.4-0.4,0.5-0.4c0.1,0,0.6,0.4,0.9,0.3
	c0.2-0.2,0.7-0.3,0.9-0.3c0.2,0,0.9,0.1,1.2,0.2c0.3,0.1,0.2,0.5,0.5,0.3c0.3-0.3,0.5-0.4,0.7-0.9c0.2-0.5,0.2-1.1,0.1-1.4
	c-0.1-0.3-0.2-0.9-0.2-1.1c-0.1-0.2,0-0.6,0.1-0.5c0.1,0.1,0.2,0.1,0.2,0.3c0,0.2-0.1,0.1,0,0.4c0,0.3,0,1.3,0.2,1.1
	c0.1-0.2,0.2-0.5,0.2-0.8c0-0.3,0.2-0.8,0.3-1c0.1-0.2,0.2-0.5,0.2-0.5s1.1-0.8,1.2-0.9c0-0.1,0.3-0.7,0.7-1.1c0.4-0.4,0.8-1,1-1.1
	c0.2-0.1,1.2-0.3,1.2-0.5c0-0.2-1-1.1-0.7-1.2c0.3-0.1,1,0.1,0.8-0.2c-0.1-0.3-0.5-0.8-0.6-1.1c0-0.3,0.2-0.6,0.4-0.4
	c0.1,0.2,0.6,1,0.6,1.2c0.1,0.1,0.3,0.2,0.2,0.4c-0.2,0.2-0.3,0.2-0.3,0.4c0,0.2-0.3,1,0.4,0.4c0.7-0.6,1-0.7,1.4-1.2
	c0.4-0.5,0.4-0.6,0.3-0.8c0-0.2,0.2-0.6,0.4-0.4c0.1,0.2,0.2,0.4,0.2,0.6c0,0.2-0.4,0.4,0.1,0.3c0.5-0.1,0.3-0.1,0.9-0.3
	c0.5-0.1,0.7-0.3,1.1-0.3c0.4,0.1,0.9-0.3,1-0.3c0.2,0,0.7-1,0.9-0.6c0.2,0.4,0.6,0.3,0.8,0.6c0.2,0.3,0.5,0.6,0.5,0.2
	c0-0.4,0-0.5,0.3-0.7c0.2-0.1,1-0.9,1.4-1.3c0.4-0.4,0.6-1.5,0.1-1.3c-0.5,0.2-0.9,0.1-1.1,0.1c-0.2,0-0.3-0.3-0.9,0
	c-0.6,0.2-0.7,0.7-1,0.6c-0.3-0.1-0.5-0.1-0.8,0.1c-0.2,0.2-0.3,0.4-0.5,0.3c-0.2-0.2-0.4-0.3-0.8-0.4c-0.4-0.1-0.9-0.3-1.2-0.6
	s0.4-0.3-0.1-0.8c-0.6-0.5-0.5-0.7-0.6-0.8c-0.1-0.2-0.1-0.4,0.1-0.2c0.2,0.2,0.3,0.2,0.4,0.4c0.2,0.2,0.1,0.5,0.5,0.7
	c0.4,0.2,0.7,0.7,1,0.7c0.2,0,0,0.5,0.8,0.1c0.8-0.4,0.7-0.2,1-0.5c0.3-0.3,1-0.4,0.8-0.9c-0.2-0.4-0.8-0.7-0.5-0.9s0.8-0.8,1-0.9
	c0.3-0.1,0.6-0.3,0.4-0.6c-0.2-0.2-3-1-3.3-1.3c-0.3-0.3-0.7-0.6-1-0.6c-0.3-0.1-0.8-0.5-0.8-0.5c0,0-0.2-0.6,0-0.5
	c0.1,0.1,0.3,0.3,0.4,0.4c0.1,0.1,0.4,0.3,0.8,0.4c0.4,0.1,0.7-0.1,0.9,0.1c0.2,0.2,0.3,0.5,0.6,0.4c0.3-0.1,0.5-0.3,0.7-0.3
	c0.2,0,0.7,0.1,0.6-0.3c0-0.4-0.4-0.9-0.1-0.9c0.3,0,1.9-0.5,1.6,0.1c-0.3,0.5-0.9,0.4-0.7,0.8c0.2,0.5,1,0.9,0.9,0.7
	c0-0.2-0.3-0.6-0.1-0.6c0.2,0,0.5-0.2,0.6,0.1s-0.4,0.7,0.4,0.8c0.7,0.1,1.7,0.7,2,0.4c0.3-0.3,0.7-1,0.9-1.2c0.2-0.2,0.5-0.8,0.7-1
	c0.2-0.3,0.4-1.4,0.6-1.2c0.2,0.1,0.1,0.8,0.5,0.7c0.4-0.1,0.9-0.5,0.9-0.7c0-0.2-0.3-0.6-0.2-0.9c0.1-0.3,0.5-0.3,0.5-0.5
	c-0.1-0.2-0.4-0.7-0.3-0.7c0.1-0.1,0.2-0.4,0.1-0.5c-0.1-0.1-0.4-0.6-0.5-0.8c-0.1-0.2-0.3-0.7-0.7-0.1c-0.4,0.5-0.6,0.2-0.8,0.1
	c-0.2-0.1-0.2,0.1-0.3,0.6c-0.1,0.5,0,1.9-0.2,2.2c-0.3,0.3-0.3,0.5-0.6,0.4c-0.3-0.1-0.7-0.9-0.6-0.8c0.1,0.1,0.3,0.1,0.3,0.1
	c0,0,0.2,0,0.2-0.2c-0.1-0.3-0.3-0.6-0.5-0.6c-0.1-0.1-0.3-0.2-0.1-0.4c0.2-0.2,0.7,0,0.6-0.4c-0.1-0.4-0.3-0.4-0.2-0.6
	c0-0.2,0.3-0.2,0.3-0.5c0-0.3-0.7-0.6-0.9-0.6c-0.2,0-0.7,0-0.9,0.2c-0.1,0.2,0.5,0.5,0.2,0.6c-0.2,0-0.4,0.1-0.6,0
	c-0.2-0.1-0.4-0.5-0.5-0.3c-0.1,0.1-0.1,0.3-0.3,0.2c-0.2,0-0.1-0.4-0.2-0.4c-0.1,0-0.5,0.1-0.8,0.2c-0.3,0-1.1,0-1.2,0.1
	c-0.1,0.1-0.5,0.3-0.7,0.2c-0.2-0.1-0.6-0.4-0.5-0.7c0.1-0.2,0.5-0.7,0.4-0.8c-0.1-0.1-0.7-0.7-0.7-1c0-0.3,0.6-2.3,0.7-2.3
	c0.1,0,0.4,0.2,0.3,0.4c-0.1,0.2-0.6,0.5-0.6,0.6c0,0.2-0.3,0.6-0.1,1c0.1,0.4,0.5,0.7,0.6,0.8c0.1,0.2,0.5,0.5,0.8,0.5
	c0.3,0,1,0,1.2-0.2c0.2-0.2,0.6-0.5,0.7-0.8c0.1-0.3-0.4-0.8-0.6-1c-0.2-0.2-0.3-0.6-0.1-0.5c0.2,0.1,0.2,0.3,0.4,0.4
	c0.1,0.1,0.5,0.3,0.6,0.4c0.1,0.2,0.4,0.3,0.6,0.2c0.2-0.1,0-1.1,0.3-0.7c0.3,0.3,0.3,0.4,0.5,0.6c0.2,0.2,0.4,0.5,0.7,0.2
	c0.3-0.2,0.6-0.4,0.3-0.8c-0.2-0.3-1.3-0.9-1.3-1.1c0-0.2,0-0.5,0.4-0.3c0.3,0.2,0.5,0,0.8,0.4c0.3,0.4,0.7,0.5,0.8,0.7
	c0.2,0.2,0.3-0.1,0.3-0.3c0-0.2,0.2-1.1,0.2-1.4c0-0.3,0.1-0.6-0.2-1c-0.2-0.4-0.6-0.9-0.4-1.3c0.2-0.5,0.6-0.7,0.7-1.2
	s0.3-1.4,0.2-1.7c-0.1-0.3-0.3-1.5-0.6-1.7c-0.3-0.2-0.5,0-0.7-0.1s-1-0.7-1.4-0.4c-0.4,0.3-0.7,1.1-0.5,1.2
	c0.2,0.2,0.1,0.3-0.6-0.1c-0.7-0.5-0.4-0.3-0.6-0.2c-0.2,0.2-0.4,0.3-0.5,0.3c-0.1,0-0.4,0.4-0.5,0c-0.1-0.4,0-0.7,0.1-0.8
	c0-0.1,0.1-0.5-0.1-0.7c-0.2-0.2-0.9-0.6-1.2-1c-0.3-0.4-0.3-0.9-0.5-1.1c-0.2-0.2-1.1-0.9-1.4-0.9c-0.3,0-1.1,0-1.3-0.4
	c-0.2-0.4-0.3-0.3-0.4-0.3s-0.3-0.1-0.8-0.1c-0.5,0-1.4-0.1-1.4-0.3c0-0.2-0.6-0.5-0.3-0.6c0.3-0.1,0.8,0,0.9,0.1
	c0.1,0.1,0.6,0.2,0.7,0.2c0.1,0,0.2-0.5,0.5-0.2c0.3,0.3,0.2,0.3,0.4,0.3c0.2,0,0.7,0,0.9,0.3c0.2,0.3,0.1,0.9,0.3,0.5
	c0.2-0.3,0.2-0.9,0.5-0.7c0.2,0.2,0.3,0.4,0.4,0.6c0,0.2,0.3,0,0.6,0.2c0.3,0.1,0.4,0.2,0.5,0.3c0.1,0,0.1-0.1,0.5-0.2
	c0.4-0.1,0.7,0,0.7,0.1c0,0.2,0,0.5,0.1,0.7c0.1,0.3-0.1,0.5,0.4,0.9c0.5,0.4,1.2,0.9,1.3,1.1c0.1,0.2,0,0.3,0.3,0.3
	c0.2,0,0.1,0,0.4-0.1c0.2,0,0.5,0.1,0.4-0.2c0-0.4-0.5-0.5-0.7-0.9c-0.1-0.4-0.1-0.5,0.1-0.6c0.1,0,0.2-0.3,0-0.4
	c-0.2-0.1-0.3-0.1-0.5-0.3s0.1-0.1-0.3-0.3c-0.4-0.2-0.5-0.4-0.8-0.5c-0.2-0.2-0.3-0.2-0.7-0.5c-0.4-0.3-0.6-0.2-0.7-0.6
	c-0.1-0.3-0.3-0.7-0.4-0.9c-0.2-0.2-0.8-0.7-0.8-0.7s-0.2-0.7-0.1-0.8c0.1-0.1,0.3-0.3,0.4,0c0.1,0.3,0.5,0.3,0.5,0.4
	c0,0.1,0.1,0.1,0.2,0.4c0.1,0.3,0.1,0.3,0.5,0.6c0.3,0.4,0.4,0.4,0.4,0.7c0.1,0.3,0.3,0.2,0.5,0.5c0.2,0.3,0.3,0.6,0.5,0.7
	s0.9,0.3,0.8-0.1c0-0.3-0.5-0.5-0.5-0.6c-0.1-0.1-0.1-0.6,0.1-0.9c0.2-0.3-0.1-0.3-0.1-0.5c0-0.2,0.2-0.1,0.4,0
	c0.2,0.1,0.4,0,0.5,0.2c0,0.2,0,0.4,0.1,0.5c0.1,0.1,0.4-0.3,0.5,0.1c0.1,0.4,0,0.6,0.1,0.6c0.2,0,0.1,0.2,0.4-0.2
	c0.3-0.4,0.2-0.9-0.1-1.1c-0.2-0.3-0.3-0.3-0.7-0.8c-0.5-0.5-0.7-0.6-0.8-1c-0.1-0.4,0.3-0.5-0.4-0.7c-0.6-0.2-1-0.8-1.6-1.5
	c-0.6-0.7-1.4-1-1.5-1.2c-0.1-0.2-0.7-0.5-0.9-0.9c-0.2-0.3-0.5-0.7-0.5-0.9c0-0.2,0.1-0.7-0.3-0.9c-0.4-0.2-0.7-0.3-0.9-0.4
	c-0.2-0.1-0.7-0.4-0.7-0.6c0-0.2,0-0.5,0.2-0.3c0.2,0.3,0.3,0.1,0.6,0.4c0.2,0.3,0.1,0.4,0.4,0.5c0.3,0.1,0.7,0.1,0.9,0.4
	c0.2,0.3,0.2,0.8,0.4,1.1c0.2,0.3,0.3,0.2,0.5,0.5c0.2,0.3,0.9,0.9,1.1,1.1c0.2,0.2,0.6,0.3,0.8,0.5c0.2,0.2,0.4,0.2,0.4,0.5
	c0,0.4,0.1,0.5,0.3,0.8c0.2,0.3,0.5,0.2,0.8,0.3c0.3,0.1,0.7-0.1,0.7,0.1c0,0.2-0.1,0.2,0,0.4c0.2,0.1,0.2,0.3,0.3,0.1
	c0.2-0.2,0.2-0.3,0.3-0.6c0.1-0.3-0.1-0.7,0.1-0.8c0.2-0.1,0.3-0.1,0.2-0.3c-0.1-0.1-0.4-0.1-0.3-0.4c0.1-0.4,0.9-0.4,0.9-0.5
	c0.1-0.1,0.1-0.3,0-0.4c-0.1,0-0.3-0.5-1-0.8c-0.8-0.4-0.7,0.1-1.2-0.3c-0.5-0.4-0.9-0.6-1-0.9c-0.1-0.3-0.2-0.9-0.8-0.9
	c-0.5,0-1.4-0.7-1.8-0.8c-0.4,0-1.4-0.9-1.4-1.3c0-0.4,0-0.6-0.2-0.8c-0.2-0.3-0.4-0.2-0.6-0.2c-0.2,0.1-1.1,0.5-1.2,0.6
	c-0.1,0-1.2,0.1-1.2-0.2c0-0.4,0.1-0.9,0.1-1.1c0-0.2-0.1-0.9,0.1-1.1c0.2-0.2,1.1-1.5,1.3-1.8c0.2-0.3,1-0.6,1-0.9
	c0-0.3,0.1-1.4-0.1-1.6c-0.1-0.2-0.6-1-0.5-1.1c0.1-0.1,0.5-0.8,0.7-0.4c0.3,0.5,0.3,0.6,0.4,0.7s0.8,0,0.6,0.4
	c-0.2,0.3-0.6,0.6-0.8,0.9c-0.2,0.3-0.4,0.7-0.3,0.9c0,0.2,0.1,0.3,0,0.4c-0.1,0.1-0.3,0.2-0.5,0.4c-0.2,0.2-0.6,1-1,1.5
	c-0.4,0.5-0.8,0.7-0.8,0.9s-0.1,0.5,0,0.6c0.1,0.2,0.5,0,0.5,0.3c0.1,0.3,0,0.5,0.2,0.5c0.2,0,0.5-0.1,0.6-0.3
	c0.1-0.2-0.2-0.9,0.1-0.9c0.3,0,0.3,0.4,0.6,0.2c0.3-0.2,0.3-0.7,0.5-0.5c0.1,0.2,0.2,0.2,0.3,0.6c0.1,0.4,0.1,0.7,0.4,1.1
	c0.3,0.4,0.8,0.7,0.8,0.5c0-0.2-0.5-0.9-0.1-0.8c0.4,0.1,1-0.6,1,0c0,0.6-0.1,1.1,0.2,1.5c0.3,0.4,1.7,0.1,1.9,0.5
	c0.2,0.4,0.6,0.6,0.8,0.7c0.2,0.1,0.5-0.6,0.7-0.5c0.1,0.2,0.4,0.1,0.4,0.4c0,0.4-0.4,0.9,0.1,1c0.5,0.1,0.8,0,0.7-0.3
	c0-0.3-0.3-0.9-0.4-1c-0.1-0.1-0.3-0.3-0.4-0.5c0-0.2,0.1-0.7-0.1-0.9c-0.2-0.2-0.9-0.1-1.1-0.3c-0.2-0.2-0.6-0.4-1.1-1
	c-0.5-0.6-0.7-0.9-0.7-1.4c0-0.5,0.1-1,0.1-1.1c-0.1-0.1-0.3-1.1-0.1-1.1s0.6,0.2,0.6,0.4c0,0.2,0,0.4,0,0.7c0,0.3-0.2,0.4,0,0.6
	c0.1,0.1,0.2,0.8,0.3,0.9c0.1,0.1,0.3,0.1,0.3,0.3c0,0.3,0.2,0.3,0.3,0.4c0.1,0.2,1,1.2,1.3,1.1c0.4-0.1,0.7,0.2,0.5-0.4
	c-0.2-0.6-0.8-0.9-0.9-1.4c-0.2-0.4-0.7-0.5-0.5-1.5c0.2-1,0-1.5-0.1-1.6c-0.1-0.1-0.1-0.4,0-0.6c0.1-0.1,0.4-0.5,0.3-0.8
	c-0.2-0.3,0-0.9-0.1-1c-0.1-0.2-0.1-0.7,0.2-1.1c0.3-0.4,1,0,0.5-0.8c-0.5-0.8-0.1-1-0.6-1.2c-0.5-0.2-1.3-0.7-1.1-0.9
	c0.3-0.2,0.5-0.6,0.9-0.2c0.4,0.4,0.8,0.5,0.8,0.2c0-0.3-0.1-0.9,0.1-1c0.2,0,0.9-0.3,0.7-0.5c-0.2-0.2-0.5-0.6-0.3-0.6
	s0.3,0,0.6,0.3c0.3,0.3,0.4,0.5,0.6,0.1c0.2-0.4,0.2-0.8,0.3-0.6c0.1,0.2,0.1,0.5,0.3,0.3c0.3-0.2,1.2-0.4,1.2-0.6
	c0-0.2-0.3-0.9-0.1-1.1c0.2-0.2,1.1-0.9,1.2-0.6c0.2,0.3,0.5,0.5,0.7,0.5c0.1,0,0.3,0.4,0.1,0.5c-0.2,0.1-0.2,0.2-0.5,0.5
	c-0.3,0.3-0.9,0.5-0.9,0.8c0,0.2,0.5,0.3,0.3,0.5c-0.3,0.1-0.5-0.2-0.7-0.1c-0.3,0.1-0.5,0.1-0.6,0.3c-0.1,0.2-1.1,1.8-1.1,2.3
	s0.1,0.6,0.3,0.7c0.2,0.1,1-0.2,0.9,0.1c-0.1,0.3-0.6,0.7-0.5,0.9c0.1,0.2,0.2,0.2,0.1,0.4c-0.1,0.1-0.3,0-0.5,0.3
	c-0.2,0.3-0.9-0.4-0.9,0.1c0,0.4,0.9,0.5,0.9,0.5s0.1-0.5,0.2-0.1c0.1,0.4,0.4,0.4,0.5,0.6c0.1,0.2,0.9,0.1,0.5,0.3
	c-0.4,0.3-0.6,0.2-0.7,0.5c-0.1,0.3,1.1,0,0.9,0.3c-0.2,0.3-1.2,0.3-1.1,0.7s1,0.9,1,0.9s-0.2,0.3,0,0.6c0.2,0.2,1.1-0.7,1.1-0.3
	c0.1,0.4-0.1,1.3-0.5,1.1c-0.3-0.2-0.5-1-0.9-0.7c-0.3,0.3-0.4,0.5-0.4,0.7c-0.1,0.3-0.3,0.5-0.5,0.6c-0.1,0.1-0.7,0.4-0.7,0.8
	c0.1,0.4-0.1,0.8,0.2,0.9c0.3,0.1,0.9,0.2,0.9,0.6c0,0.3-0.4,0.1,0,0.5c0.4,0.3,0.9,0.3,0.9,0.4c0,0.1,0-0.5,0.2-0.7
	c0.2-0.2,0.7-1.1,0.7-0.7c0,0.5,0.4,0.5,0.5,0.4c0.1-0.1,0.9-1.3,0.6-0.5c-0.4,0.8-0.6,0.5-0.6,0.9c0,0.4-0.4,0-0.4,0.3
	c-0.1,0.3,0.3-0.3,0.6,0.2c0.2,0.4,0.6,0.2,0.4,0.5c-0.2,0.3-1.1,0-0.6,0.4c0.5,0.4,1.4,0.4,1.4,0.7c0,0.3-0.8,1.2-0.5,1.6
	c0.3,0.4,0.9,0.1,1,0.2c0.2,0.1,1-0.2,0.8,0.3c-0.2,0.5-1.1,0.8-0.8,1.4c0.3,0.5,0,0.5-0.2,0.9c-0.2,0.4-1.5,1.7-1.6,2.5
	c-0.2,0.8-0.5,2.9-0.7,3.4c-0.2,0.6-0.6,1-0.3,1.4c0.3,0.4,0.7,0.9,0.9,0.6c0.2-0.3,0.6-1.7,0.6-1.7s0.8-2.6,1.2-2.8
	c0.4-0.2,0.7-0.3,0.7-0.3s0.3-0.2,0.6-0.7c0.2-0.6,1.2-2.9,1.3-3.1c0.2-0.2,0.4-0.7,0.3-1.2c-0.1-0.5,0.3-1.5,0.7-1.9
	c0.4-0.5,1-1.1,1.2-1.5c0.2-0.3,0.4-1,0.8-1.1c0.4-0.1,0.2-1.9,0.2-1.9s0.6-1,0.5-1.6c-0.1-0.6-0.6,0.2-0.8,0
	c-0.2-0.1,0-0.3,0.1-0.7c0-0.4,0.2-1,0.3-1.1c0.1-0.1,0.4-0.2,0.1-0.6c-0.3-0.3-0.8-0.4-1.1-0.8c-0.3-0.4-0.8-1.3-0.9-1.7
	c-0.1-0.4-0.4-1.1-0.6-1.3c-0.2-0.2,0-2.5-0.3-2.8c-0.3-0.3-1.8-2.3-1.6-2.3c0.2,0,0.3-0.8,0.5-0.3c0.1,0.5,1.1,1,0.9,1.1
	c-0.2,0.1,1.2,1.2,1.7,1.5c0.5,0.4,0.6,1.2,1,1.1c0.3-0.1,1.6,0.2,1.6,0.2s0.9-0.1,0.9,0.3c0,0.4,0.1,0.7-0.1,1.3
	c-0.2,0.6-0.5,1-0.3,1.3c0.2,0.3,0.4,0.8,0.8-0.1c0.5-0.9,1.6-2.2,1.7-2.6c0.2-0.4,0.8-1,0.6-1.3c-0.2-0.3-0.3-0.4-0.1-0.6
	c0.2-0.2,0.8-0.5,1-0.7c0.2-0.2,1-0.4,1.1-0.9c0.1-0.5-0.2-0.6,0.1-0.9c0.3-0.3,1.3-0.7,1.4-0.8c0-0.2,0.9-1.9,0.9-2.3
	c0-0.4,0.4-1.7,0.4-2.2c0-0.5,0.4-1,0.4-1s1-2.8,0.9-3.1c0-0.4,0.2-1.9-0.2-2.1c-0.4-0.2-1.1-0.1-1.5-0.2c-0.4-0.1-1-0.1-0.7-0.6
	c0.3-0.5,0.6-0.6,0.8-0.7c0.2-0.1,0.5-0.5,0.7-0.7c0.2-0.2,0.6-0.6,1-0.2c0.4,0.5,0.9,0.2,1.1-0.1c0.2-0.3,0.3-0.2,1-0.1
	c0.7,0.1,0.9,0,1.8-0.2c0.9-0.2,2.2-0.6,3.4-1.1c1.2-0.5,2-0.3,3.4-0.7c1.4-0.3,2.7-0.3,2.9-0.6c0.2-0.3,0.7-0.9,0.8-0.6
	c0.2,0.2,0.5,0.4,0.8,0.1c0.4-0.3,1.6-1.1,2.2-1.3c0.5-0.3,1.2-0.3,1.6-0.6c0.4-0.3,1.6-0.6,0.9-0.6s-0.5-0.1-0.9,0.1
	c-0.3,0.2-0.4,0.5-0.6,0.5c-0.2,0-0.7,0.2-0.9,0.1c-0.1-0.1,0.2-0.3,0.1-0.4c-0.2,0-0.7-0.1-0.8,0.1c-0.2,0.1-0.8,0.5-0.9,0.4
	c-0.1-0.1-0.1-0.3-0.2-0.6c-0.1-0.3-0.6-0.6-0.7-0.2c-0.1,0.4-0.2,0.7-0.2,0.9c0,0.1,0,0.6-0.1,0.5c-0.2-0.1-0.2-0.2-0.3-0.2
	c-0.1,0-0.8,0.6-0.3-0.1c0.5-0.7,0.5-1,0.5-1s-0.5-0.2-0.6,0c-0.1,0.2-0.2,0.2-0.4,0.5c-0.2,0.3-0.2,0.5-0.5,0.6
	c-0.3,0.1-0.7,0.1-1,0.2c-0.3,0-0.6,0-0.9,0.1c-0.3,0.1-0.7-0.1-1.2-0.2c-0.6,0-1.3,0-1.4,0.1c-0.1,0-1.3-0.2-1.7,0.3
	c-0.3,0.5-1.4-0.1-1.4-0.1l-1,0.3c0,0-1,0.3-1.5,0.4s-0.6,0.8-1.2,0.9c-0.6,0.1-1.6,0.7-0.8,0c0.8-0.7,0.6-0.8,1-1.3
	c0.4-0.5,0.7-0.9,1-1c0.3-0.1,1.2,0,1.7-0.4c0.6-0.5,0.8-1,1.7-1.4c0.9-0.4,1.1-0.3,1.8-0.7c0.7-0.3,0.4-0.3,1.2-0.6
	c0.8-0.2,1.2-0.6,1.9-0.6c0.7,0.1,1.2-0.2,2-0.2c0.7,0,2.1-0.5,2.7-0.2c0.5,0.3,1.1,0.7,1.8,0.3c0.7-0.4,1.2-0.3,1.2-0.3
	s1.4,0.1,1.7,0c0.3,0,0.7-0.2,1.1-0.3c0.3-0.2,1.5-0.5,1.8-0.6c0.3-0.1,0.8-0.6,1.1-1.1c0.2-0.5,0.2-1.4,0.4-1
	c0.3,0.4,0.3,0.5,0.8,0.4c0.5-0.1,0.3-0.6,0.5-0.4c0.2,0.2,1.2,0.1,1.2,0.1s0.5-0.4,0.5-0.2c0,0.3,0.3,0.3,0.4,0.2
	c0.1-0.1,0.5-0.3,0.7-0.5c0.2-0.2,1.3-1,1.5-1.1c0.1-0.1,0.6-1,0.8-0.8c0.2,0.2,0.4,0.1,0.4,0.4c0,0.3,0,0.6-0.1,0.8
	c-0.1,0.3-0.3,0.5-0.3,0.8c0,0.2-0.3,0.7-0.9,1.1c-0.7,0.3-1.3,0.7-1.3,0.7s-0.1,0.3,0.2,0.1c0.3-0.1,0.1-0.1,0.4-0.3
	c0.3-0.1,0.6-0.3,0.7-0.4c0.2-0.1,0.6-0.5,0.9-0.6c0.2-0.1,0.7-0.4,1.1-0.4s0.7-0.3,1-0.5c0.2-0.2,0.9-1.1,1.2-0.9
	c0.2,0.2,0.4,0.4,0.4,0.4s0.4-0.1,0.7-0.2c0.3-0.1,1.1-0.1,1.3-0.1c0.2,0,0.6,0.2,0.9-0.1c0.4-0.3,1-0.5,0.8-1.3
	c-0.2-0.8-0.3-1.6-0.5-1.9c-0.2-0.4-1.1-1.4-1.2-1.6c-0.1-0.1-0.2-0.9-0.7-0.7c-0.5,0.3-0.7,0.1-0.9,0.2s0,0.8,0.2,0.9
	c0.2,0.1,0.5-0.4,0.8,0.1c0.3,0.5,0.5,0.7,0.7,1c0.2,0.3,0.7,0.4,0.6,0.7c0,0.3,0,0.8-0.3,1c-0.3,0.2-0.5,0.5-1.1,0.5
	c-0.6,0-1.4,0.1-1.7,0.1c-0.3,0-0.9,0.2-1.4-0.6c-0.5-0.7-0.6-0.8-0.8-1.4c-0.2-0.7,0-0.9-0.4-1c-0.4-0.2-0.7-0.2-0.7-0.3
	c0-0.1,0.3-0.1,0.3-0.3c0-0.2,0.1-0.2,0-0.4c-0.1-0.2,0-0.2-0.1-0.4c-0.1-0.2,0-0.2-0.2-0.4c-0.1-0.2-0.1-0.2-0.3-0.3
	s-0.2-0.1-0.2-0.3c0-0.3,0-0.6,0-0.7c-0.1,0-0.4-0.5-0.8-0.7c-0.4-0.2-0.8-0.6-0.8-0.4c0,0.2-0.3,0.1-0.2,0.2
	c0.1,0.1,0.2,0.1,0.1,0.2c0,0.1,0,0.5-0.3,0.2c-0.2-0.2-0.7-0.7-0.8-0.7c-0.1-0.1-0.4-0.2-0.2-0.3c0.2-0.1,0.6,0,0.7-0.3
	c0-0.2,0.3-0.6,0.4-0.7c0.1-0.1,0.2-0.6,0.2-0.7c0.1-0.1,0.6-1,0.8-1.1c0.2-0.1,1.3-0.1,1.4-0.3c0.1-0.2,0-0.8-0.2-1
	c-0.2-0.1-0.6-0.4-0.6-0.6c-0.1-0.2-0.8-1.7-0.6-2.1c0.2-0.4,0.4-1.2,0.7-1.9c0.3-0.6,1.8-2,1.8-2.2c0.1-0.2,0-1.9,0.3-2.1
	c0.3-0.1,0.3,0.7,0.6,0c0.3-0.7,0.8-0.6,0.9-1.1c0.1-0.5-0.5-0.5,0-0.9c0.5-0.5,1.7-1.6,1.7-1.6s-0.9,0-0.4-0.7
	c0.5-0.7,0.7-1.3,0.9-1.3c0.2,0,1.1-0.5,1.4-0.6c0.3-0.1,0.6-0.1,0.7,0.1c0.1,0.2,0.9-0.7,0.8-0.9c-0.1-0.2-0.6,0-0.6-0.5
	c0-0.4,0.1-1,0.4-1.1c0.3-0.1,0.7-0.5,0.6-0.2c-0.1,0.3-0.3,0-0.3,0.5c0,0.5,0.3,0.5,0.2,1c-0.1,0.5,0.2,0.3,0.3,0.1
	c0.1-0.3,0.5-0.8,0.7-1c0.2-0.2,0.7-0.9,0.6-0.5c-0.1,0.4-0.1,0.4-0.2,0.7c0,0.3,0.3,0.6,0.4,0.3c0.1-0.3,0.1-0.6,0.2-0.7
	c0.1,0,0.5,0,0.5,0.1c0.1,0.1,0.3,0.2,0.1,0.4c-0.2,0.2-0.4,0.2-0.3,0.5c0,0.3,0,0.7,0.3,0.6c0.2-0.1,0.2-0.2,0.4-0.7
	c0.2-0.4,0.4-0.7,0.6-0.7c0.1-0.1,0.2-0.5,0.3-0.6c0.1,0,0.7-0.4,0.6,0.1c-0.1,0.5-0.3,0.7,0.2,0.7c0.4,0,0.6-0.2,0.9-0.3
	c0.4-0.1,1.3-0.4,1.3-0.7c0-0.4-0.4-0.6-0.1-1.2c0.3-0.5,1.1-1.6,1.3-2c0.2-0.4-0.8-0.9-0.4-1.3c0.4-0.4,1.4-0.8,1.6-1.2
	c0.1-0.3,0-0.8,0.3-0.7s0.9-0.1,0.7,0.4c-0.2,0.5-0.4,0.7-0.6,1c-0.2,0.2-0.7,0.9-0.2,0.5c0.5-0.4,0.6-0.6,0.7-0.4
	c0.1,0.2,0.3-0.1,0.3,0.4c-0.1,0.5-0.4,0.3-0.5,0.5c-0.1,0.2-0.2,0.7,0,0.8s0.6,0.2,0.8,0.3c0.2,0.2,0.8,0.1,0.5,0.4
	c-0.2,0.3-0.5,0.1-0.5,0.3c0,0.2,0.4,0.3,0.4,0.2c0.1-0.1,0.4,0.2,0.4-0.3c0-0.5-0.1-0.6-0.2-0.9c-0.1-0.3-0.1-0.2,0-0.6
	c0.1-0.3-0.5-0.3,0.1-0.6c0.5-0.2,0.8-0.2,0.8-0.5c0-0.3,0.2-1,0.2-1s0.7,0,0.7,0.2c0,0.3,0,0.4,0,0.6c0,0.2,0,0.5,0.3,0.4
	c0.3-0.2,0.3-0.1,0.4-0.4c0.1-0.3-0.1-0.2,0-0.6c0.1-0.4,0.7-0.5,0.7-0.4c0.1,0.1,1.1,0,1.2,0.1c0,0.1,0.4,0,0.5,0.2
	c0.1,0.2-0.1,0.1,0,0.6c0.1,0.5,0,0.8,0.2,0.8c0.1-0.1,0.3,0,0.3-0.5s-0.3-0.8,0-0.9c0.3-0.1,0.3-0.4,0.6-0.1
	c0.3,0.2,0.5,0.3,0.7,0.3c0.2,0,0-0.7,0.1-0.8c0.2-0.1,1.1-0.9,1.3-0.6c0.2,0.3,0.3,0.6,0.4,0.6c0.1,0,0.4-0.5,0.6-0.3
	c0.2,0.2,0.1,0.6,0.3,0.4c0.2-0.2,0.3-0.3,0.3-0.5c0-0.2-0.4-0.2,0-0.4c0.3-0.2,0.5-0.4,0.7-0.5c0.2-0.1,0.3,0.3,0.5,0.2
	c0.2-0.2,0.3-0.4,0.3-0.4s0.2-0.5,0.6-0.3c0.4,0.2,1-0.1,0.9,0.2c-0.1,0.3-0.3,0.2-0.2,0.4c0.1,0.2,0.3,0,0.5,0
	c0.1-0.1,0.9-0.2,1.1-0.5c0.2-0.3,0.8-0.8,0.9-0.8c0.1,0,0-0.5-0.2-0.5c-0.2,0-0.3,0-0.5-0.1c-0.2-0.1-0.6,0-0.6-0.3
	s-0.6-0.7-0.4-0.8c0.2-0.1,0.4-0.1,0.7-0.3c0.2-0.2,1.1,0.1,0.8-0.3c-0.2-0.4-0.3-0.6-0.5-0.9c-0.2-0.3-1-1.6-1.3-1.7
	c-0.3-0.1-0.7-0.3-0.7,0c0,0.3-0.2,0.6-0.5,0.3c-0.3-0.3-0.5-0.5-0.7-0.7c-0.1-0.2-0.4-1.2-0.3-1.6c0.1-0.4,0.3-0.4,0.2-0.7
	c-0.1-0.2-0.9-1.1-0.6-1.4c0.3-0.3,0.5-0.4,0.6-0.5c0-0.1,0.2-0.5-0.1-0.8c-0.3-0.3-1.7,0.3-1.9-0.1c-0.2-0.4-0.7-0.6-0.9-0.7
	c-0.2-0.1-0.8-0.2-0.7-0.6c0.1-0.4,0.1-1,0.2-1.3c0.1-0.3-0.4-0.4,0-0.8c0.4-0.4,0.6-0.2,0.5-0.7c0-0.5-0.6-14.2-0.6-14.2
	s-0.2-0.1-0.4-0.3c-0.2-0.2-0.9-0.6-1.2-1c-0.3-0.4-0.8-1-1.1-1.2c-0.3-0.3-1.6-1.2-1.9-1.1c-0.3,0.1-0.7-0.2-0.8,0.1
	c-0.1,0.3-0.1,0.8-0.2,0.8c-0.1,0-0.9-0.2-0.9-0.2s-0.5,0-0.9,0.3c-0.4,0.3-0.5,0.4-1.1,0.4c-0.6,0.1-0.7,0.2-0.8,0.2
	c-0.1,0-0.3,0.2-0.7,0.3c-0.3,0.1-0.6,0.2-0.8,0c-0.2-0.3-0.6-0.2-0.8-0.5c-0.2-0.2-0.3-0.6-0.3-0.7c0-0.2,0.3-1.4,0.1-1.6
	c-0.2-0.1-0.7-0.4-1-0.4c-0.3,0.1-1.2,0.3-1.4,0.6c-0.3,0.3-0.9,1.4-1.3,1.9c-0.3,0.4-0.7,0.7-0.9,1c-0.1,0.3-0.1,0.4-0.2,0.5
	c-0.1,0.1-0.8,0.6-1.2,1.1c-0.4,0.5-1.9,2.6-2.3,3.2c-0.4,0.6-0.9,0.9-1,1.2c0,0.3-0.3,0.1-0.3,1.5c0,1.4-0.4,1.5-0.7,2
	c-0.2,0.5-0.7,0.8-1.1,1.5c-0.3,0.6-0.8,0.6-0.6,1.2c0.2,0.7,0.2,1.1,0.2,1.3c-0.1,0.2-0.5,0.1-0.5,0.5c0,0.4,0.6,1.1,0.5,1.5
	c-0.1,0.4-0.2,1.1-0.3,1.3c-0.1,0.1-1,0-1.1,0.5c-0.1,0.5,0.3,0.6,0.1,0.8c-0.2,0.2-0.1,0.4-0.4,0.6c-0.2,0.2-2.6,1-2.6,1.7
	s-0.7,0.8-0.5,1.1c0.2,0.3,0.4,0.1,0.6,0.3c0.3,0.2,0.9,0.5,0.5,0.6c-0.4,0.1-0.8-0.1-0.9-0.3c-0.1-0.2-0.4-0.5-0.6-0.3
	c-0.2,0.2-0.3,0.2-0.2,0.9c0.1,0.7-0.1,0.9-0.2,1.3c-0.1,0.4-0.3,0.4-0.4,0.2c-0.2-0.3-0.3-0.6-0.4-0.7c-0.1-0.1-0.4-1.2-0.7-0.6
	c-0.3,0.6,0.1,0.8-0.3,0.8c-0.4,0-0.6,0.3-0.6,0.4c0,0.2-0.7,0.3-0.9,0.2c-0.2-0.1-0.6-1-1.2-0.5c-0.6,0.6-0.8,0.5-0.9,1
	c-0.1,0.5-0.4,1.2-0.6,1.6c-0.2,0.4-0.7,0.8-0.9,0.8c-0.1,0-14.8-0.2-14.8-0.2s-1.7,0.2-1.9,0.3c-0.2,0.1-0.8,0-0.8,0h-15.3
	c0,0-0.6,0.4-0.9,0.6c-0.3,0.3-1,0.6-1,0.6s-1.8,1-2.4,1.5c-0.6,0.6-2.1,2.1-2.5,2.4c-0.3,0.3-1,1-1,1l-0.1,1.2c0,0,0-0.2-0.5,0.2
	c-0.5,0.4-0.5-0.3-1.1,0.5c-0.7,0.8-1.2,1.2-1.5,1.4c-0.2,0.1-1.2,0.2-1.2,0.2s-0.7,0.8-0.8,1.3c-0.1,0.5,0.1,1.2,0.3,1.2
	c0.3,0,0.2-0.5,0.5-0.4c0.3,0,0.8,0,0.9,0.3c0.1,0.3,1,0.6,0.6,0.8c-0.4,0.3-0.9-0.5-0.8,0.5c0.2,1-0.5,1-0.7,1
	c-0.2,0-0.4-0.3-0.4,0.1c0,0.4,0.4,0.8,0.4,1.1c0,0.3,0.9,1.1,0.6,1.5c-0.3,0.5,0.1,0.8-0.2,1c-0.3,0.2-2.1,0.4-2.1,0.4
	s-0.5,0.1-0.9,0.5c-0.4,0.4-1.8,2.1-2.9,2.2c-1.2,0.1-1.3,0.7-1.7,0.6c-0.4-0.1-1.4-0.3-1.8-0.3c-0.3,0-2.6,0.2-2.7,0.3
	c-0.2,0.1-0.9,0.6-1.3,0.3c-0.4-0.3-1-0.8-1.6-1.1c-0.6-0.3-1.4-0.5-1.6-0.4c-0.2,0-1.7-0.5-1.8-0.3c-0.1,0.2-0.7,0.3-0.7,0.3
	l-1.4-0.5c0,0-6,1.3-6.2,1.4c-0.1,0.1-0.7-0.2-0.7,0.5c0,0.7-0.2,2,0.4,2.2c0.6,0.2,0.9,0.3,1,0.4c0.1,0.1-0.1,0.4-0.1,0.7
	c0,0.2-0.1,0.3,0.1,0.6c0.2,0.3,0.3,0.9,0.3,1.1c0,0.2,0,0.9-0.2,1.1c-0.2,0.2-1.9,2.1-2.2,2.5c-0.3,0.3-1.3,0.2-1.6,0.6
	c-0.3,0.4-3.7,2.8-4.4,3.2c-0.6,0.4-3.7,1.2-3.7,1.2s-0.4,0.7-0.7,0.9c-0.3,0.3-2.3,1.2-3,1.5c-0.7,0.3-7.4,2.3-8,2.8
	c-0.5,0.5-0.8,0.8-1.3,1.7c-0.5,0.9-1.2,1.2-2.1,1.5c-0.9,0.2-2.5-0.2-3-0.2c-0.5,0-3.6,1.5-4.7,1.3c-1.2-0.3-1.8-1-2.3-0.8
	c-0.5,0.2-0.3,0.8-1.1,0.4c-0.7-0.3-1.2-0.7-1.2-0.7s-0.6-0.8-1.4-1.3c-0.8-0.4-3.6-1-3.2-1.6c0.4-0.6,1.6-2,1.9-2.6
	c0.3-0.6,1.4-2.8,1.8-3.7c0.4-0.9,0.4-1.4,1.8-2.1c1.4-0.6,0.3-0.6,0.2-0.8c-0.1-0.2-0.2-0.7,0-0.8c0.1-0.1,0.9-0.7,0.9-0.8
	c0-0.1-0.3-0.6-0.1-0.7c0.1-0.2,0.8-0.6,1.1-0.5c0.3,0.1,0.6,0.1,0.5,0.5c-0.1,0.4,0.4,0.7,0.5,0.6c0.1,0,0.6-0.3,0.6-0.5
	c0.1-0.3-0.1-0.7,0.1-0.9c0.2-0.2,0.4-2,0.6-2.5c0.2-0.5,0.4-1,0.3-1.3c-0.1-0.3-0.8-1.1-0.8-1.5c0-0.4-1.5-7.1-1.5-7.4
	c0-0.3,0.1-2.3-0.5-2.8c-0.6-0.5-2-1.9-2.3-1.6c-0.3,0.3-0.3,0.1-0.6,0.4c-0.3,0.3-0.3,0.6-0.6,0.6s-1.9,0-2.3,0.6
	c-0.4,0.6-0.8,0.2-0.7,0.6c0.1,0.3,0.2,0.5,0,0.7c-0.2,0.3-0.6,0.1-0.5,0.3c0,0.3,0.1,0.7-0.1,0.9c-0.3,0.3-0.6,0-0.9,0.4
	c-0.3,0.5-0.2,0.7-0.5,0.9c-0.3,0.2-2.1,0-2.4-0.2c-0.3-0.3-0.8,0.2-0.8-1.4c0-1.6,0.5-2.2,1.1-2.7c0.6-0.5,1.4-0.3,1.7-0.7
	c0.2-0.4,0.6-0.2,0.7-0.6c0.2-0.3,0.3-1,0.3-1.3c0-0.3-0.7-0.6,0.2-1c0.9-0.4,1.5-0.7,1.6-0.8c0.1-0.2,0.3-0.6,0.3-1.1
	c0-0.6,0-1,0.1-1.3c0.1-0.3-0.1-0.7-0.1-1.1c0-0.4,0.5-0.7,0.5-0.9c0-0.2,0-0.3-0.1-0.5c-0.1-0.2-0.3-0.4-0.2-0.8
	c0-0.3,0-0.6-0.3-1.1c-0.2-0.5-1.4-0.9-1.2-1.6c0.2-0.7,0.4-1.4,0.7-1.1c0.3,0.3,0.4,1,0.6,0.6c0.2-0.4,0.3-0.7,0.1-1.1
	c-0.2-0.4-0.4-0.7-0.6-0.9c-0.2-0.2-0.6-0.9-0.7-1.3c-0.2-0.3-0.6-0.6-1-0.8c-0.4-0.2-1.8-0.5-2.5-1c-0.8-0.5-1.9-0.4-2.2-0.6
	c-0.3-0.2-1.8-1-1.8-1s0.5-0.6-0.3-0.9c-0.8-0.4-1.5-0.2-1.8-0.3c-0.3,0-1-0.2-1.2-0.5c-0.3-0.3-1.6-1-1.8-0.9s-1.4,0.1-1.6,0.5
	c-0.2,0.3-0.2,0.2-0.6,0.7c-0.3,0.4-1.5,0.9-1.2,1.6c0.3,0.7,1.6,1.1,1.6,1.5s0.7,0.2,0.2,0.6c-0.6,0.3-1,0.5-1,0.5s-0.7-0.3-1-0.2
	c-0.3,0.1-1.9,0.8-2.2,1.2c-0.3,0.4,0.3,1.3,0.1,1.9c-0.2,0.6-0.8,1.8-0.7,2.2c0.1,0.4,0.1,0.8-0.2,1.1c-0.3,0.3-0.6,1.2-0.8,1
	c-0.3-0.2-1.2,0-1-0.7c0.2-0.7,0.5-0.9,0.6-1.5c0.1-0.6-0.5-0.7-0.2-1.2c0.3-0.5,0.3-0.5,0.4-1c0.2-0.6,0.2-1.6-0.3-1.1
	c-0.5,0.6-1.6,1-1.5,1.2c0.1,0.2-0.7,1.2-0.8,1.4c-0.2,0.3-1.1,0.3-1.3,0.5c-0.2,0.2-1,0.7-1.2,0.9c-0.2,0.3-0.1,1.4-0.3,1.8
	c-0.3,0.4-0.7,0-0.9,0.4c-0.2,0.4,0.2,1.4,0.2,1.6c0,0.2-0.5,1.9-0.6,2.4c0,0.5-0.1,1.4-0.6,1.9c-0.5,0.5-1.6,1.2-1.6,2
	c0,0.8,0.2,1.2,0.4,2.1c0.2,0.9,0.5,1.2,0.2,1.7c-0.3,0.6-1.4,1.1-1.1,1.7c0.4,0.7,1.2,3.6,1.7,4.6c0.5,0.9,1.1,0.1,1,0.7
	c-0.1,0.6-0.3,0.3-0.1,0.9c0.2,0.6,0.5,0.8,0.5,1.7c0,1,0.1,1.4,0.1,2.3c0,0.9-0.8,5.7-1.1,6.4c-0.2,0.7-0.1,1-0.6,1.5
	c-0.5,0.5-1.3,1.5-1.3,2c-0.1,0.5-0.9,1.7-1.3,2.2c-0.3,0.5-2.4,1.9-3.2,2.5c-0.8,0.6-2.2,0.5-2.9,0.4c-0.6-0.1-1.6-0.1-1.9-0.8
	c-0.3-0.7-1.1-2.5-1.1-2.7c0-0.2-0.2-1.1-0.4-1.5c-0.3-0.4-1.3-1.6-1.3-2.1c-0.1-0.5,0.3-5.7,0.4-6.5c0.2-0.9-0.2-1.4-0.6-1.9
	c-0.4-0.5-1.2-2-0.9-2.2c0.3-0.2,0-1.9,0-2c0-0.2-0.1-0.8,0.1-1.1c0.2-0.3,0.7-1.7,0.8-2.2s0.2-1.4,0.4-1.8c0.2-0.4,0.3-0.6,0.5-1.2
	c0.1-0.5,0.2-2.6,0.2-2.6s-0.1-2,0.5-2.5c0.6-0.5,1.1-0.3,1.3-0.9c0.2-0.6,0-1-0.2-1.4c-0.3-0.4-0.3-0.6-0.1-0.9
	c0.3-0.3,0.4-0.7,0.5-0.9c0-0.2,0.2-1.6,0.6-2.1c0.4-0.5,1.1-1.6,1.1-2c0.1-0.4-1-1.1-0.6-1.1c0.4,0,1.6-0.5,1.7-0.9
	c0.1-0.4,0.4-1.7,0.7-1.9c0.3-0.3,0.6-1.3,0.7-1.7c0.1-0.4,0.5-0.6,0.7-1c0.3-0.4,0.3-0.6,0.5-0.6c0.2-0.1,0.9-0.9,0.5-1.1
	c-0.4-0.2-0.7-0.2-0.8,0.1c-0.1,0.3,0.1,1-0.1,1.1c-0.2,0.1-1.1,0.5-1.3,0.7c-0.2,0.2-0.3,0.8-0.5,1.1c-0.2,0.3-0.9,0-1.1,0.7
	c-0.2,0.7-0.2,0.7-0.4,1.1c-0.2,0.5-0.6,1.4-0.6,1.6c0,0.2,0.1,0.7-0.1,0.5c-0.2-0.2-0.7-0.2-0.7-0.2s-0.7,0.6-1,0.6
	c-0.3-0.1-0.5-0.1-0.7,0.1c-0.2,0.2-0.6,1.5-1,2c-0.4,0.5-1.5,1.5-1.7,1.6c-0.2,0.1-1.2-0.1-1.1-0.5c0.1-0.4,0.4-0.4,0.5-0.8
	c0.1-0.3-0.4-0.3,0-0.8c0.4-0.5,0.6-0.8,0.9-1.3c0.4-0.5-0.1-1.2,0.6-1.6c0.7-0.4,0.6-0.2,1.1-0.6c0.5-0.4,0.9-0.4,0.9-0.8
	c0-0.4,0.1-0.3-0.1-0.7c-0.2-0.5,0.1-0.4,0.4-0.8c0.2-0.4,0.7-0.4,0.9-0.9c0.3-0.4,0.7-1.8,1-2.1c0.3-0.3,0.9-1,1.3-1.8
	c0.4-0.7,0.4-1.5,0.7-1.5c0.2,0,0.6,0.1,0.8-0.3c0.2-0.4,0.3-0.8,0.3-1c0.1-0.2,1-2.1,1-1.6c0,0.4-0.8,2.1-0.2,2.4
	c0.6,0.3,1,0.3,1.4-0.6c0.5-0.9,0-1.2,0.6-1.2c0.6-0.1,2-0.5,2-0.2c0,0.3,0.5,0.6,0.2,0.8c-0.3,0.2-1.6,1.9-1.5,2.2
	c0.2,0.3,0.6-0.2,1.1-0.8c0.5-0.7,0.1-0.6,0.7-0.8c0.6-0.2,1.1-0.1,1.2-0.6c0.1-0.5,0.9-0.9,0.5-1.5c-0.3-0.6-1-1.3-0.5-1.2
	c0.5,0.1,0.8,0.3,1.2,0.5c0.4,0.3,1.1,0.4,2,0.2c0.9-0.2,2.7-0.2,3.1-0.3c0.4-0.1,1.1-0.7,1.4-0.9c0.3-0.2,0.9-0.4,1.9-0.2
	c0.9,0.2,1.4,0.2,1.6,0.3c0.2,0.1,2.2,0.2,2.6,0.9c0.4,0.7,1.1,1.2,1.5,1.4c0.4,0.2,0.6,0.7,0.6,0.2c0-0.4,0.1-1.4,0.2-1.5
	c0.2-0.1,0.5-0.2,0.9-0.3c0.4,0,0.9-0.1,1.1,0.1c0.3,0.2,1,0.5,1.6,0.3c0.6-0.2,0.7-0.2,0.8-0.1c0.2,0.1,0.1,0.1,0.9,0.2
	c0.8,0.1,2.3-0.3,2.5-0.3c0.3,0,0.6,0.2,0.9,0.4c0.4,0.2,2.5,0.7,2.7,0.3c0.2-0.4,0.4-0.8,0.3-0.9c-0.2-0.2-1.1-1.1-1.2-1.1
	c-0.2,0-0.5,0.1-0.8,0.5c-0.3,0.4-0.2,1.2-0.9,0.9c-0.8-0.3-1.3-0.1-1.6-0.3s-1-0.4-1.3-1.1c-0.3-0.7-0.9-1.2-1.2-1.1
	c-0.3,0.1-0.8,0-0.7-0.2c0.2-0.3,0.9-0.6,0.7-0.9c-0.2-0.3-0.7-2-1.2-2.4c-0.5-0.4-1-0.2-1.3,0.1c-0.3,0.3-0.4,0.5-0.9,0.4
	c-0.6-0.1-0.5-0.4-0.9-0.4c-0.4,0-0.5,0.2-1.4,0.1c-0.9-0.1-1.4-0.2-1.7-0.5c-0.3-0.3-0.9,0-0.5-0.5c0.3-0.5,0.2-1.2,0.3-1.7
	s0.4-1.1,0.3-1.2c-0.1-0.2-3,0.2-3.7,0.7c-0.6,0.4-1.5,0.6-1.8,0.6c-0.3,0-0.7-0.5-1.1-0.3c-0.4,0.2-0.8,0.2-0.8,0.2
	s-0.8-0.4-1.3-0.3c-0.5,0.1-0.9,0.2-1.5,0.2c-0.7,0-1.2,0-1.9,0.5c-0.7,0.5-1.4,0.6-2,1.1c-0.7,0.5-0.8,0.9-1.3,1.2
	c-0.4,0.3-0.1-0.6-0.3-0.8c-0.2-0.2-1,0.1-1,0.1l-1,0.5c0,0-0.6,0.2-0.9-0.2c-0.3-0.4-1.3-0.6-1.5-0.5c-0.2,0.1-2.7,0.2-2.8,0.1
	c-0.2-0.1-0.3-0.5-0.3-0.6c0-0.2-0.1-0.4-0.6-0.8c-0.5-0.5-1.1-1.9-1.7-2.3c-0.6-0.4-2.6-1-3.6-1.1c-1-0.1-1.2-1.2-1.9-0.5
	c-0.7,0.7-0.6,1.4-0.7,1.3c-0.2-0.1-0.3-0.8-0.6-0.5c-0.3,0.3-0.5,0.7-0.6,0.9c-0.1,0.2-0.2,1-0.5,0.5c-0.3-0.5-0.3-0.5-0.2-1
	c0-0.5,0.1-1.1,0.5-1.6c0.4-0.5,1.2-1.8,1.2-1.8s0.9-1.5,1.2-1.7c0.4-0.2,2-1,1.7-1.2c-0.3-0.2-0.8-0.4-0.4-0.5
	c0.5-0.1,1.6-0.6,1.7-0.5c0.2,0.1,0.8,0.3,0.8,0.3s0.4-0.7,0.1-0.8c-0.4-0.1-2.1-0.2-2.4-0.1c-0.3,0.1-1,0-1.7,0.3
	c-0.6,0.3-1.8,0.7-2.7,1.4c-0.9,0.8-1.8,1.1-1.5,1.7c0.3,0.6,0.9,0.7,1.2,0.8c0.2,0.1,1.1-1.3,1.1-0.7c0.1,0.6-0.3,0.9-0.3,1.2
	c0,0.2-0.7,0.5-0.6,0.8c0.1,0.3,0,0.5,0,0.5s-0.4-0.1-0.6-0.6c-0.2-0.4,0.3-0.4-0.3-0.8c-0.6-0.4-1-0.8-1.2-1.1
	c-0.2-0.3-0.4-0.1-0.7,0.4c-0.3,0.5-1.1,0.6-1.2,1c-0.2,0.4-0.5,1-0.9,1.2c-0.3,0.2-1-0.6-1.4,0.3c-0.4,0.8-1.4,1.2-1.7,1.2
	s-3.1,0.9-3.4,0.9c-0.3,0-1.5-0.2-1.7,0.1c-0.2,0.2-2,1.2-2.4,1.5c-0.3,0.3-1,0.3-1.3,0.4c-0.4,0.1-1.4,0.4-1.6,0.6
	c-0.2,0.2-0.4,0.3-0.7,0.3c-0.2,0-0.5,0.1-0.8-0.2c-0.4-0.3-1.6-0.9-2-0.8c-0.3,0.1-0.6,0.4-0.7,0.5c-0.1,0.1-0.9,0.6-1.1,0.4
	c-0.2-0.1-0.8-0.1-0.4-0.4c0.4-0.3,0.4-0.5,0.5-0.8c0.1-0.3,0.4-0.3,0.5-0.9c0.1-0.6,0.2-0.9,0.4-0.9s0.3-0.9,0.5-0.9s0.2,0.2,0.4,0
	c0.2-0.2-0.5-0.6-0.6-0.6s-0.4-0.3-0.7-0.3s-0.5,0.2-0.9,0.4c-0.4,0.2-1.4,0.6-2,0.9c-0.5,0.3-1.2,0.5-1.9,0.8
	c-0.7,0.3-5,1.7-5.5,1.3c-0.5-0.4,0-0.7-0.8-0.6c-0.7,0.2-1.3,0.3-1-0.2c0.3-0.6,0.7-1.2,1.7-1.6c1-0.5,3-1.8,4.1-2.7
	c1.1-0.9,3.2-3.7,4-4.3c0.8-0.6,6.5-3.4,8.7-4.3c2.2-0.9,2.6-0.9,3.6-1.6c1-0.7,1.6-1,1.8-1.1c0.2,0-0.2-0.5-0.5-0.5s-1.2,0-1.6,0.3
	c-0.4,0.3-0.6,0.7-1.1,0c-0.4-0.7-1.5-1.2-1.8-1.2c-0.3,0.1-1.7-0.3-2.1-0.1c-0.4,0.2-1.1,0.2-1.5,0.1c-0.4-0.1-1,0-1.3,0.1
	c-0.3,0.1-1.2,0.2-1.4-0.3c-0.3-0.5-0.7-1.2-0.7-1.2s-0.6-0.2-0.9,0.2c-0.3,0.4-1,0.3-1.4,0.7c-0.4,0.3-1.5,0.8-1.7,0.9
	c-0.3,0.1-1.5,0.3-1.5,0.3s-1.8,1-2.1,0.6c-0.3-0.3-0.5-0.5-0.2-0.8c0.3-0.3,0.1-0.5,0-0.8c-0.1-0.3-3-1.5-3.4-1.8
	c-0.3-0.3-1.7-1.2-2-0.5c-0.3,0.7,0.8,1.2,0,1c-0.8-0.1-1,0.1-1.1-0.2c-0.2-0.3-1.1-0.8-1.2-1.4c-0.2-0.5,0.2-0.9-0.2-0.6
	c-0.4,0.3-0.6,0.1-0.7,0.1c-0.1,0-3.6-0.2-4-0.5s-0.5-1-1.1-1.5c-0.5-0.5-1.5-1-2.1-0.7c-0.7,0.3-1.1,0.4-1,0.6
	c0,0.2-0.5,0.6-0.8,0.6c-0.3,0-1.2,0.2-1.5,0.2c-0.3,0-1.4-0.3-1.4-0.7c0-0.4,0.2-0.7,0-0.8c-0.2-0.1-3.3-0.2-3.7-0.5
	c-0.5-0.3-0.8-0.3-1.1-0.3c-0.3,0-2.3,0-2.6-0.5c-0.4-0.4-0.9-0.7-0.7-1c0.2-0.3-1.1-5.1-1.3-5.7c-0.2-0.7-0.5-1-0.9-1.3
	c-0.4-0.3-2-0.7-2,0.2c0,0.9-1.1,1.5-0.2,2.1c0.9,0.6,0.5,0.7,0.3,0.8c-0.2,0.2-0.5,0.7-0.6,0.9c-0.1,0.3-0.4,0.7-0.4,0.7L311,304.3
	L311,304.3z M801.7,402l0.2-0.2c0,0,0.1-0.2,0.2-0.3c0,0,0.1,0.1,0.1,0.2c0,0.1-0.1,0.4-0.1,0.5c0,0.1-0.3,0.2-0.3,0.2
	S801.6,402.1,801.7,402L801.7,402z M846.1,356.7c0.1,0.1,0.6,0.3,0.6,0.2c0-0.1,0-0.4-0.1-0.5c-0.1-0.1-0.4,0-0.4,0.1
	C846.2,356.5,846.1,356.7,846.1,356.7L846.1,356.7z M832.4,362.8c0.1-0.6,0.7-1.3,0.8-1.3c0.2,0,1.3,0.4,1.2,0.7
	c-0.2,0.4-1.3,0.3-1.3,0.7c0,0.4,0.5,0.2,0.3,0.5c-0.2,0.3-0.5,0.3-0.6,0.7c-0.1,0.3,0.5,1.1,0,0.9c-0.5-0.2-0.7-0.5-0.9-0.4
	c-0.1,0.2-0.3-0.2,0-0.4c0.3-0.2,0.5-0.4,0.5-0.8C832.5,363.3,832.4,362.8,832.4,362.8L832.4,362.8z M816.7,397.5
	c0-0.2,0.6-1.5,0.8-1.4c0.2,0.1-0.1,0.6-0.1,0.6S816.7,397.5,816.7,397.5L816.7,397.5z M814.7,400.7c0,0,0.9,0,1.4-0.1
	c0.5,0,0.7-0.8,0.7-0.6c0.1,0.3,0.5,0.9,0.5,1C817.2,401.2,815.2,401.1,814.7,400.7L814.7,400.7z M809.1,400c0,0,0.6-0.1,0.8-0.3
	c0.1-0.2,0.7-0.6,0.9-0.9c0.2-0.2,0.6-0.1,0.9,0c0.3,0.1,0.3,0.9,0.3,0.9s-2.1,0.2-2.3,0.4C809.6,400.4,809.3,400.4,809.1,400
	L809.1,400z M701.3,610.3c-0.2-0.1-0.4-0.7-0.7-0.5c-0.3,0.3-0.3,0.8-0.1,0.9C700.7,610.8,701.3,610.3,701.3,610.3L701.3,610.3z
	 M708.4,608.1c0,0,0,0.9-0.1,1c-0.1,0.2-1.4,0.5-1.7,0.4c-0.3-0.1-0.7,0.4-1,0.6c-0.4,0.2-1.8,0.8-2,0.4c-0.2-0.4,0.7-0.5,1-0.6
	s0.2,0,0.6-0.1c0.4-0.2-0.2-0.3,0.2-1c0.4-0.7,0.4,0.2,0.4,0.2s1.3-0.9,1.6-1.2C707.7,607.6,708.2,608.1,708.4,608.1z"/>
</svg>
