<!-- Generated by IcoMoon.io -->
<svg version="1.1" xmlns="http://www.w3.org/2000/svg" width="1024" height="1024" viewBox="0 0 1024 1024">
<title></title>
<g id="icomoon-ignore">
</g>
<path d="M916.732 518.983h-809.61c-13.872 0-25.235 11.216-25.235 25.235v102.42c0 13.577 10.626 25.825 24.056 25.235 14.462-0.59 26.269 10.922 26.269 25.235v100.796c0 13.872 11.216 25.235 25.235 25.235h77.331c13.872 0 25.235-11.216 25.235-25.235v-100.796c0-27.893 22.579-50.323 50.323-50.323h403.181c27.893 0 50.323 22.579 50.323 50.323v100.796c0 13.872 11.216 25.235 25.235 25.235h77.331c13.872 0 25.235-11.216 25.235-25.235v-100.796c0-13.431 10.626-25.825 24.056-25.235 14.462 0.59 26.417-10.922 26.417-25.235v-102.42c-0.148-14.020-11.512-25.235-25.383-25.235v0z"></path>
<path d="M675.148 783.443c-1.181-1.771-1.919-3.838-1.919-5.902v-1.327l-22.285-85.301h-118.799v28.926c0 7.969-9.002 14.462-20.218 14.462s-20.218-6.494-20.218-14.462v-28.926h-118.799l-22.285 85.301v1.327c0 2.213-0.738 4.132-1.919 5.902l-58.292 223.433c-1.181 4.279 0.442 8.559 4.279 11.954 3.838 3.246 9.445 5.165 15.495 5.165h403.477c6.050 0 11.66-1.919 15.495-5.165s5.461-7.673 4.279-11.954l-58.292-223.433zM532.144 980.606c0 7.969-9.002 14.462-20.218 14.462s-20.218-6.494-20.218-14.462v-28.926c0-7.969 9.002-14.462 20.218-14.462s20.218 6.494 20.218 14.462v28.926zM532.144 893.093c0 7.969-9.002 14.462-20.218 14.462s-20.218-6.494-20.218-14.462v-28.926c0-7.969 9.002-14.462 20.218-14.462s20.218 6.494 20.218 14.462v28.926zM532.144 806.317c0 7.969-9.002 14.462-20.218 14.462s-20.218-6.494-20.218-14.462v-28.926c0-7.969 9.002-14.462 20.218-14.462s20.218 6.494 20.218 14.462v28.926z"></path>
<path d="M151.396 8.366l389.604-0.885c0 0 0.442-0.59 0.59-1.033 0.148-0.296 0.59-1.033 0.885-1.327 0.296-0.148 0.885-0.296-0.442-1.181s0.296-1.771 0.296-3.098c0-1.327 2.361-0.738 2.952-0.296s1.033 0.885 1.327 1.919c0.296 0.885 2.213 7.969 1.919 8.411s0.442 0.885 1.033 1.475c0.442 0.738 3.394 0.738 3.838 0.738s0.885 0 1.623 0.442c0.59 0.442 5.165 0.59 5.461 0.738s0 0.59 0 1.181c0 0.59 1.623 1.033 2.067 1.033s1.771-0.296 2.213-0.296c0.442 0 1.181-0.59 1.181-0.885-0.148-0.296 0.442-0.442 1.475-0.885 0.885-0.442 2.361 0.296 3.098 1.033 0.885 0.738 1.033 1.771 1.623 2.213s5.755 0.738 5.902 0.738c0.148 0 0.442 0.296 1.033-0.148s0 0.148 0.296 0.885c0.148 0.885 1.475 1.623 1.771 2.067 0.148 0.442 0.442 0.148 1.623 0.296 1.181 0.296-0.442-0.442 0-1.475s2.508 0.296 2.952 0.738c0.59 0.442 4.869 2.213 5.017 2.656s0.442 0.738 0 1.181c-0.442 0.442-0.148 0.738 0.296 1.181 0.442 0.59 3.098-0.885 3.098-0.885s1.771-0.296 2.213-0.442c0.296-0.148 1.919-0.885 2.508-1.327 0.59-0.59 1.623-0.442 2.067-1.033s1.327-0.296 1.327-0.296c0 0 0.59 1.033 1.033 1.771 0.296 0.738 1.623 0.59 2.067 0.442s1.327-0.296 1.919-0.148c0.59 0.148 1.623 0.148 2.213-0.148s2.656 0.296 3.098 0.148c0.442 0 2.067 0.738 2.656 1.771 0.738 1.033 1.033 0.442 1.623 0s1.919-0.442 2.361-0.442c0.442 0 1.033 0.738 0.738 0.738-0.296 0.148-1.181 0.59-2.656 1.623s-2.067 1.033-5.313 2.361c-3.246 1.327-11.66 5.461-12.839 6.346s-4.279 5.017-5.902 6.346c-1.623 1.327-4.575 3.246-6.050 3.984-1.475 0.59-2.067 1.475-2.508 2.361-0.442 0.738 0.442 0.59 1.475 0.296 1.181-0.148 0.442 0.296 1.181 0.885s7.084-1.475 8.117-1.919c1.033-0.442 2.067-0.738 2.804-1.181 0.885-0.442 2.361-1.033 2.952-1.327s0.885-0.59 1.327-0.59c0.442 0 0.885 0.442 1.033 0.442s1.181 0.59 0.885 0.885c-0.296 0.296-0.296 0-0.59 0s-0.442 1.327-0.738 1.327c-0.296 0-0.442 0.442-0.59 1.327s-0.59 0.885-0.738 1.327c-0.148 0.442-0.148 0.738-0.738 1.181s0.296 0.442 0.59 0.59c0.296 0.296 1.475-0.442 1.623-0.59s0.59-0.59 1.033-0.738c0.59-0.148 2.361 0.738 2.952 1.181 0.442 0.442 0.885 0.296 1.181 0.296 0.442 0 0.738-0.148 1.033-0.442s1.771-0.738 2.361-0.885c0.442-0.148 1.475-0.148 1.919-0.59 0.59-0.442 3.246-1.919 3.542-2.213 0.296-0.442 2.067-0.148 2.508-0.148s4.575-1.327 5.017-1.327c0.442 0 1.919-0.59 2.508-1.771 0.59-1.327 1.623-0.148 2.067-0.442 0.59-0.296 1.033-1.181 1.327-1.771 0.148-0.59 1.327-0.738 1.771-1.475s0.738-1.033 1.033-0.59c0.296 0.442 0.885 1.033 1.771 1.623s0.148 0.59 0.442 1.181c0.296 0.738 0.885 0.885 0.885 0.885s0.148-0.296 0-0.738c-0.148-0.442 0.885-0.885 0.885-1.181 0-0.442 0.59-0.885 0.442-1.771 0-0.885-1.327 1.181-1.623 1.033-0.442-0.148-1.327-0.296-1.771-1.181s0.885-1.327 2.213-2.508c1.327-1.033 3.098-1.623 3.984-2.067 1.033-0.442 2.067-0.296 2.508-0.442s2.952 0 3.542 0.148c0.442 0.148-0.148 1.181-0.148 1.181s-0.885-0.296-1.181-0.442c-0.148-0.148-1.771 0.59-2.508 0.738-0.59 0.148 0.148 0.442 0.59 0.738s-1.919 1.475-2.508 1.771c-0.442 0.296-1.771 2.508-1.771 2.508s-1.181 1.919-1.771 2.656c-0.59 0.738-0.738 1.623-0.738 2.361-0.148 0.738-0.148 0.738 0.296 1.475s0.59-0.442 0.738-0.738c0.148-0.296 0.442-0.885 0.885-1.327s0.59 0.59 0.885 0.738c0.148 0.148 0-0.885 1.033-1.919s1.327 0.59 2.804 0.738c1.475 0.148 4.427 1.033 5.313 1.623s1.771 2.656 2.508 3.394c0.738 0.59 0.885 0.885 0.885 1.181 0 0.148 0.148 0.738 0.442 0.885 0.148 0.148 3.838 0 4.132-0.148s1.771 0.148 2.213 0.738c0.442 0.59 1.327 0.296 1.327 0.296l1.475-0.738c0 0 1.181-0.442 1.475-0.148s-0.148 1.623 0.442 1.181c0.738-0.442 0.885-1.033 1.919-1.771 0.885-0.738 1.919-0.885 2.952-1.623s1.771-0.738 2.804-0.738c0.885 0 1.475-0.148 2.213-0.296s1.919 0.442 1.919 0.442c0 0 0.59 0 1.181-0.296s1.181 0.442 1.623 0.442c0.442 0 1.771-0.296 2.656-0.885 1.033-0.738 5.313-1.327 5.461-1.033 0.148 0.148-0.296 1.033-0.442 1.771s0 1.771-0.442 2.508c-0.59 0.738 0.296 0.296 0.738 0.738s1.181 0.59 2.508 0.738c1.327 0.148 1.475-0.148 2.067-0.148s0.442 0.442 1.327 0.59c0.738 0.148 0.885-0.148 1.327-0.59s1.181-0.738 1.919-0.148c0.738 0.59 1.475 3.098 1.771 3.542s-0.738 0.885-1.033 1.327c-0.148 0.296 0.59 0.442 1.033 0.296s1.327 0.59 1.771 1.623c0.442 1.033 1.475 1.327 1.919 1.623s1.181 0 2.361 0.442c1.033 0.442 0.885-0.738 1.327-1.327s0.885-0.738 1.181-0.738c0.148 0 1.475 1.327 1.771 1.623 0.148 0.148-0.148 0.738-0.442 1.327s-3.394-0.148-3.984-0.442c-0.442-0.296-0.885-0.59-1.327-0.59-0.296 0-2.508 0.59-3.69 0.442s-1.033-0.148-1.327-0.296-0.296-0.148-1.181 0.148c-0.885 0.296-1.919-0.148-2.361-0.442-0.296-0.296-1.033-0.148-1.623-0.148-0.59 0.148-1.033 0.296-1.327 0.442-0.148 0.148-0.296 1.623-0.296 2.213 0 0.738-0.296 0-0.885-0.296s-1.623-1.033-2.213-2.067c-0.59-1.033-3.542-1.181-3.838-1.327s-1.033-0.148-2.361-0.442c-1.475-0.296-2.361 0-2.804 0.296s-1.475 1.181-2.067 1.327c-0.59 0.148-3.246 0.148-4.575 0.442s-2.361 0.148-2.952-0.296c-0.59-0.296-1.033-0.59-1.771-0.738s0.296 0.885 0.738 1.771c0.59 0.885-0.59 1.475-0.738 2.213s-0.885 0.59-1.771 0.885c-0.885 0.296-0.296 0.148-1.033 1.181-0.738 0.885-1.327 1.623-1.623 1.181-0.148-0.442 1.771-2.952 2.213-3.246s-0.296-0.738-0.296-1.181c0-0.442-2.067 0.148-2.952 0.296-0.885 0-0.148 0.442-0.885 1.771-0.59 1.327-1.181 1.327-2.067 0.885s0.296-2.952 0.296-3.542c0-0.738-1.327 2.067-1.475 2.361 0 0.296-0.148 0.885-0.442 1.475s-0.885 0.442-1.181 0.442c-0.442 0-0.442 1.181-1.033 2.213-0.59 1.181-1.475 2.213-1.919 2.656s-1.033 2.508-1.475 3.098c-0.296 0.738-1.033 0.738-1.327 1.327-0.442 0.59-0.885 0.442-0.59 1.181 0.296 0.59 0.148 0.442 0.148 1.033s-0.59 0.59-1.327 1.181c-0.738 0.59-0.59 0.296-1.623 0.885s-0.296 1.623-0.885 2.361c-0.442 0.738-0.738 1.181-1.327 1.919s0.148 0.738 0 1.181c-0.148 0.59-0.59 0.59-0.738 1.181s1.327 0.885 1.623 0.738c0.296-0.148 1.919-1.623 2.508-2.361s1.181-2.656 1.475-2.952c0.296-0.296 0.59-0.296 1.033-0.148 0.442 0 1.475-0.885 1.475-0.885s0.738 0 1.033 0.296c0.296 0.296 0.148-0.442 0.148-0.738s0.59-1.623 0.885-2.361c0.296-0.59 0.296-0.59 0.59-1.623s1.327-0.59 1.623-1.033c0.296-0.442 0.442-1.327 0.738-1.623s1.623-0.885 1.919-1.033c0.296-0.148 0-1.181 0.148-1.623s0.59-0.442 1.181-0.148c0.59 0.296-0.442 1.475-0.738 1.623-0.296 0-0.296 0.296-0.738 0.885-0.296 0.59-0.885 0.885-1.033 1.475s-0.59 2.067-1.033 2.508c-0.442 0.296-0.885 2.213-1.033 2.804s-1.919 1.327-2.508 1.327c-0.59 0 1.033 1.033 0.885 1.623 0 0.59-1.033 2.213-1.623 2.952s-0.885 2.804-0.885 3.098c-0.148 0.296-0.296 0.885-0.738 1.327-0.296 0.442-0.296 0.738 0.148 1.327 0.296 0.59 0.59 1.181 0.296 2.067s-1.033 0.59-1.919 1.327c-0.885 0.738-0.738 3.69-0.738 3.69s-0.148 3.098-0.296 3.838c-0.296 0.885-0.442 1.181-0.738 1.771s-0.442 1.919-0.59 2.656c-0.148 0.738-0.885 2.804-1.181 3.246s-0.148 1.327-0.148 1.623c0 0.148 0.442 2.656 0 2.952s0.738 2.508 1.327 3.246c0.59 0.738 1.181 1.475 0.885 2.804-0.148 1.181-0.738 8.855-0.59 9.593 0 0.738 1.475 2.508 1.919 3.098 0.296 0.59 0.59 1.919 0.59 2.213s1.181 2.952 1.623 3.984c0.442 1.033 1.919 1.033 2.804 1.181 1.033 0.148 3.098 0.296 4.279-0.59s4.279-2.952 4.723-3.69c0.59-0.738 1.771-2.508 1.919-3.246 0-0.738 1.181-2.213 1.919-2.952s0.59-1.181 0.885-2.213c0.442-1.033 1.623-8.117 1.623-9.445s-0.148-1.919-0.148-3.394c0-1.327-0.442-1.623-0.738-2.508s0-0.442 0.148-1.327c0.148-0.885-0.738 0.296-1.475-1.033-0.738-1.475-1.919-5.755-2.508-6.788-0.442-0.885 1.181-1.623 1.623-2.508 0.442-0.738 0-1.181-0.296-2.508s-0.59-1.919-0.59-3.098c0-1.181 1.623-2.213 2.361-2.952s0.885-2.067 0.885-2.804c0.148-0.738 0.885-3.246 0.885-3.542s-0.59-1.771-0.296-2.361c0.296-0.59 0.885 0 1.327-0.59 0.296-0.59 0.148-2.213 0.442-2.656 0.296-0.296 1.475-1.033 1.771-1.327s1.623-0.296 1.919-0.738c0.148-0.296 1.327-1.771 1.181-2.067s1.475-0.885 2.213-1.771c0.738-0.738 0.738 0.738 0.442 1.623-0.148 0.738-0.148 0.738-0.59 1.475s0.442 0.885 0.296 1.771c-0.148 0.885-0.59 1.181-0.885 2.213s1.033 0.738 1.475 1.033c0.296 0.296 0.738-1.033 1.181-1.475s0.442-1.033 0.296-1.623c-0.148-0.59 0.738-2.361 1.033-3.246s-0.59-2.213-0.148-2.804c0.442-0.59 2.804-1.623 3.246-1.771s1.475 0.296 1.475 0.296c0 0 0.59-0.296 1.475-0.738 0.738-0.59-0.296-0.296-0.296-0.885s-1.919-1.181-2.361-2.213c-0.442-1.033 1.327-1.771 1.771-2.361 0.59-0.738 0.59-0.59 0.885-1.033 0.296-0.59 2.067-0.59 2.361-0.738s2.213 0.885 2.656 1.327c0.296 0.442 1.327 0.738 1.771 0.738 0.442 0.148 1.475-0.148 2.656 0.442 1.181 0.442 0.442 1.327 0.442 1.327s2.213 1.181 2.656 1.475c0.442 0.296 2.067 0.148 3.246 0.885 1.033 0.738 3.098 1.181 3.69 1.475s1.181 0.738 1.475 1.181c0.148 0.59 0.738 1.623 1.033 1.919s0.59 0.738 0.885 1.327c0.296 0.59 0.148 1.033-0.148 1.623s-0.442-0.442-0.885-0.885c-0.442-0.442-0.738 0.59-1.033 1.623s1.475 1.623 1.771 2.361c0.442 0.738 0.442 1.181 0.442 1.623-0.148 0.59 0.148 0.885 0.296 1.181s0.148 0.442 0.148 0.738c0 0.296-0.738 0.738-0.738 1.327s0.296 1.181 0.148 1.623c-0.148 0.442-0.148 1.033-0.148 1.919 0 0.738-0.296 1.327-0.442 1.623-0.148 0.148-1.033 0.59-2.361 1.181s-0.296 1.033-0.296 1.475c0 0.442-0.148 1.475-0.442 1.919-0.148 0.59-0.738 0.296-1.033 0.885-0.442 0.59-1.623 0.296-2.508 1.033s-1.623 1.623-1.623 3.984c0 2.361 0.738 1.623 1.181 2.067 0.442 0.296 3.098 0.59 3.542 0.296s0.296-0.59 0.738-1.327c0.442-0.59 0.885-0.148 1.327-0.59 0.296-0.296 0.148-0.885 0.148-1.327-0.148-0.296 0.442 0 0.738-0.442 0.296-0.296 0.148-0.59 0-1.033-0.148-0.59 0.442 0 1.033-0.885s2.952-0.885 3.394-0.885c0.442 0 0.442-0.442 0.885-0.885s0.442-0.148 0.885-0.59c0.442-0.442 2.508 1.623 3.394 2.361s0.738 3.69 0.738 4.132c0 0.442 2.213 10.331 2.213 10.922s1.033 1.771 1.181 2.213c0.148 0.442-0.148 1.181-0.442 1.919s-0.59 3.394-0.885 3.69c-0.296 0.296 0 0.885-0.148 1.327 0 0.296-0.738 0.738-0.885 0.738-0.148 0.148-0.885-0.296-0.738-0.885s-0.296-0.59-0.738-0.738c-0.442-0.148-1.475 0.442-1.623 0.738-0.296 0.148 0.148 0.885 0.148 1.033s-1.181 1.033-1.327 1.181c-0.296 0.148-0.148 0.885 0 1.181s1.771 0.296-0.296 1.181c-2.067 1.033-2.067 1.771-2.656 3.098s-2.213 4.575-2.656 5.461c-0.442 0.885-2.213 2.952-2.804 3.838s3.542 1.771 4.723 2.361c1.181 0.738 2.067 1.919 2.067 1.919s0.738 0.59 1.771 1.033c1.181 0.59 0.885-0.296 1.623-0.59s1.623 0.738 3.394 1.181c1.623 0.296 6.198-1.919 6.936-1.919s3.098 0.59 4.427 0.296c1.327-0.442 2.361-0.885 3.098-2.213s1.181-1.771 1.919-2.508c0.885-0.738 10.774-3.69 11.808-4.132s3.984-1.771 4.427-2.213c0.442-0.296 1.033-1.327 1.033-1.327s4.575-1.181 5.461-1.771c1.033-0.59 6.050-4.132 6.494-4.723s1.919-0.442 2.361-0.885c0.442-0.59 2.952-3.394 3.246-3.69s0.296-1.327 0.296-1.623c0-0.296-0.148-1.181-0.442-1.623s-0.148-0.59-0.148-0.885c0-0.442 0.296-0.885 0.148-1.033s-0.59-0.296-1.475-0.59c-0.885-0.296-0.59-2.213-0.59-3.246s0.885-0.59 1.033-0.738c0.296-0.148 9.15-2.067 9.15-2.067l2.067 0.738c0 0 0.885-0.148 1.033-0.442s2.361 0.442 2.656 0.442c0.296-0.148 1.475 0.148 2.361 0.59s1.771 1.181 2.361 1.623c0.59 0.442 1.623-0.296 1.919-0.442 0.148-0.148 3.542-0.442 3.984-0.442 0.59 0 2.067 0.296 2.656 0.442s0.738-0.738 2.508-0.885c1.623-0.148 3.69-2.656 4.279-3.246s1.327-0.738 1.327-0.738c0 0 2.656-0.296 3.098-0.59s-0.148-0.738 0.296-1.475c0.442-0.59-0.885-1.771-0.885-2.213s-0.59-1.033-0.59-1.623c0-0.59 0.296-0.148 0.59-0.148s1.327 0 1.033-1.475c-0.148-1.475 0.59-0.296 1.181-0.738 0.59-0.296-0.738-0.738-0.885-1.181s-0.885-0.442-1.327-0.442c-0.442-0.148-0.296 0.59-0.738 0.59-0.296 0-0.59-1.033-0.442-1.771s1.181-1.919 1.181-1.919c0 0 1.475-0.148 1.771-0.296 0.442-0.296 1.181-0.885 2.213-2.067 0.885-1.181 0.885-0.148 1.623-0.738s0.738-0.296 0.738-0.296l0.148-1.771c0 0 1.033-1.033 1.475-1.475 0.59-0.442 2.804-2.656 3.69-3.542 0.885-0.738 3.542-2.213 3.542-2.213s1.033-0.442 1.475-0.885c0.442-0.296 1.327-0.885 1.327-0.885h22.579c0 0 0.885 0.148 1.181 0s2.804-0.442 2.804-0.442c0 0 21.694 0.296 21.842 0.296 0.296 0 1.033-0.59 1.327-1.181s0.738-1.623 0.885-2.361c0.148-0.738 0.442-0.59 1.327-1.475 0.885-0.738 1.475 0.59 1.771 0.738s1.327 0 1.327-0.296c0-0.148 0.296-0.59 0.885-0.59s0-0.296 0.442-1.181c0.442-0.885 0.885 0.738 1.033 0.885s0.296 0.59 0.59 1.033c0.148 0.296 0.442 0.296 0.59-0.296s0.442-0.885 0.296-1.919c-0.148-1.033 0-1.033 0.296-1.327s0.738 0.148 0.885 0.442c0.148 0.296 0.738 0.59 1.327 0.442s-0.296-0.59-0.738-0.885c-0.296-0.296-0.59 0-0.885-0.442s0.738-0.59 0.738-1.623c0-1.033 3.542-2.213 3.838-2.508 0.442-0.296 0.296-0.59 0.59-0.885s-0.296-0.442-0.148-1.181c0.148-0.738 1.475-0.59 1.623-0.738 0.148-0.296 0.296-1.327 0.442-1.919s-0.738-1.623-0.738-2.213c0-0.59 0.59-0.442 0.738-0.738 0-0.296 0-0.885-0.296-1.919-0.296-0.885 0.442-0.885 0.885-1.771 0.59-1.033 1.327-1.475 1.623-2.213 0.442-0.738 1.033-0.885 1.033-2.952s0.442-1.771 0.442-2.213c0.148-0.442 0.885-0.885 1.475-1.771s2.804-3.984 3.394-4.723c0.59-0.738 1.623-1.475 1.771-1.623s0.148-0.296 0.296-0.738c0.296-0.442 0.885-0.885 1.327-1.475 0.59-0.738 1.475-2.361 1.919-2.804 0.296-0.442 1.623-0.738 2.067-0.885 0.442 0 1.181 0.442 1.475 0.59 0.296 0.296-0.148 2.067-0.148 2.361 0 0.148 0.148 0.738 0.442 1.033 0.296 0.442 0.885 0.296 1.181 0.738 0.296 0.296 0.738 0.148 1.181 0 0.59-0.148 0.885-0.442 1.033-0.442s0.296-0.148 1.181-0.296c0.885 0 1.033-0.148 1.623-0.59s1.327-0.442 1.327-0.442c0 0 1.181 0.296 1.327 0.296s0.148-0.738 0.296-1.181c0.148-0.442 0.738 0 1.181-0.148s2.361 1.181 2.804 1.623c0.442 0.296 1.181 1.181 1.623 1.771s1.475 1.181 1.771 1.475c0.296 0.296 0.59 0.442 0.59 0.442s0.885 20.218 0.885 20.956c0.148 0.738-0.148 0.442-0.738 1.033s0.148 0.738 0 1.181c-0.148 0.442-0.148 1.327-0.296 1.919s0.738 0.738 1.033 0.885c0.296 0.148 1.033 0.442 1.327 1.033s2.361-0.296 2.804 0.148c0.442 0.442 0.148 1.033 0.148 1.181-0.148 0.148-0.442 0.296-0.885 0.738s0.738 1.771 0.885 2.067c0.148 0.442-0.148 0.442-0.296 1.033s0.296 2.067 0.442 2.361c0.296 0.296 0.59 0.59 1.033 1.033s0.738 0 0.738-0.442c0-0.442 0.59-0.148 1.033 0s1.623 2.067 1.919 2.508c0.296 0.442 0.442 0.738 0.738 1.327 0.442 0.59-0.885 0.148-1.181 0.442-0.442 0.296-0.738 0.296-1.033 0.442s0.59 0.738 0.59 1.181c0 0.442 0.59 0.296 0.885 0.442s0.442 0.148 0.738 0.148c0.296 0 0.442 0.738 0.296 0.738s-1.033 0.738-1.327 1.181c-0.296 0.442-1.475 0.59-1.623 0.738-0.296 0-0.59 0.296-0.738 0s0.148-0.148 0.296-0.59c0.148-0.442-0.738 0-1.327-0.296s-0.885 0.442-0.885 0.442c0 0-0.148 0.296-0.442 0.59-0.296 0.148-0.442-0.442-0.738-0.296s-0.59 0.442-1.033 0.738c-0.59 0.296 0 0.296 0 0.59s-0.148 0.442-0.442 0.738c-0.296 0.296-0.148-0.296-0.442-0.59s-0.738 0.442-0.885 0.442c-0.148 0-0.296-0.442-0.59-0.885s-1.623 0.738-1.919 0.885c-0.148 0.148 0.148 1.181-0.148 1.181s-0.59-0.148-1.033-0.442c-0.442-0.442-0.442 0-0.885 0.148s0 0.59 0 1.327c0 0.738-0.296 0.59-0.442 0.738-0.296 0-0.148-0.442-0.296-1.181s0.148-0.59 0-0.885c-0.148-0.296-0.738-0.148-0.738-0.296-0.148-0.148-1.623 0-1.771-0.148 0-0.148-0.885 0-1.033 0.59s0.148 0.442 0 0.885c-0.148 0.442-0.148 0.296-0.59 0.59-0.442 0.148-0.442-0.296-0.442-0.59s0-0.442 0-0.885c0-0.296-1.033-0.296-1.033-0.296s-0.296 1.033-0.296 1.475c0 0.442-0.442 0.442-1.181 0.738-0.885 0.442 0 0.442-0.148 0.885-0.148 0.59-0.148 0.442 0 0.885s0.296 0.59 0.296 1.327c0 0.738-0.442 0.296-0.59 0.442 0 0.148-0.59 0-0.59-0.296s0.442 0 0.738-0.442c0.442-0.442-0.442-0.296-0.738-0.59-0.296-0.148-0.885-0.296-1.181-0.442s-0.148-0.885 0-1.181c0.148-0.296 0.59 0 0.738-0.738 0-0.738-0.296-0.296-0.442-0.59s-0.296 0-1.033 0.59c-0.738 0.59 0-0.442 0.296-0.738 0.296-0.442 0.59-0.738 0.885-1.475s-0.59-0.442-1.033-0.59c-0.442-0.148-0.296 0.59-0.442 1.033-0.296 0.59-1.771 1.181-2.361 1.771s0.885 1.327 0.59 1.919c-0.296 0.59-1.475 2.213-1.919 2.952-0.442 0.885 0.148 1.181 0.148 1.771 0 0.442-1.327 0.885-1.919 1.033-0.442 0.148-0.738 0.442-1.327 0.442-0.738 0-0.442-0.296-0.296-1.033s-0.738-0.148-0.885-0.148c-0.148 0.148-0.296 0.738-0.442 0.885-0.296 0-0.59 0.442-0.885 1.033-0.296 0.738-0.296 0.885-0.59 1.033-0.442 0.148-0.442-0.442-0.442-0.885-0.148-0.442 0.148-0.442 0.442-0.738s0-0.442-0.148-0.59c0-0.148-0.59-0.148-0.738-0.148-0.148 0.148-0.148 0.59-0.296 1.033s-0.59 0-0.59-0.442c0.148-0.442 0.148-0.442 0.296-1.033s-0.59 0.442-0.885 0.738c-0.296 0.296-0.885 1.033-1.033 1.475-0.148 0.296-0.59 0.59-0.442-0.148s-0.296-0.738-0.296-1.475c0-0.738 0.296-0.296 0.442-0.738s-0.442 0.148-0.885 0.296c-0.442 0.148-0.59 1.033-0.59 1.623 0 0.738 0.738 0.442 0.885 0.738s-1.033 1.623-1.181 1.327c-0.148-0.296-0.59-0.296-1.033-0.148s-1.771 0.885-2.067 0.885c-0.296 0-0.59 0.885-1.327 1.919s0.59 1.033 0.59 1.033c0 0-1.771 1.623-2.508 2.361-0.738 0.59 0.148 0.59 0 1.327s-0.885 0.59-1.327 1.623c-0.442 1.033-0.442-0.148-0.885 0-0.442 0.296-0.296 2.804-0.442 3.098 0 0.296-2.213 2.361-2.656 3.246-0.442 1.033-0.738 2.213-1.033 2.804s0.738 2.804 0.885 3.098c0 0.296 0.59 0.738 0.885 0.885 0.296 0.296 0.442 1.181 0.296 1.475s-1.771 0.296-2.067 0.442c-0.296 0.148-1.033 1.475-1.181 1.623 0 0.148-0.148 0.885-0.296 1.033s-0.59 0.738-0.59 1.033c-0.148 0.442-0.738 0.296-1.033 0.442s0.148 0.296 0.296 0.442c0.148 0 0.885 0.738 1.181 1.033 0.442 0.442 0.442-0.148 0.442-0.296 0.148-0.148 0-0.148-0.148-0.296s0.296 0 0.296-0.296c0-0.296 0.59 0.296 1.181 0.59s1.033 1.033 1.181 1.033c0 0.148 0 0.59 0 1.033 0 0.296 0 0.296 0.296 0.442s0.296 0.148 0.442 0.442c0.296 0.296 0.148 0.296 0.296 0.59s0 0.296 0.148 0.59c0.148 0.296 0 0.296 0 0.59s-0.442 0.296-0.442 0.442c0 0.148 0.442 0.148 1.033 0.442 0.59 0.148 0.296 0.442 0.59 1.475 0.296 0.885 0.442 1.033 1.181 2.067 0.738 1.181 1.623 0.885 2.067 0.885s1.623-0.148 2.508-0.148c0.885 0 1.181-0.442 1.623-0.738s0.442-1.033 0.442-1.475c0.148-0.442-0.59-0.59-0.885-1.033s-0.59-0.738-1.033-1.475c-0.442-0.738-0.885 0-1.181-0.148s-0.59-1.181-0.296-1.327c0.296-0.148 0.59 0.148 1.327-0.296 0.738-0.296 0.885 0.885 1.033 1.033 0.148 0.296 1.475 1.771 1.771 2.361 0.296 0.442 0.442 1.623 0.738 2.804s-0.59 1.475-1.181 1.919c-0.442 0.442-1.033 0.148-1.327 0.148s-1.475 0-1.919 0.148c-0.442 0.148-1.033 0.296-1.033 0.296s-0.296-0.296-0.59-0.59c-0.442-0.296-1.475 1.033-1.771 1.327-0.442 0.296-0.885 0.738-1.475 0.738s-1.327 0.442-1.623 0.59c-0.442 0.148-1.033 0.738-1.327 0.885-0.148 0.148-0.59 0.442-1.033 0.59-0.442 0.296-0.148 0.296-0.59 0.442-0.442 0.296-0.296-0.148-0.296-0.148s0.885-0.59 1.919-1.033c0.885-0.59 1.327-1.327 1.327-1.623 0-0.442 0.296-0.738 0.442-1.181 0.148-0.296 0.148-0.738 0.148-1.181s-0.296-0.296-0.59-0.59c-0.296-0.296-1.033 1.033-1.181 1.181-0.296 0.148-1.919 1.327-2.213 1.623s-0.885 0.59-1.033 0.738c-0.148 0.148-0.59 0.148-0.59-0.296 0-0.296-0.738 0.296-0.738 0.296s-1.475 0.148-1.771-0.148c-0.296-0.296 0 0.442-0.738 0.59s-0.738 0-1.181-0.59c-0.296-0.59-0.296 0.738-0.59 1.475-0.442 0.738-1.181 1.475-1.623 1.623s-2.213 0.59-2.656 0.885c-0.59 0.148-1.181 0.442-1.623 0.442-0.442 0.148-2.508 0-2.508 0s-0.738-0.148-1.771 0.442c-1.033 0.59-1.919 0-2.656-0.442-0.885-0.442-2.952 0.296-3.984 0.296-1.181 0-1.919 0.442-2.952 0.296-1.033 0-1.623 0.59-2.804 0.885-1.181 0.442-0.738 0.442-1.771 0.885-1.033 0.59-1.327 0.442-2.656 1.033s-1.623 1.327-2.508 2.067c-0.738 0.59-2.067 0.442-2.508 0.59s-0.885 0.738-1.475 1.475c-0.59 0.738-0.296 0.885-1.475 1.919s0.296 0.148 1.181 0c0.885-0.148 1.033-1.181 1.771-1.327s2.213-0.59 2.213-0.59l1.475-0.442c0 0 1.623 0.885 2.067 0.148 0.59-0.738 2.361-0.442 2.508-0.442 0.148-0.148 1.181-0.148 2.067-0.148 0.738 0.148 1.327 0.442 1.771 0.296s0.885-0.148 1.327-0.148c0.442-0.148 1.033-0.148 1.475-0.296s0.442-0.442 0.738-0.885c0.296-0.442 0.442-0.442 0.59-0.738s0.885 0 0.885 0c0 0 0 0.442-0.738 1.475s0.296 0.148 0.442 0.148c0.148 0 0.148 0.148 0.442 0.296 0.148 0.148 0.148-0.59 0.148-0.738 0-0.296 0.148-0.738 0.296-1.327s0.885-0.148 1.033 0.296c0.148 0.442 0.148 0.738 0.296 0.885s1.033-0.442 1.327-0.59c0.148-0.296 0.885-0.148 1.181-0.148 0.148 0.148-0.296 0.442-0.148 0.59 0.296 0.148 1.033-0.148 1.327-0.148s0.442-0.442 0.885-0.738c0.59-0.296 0.296-0.148 1.327-0.148s-0.738 0.442-1.327 0.885c-0.59 0.442-1.623 0.442-2.361 0.885-0.885 0.296-2.656 1.475-3.246 1.919-0.442 0.442-0.885 0.148-1.181-0.148-0.148-0.442-0.885 0.442-1.181 0.885s-2.213 0.442-4.279 0.885c-2.067 0.59-3.246 0.296-5.017 1.033s-3.69 1.327-5.017 1.623c-1.327 0.296-1.623 0.442-2.656 0.296s-1.181-0.296-1.475 0.148c-0.296 0.442-1.033 0.885-1.623 0.148-0.59-0.59-1.181 0-1.475 0.296s-0.738 0.885-1.033 1.033c-0.296 0.148-0.738 0.296-1.181 1.033s0.442 0.738 1.033 0.885c0.59 0.148 1.623 0 2.213 0.296s0.296 2.508 0.296 3.098c0.148 0.442-1.327 4.575-1.327 4.575s-0.59 0.738-0.59 1.475c0 0.738-0.59 2.656-0.59 3.246s-1.327 3.098-1.327 3.394c-0.148 0.148-1.623 0.738-2.067 1.181s0 0.59-0.148 1.327c-0.148 0.738-1.327 1.033-1.623 1.327s-1.181 0.738-1.475 1.033c-0.296 0.296-0.148 0.442 0.148 0.885s-0.59 1.327-0.885 1.919c-0.148 0.59-1.771 2.508-2.508 3.838-0.59 1.327-0.885 0.59-1.181 0.148s0.148-1.033 0.442-1.919c0.296-0.885 0.148-1.327 0.148-1.919s-1.327-0.442-1.327-0.442c0 0-1.919-0.442-2.361-0.296-0.59 0.148-0.738-1.033-1.475-1.623-0.738-0.442-2.804-2.067-2.508-2.213s-1.181-0.885-1.327-1.623c-0.296-0.738-0.442 0.442-0.738 0.442s1.919 2.952 2.361 3.394c0.442 0.442 0.148 3.838 0.442 4.132s0.738 1.327 0.885 1.919c0.148 0.59 0.885 1.919 1.327 2.508s1.181 0.738 1.623 1.181c0.442 0.59 0 0.738-0.148 0.885s-0.442 1.033-0.442 1.623c-0.148 0.59-0.442 0.885-0.148 1.033 0.296 0.296 1.033-0.885 1.181 0s-0.738 2.361-0.738 2.361c0 0 0.296 2.656-0.296 2.804s-0.885 1.181-1.181 1.623c-0.296 0.59-1.181 1.475-1.771 2.213-0.59 0.59-1.181 2.067-1.033 2.804s-0.148 1.475-0.442 1.771c-0.148 0.296-1.623 3.69-1.919 4.575-0.442 0.738-0.885 1.033-0.885 1.033s-0.442 0.148-1.033 0.442c-0.59 0.296-1.771 4.132-1.771 4.132s-0.59 2.067-0.885 2.508c-0.296 0.442-0.885-0.296-1.327-0.885s0.148-1.181 0.442-2.067c0.296-0.738 0.738-3.838 1.033-5.017 0.148-1.181 2.067-3.098 2.361-3.69s0.738-0.59 0.296-1.327c-0.442-0.885 0.885-1.327 1.181-2.067s-0.885-0.296-1.181-0.442c-0.148-0.148-1.033 0.296-1.475-0.296s0.738-1.919 0.738-2.361c0-0.442-1.327-0.442-2.067-1.033s0.59-0.148 0.885-0.59c0.296-0.442-0.296-0.148-0.59-0.738-0.442-0.738-1.033 0.148-0.885-0.296 0-0.442 0.59 0.148 0.59-0.442s0.296-0.148 0.885-1.327c0.442-1.181-0.738 0.59-0.885 0.738s-0.738 0.148-0.738-0.59c0-0.59-0.738 0.738-1.033 1.033s-0.296 1.181-0.296 1.033c0-0.148-0.738-0.148-1.327-0.59-0.59-0.59 0-0.296 0-0.738 0-0.59-0.885-0.738-1.327-0.885s-0.148-0.738-0.296-1.327c0-0.59 0.885-1.033 1.033-1.181 0.296-0.148 0.59-0.442 0.738-0.885 0-0.296 0.148-0.59 0.59-1.033 0.59-0.442 0.885 0.738 1.327 1.033 0.59 0.296 0.885-1.033 0.738-1.623 0-0.59-1.327 0.738-1.623 0.442-0.296-0.442 0-0.885 0-0.885s-1.327-0.738-1.475-1.327c-0.148-0.59 1.327-0.59 1.623-1.033s-1.475 0-1.327-0.442c0.148-0.442 0.442-0.296 1.033-0.738 0.59-0.296-0.59-0.148-0.738-0.442s-0.59-0.296-0.738-0.885c-0.148-0.59-0.296 0.148-0.296 0.148s-1.327-0.148-1.327-0.738c0-0.738 1.033 0.296 1.327-0.148s0.59-0.296 0.738-0.442c0.148-0.296 0-0.296-0.148-0.59s0.59-0.885 0.738-1.327c0.148-0.442-1.033 0-1.327-0.148s-0.442-0.296-0.442-1.033c0-0.738 1.475-3.098 1.623-3.394s0.442-0.296 0.885-0.442c0.296-0.148 0.59 0.296 1.033 0.148 0.296-0.296-0.442-0.442-0.442-0.738 0-0.442 0.885-0.738 1.327-1.181s0.442-0.59 0.738-0.738c0.296-0.148 0-0.738-0.148-0.738-0.296 0-0.738-0.296-1.033-0.738-0.148-0.442-1.475 0.59-1.771 0.885s0.148 1.327 0.148 1.623c0 0.296-1.327 0.59-1.771 0.885-0.296 0.296-0.296-0.148-0.442-0.442s-0.148 0.296-0.442 0.885c-0.296 0.59-0.442 0.296-0.885-0.148s-0.59-0.442-0.885-0.442c-0.296 0 0.148 0.59 0.442 0.885s-0.738 0.738-1.033 0.738c-0.296 0.148-0.148 1.033-0.148 1.475s-0.59 0.296-1.181-0.296c-0.59-0.59-0.885 0-1.327 0.296-0.296 0.296 0.885 1.033 1.623 1.327s0.148 0.59 0.885 1.771c0.738 1.181-0.296 0.59-0.738 1.181s-0.442 1.327-0.296 1.623c0.148 0.148-0.148 1.033 0.148 1.475 0.148 0.442-0.296 1.033-0.442 1.181-0.148 0.296-0.148 0.738 0 0.885s0.442 0.885 0.148 2.361c-0.296 1.475 0.442 1.623 0.738 2.213 0.148 0.738 1.033 1.181 1.327 2.067s-0.148 0.442-0.738 0.59c-0.442 0.148-1.771-1.327-1.919-1.623-0.148-0.148-0.442-0.148-0.442-0.59 0-0.296-0.296-0.296-0.442-0.442s-0.296-1.181-0.442-1.327c-0.296-0.296 0-0.442 0-0.885s0-0.738 0-1.033c0-0.296-0.59-0.59-0.885-0.59s0 1.475 0.148 1.623c0 0.148-0.148 0.885-0.148 1.623s0.296 1.181 1.033 2.067c0.738 0.885 1.327 1.181 1.623 1.475s1.327 0.148 1.623 0.442c0.296 0.296 0.148 1.033 0.148 1.327 0.148 0.296 0.442 0.59 0.59 0.738s0.59 1.033 0.59 1.475c0.148 0.442-0.296 0.59-1.033 0.442s-0.148-0.885-0.148-1.475c0-0.442-0.442-0.296-0.59-0.59-0.296-0.148-0.738 0.885-1.033 0.738s-0.885-0.442-1.181-1.033c-0.296-0.59-2.361-0.148-2.804-0.738s-0.296-1.327-0.296-2.213c0-0.885-0.885 0.148-1.475 0s0.148 0.885 0.148 1.181c0 0.296-0.738-0.148-1.181-0.738s-0.442-1.033-0.59-1.623c-0.148-0.59-0.296-0.59-0.442-0.885-0.296-0.296-0.296 0.442-0.738 0.738s-0.442-0.296-0.885-0.296c-0.442 0 0 1.033-0.148 1.327s-0.59 0.442-0.885 0.442c-0.296 0-0.148-0.296-0.296-0.738 0-0.442-0.59-0.148-0.738-0.442-0.148-0.148 0-0.59 0-0.885s0.59-0.59 1.181-1.327c0.59-0.738 1.181-1.919 1.475-2.213s0.59-0.442 0.738-0.59c0.148-0.148 0-0.296 0-0.59-0.148-0.296 0.148-0.885 0.442-1.327s0.885-0.885 1.181-1.327c0.296-0.59-0.738-0.442-0.885-0.59s-0.148-0.296-0.59-1.033c-0.296-0.59-0.885 0.442-1.033 0.59s0.59 1.327 0.738 1.623c0.296 0.296 0.148 1.919 0.148 2.361s-1.181 0.885-1.475 1.327c-0.296 0.442-1.623 2.361-1.919 2.656s-0.148 1.327-0.148 1.623c0 0.296-0.148 1.033-0.148 1.623 0 0.442 1.623 0.296 1.771 0.296 0.148-0.148 1.475-0.738 1.771-0.885 0.296 0 0.59-0.148 0.885 0.296 0.296 0.296 0.296 0.59 0.296 1.181s1.475 1.919 2.067 1.919c0.59 0.148 1.919 1.181 2.656 1.181 0.885 0 1.033 0.885 1.181 1.327s0.738 0.738 1.475 1.327c0.738 0.59 0.59-0.148 1.771 0.442 1.033 0.442 1.327 1.181 1.475 1.181 0.148 0.148 0.148 0.442 0 0.59 0 0.148-1.181 0.148-1.327 0.738-0.148 0.442 0.296 0.442 0.442 0.59 0.148 0.296 0 0.296-0.296 0.442s0 0.738-0.148 1.181c-0.148 0.442-0.148 0.59-0.442 0.885-0.148 0.296-0.148 0-0.442-0.148-0.148-0.296 0-0.296 0-0.59s-0.59 0-1.033-0.148c-0.442-0.148-0.885 0-1.181-0.442s-0.442-0.59-0.442-1.181c0-0.442-0.296-0.442-0.59-0.738s-0.885-0.442-1.181-0.738c-0.296-0.296-1.327-1.181-1.623-1.623s-0.442-0.296-0.738-0.738c-0.296-0.442-0.296-1.181-0.59-1.623s-0.885-0.442-1.327-0.59c-0.442-0.148-0.296-0.296-0.59-0.738-0.442-0.442-0.59-0.148-0.885-0.59-0.296-0.296-0.296 0.148-0.296 0.442s0.738 0.738 1.033 0.885c0.296 0.148 0.738 0.296 1.327 0.59s0.442 1.033 0.442 1.327c0 0.296 0.442 0.885 0.738 1.327 0.296 0.59 1.181 1.033 1.327 1.327s1.327 0.738 2.213 1.771c0.885 1.033 1.475 1.919 2.361 2.213 1.033 0.296 0.442 0.442 0.59 1.033s0.442 0.738 1.181 1.475c0.59 0.738 0.738 0.738 1.033 1.181 0.442 0.296 0.59 1.033 0.148 1.623s-0.296 0.296-0.59 0.296c-0.148 0 0-0.296-0.148-0.885s-0.59 0-0.738-0.148c-0.148-0.148-0.148-0.442-0.148-0.738-0.148-0.296-0.442-0.148-0.738-0.296s-0.59-0.296-0.59 0c0 0.296 0.442 0.296 0.148 0.738s-0.296 1.181-0.148 1.327c0 0.148 0.738 0.442 0.738 0.885 0.148 0.59-0.885 0.296-1.181 0.148s-0.442-0.59-0.738-1.033c-0.296-0.442-0.59-0.296-0.738-0.738 0-0.442-0.148-0.442-0.59-1.033-0.59-0.442-0.59-0.442-0.738-0.885s-0.296-0.442-0.296-0.59c0-0.148-0.59-0.148-0.738-0.59s-0.442-0.148-0.59 0c-0.148 0.148 0.148 1.181 0.148 1.181s0.885 0.738 1.181 1.033c0.148 0.296 0.442 0.885 0.59 1.327 0.148 0.59 0.442 0.442 1.033 0.885s0.738 0.442 1.033 0.738c0.442 0.148 0.59 0.442 1.181 0.738s0.148 0.148 0.442 0.442c0.296 0.296 0.442 0.296 0.738 0.442s0.148 0.59 0 0.59c-0.296 0.148-0.296 0.296-0.148 0.885 0.296 0.59 1.033 0.738 1.033 1.327 0.148 0.442-0.296 0.296-0.59 0.296-0.442 0.148-0.296 0.148-0.59 0.148-0.442 0-0.296-0.148-0.442-0.442s-1.181-1.033-1.919-1.623c-0.738-0.59-0.442-0.885-0.59-1.327-0.148-0.296-0.148-0.738-0.148-1.033 0-0.148-0.442-0.296-1.033-0.148s-0.59 0.296-0.738 0.296c-0.148-0.148-0.296-0.296-0.738-0.442-0.442-0.296-0.885 0-0.885-0.296-0.148-0.296-0.296-0.59-0.59-0.885-0.442-0.296-0.442 0.59-0.738 1.033-0.296 0.59-0.148-0.296-0.442-0.738s-1.033-0.442-1.327-0.442c-0.296 0-0.148 0-0.59-0.442s-0.59 0.296-0.738 0.296c-0.148 0-0.885-0.148-1.033-0.296s-0.885-0.296-1.327-0.148c-0.442 0.148 0.442 0.59 0.442 0.885s1.327 0.442 2.067 0.442c0.738 0 1.033 0.148 1.181 0.148s0.296-0.148 0.59 0.442c0.296 0.59 1.475 0.59 1.919 0.59s1.771 1.033 2.067 1.327c0.296 0.296 0.296 1.033 0.738 1.623s1.475 1.181 1.771 1.475c0.296 0.296 0.148 0.885 0.148 1.033-0.148 0.148-0.296 0.59-0.148 1.181s0.59 0 0.738 0c0.148 0 0.442-0.148 0.738-0.442 0.296-0.148-0.148-0.442 0.885 0.296 1.033 0.59 1.181 0.442 0.885 0.148-0.296-0.148 0.148-1.327 0.738-1.771s1.771 0.442 2.067 0.59c0.296 0.148 0.59-0.148 1.033 0.148s0.738 2.067 0.885 2.508c0.148 0.442-0.148 1.771-0.296 2.508s-0.738 1.033-1.033 1.771c-0.296 0.59 0.296 1.327 0.59 1.919 0.442 0.59 0.296 1.033 0.296 1.475s-0.296 1.771-0.296 2.067c0 0.296-0.148 0.738-0.442 0.442-0.148-0.296-0.738-0.442-1.181-1.033s-0.738-0.296-1.181-0.59c-0.59-0.296-0.59 0.148-0.59 0.442s1.623 1.181 1.919 1.623c0.442 0.59 0 0.885-0.442 1.181-0.442 0.442-0.738 0-1.033-0.296s-0.296-0.442-0.738-0.885-0.148 0.885-0.442 1.033c-0.296 0.148-0.738 0-0.885-0.296-0.148-0.148-0.738-0.442-0.885-0.59-0.296-0.148-0.296-0.442-0.59-0.59s-0.148 0.442 0.148 0.738c0.296 0.296 1.033 1.033 0.885 1.475s-0.738 0.885-1.033 1.181c-0.296 0.296-1.327 0.296-1.771 0.296s-1.033-0.442-1.181-0.738c-0.148-0.148-0.738-0.59-0.885-1.181-0.296-0.59 0.148-1.181 0.148-1.475 0-0.148 0.738-0.59 0.885-0.885s-0.296-0.59-0.442-0.59c-0.148 0-1.033 2.952-1.033 3.394s0.885 1.327 1.033 1.475c0.148 0.148-0.442 0.885-0.59 1.181-0.148 0.442 0.442 0.885 0.738 1.033s0.885-0.148 1.033-0.296c0.148-0.148 1.327-0.148 1.771-0.148 0.442-0.148 1.033-0.296 1.181-0.296s0 0.59 0.296 0.59c0.296 0.148 0.296-0.148 0.442-0.296 0.148-0.296 0.442 0.296 0.738 0.442s0.59 0 0.885 0c0.442-0.148-0.442-0.59-0.296-0.885 0.296-0.296 1.033-0.296 1.327-0.296s1.327 0.442 1.327 0.885c0 0.442-0.442 0.442-0.442 0.738-0.148 0.296 0.148 0.296 0.296 0.885s-0.59 0.296-0.885 0.59c-0.296 0.296 0 0.442 0.148 0.59 0.296 0 0.59 0.442 0.738 0.885 0 0.296-0.296 0.296-0.296 0.296s-0.296 0-0.442-0.148c-0.148-0.148 0.442 1.033 0.885 1.181s0.442-0.148 0.885-0.59c0.296-0.442 0.148-2.508 0.296-3.246s0.148-1.033 0.442-0.885c0.296 0.148 0.59 0.59 1.181-0.148 0.59-0.885 0.885-0.148 1.033 0.148s0.59 1.033 0.738 1.181c0.148 0.148 0 0.59-0.148 0.738-0.148 0 0.296 0.738 0.442 1.033 0 0.296-0.59 0.296-0.738 0.738s0.296 1.033 0.296 1.327c0 0.296-0.738 0.885-1.327 1.033s-0.442-0.885-0.738-1.033c-0.296-0.296-0.59 1.327-0.885 1.771-0.296 0.296-0.738 1.181-1.033 1.475s-0.885 1.327-1.327 1.771c-0.442 0.442-1.919-0.442-2.952-0.59-1.181-0.148-0.442-0.738-0.59-1.181s-0.59-0.148-0.885-0.148c-0.296 0 0.148 0.59 0.148 0.885 0.148 0.296-1.033-0.296-1.327-1.033-0.296-0.59 0.59-0.442 1.033-1.181 0.442-0.885-1.919-0.148-2.361-0.148s0.148 0.738 0.148 1.327c0.148 0.59-0.59 0.442-0.885 0.442s-0.59 0.296-1.033 0.442c-0.442 0.148-0.59-0.296-0.885-0.59s-0.738 0-1.327-0.148c-0.59-0.148-1.033-0.442-1.181-0.59s-0.442-0.442-0.59-0.59c-0.296-0.148 0 0.738 0 0.738s0.738 0.59 1.181 0.738c0.442 0 1.033 0.442 1.475 0.885s4.575 1.623 4.869 1.919c0.296 0.442-0.148 0.738-0.59 0.885-0.296 0.148-1.033 1.033-1.475 1.327s0.442 0.738 0.738 1.327c0.296 0.738-0.738 0.885-1.181 1.327s-0.296 0.148-1.475 0.738c-1.181 0.59-0.885-0.148-1.181-0.148-0.442 0-0.885-0.738-1.475-1.033s-0.442-0.738-0.738-1.033c-0.148-0.296-0.296-0.296-0.59-0.59s-0.296 0-0.148 0.296c0.148 0.148 0 0.442 0.885 1.181 0.738 0.738-0.296 0.738 0.148 1.181s1.181 0.738 1.771 0.885c0.59 0.148 0.885 0.296 1.181 0.59 0.296 0.148 0.442-0.148 0.738-0.442 0.442-0.296 0.738-0.296 1.181-0.148s0.59-0.59 1.475-0.885c0.885-0.442 1.033 0 1.327 0s0.885 0.148 1.623-0.148c0.738-0.296 0.442 1.327-0.148 1.919s-1.771 1.771-2.067 1.919c-0.442 0.296-0.442 0.442-0.442 1.033s-0.442 0.148-0.738-0.296c-0.296-0.442-0.885-0.296-1.181-0.885s-1.033 0.885-1.327 0.885c-0.148 0-0.885 0.59-1.475 0.442-0.59 0-0.885 0.296-1.623 0.442-0.885 0.296-0.59 0.296-1.327 0.442s-0.148-0.148-0.148-0.442c0-0.296-0.148-0.59-0.296-0.885-0.296-0.296-0.59 0.296-0.59 0.59 0.148 0.296 0.148 0.442-0.442 1.181s-1.033 0.885-2.067 1.771c-1.033 0.885-0.59-0.296-0.59-0.59s0.148-0.296 0.442-0.59c0.148-0.296-0.148-0.442-0.296-0.59 0-0.296-0.738-1.475-0.885-1.771-0.296-0.296-0.59 0.148-0.59 0.59 0.148 0.442 0.738 1.181 0.885 1.623 0.296 0.442-0.738 0.148-1.181 0.296s1.033 1.475 1.033 1.771c0 0.296-1.475 0.59-1.771 0.738s-0.885 1.033-1.475 1.623c-0.59 0.59-1.033 1.475-1.033 1.623-0.148 0.148-1.771 1.327-1.771 1.327s-0.148 0.442-0.296 0.738c-0.148 0.296-0.442 1.033-0.442 1.475s-0.148 0.885-0.296 1.181c-0.296 0.296-0.296-1.181-0.296-1.623-0.148-0.442 0-0.296 0-0.59s-0.148-0.296-0.296-0.442c-0.148-0.148-0.296 0.442-0.148 0.738 0 0.296 0.148 1.181 0.296 1.623s0.148 1.327-0.148 2.067c-0.296 0.738-0.59 0.885-1.033 1.327-0.442 0.296-0.296-0.296-0.738-0.442s-1.475-0.296-1.771-0.296c-0.296 0-1.033 0.148-1.327 0.442-0.442 0.148-1.181-0.442-1.327-0.442s-0.442 0.296-0.738 0.59c-0.148 0.296-0.296 0.296-0.296 0.296s-0.442-0.148-0.59-0.296c0-0.148-0.59 0.296-0.59 0.296l-1.919 0.738c0 0-0.885 0.885-1.771 1.327-0.738 0.442-1.475 1.327-2.361 2.952s-0.738 1.181-1.475 2.067c-0.738 1.033-0.59 0.885-0.738 1.475s0 0.885-0.442 1.623c-0.296 0.738-0.738 0.442-1.181 0.296s-0.148-0.442 0-0.738c0.296-0.442 0.442-0.59 0.738-1.033s0.296-0.59 0.59-1.181c0.148-0.59-2.213 2.656-2.067 3.098 0.148 0.296 0.442 0.59 1.181 1.327s-0.738 1.181-0.738 1.181c0 0-0.442 0.885-0.738 1.327s-0.738 0.885-0.885 1.327c-0.296 0.296-1.033 0.442-1.033-0.148s-0.738-0.296-1.181-0.296c-0.59 0-0.59 0.59-0.885 1.327-0.148 0.738-0.885 1.327-1.033 1.623-0.296 0.296-0.296 0.738-0.738 1.327s-0.885 0.59-1.327 0.59c-0.442 0-0.59 0-0.885-0.296s0-0.296 0.148-0.59c0.296-0.296-0.296-0.442-0.442-0.442s-0.885 1.181-0.59 1.327c0.148 0.148 0.442 0.738 0.738 1.327s-0.738 1.033-1.033 0.738c-0.296-0.296-0.296 0.442-1.181 1.033-0.885 0.738-0.885 0.738-1.327 0.738s-0.738-0.296-1.033-0.59c-0.296-0.296-0.59 0.885-0.885 1.327s-1.033 0.442-1.771 0.738c-0.738 0.148-0.738 0.296-0.738-0.148 0.148-0.442-0.148-0.738-0.442-1.181-0.296-0.59-1.623 0.442-1.919 0.296-0.442 0-0.885 1.181-0.738 1.771s0 1.475-0.296 1.771c-0.296 0.296-0.59-0.296-0.59-0.59s0-0.885-0.442-1.919c-0.442-1.033-0.296 5.017-0.148 5.608 0.148 0.738-0.442 1.475-0.738 1.771s-1.181 0.442-0.885 0.59c0.296 0.148-0.148 0.885-0.442 0.885-0.296-0.148-0.296 1.475-0.296 1.919s-0.442 0.296-1.033-0.296c-0.59-0.59-0.738 0.148-1.181 0.59-0.296 0.442 0.59 1.181 0.885 1.475 0.296 0.442-0.738 1.181-0.738 1.181s-0.885-0.296-1.181-0.442c-0.296 0-0.148 0.738-0.296 1.181 0 0.296 0 0.738 0.738 1.771 0.59 0.885-1.475 0.148-2.067 0.442s0.296 1.033 0.59 1.181c0.296 0.148 0.442 0.738 0.148 1.327-0.148 0.59-0.59-0.296-1.033-0.296s0 0.885 0.442 1.327c0.442 0.442 0 0.738 0 0.738s-0.885-0.296-1.181-0.59c-0.148-0.148-0.738 0.148-0.885 0.442s1.919 0.885 2.361 1.181c0.442 0.296-0.148 1.771-0.59 2.213-0.442 0.59-0.442 0.148-0.885-0.59s-1.327 1.771-1.771 2.508c-0.442 0.738 0.442 0.738 0.738 1.181s-0.148 1.327-0.148 1.475c0.148 0.148 0.59 0.738 0.738 1.033 0.296 0.296-0.442 1.475-0.442 2.213s0.442 1.327 0.442 1.327c0 0-0.148 0.59-0.296 1.475-0.296 0.738-0.296 1.033 0.296 2.067s1.475 7.084 2.067 10.626c0.59 3.542 3.098 10.331 3.838 11.66s1.771 3.984 2.804 5.608c1.033 1.623 0 4.427 0.442 5.902 0.442 1.623 1.033 5.313 1.475 6.494 0.442 1.033 1.033 3.542 2.213 5.313s3.098 10.183 3.394 10.774c0.442 0.738 0.442 2.067 0.738 2.804s0 0.59-0.296 1.033c-0.296 0.442 0 0.148 0.59 0.59s1.475 2.067 1.771 2.361c0.296 0.296 0 1.919-0.148 2.361 0 0.442 0.442 0.885 0.885 1.181s-0.148 2.067 0 2.213c0.148 0.296 0 8.559 0 8.855-0.148 0.296-0.442 0.442-0.59 0.738s0 2.067-0.148 2.656c-0.148 0.59 0.148 0.59 0.148 0.59s-0.148 0.442-0.296 0.442c-0.148 0 0 2.067 0 2.361s0 0.738 0 1.181c0 0.442-0.296-0.296-0.442-0.148s-0.296 0.59-0.296 1.033c0 0.59 0.148 0.885 0.148 0.885s0 1.327-0.148 1.327c-0.148 0-0.59-0.442-0.59-0.59s-0.885 1.181-1.327 1.327c-0.442 0.148-0.148 1.033-0.148 1.771 0 0.59-0.296 0.442-0.442 0.738-0.296 0.296 0 0.296 0 0.738s0.296 0.885 0 0.738c-0.296-0.148 0 0.296 0.296 0.738s0.148 0.442 0.296 0.738c0.296 0.442 0.59-0.148 0.738-0.296s0-0.738 0.296-0.885c0.296-0.148 0.148-0.59 0.442-1.033s0.296 0.442 0.296 0.59c0 0.148-1.475 2.213-1.475 2.361 0 0-0.738 0.59-1.033 1.033-0.442 0.296 0 0.442 0.148 0.885 0.148 0.296-0.148 1.327-0.148 1.327 0 0.148-1.033 1.033-1.327 1.327-0.442 0.296-1.181 1.623-1.181 1.771s-0.296 0.442-0.442 0.59c-0.148 0-0.442 0.296-0.59 0.442s-0.442 0.296-0.738 0.296c-0.442 0-0.442 0.148-0.442 0.442 0 0.148-0.885 0.442-0.885 0.59s0 0.296-0.148 0.296c0 0 0 0.148-0.148 0.296 0 0.148-1.771 0.885-1.919 0.885-0.148-0.148-0.59 0.442-0.885 0.296-0.148-0.148-0.59 0.885-0.885 1.181s-0.738-0.296-1.327-0.442c-0.59-0.148 1.033-0.59 1.033-0.59s1.033-0.442 1.033-0.738c0-0.442 0.885 0 1.033 0s0.59-0.442 0.59-0.738c0-0.296 1.033-0.442 1.327-0.296s0.442-0.442 0.442-0.885c0-0.442 0.738-0.296 0.885-0.442s0.885-0.738 0.885-1.033c0-0.296 0.442-0.59 0.885-1.033 0.442-0.296 1.033-0.885 1.033-1.475s0.442-0.885 0.738-1.475c0.296-0.59 0.296-1.327 0.148-1.771s-0.738 0.59-0.885 0.442c-0.148-0.148-2.067 0.442-2.361 0.442s-0.296 0.296-0.59 0.738c-0.148 0.296-0.738 0.148-1.033 0.148s-0.885-0.296-1.033-0.738c-0.148-0.442-0.442 0.148-0.738 0-0.148-0.148-1.181 0.59-1.475 0.738-0.296 0.296-1.033 0.296-1.327 0.296s-0.738-1.327-1.033-1.919c-0.296-0.738 0.296-1.033 0.59-1.475s1.919 2.361 2.361 2.213c0.296-0.148 0.442-0.738 0.442-1.181 0.148-0.442-1.327-0.442-1.623-0.885s-1.033-1.475-1.181-1.771c-0.148-0.296 0.148-0.442-0.148-0.738s-0.442-1.033-0.738-1.327c-0.148-0.442 0.442-0.442 0.296-0.885 0-0.442-0.148-0.442-0.148-0.59s-0.59-0.59-0.738-0.885c-0.148-0.296-0.738-0.885-0.738-1.475-0.148-0.59 0.885 0.296 0.885 0.296s0.296 0.296 0.885-0.148c0.59-0.59-3.69-2.361-4.575-3.246-0.885-1.033-2.952-1.623-3.69-2.804s-1.181-4.427-1.327-5.165c-0.148-0.738 0-2.361 0-2.656-0.148-0.296-0.442-0.148-0.442-0.296 0 0-0.59-0.148-0.885-0.59s0.59-1.327 0.59-1.771c0-0.442 0.148-0.59 0.296-0.738 0.296-0.296 0.148-0.296 0-0.59-0.296-0.296-1.181 2.213-1.327 2.508s-0.442 0.59-1.033 0.442c-0.59-0.148-0.442-1.181-0.442-1.623s0-2.067 0-2.656c0-0.59-0.148-1.771-0.148-1.771s-0.59-0.738-0.59-1.181c0-0.296 1.327-0.59 1.327-1.327s-0.442 0-1.033 0.296c-0.59 0.148-1.181 0.148-1.475-0.148s-0.442-0.442-1.327-0.885c-1.033-0.442 1.623 2.213 1.771 2.508s-0.148 1.327-0.442 1.475c-0.296 0.148-0.885-0.296-1.327-0.738-0.442-0.59-2.804-6.346-3.246-7.379s-0.442-1.181-0.738-1.771c-0.296-0.442-0.59-1.033-1.033-1.919s0.442-0.59 0.885-1.033c0.59-0.442 0.148-1.033 0.148-1.475s1.475-2.213 1.623-2.508c0.148-0.296 0.59-0.885 1.033-1.327s-0.148-1.181-0.442-1.919c-0.296-0.885-0.296-0.738-0.738-0.738-0.442 0.148-0.296 0.885-0.442 1.327s-0.442 0.885-0.59 0.59c-0.148-0.296 0-1.181 0-1.623 0.148-0.442-0.59-0.59-0.738-1.033-0.296-0.442-0.885-0.148-1.327-0.59s-0.296 1.475-0.296 1.771c0 0.296 1.033 0.738 1.327 1.327 0.442 0.59 0.296 1.033 0 1.475-0.296 0.296-0.442 0.59-1.033 1.033-0.738 0.296-0.442-0.148-0.738-0.885-0.296-0.59-1.033-0.885-1.475-1.475-0.296-0.59-0.148-0.885 0.148-1.181s0.296-2.067 0.59-2.361c0.296-0.148 0.296-0.738 0.59-1.181s-0.59-0.885-0.738-1.623c-0.148-0.738 0.885-1.327 1.181-1.919s1.181-7.525 1.181-7.969c0-0.59-0.148-0.738-0.148-1.033-0.148-0.148-0.296-0.442-0.296-0.738s0-1.033 0-1.475c0-0.59-0.59-0.59-0.885-1.033s0-1.919 0-1.919c0 0-0.148-0.738-0.59-1.623s-0.296-0.296-1.327-0.442c-1.033-0.148-2.361-0.442-2.804-1.033-0.59-0.59-1.919-3.542-3.098-4.427s-1.181-1.181-1.327-1.919c-0.148-0.885-0.442-2.067-0.59-2.361s-1.181-0.442-1.623-0.885c-0.442-0.442-0.296-0.738-0.59-1.771-0.148-1.033-1.475-2.067-1.475-2.067s-0.442-0.148-0.738-0.59c-0.296-0.296-0.885-0.148-1.033-0.296-0.148-0.296-0.885-0.296-1.475-0.442-0.442-0.148-0.296-0.442-0.738-1.181-0.442-0.885-0.59-0.59-1.033-0.738s-1.033 0.296-1.327 0.296c-0.442 0-0.885 0.296-1.033 0.148-0.296-0.148 0 0-0.296 0-0.148 0-0.59-0.148-1.181-0.148-0.59 0.148-1.327 1.327-2.067 1.919s1.475 0.59 1.771 1.181c0.442 0.59-2.213 0.148-2.804 0.148s-3.394 2.361-3.69 2.656c-0.296 0.296-0.738 0.148-0.885-0.296s-0.59 0.442-1.181 0.59c-0.59 0.148-2.067 0.738-2.508 0.738-0.296 0.148-1.475 0.442-2.213 0.296s-0.738-2.213-0.738-2.804c0-0.59-1.181-1.475-1.475-1.771-0.296-0.148-0.885-0.59-1.033-1.327-0.296-0.738 0.59-0.148 0.59-0.148s-0.738-1.475-1.033-1.623c-0.296-0.148-1.327 0.148-2.213-0.296-0.885-0.296-0.296-1.327-0.442-1.919-0.296-0.59 1.475-0.59 2.067-1.181 0.738-0.738-0.442 0-1.327 0.148s-1.033-0.442-1.475-0.59c-0.442-0.148-1.327 1.475-1.623 1.475s-2.508-1.327-2.804-1.475c-0.296-0.148-0.885-0.442-1.771-0.59-0.885-0.296-1.033-0.738-0.885-0.885 0.148 0 1.033-0.148 2.213 0 1.033 0.148-0.148-0.738-0.59-1.475-0.59-0.738-2.508-0.296-2.804-0.148s0 0.59-1.033-0.296c-1.033-0.885-1.327 1.327-1.623 1.181s-1.919 0.296-3.246 0.59c-1.327 0.296-1.475 0.296-1.623-0.296-0.148-0.738-0.442-0.148-1.623-0.442s-0.59-0.59 0-1.181c0.442-0.442 0.148-0.738 0-1.327-0.296-0.738-0.885 1.033-1.033 1.181-0.296 0.296-0.442-0.148-0.59-0.442-0.148-0.442-0.738-0.738-1.033-0.296s0 0.442 0.296 0.885c0.442 0.442 0 0.885-0.296 1.181s-1.033 0.738-1.327 1.181c-0.296 0.442-0.59 1.033-1.033 1.181-0.59 0.148-1.181-0.148-1.327-0.296-0.148-0.296 0.442-0.442 0.59-0.738s-1.623 0.148-1.623 0.148c0 0-0.296 0.148-0.442 0.442s-0.296 0.148-0.59-0.148c-0.148-0.296 0.148 0.59-0.148 1.033s-0.885 0.738-1.771 0.885c-0.885 0.148-0.442-0.442-0.296-0.59 0-0.148-0.296-0.296-0.59-0.442-0.296-0.296-0.296-0.885-0.296-1.327s-0.885-0.148-1.181-0.442c-0.442-0.296-0.296-0.442-0.296-1.033s-0.296-0.296-0.442-0.738c-0.148-0.442 0.148-0.59 0.296-1.181s0.148-1.033 0-1.181c0-0.148-0.885-0.59-1.327-0.885s-1.327 2.656-1.327 2.804c0 0.148-0.296 3.246-0.738 3.542-0.59 0.296-0.59-0.148-1.181-0.738s-2.361-0.296-2.361-0.296c0 0-0.885 0.738-0.885 1.033s-1.623 0-1.919-0.442c-0.148-0.442-1.181-0.148-1.771-0.148s-1.181 0-2.067-0.59c-0.885-0.59-1.771 0.442-2.067 0.442s-1.623 0.59-1.771 0.885c-0.148 0.148-0.59 0.148-1.327-0.296s-0.885 0.148-0.885 0.148c0 0-1.475 2.067-1.919 2.508s-0.442 0.59-1.475 0.59c-1.033 0-1.033-1.033-1.475-0.442s-0.738 0.59-1.181 0.442c-0.442 0-0.885-1.181-1.919-1.181s-1.919-1.475-2.508-2.067c-0.59-0.442-1.181-0.442-1.771-0.885s-0.885 0.59-1.327 0.148c-0.59-0.296-1.033 1.475-1.033 1.623s-0.148 0.59-0.59 1.181c-0.442 0.59-0.148-0.59-0.148-0.59s0-0.738-0.442-1.181c-0.442-0.442-1.181-0.148-1.771 0s-0.885 0.885-1.181 1.771c-0.148 0.738 1.033 1.033 1.033 1.033s0.885-0.738 1.623-0.885c0.59-0.148-0.442 0.59-0.442 1.033s0.296 1.033 0.59 1.623c0.442 0.59 2.213 1.033 4.132 1.033s1.771-0.59 2.067-0.885c0.296-0.296 0.296-0.59 1.033-1.181 0.738-0.738 0.296 0.59 0.59 0.442s1.771-0.59 1.771-0.59c0 0 0.148 2.067-0.296 2.213s-1.181 0.148-1.181 0.59c0 0.442 0.738 0.59 1.475 0.59 0.885 0 0.296 0.59 0.738 1.181 0.296 0.59 1.033 0.296 1.327-0.442 0.296-0.59 0.296-0.885 0.738-1.475 0.296-0.738 0.738 0.885 1.033 1.327 0.148 0.442 0.885 1.181 1.181 1.919 0.148 0.738-0.442 0.296-0.738-0.148-0.296-0.296-0.59 0.148-0.885 0.442-0.148 0.296-0.296 1.033-0.59 1.327s-0.738 0.738-1.181 0.738c-0.442 0-0.59-0.296-1.033-0.148s0.442 0.59 0.296 1.181c-0.296 0.59-0.148 0.148-0.885-0.296s0.296 0.59 0.296 1.181c0 0.442 0.59 0.738 0.738 1.033 0.148 0.148 0.59-0.738 1.327-0.296s0 1.181 0.296 1.327c0.296 0.148 0.148 0.885 0.148 1.033s0.885 0.442 1.475 0.442c0.59 0 0.59 0.296 0.885 0.442s0.738 0.148 1.181 0.148c0.442 0 0.442 0.442 0.738 0.885s0.148-0.148 0.148-0.442c0-0.296 0.59 0.148 0.885 0.442s0.442 0.296 0.738 0.59c0.296 0.148 0.148 0.442-0.148 0.59-0.148 0.148 0.148 0.148 0.59 0.296s0.296 0.59 0.442 1.475c0.148 0.885-0.442 0.885-0.738 1.181-0.148 0.296-0.296 0.296-0.59 0.738s-0.59 0-0.738-0.296c-0.148-0.296-0.148-0.296-0.442-0.442s-0.738-0.738-1.033-1.181c-0.296-0.442-0.738 1.327-0.885 1.327s-0.296-0.442-0.442-1.033c0-0.59-0.296-0.442-0.59-0.885s-0.148-0.738-0.296-1.033c-0.148-0.296-1.475-0.148-1.623-0.148s-0.442 0-0.59-0.442c-0.148-0.442 0.148-0.738-0.442-0.59s-1.623 0-1.919-0.296c-0.296-0.296-0.148-0.442 0-0.738s0.148-0.59-0.148-1.327c-0.148-0.738-0.738-0.738-1.181-0.885-0.59-0.148-0.59 0.442-0.885 0.296-0.296-0.296-0.59-0.59-1.033-0.59s-0.59-0.296-1.033-1.033c-0.59-0.738-1.033 0-0.885 0.442s1.181 0.885 1.327 1.475c0.148 0.59 0.296 1.181 0.296 1.771s-0.148 0.442-0.885 1.033c-0.738 0.738 0.442 0.885 0.442 1.623 0.148 0.738-1.033 1.327-1.771 1.475s-0.59-0.296-0.738-0.442c-0.296-0.148-0.442-1.623-0.442-2.067-0.148-0.59-1.475-1.181-1.475-1.181s-0.442-0.296-0.885 0c-0.442 0.296-1.623 0-1.919-0.148s-0.59 1.033-0.738 1.181c-0.296 0.148-0.148 1.033-0.442 1.327-0.296 0.442-0.442 0.442-1.033 0.738-0.59 0.442-1.033-0.296-1.327-0.442-0.148-0.148-0.885 0-1.181-0.296s-1.033-0.442-1.033-0.885c-0.148-0.442-1.623 0.59-1.919 0.442s0-0.738 0-1.327c0.148-0.59 0-0.885-0.148-1.033s-0.296 0.148-0.148 0.59c0.148 0.442-0.148 0.885-0.885 1.327s-1.181-0.738-1.327-1.033c-0.296-0.296-0.148-0.59 0.296-1.181 0.59-0.738 1.033 0 1.771 0 0.59 0-0.59-0.59-0.738-0.885-0.148-0.148-1.033-1.033-1.033-1.327s0.148-0.59 0.442-0.885c0.148-0.148 0.148-0.738 0.148-1.181s-0.442 0.148-0.59 1.033c-0.148 0.885-1.327 0.296-1.771-0.148s-1.327 0-1.771-0.442c-0.442-0.442-0.885-1.033-1.327-1.327-0.296-0.148 0-1.327 0-1.919 0.148-0.59-2.361-0.148-3.542-0.296-1.181-0.296-0.59-0.296 0.59-1.327s-1.327-0.296-1.623-0.296c-0.296 0.148-1.327 0.738-1.771 0.885s-1.181 0.296-1.771 0.738c-0.59 0.442 1.181 0.59 0.885 0.885-0.296 0.148 0.148 0.738 0.296 0.885s0.442 0.148 1.033 0.442c0.59 0.296 0.59 0 0.738-0.148s1.771 0 2.656 0.296c0.885 0.296 0.59 1.327 0.442 1.771-0.148 0.296-1.181 0.296-2.067 0-0.738-0.296-1.919-1.475-2.361-1.919-0.442-0.59-1.033 0.296-1.771 0.59s-3.394 0.442-4.132 0.296c-0.738-0.148-1.771-0.148-3.098-0.442-1.327-0.148-4.869-2.804-5.902-3.394s-1.475-0.148-1.919-0.296c-0.296-0.148-0.59 0.148-1.033-0.442-0.59-0.59 0.148-0.296 0.442-0.442s0.59-0.442 1.033-1.475c0.296-1.033-0.296-1.033-0.296-1.033s-0.885-1.327-1.181-1.623c-0.442-0.296-0.148 1.623-0.148 2.067 0.148 0.296-0.296 0.59-1.327 1.033-1.181 0.442 1.033 1.327 1.181 1.623 0.296 0.296-2.361 0.738-3.246 0.442-0.885-0.148-2.213 0.59-3.246 0.885-1.181 0.296-0.59-0.738-0.885-1.919-0.148-1.327 0.738-0.442 1.181-0.885s0.296-1.771 0.442-2.213c0.148-0.442-2.213 1.623-2.804 2.508s0.885 2.656 1.327 3.098c0.442 0.442-1.181 0.296-1.771 0s-2.067 0.442-2.952 1.033c-1.033 0.59-1.771 0.59-3.098 1.475s-0.738-0.296-1.033-0.148c-0.296 0.148-0.442-0.148-0.59-0.442s-0.738 0.148-1.919 0.296c-1.181 0.148-1.033 0.296-1.475 0s0.442-1.181 0.59-1.623c0.148-0.442 0.148-1.181 0.148-2.067-0.148-0.885-0.885-0.442-1.623-0.296s-1.181 1.475-1.181 2.213c0 0.738-2.213-0.885-2.508-0.738-0.296 0.296 0.148 1.181 0.59 1.623 0.59 0.442-0.148 0.296-0.442 0.885s0.885 1.181 1.327 1.623c0.296 0.442 0 1.033 0.59 2.361s-1.475 2.213-1.919 2.656c-0.442 0.442-0.59 0.148-1.181-0.148s-0.296 0.59-0.148 1.181c0 0.59-0.885 2.361-1.033 2.804 0 0.59-2.213 1.623-3.246 2.213-1.033 0.738-1.623 1.919-2.508 2.213s-2.213 0.148-3.542 0.885c-1.327 0.738-2.656 1.475-2.952 1.623-0.148 0-1.033 0.148-1.623-0.442-0.442-0.738 0.442-0.885 0.296-1.181-0.296-0.296-0.885 0.296-1.327 0.738s-0.442-0.296-0.442-0.59c0-0.148-0.885-0.738-1.771-1.327-0.885-0.738-0.148 1.771-0.148 2.213s-0.59 0-1.033-1.033c-0.59-0.885-1.181-0.296-1.919 0-0.59 0.442 0.885 2.213 1.327 2.508s0.148 0.738-0.296 1.033c-0.442 0.296 1.181 0.738 2.067 1.623s-1.623 0.738-2.361 1.181c-0.738 0.442-0.885 0.442-1.327-0.148s-0.442-1.181-0.59-1.623c-0.148-0.442-1.033 0.296-1.623 0.885s0.738 1.327 1.181 1.623c0.296 0.296-0.59 1.919-0.885 2.213s-0.59 0.148-0.885-0.738c-0.296-0.738-1.623 0.738-2.067 1.181-0.59 0.442-1.623 0.738-2.213 0.885s-0.148 1.623 0.148 1.919c0.148 0.296 0.442 0.148 1.181 1.181 0.59 0.885-0.59 1.475-0.885 2.067-0.148 0.59-0.296 0.738-1.181-0.148-0.885-0.738-3.542 0.148-3.984 0.442s0.738 0.738 1.327 1.181c0.59 0.442 1.033 0.442 2.067 1.327 1.033 1.033-0.738 2.361-0.738 2.804s-0.885 0.296-1.475 0.738c-0.59 0.59 0.59 1.327 0.738 2.067 0.296 0.738-0.296 1.033-0.59 0.296s-1.771 0.148-2.067 0.59c-0.442 0.442-0.738 0.296-1.033-0.148s-0.885-0.885-1.181-1.181c-0.296-0.296 0.148 1.181 0.59 1.919s-0.442 0.885-0.885 1.475c-0.442 0.59 0.738 0.296 1.033 0 0.442-0.296 0.885 0 1.327 0.442 0.442 0.296 1.623-0.296 2.067-0.148s-0.59 2.508-0.59 2.804c0 0.296-0.442 1.327-1.033 1.327s0 1.475 0.296 1.771c0.296 0.442-0.296 0.59-0.442 0.885s0.442 1.181 0.885 1.475c0.442 0.442 0.885 2.508 1.181 2.952s0.442 1.919-0.148 3.246c-0.59 1.327 0.738 1.623 1.033 2.067s0.738 2.213 0.738 3.098c0.148 0.885 0.738 1.327 1.181 2.067 0.442 0.885 0.296 2.067 0 2.361-0.148 0.296-0.59 0.442-2.067 1.181s-1.919-0.296-2.656-1.327c-0.885-1.033-1.327-0.738-2.213-1.623s-1.623-0.296-3.542-0.296c-1.919 0-5.017-1.181-5.755-2.067-0.738-0.738-1.327-0.59-1.623-1.181s-1.181 0.148-2.067-0.148c-0.885-0.296-1.181-1.327-1.327-1.623s-1.327-0.442-2.067-0.885c-0.738-0.442-1.919 0.148-2.656-0.442-0.59-0.59-0.296-1.475-1.033-2.656-0.738-1.033 0-1.475-0.442-2.656-0.59-1.181-0.59-1.919-1.033-2.804s-0.885-0.738-1.771-1.919c-0.885-1.181 0-1.181-0.738-1.919-0.738-0.885 0-2.952-0.148-3.69-0.296-0.738-0.296-0.59-0.738-1.033s-0.296-0.442 0-1.033c0.442-0.442-0.148-3.542-0.296-4.132s-4.279-2.952-4.427-3.394c-0.296-0.442-0.148-1.327-0.442-1.771-0.442-0.442-0.738-1.033-0.738-1.771s-0.442-0.296-0.738-0.442c-0.296-0.148-1.033-1.623-1.327-2.656-0.296-0.885-1.181-0.738-2.361-1.623-1.181-0.738-1.181-2.213-1.181-2.508s-0.296-0.296-0.442-0.738c-0.148-0.296-0.148-1.033-0.442-1.623-0.148-0.59-2.508-6.198-3.246-7.084s-0.296-1.033-0.59-2.067c-0.296-1.033-0.148-1.033-0.738-2.656s-1.475-1.327-1.623-2.213c-0.148-0.885-1.033-0.885-1.181-1.327-0.296-0.442-1.181-0.738-1.771-1.033-0.59-0.442-0.59-1.033-0.59-1.771s-1.327-0.296-1.475-0.738c-0.296-0.442-1.181-0.442-1.033-0.885s-0.296-1.475-0.296-1.475c0 0 0 0.148-0.885 0.296s-0.885 0-1.181-1.327c-0.442-1.327-0.59-1.033-1.033-1.771s-1.919 0.442-3.098 0.148c-1.033-0.296-2.656-0.296-2.656-0.296s-0.885 0.296-1.475-0.148c-0.59-0.442-0.59-0.296-1.623 0s-2.067-0.59-2.656-1.327c-0.59-0.738-1.475 1.327-1.771 1.919-0.296 0.738-0.885-0.148-1.181-0.296s-0.59 0.296-0.738 0.59c-0.148 0.296-0.148 0.148-0.442-0.148-0.296-0.148-0.885 0.442-1.327 0.442s-0.442 0.442-1.033 1.327c-0.59 0.885-0.148 1.181-1.033 2.361s0 1.327-0.442 2.508c-0.59 1.327-0.442 1.033-0.738 1.327s-0.442 1.033-0.442 1.771c0 0.738 0 0.59-0.59 0.885-0.442 0.296-0.738 0.59-0.885 1.033-0.296 0.296-0.738 0.738-1.033 0.885-0.148 0.148-0.296 1.181-0.738 1.623-0.296 0.59-0.738 0.148-1.623 0.148-1.033 0-0.738-0.296-1.033-0.59s-0.738 0-0.738 0c0 0-0.885-0.59-1.033-1.033s-0.59-0.59-1.033-0.885c-0.442-0.442-1.033-0.296-1.327-0.59-0.296-0.148-1.919-1.033-1.919-1.033s0-0.442 0-0.885c0-0.442-0.296 0-0.885 0-0.59-0.148-1.475-0.442-1.475-0.442s-3.098-2.361-3.542-2.656c-0.442-0.442-0.296-0.59-0.59-1.181-0.442-0.738-1.475-0.59-1.771-0.738s-1.475-1.181-1.919-1.771c-0.442-0.59-0.738-1.475-0.885-1.771-0.296-0.296 0.148-0.442-0.148-1.033s-0.296-0.296-0.738-0.59c-0.442-0.296 0-0.738-0.148-1.033 0-0.148-0.885-2.067-0.885-2.361s-0.296-0.738-0.148-1.033c0.148-0.442 0.148-2.656 0.148-3.098s-1.623-2.508-1.771-2.804c-0.148-0.148-0.738-1.181-1.033-1.919s0.442-0.442 0.296-0.885c-0.148-0.442-0.738-0.738-0.885-1.181-0.148-0.296-0.442-0.148-0.738-0.442s-0.296-0.59-0.442-1.033c0-0.442 0.296-0.59-0.296-0.885-0.59-0.148-1.771-1.033-2.067-1.475s-0.59-0.148-0.738-0.148c-0.148 0-0.442 0.296-0.738 0-0.296-0.148-1.919-1.919-1.919-1.919s-1.623-1.181-1.919-1.475c-0.296-0.296-0.296-0.738-0.296-1.327s-0.59-0.442-0.738-0.59c-0.148 0-2.067-1.771-2.361-2.067-0.296-0.148-0.442-0.442-0.59-0.885s-1.033-1.033-1.327-1.475c-0.442-0.442-0.59-0.442-0.885-0.885-0.148-0.442-0.59-0.296-1.475-0.442s-1.475-1.033-2.067-1.919c-0.59-0.885-0.885-1.327-0.885-1.919s-0.296-0.296-0.296-0.738c-0.148-0.442 0-0.738-0.296-1.181-0.148-0.296-0.59-0.296-1.033-0.59-0.59-0.442-1.771-0.59-1.771-0.59l-23.612-0.148-0.148 8.559h-39.992c0 0-49.291-20.218-50.619-20.808s-2.213-0.442-2.213-0.442c0 0-0.148-1.623-0.296-2.361-0.296-0.738 0.296-0.59 0.442-1.033s0.442-1.033 0.442-1.033c0 0-31.878 2.952-32.764 3.098s-1.033-0.59-1.327-1.033c-0.296-0.442 0.296-0.59 0.442-1.181 0.148-0.442-1.623-0.442-2.213-1.033s0-2.067 0-2.361c-0.148-0.296 0.296-0.296 0.442-0.59 0-0.148-0.442-0.296-0.59-0.738-0.148-0.296-0.442-1.475-0.59-2.213s-0.59-2.213-2.213-4.869c-1.623-2.656-3.984-3.984-3.984-3.984s-0.738-0.148-1.771-1.181c-1.033-1.033-2.804-2.213-3.098-2.804s-0.885-0.296-1.919-0.442c-0.885-0.148-0.59 0.148-0.738 0.442s-0.442 0.148-0.59 0c-0.148-0.296-0.442 0.148-0.59 0.296-0.148 0-0.59-0.738-0.738-1.033s0.148-0.442 0.296-0.738c0.296-0.296-0.148-1.033-0.148-1.623-0.148-0.442-0.59-1.033-1.033-1.327-0.296-0.296-0.296-0.738-0.442-1.181-0.148-0.59-2.656 0-3.246-0.296s-0.885 0.59-1.327 0.738c-0.442 0.296-1.475-0.59-2.213-1.033-0.738-0.296-1.181-0.442-2.508-1.033-1.181-0.59-0.738-1.181-1.033-2.067s-0.885-0.738-1.181-1.033c-0.442-0.296-1.327-0.738-1.771-1.181s-0.738-0.296-1.327-0.885c-0.59-0.59-1.919 0.442-2.213 0.442s-1.475-0.442-1.771-0.442c-0.296 0-1.033 0-1.771-0.442-0.885-0.59-1.181-0.59-1.623-0.59s-0.738 0.148-1.181-0.442c-0.59-0.442-0.885 0.296-1.327 0.442s-2.361 0.148-2.656-0.148c-0.296-0.296-1.181-0.738-1.475-1.033-0.296-0.442-0.885-0.296-1.327-0.738s0-1.623 0.296-2.213c0.296-0.59 0-1.033-0.148-1.475s0.148-0.442 0.148-1.327c-0.148-1.033-0.442-0.885-0.738-1.771s0-0.885 0.442-1.327c0.442-0.442 0.148-1.919 0.296-2.361s-1.475-0.885-2.213-1.033c-0.738 0-1.327-0.296-1.623-0.738s0.148-1.033 0.148-1.623c0-0.59 0.296 0.296 0.738-0.442 0.442-0.59-0.885-1.327-0.885-1.623s-0.738 0-1.623-0.738c-0.738-0.738-2.067-2.656-2.213-3.098-0.296-0.442-1.033-0.296-1.771-0.59s-0.296-1.033-0.442-1.327c-0.148-0.148-0.738-0.885-0.885-1.033s-0.738-1.771-1.033-2.067c-0.296-0.296-0.296-0.59-0.442-1.181s-0.59-0.738-0.738-0.738c-0.148-0.148-0.59-0.442-0.885-0.59-0.148-0.148 0.148-0.59-0.148-1.033s-0.885-1.327-1.033-1.623c-0.148-0.296-0.442-0.148-0.738-0.296s-0.442-0.442-0.59-0.59c-0.148-0.148-0.59 0-0.59-0.148-0.148-0.148-0.442-0.442-0.885-1.033-0.442-0.442-0.148-1.771-0.296-2.213s-0.442-0.442-0.442-0.59c-0.148-0.148 0-0.59-0.148-0.885 0-0.296 0.148-0.59 0.148-0.738s-0.148-0.442-0.148-0.59c0-0.148-0.296-0.59-0.148-0.885s0.442-0.148 0.442 0c0 0.148 0.59 0.148 0.885 0 0.148-0.148 0.738-1.475 1.033-2.067 0.148-0.59-0.442-0.442-0.296-1.327 0.148-1.033-0.59-1.475-1.475-2.804s-2.213 0.59-2.804 0.296c-0.59-0.296-3.098-3.246-4.279-4.575s0.296-2.952 0-3.542c-0.148-0.59-0.296-0.59-0.148-1.033s-0.885-1.033-1.033-1.327c-0.148-0.296-0.442-0.59-0.59-1.181s0.442-1.181 0.59-1.771c0-0.59 0-1.327-0.296-1.919-0.296-0.738 0.59-0.442 1.033-0.738 0.442-0.442 1.181 0.296 1.181 1.327 0 0.885-0.442 1.181-0.442 1.181s1.181 1.475 1.771 2.213c0.59 0.59 1.033 0.738 1.475 1.033s0.296 0.442 0.442 0.885c0.148 0.442 0.59 0 1.327-0.442 0.59-0.442-1.181-0.885-1.475-1.327-0.148-0.296-0.442-1.327-0.59-1.919s-0.148-0.738-0.885-1.771c-0.738-1.033-1.181-0.885-1.033-1.623 0.148-0.59-0.148-0.59-0.738-1.327s-0.296-0.885-0.148-1.327c0.148-0.296 0.885-0.59 1.181-1.033s1.033 0.148 1.033 0.148c0 0 1.475-0.296 1.771-0.59 0.148-0.296 0.885-0.296 1.327 0.148 0.442 0.296 1.771 0.148 2.361 0.148 0.738 0 0.885-0.148 1.327 0.148 0.59 0.148 0.885 0.59 1.181 0.442 0.148-0.148-0.296-0.296-0.296-0.59s0.148-0.296 0.296-0.738c0.148-0.296 0.738 0.296 0.738 0.296s1.475 0.442 2.213 0.738c0.738 0.148-2.656-1.475-2.952-1.475s-2.804 0.296-3.69 0.442c-0.885 0-0.738-0.442-1.033-1.033-0.442-0.738-2.952 1.033-2.952 1.033s-0.59-0.148-0.885-1.033c-0.296-0.885-1.623-0.148-2.361-0.296s-0.885 5.017-0.738 5.313c0.148 0.296-0.442 0.59-0.59 0.296-0.296-0.296-0.885-0.59-1.623-1.033s-2.508-2.067-2.804-2.361c-0.296-0.296-1.181 0.442-2.213 0s0.59-1.181 0.59-1.475c0-0.296 0-0.59 0.442-0.885s0.738 0 0.148-0.738c-0.59-0.738-0.885-0.885-1.033-1.327s-0.296-0.738-0.738-1.033c-0.296-0.148-0.885-1.181-1.181-2.067-0.296-0.738-1.623-1.327-1.919-1.771-0.296-0.59-1.919-1.623-2.656-3.246-0.885-1.623-2.067-2.361-2.361-2.508-0.148-0.148-1.771-1.033-2.067-1.771-0.148-0.885 1.181-1.475 1.181-1.771 0.148-0.296-1.181-4.132-1.475-4.575s-0.148-0.738-0.59-1.475c-0.442-0.738 0-0.59 0.296-0.738s0-1.327 0-2.067c0-0.59 0.442-0.296 0.59-1.475s-0.738-1.919-0.885-2.656c-0.148-0.738-0.148-1.623-0.148-1.771-0.148-0.148-0.296-0.442-0.59-0.885-0.148-0.442-0.296-0.59-0.296-0.885-0.148-0.296-1.327-1.181-1.475-1.475-0.296-0.296-0.296-0.59-0.738-0.738s-0.148-0.442-0.296-0.738c0-0.296-0.885-1.033-1.327-1.327s-0.738-0.442-1.033-1.181c-0.148-0.59-0.738 0-1.327-0.59-0.442-0.59 0.148-1.475 0-1.623-0.148-0.296-0.296-1.033-0.296-1.327s-0.296 0.148-0.738-0.738c-0.442-0.885 0.59-0.738 0.442-1.033 0-0.296 0.738-1.327 0.738-1.623s0.296-0.296 0.442-0.442c0-0.148 0.148-1.181 0.148-1.327 0-0.296 0.148-0.296 0.885-0.148 0.59 0.148 0.148-0.59 0.148-0.59-0.148 0 0-0.442 0.148-0.59s0.442-0.738 0.442-0.885c0-0.148 0.442-0.148 0.885-0.296 0.59-0.148-0.296-0.59-0.442-0.885s0-1.181 0-1.623c0-0.442 0.296-1.033 0.296-1.327s-0.148-0.59-0.442-1.327c-0.296-0.738 1.181-5.165 1.327-5.755 0.148-0.442-1.033-3.984-1.181-4.427s-0.296-1.033-0.59-1.475c-0.148-0.442-0.738-0.296-1.033-0.738s0.148-0.296 0.296-0.442c0.148-0.296 0.442-0.885 0.442-1.327 0.148-0.442 0-1.327 0-2.213s-0.442-0.296-1.327-1.033c-0.885-0.738-1.033-2.952-1.475-3.69s-0.148-1.033-0.148-1.475c0-0.442-0.296-2.508-0.148-2.952s0.296-1.771 0.296-2.067c0-0.296 0.148-0.442 0-0.885-0.296-0.442-1.771-1.919-1.771-2.213s-0.296-1.033-0.442-1.327c-0.148-0.296 0.59-1.327 0.738-1.327 0.296 0 0.442-1.475 0.885-1.919 0.296-0.442 0.296-2.656 0.442-2.804s0.148-2.656 0.296-2.952c0.148-0.296 0.442-0.148 0.885-0.59 0.442-0.296 0.738-2.656 0.738-2.656s0.442-1.623 0.738-1.771c0.296-0.148 0.296-1.033 0.296-1.327 0-0.148 0.296-0.442 0.885-0.738 0.59-0.148-0.59-1.327-0.59-1.771 0-0.59 0.59-2.804 0.442-3.098s0.296-0.148 0.442-0.442c0.148-0.296-0.296-0.885-0.442-1.327s0.148-1.181 0.148-1.181c0 0-0.148-2.508 0-3.838s0.885-5.608 1.033-6.050c0.148-0.442-0.148-1.919-0.296-2.508 0-0.59 0.148-0.885 0.59-1.475s0.59-2.656 0.442-3.246c-0.148-0.59 0.59-1.033 0.885-1.771 0.296-0.59-0.296-0.738-0.296-1.327 0-0.442 0.296-1.327 0.296-1.475-0.148-0.148-0.296-0.296-0.442-0.59s0.59-1.181 0.59-1.327c0.148-0.148-0.148-0.59-0.59-1.181-0.296-0.59 0.59-0.296 0.885-0.738 0.296-0.296-0.296-1.033-0.442-1.327-0.148-0.148 0.296-0.885 0.59-1.327s-0.442-0.738-0.442-1.033c0-0.296-0.148-0.442-0.442-1.181-0.148-0.738 0.296-0.738 0.442-1.475s0.148-1.033-0.296-1.475c-0.442-0.442 0.442-0.442 0.59-1.033s0.442-1.181 0.59-1.475c0.148-0.296-0.738-0.738-1.033-1.181-0.296-0.59 0.148-0.59 0.59-1.033s0.148 1.033 1.475 1.623c1.327 0.59-0.442-0.885-0.442-1.475s0.885 0 1.033 0.296c0.148 0.296 1.771 0.296 1.919-0.296s1.033-0.148 1.327-0.738c0.296-0.59-3.542 0.148-4.427-0.148s-1.771-1.033-2.067-1.181c-0.296-0.148-0.296-0.738 0-1.181 0.296-0.296 1.033-0.59 1.181-0.738 0.148-0.296-0.148-0.738-0.148-1.327s0.738-1.327 0.738-2.067c0-0.738-0.59-0.885-0.59-1.771s1.475 0.296 2.067 0c0.442-0.148-0.442-0.442-1.327-0.885s-1.327 0.296-1.919-0.442c-0.59-0.738 0-0.738 0-1.033-0.148-0.296-0.296-0.296-0.738-0.738-0.296-0.442 0.442-0.442 0.442-0.59s0-0.442 0.148-0.442c0.148-0.148 0.59-0.296 0.738-0.442s1.181 0 1.771-0.296c0.59-0.296-2.067-0.59-2.361-0.738-0.148-0.148-0.296-0.738-0.442-1.033s-0.885 0-1.181 0c-0.296 0-0.885-0.738-0.885-1.181s0-0.885-0.296-1.623c-0.296-0.738-0.296-1.033-0.59-1.919-0.148-0.885-0.738-1.327-1.327-2.213s0-1.919-0.148-2.213c-0.148-0.296-0.148-0.59-0.148-1.327s-0.148-0.59-0.296-0.885c-0.148-0.296-0.296-1.033-0.59-1.919-0.442-0.885-2.067-1.771-2.361-2.067s-0.442-0.148-0.738-0.442c-0.296-0.296 0-0.442-0.148-0.738s-0.296-0.738-0.59-1.033c-0.296-0.442 0.296-0.59 0.442-0.885 0.148-0.442-0.59-1.327-0.885-1.771s0.296-0.885 0.296-1.327c0-0.59 0.148-1.327 0.148-1.623s0.296-0.59 0.296-0.885c0-0.442-0.296-1.033-0.296-1.181 0.148-0.148 1.181 0.148 1.623 0.59s3.542 1.771 4.427 2.067c0.885 0.296 3.246 1.623 3.394 1.623 0.296 0.148 0.59 0.296 0.738 0.442 0 0.148 3.542 0 3.984-0.148 0.296-0.148 0.885 0.59 1.033 0.59 0.296 0 0.296-0.296 0.442-0.442s0.442 0.296 0.442 0.296c0 0 1.919 0 2.213 0s2.361 0.148 2.656 0c0.296-0.148 1.475 0.148 1.623 0.296s0.59 1.475 1.327 1.771c0.738 0.296 0.442-1.181 0.738-1.033 0.442 0.148 0.442 1.181 0.738 1.919 0.296 0.885 0.738-0.442 0.885-0.738s0.148-0.442 0.296-0.738c0-0.296-0.885-0.442-0.442-1.033s1.181 0 1.181 0c0 0-0.59 1.033-0.59 1.181s0.59 0.738 1.033 1.181c0.442 0.442 0.885 1.475 1.033 1.919s-0.442 0.59-0.738 1.033c-0.296 0.442-0.148 0.738-0.442 1.327-0.148 0.59-0.59-0.296-0.59-0.738s-1.181 1.327-1.181 1.475c0 0.148-0.738 0.885-1.181 1.623-0.442 0.59 0.59 0.738 0.738 0.59s1.327-0.885 1.919-1.327c0.59-0.442 0.442-1.181 0.885-1.771 0.296-0.59 1.033-0.885 1.327-0.738 0.442 0.296 0.296-0.148 0.885-0.442 0.442-0.442 0.738 0.738 1.033 1.181s-0.442 0.148-0.738-0.148c-0.296-0.148-0.59 0.296-0.59 0.59s-0.738 0-1.033 0c-0.296 0 0 1.475 0 1.919s-0.738-0.296-1.033 0c-0.296 0.296 0.442 1.033 0.59 1.181s-0.296 0.442-0.296 1.181c0.148 0.59 1.475-1.033 1.771-0.885s0.59 1.181 0.59 1.475c0 0.296-0.442 0.738-0.296 1.181 0.148 0.59 0 1.327 0 1.919s-0.442 0.296-1.033 0.296c-0.59 0 0.148-1.623 0.148-2.067-0.148-0.442-1.181 1.033-1.623 0.885s-0.59 2.508-1.181 2.656c-0.59 0.148 0.148-2.508 0.148-2.656-0.148-0.148-2.656 2.952-2.952 3.098s-1.327 0.738-1.475 0.885c-0.296 0.296 1.919 1.327 2.213 1.623s2.067-1.181 2.508-1.327c0.442-0.148 0.59 0.59 0.738 0.885s1.327-0.738 1.771-1.327c0.442-0.59 0.59-1.623 0.885-2.067 0.296-0.59 0.148-0.59 0.148-0.59s0.59 0.296 0.885 0.442c0.296 0.296 0.59-0.442 0.59-0.59 0.148-0.148 0-0.148 0.59-0.442s0.296-0.738 0.442-1.033c0.148-0.296-0.296-0.738-0.296-1.033s-0.148-0.738-0.442-1.327c-0.148-0.59 0.59-0.738 0.885-1.033 0.296-0.442-0.59-0.738-0.59-0.885 0.148-0.296-0.442-0.148-0.738-0.442s0.148-0.442 0.296-0.59c0.148-0.148 0.148-0.442 0.442-0.738s-0.296-0.885-0.296-1.181c-0.148-0.296 0.296-0.885 0.296-1.181s1.327-1.771 1.771-2.067c0.442-0.296-1.327-2.067-1.327-2.508s-1.181 0.296-1.771-0.442c-0.59-0.738 0.738-1.181 0.738-1.771 0-0.442-1.771 1.033-2.067 0.59s2.213-0.885 2.067-1.475c-0.148-0.59-2.213-1.771-2.656-2.656-0.59-1.033 0.59-0.296 1.181-0.296s-0.296-1.181-0.59-2.213c-0.296-1.033 1.181 0.885 1.327 0.148s-0.738-1.919-0.885-2.213c-0.148-0.296 0.148-0.738 0-1.623 0-0.885-1.327 0.296-2.361-0.885s-1.033-1.919-1.033-1.919l0.442-0.59-0.296-1.033zM875.558 152.549v0c-0.148 0.148 0.148 0.59 0.148 0.59s0.442-0.148 0.442-0.296c0-0.148 0.148-0.59 0.148-0.738s-0.148-0.296-0.148-0.296c-0.148 0.148-0.296 0.442-0.296 0.442l-0.296 0.296zM941.082 85.696v0c0 0 0.148-0.296 0.148-0.296 0-0.148 0.442-0.296 0.59-0.148s0.148 0.59 0.148 0.738c0 0.148-0.738-0.148-0.885-0.296zM920.863 94.698v0c0 0 0.148 0.738 0 0.885 0 0.59-0.296 0.885-0.738 1.181s-0.148 0.885 0 0.59c0.296-0.148 0.59 0.296 1.327 0.59s-0.148-0.885 0-1.327c0.148-0.59 0.59-0.59 0.885-1.033s-0.442-0.148-0.442-0.738c0-0.59 1.623-0.442 1.919-1.033 0.148-0.442-1.475-1.033-1.771-1.033-0.148 0-1.033 1.033-1.181 1.919zM897.694 145.908v0c0 0 1.033-1.181 1.033-1.181s0.442-0.738 0.148-0.885c-0.296-0.148-1.181 1.771-1.181 2.067zM894.742 150.631v0c0.738 0.59 3.69 0.738 3.838 0.442 0-0.148-0.59-1.033-0.738-1.475 0-0.296-0.296 0.885-1.033 0.885-0.738 0.148-2.067 0.148-2.067 0.148zM886.477 149.596v0c0.296 0.59 0.738 0.59 0.885 0.148 0.296-0.296 3.394-0.59 3.394-0.59s0-1.181-0.442-1.327c-0.442-0.148-1.033-0.296-1.327 0-0.296 0.442-1.181 1.033-1.327 1.327-0.296 0.296-1.181 0.442-1.181 0.442zM727.39 459.953v0c0 0-0.885 0.738-1.181 0.59s-0.296-0.885 0.148-1.327c0.442-0.296 0.738 0.59 1.033 0.738zM737.867 456.706c-0.296 0-1.033-0.738-1.475-0.442-0.442 0.442-2.361 1.771-2.361 1.771s0-1.327-0.59-0.296c-0.59 1.033 0.296 1.181-0.296 1.475-0.59 0.148-0.442 0-0.885 0.148s-1.771 0.296-1.475 0.885c0.296 0.59 2.361-0.296 2.952-0.59 0.442-0.296 1.033-1.033 1.475-0.885s2.361-0.296 2.508-0.59c0.148-0.148 0.148-1.475 0.148-1.475z"></path>
</svg>
