<svg id="Layer_1" data-name="Layer 1" xmlns="http://www.w3.org/2000/svg" viewBox="0 0 442.68 448.82"><title>PI icon</title><path d="M374.49,184.19s32.89,14.52,30.59,89.5l23.71,23.68s25.24-58.1,16.06-107.86c0,0-.76-46.67-84.14-108.61,0,0-41.32,4.57-38.25-38.26L289.57,9.73,229.9,69.4,259,98.5s71.91,3,46.67,61.94L197.78,269.09,177.12,266,54,389.19S45.53,419,67,437.37c0,0,13.76,16.85,42.84,16.06L230.67,328l2.3-20.66L356.11,184.94s6.9-10.71,18.38-.76ZM141.16,197.92l51.38,52.14,52.79-52.78-52.92-53.65C235.25,45.69,112.09,7.46,112.09,7.46,89.15,1.32,93.73,18.92,93.73,18.92c48.2,39.77,40.54,52.78,40.54,52.78-6.11,45.91-45.9,63.52-45.9,63.52C48.6,152,15.71,96.2,15.71,96.2c-13-2.3-11.48,12.25-11.48,12.25C36.37,250,141.16,197.92,141.16,197.92ZM247.1,309.82,385.95,455l59.68-59.67-145-139L247.1,309.82Z" transform="translate(-4.18 -6.16)"/></svg>