<!-- Generated by IcoMoon.io -->
<svg version="1.1" xmlns="http://www.w3.org/2000/svg" width="1024" height="1024" viewBox="0 0 1024 1024">
<title></title>
<g id="icomoon-ignore">
</g>
<path fill="#000" d="M1023.993 325.831v-279.287c0-25.709-20.85-46.537-46.558-46.537h-279.243c-25.731 0-46.558 20.85-46.558 46.537v116.364c-227.369 0-418.396 156.278-472.732 366.914l-48.388-8.519c-8.693-1.503-17.495 1.983-22.746 9.063-5.229 7.081-6.057 16.536-2.070 24.402l50.415 99.545c-88.368 14.4-156.104 91.091-156.104 183.511 0 102.66 83.53 186.169 186.191 186.169 94.773 0 173.031-71.243 184.557-162.901h164.513v46.537c0 8.824 4.989 16.862 12.875 20.829 7.887 3.922 17.321 3.094 24.402-2.222l81.352-61.047c13.289 89.675 90.59 158.783 183.881 158.783 102.682 0.022 186.212-83.487 186.212-186.147 0-94.773-71.243-173.053-162.945-184.557v-164.535h46.58c8.78 0 16.862-4.989 20.785-12.853 3.965-7.865 3.137-17.321-2.179-24.38l-59.369-79.108h110.503c25.774-0.022 46.624-20.872 46.624-46.558zM186.198 930.897c-51.33 0-93.096-41.743-93.096-93.052s41.765-93.096 93.096-93.096 93.074 41.787 93.074 93.096-41.743 93.052-93.074 93.052zM930.941 837.824c0 51.308-41.787 93.052-93.096 93.052s-93.052-41.743-93.052-93.052 41.743-93.096 93.052-93.096 93.096 41.787 93.096 93.096zM747.19 475.856c3.965 7.887 12.004 12.853 20.807 12.853h46.558v164.513c-82.659 10.414-148.456 75.1-160.635 157.193l-81.395-61.069c-7.037-5.273-16.47-6.1-24.358-2.201-7.865 3.987-12.875 12.004-12.875 20.829v46.537h-164.513c-10.545-84.14-77.409-150.917-161.616-161.332 0.065-0.523 0.327-0.98 0.327-1.547 0-0.109 0-0.153 0-0.24l70.437-65.949c6.427-6.013 8.889-15.163 6.405-23.617-2.549-8.475-9.586-14.771-18.279-16.296l-43.203-7.626c50.371-188.784 222.357-328.46 426.805-328.46v116.364c0 25.709 20.829 46.537 46.558 46.537h110.525l-59.347 79.13c-5.316 7.059-6.166 16.492-2.201 24.38zM930.941 279.272h-186.212v-186.169h186.212v186.169z"></path>
</svg>
