<!-- Generated by IcoMoon.io -->
<svg version="1.1" xmlns="http://www.w3.org/2000/svg" width="1024" height="1024" viewBox="0 0 1024 1024">
<title></title>
<g id="icomoon-ignore">
</g>
<path fill="#000" d="M512 934.941c-176.923 0-336.482-111.923-397.118-278.517-4.23-11.53 1.736-24.308 13.312-28.538 11.53-4.23 24.308 1.78 28.538 13.312 54.225 149.053 197.001 249.223 355.27 249.223 208.665 0 378.42-169.755 378.42-378.42 0-12.288 9.973-22.261 22.261-22.261s22.261 9.973 22.261 22.261c-0.002 233.194-189.747 422.939-422.943 422.939z"></path>
<path fill="#000" d="M111.32 534.261c-12.288 0-22.261-9.973-22.261-22.261 0-233.196 189.745-422.941 422.941-422.941 176.923 0 336.482 111.923 397.118 278.517 4.23 11.53-1.736 24.308-13.312 28.538-11.53 4.184-24.352-1.736-28.538-13.312-54.225-149.053-197.001-249.223-355.27-249.223-208.665 0-378.42 169.755-378.42 378.42 0.002 12.29-9.971 22.263-22.259 22.263z"></path>
<path fill="#000" d="M111.32 578.78c-5.699 0-11.396-2.181-15.76-6.501l-89.041-89.041c-8.681-8.681-8.681-22.795 0-31.476s22.795-8.681 31.476 0l73.325 73.283 73.281-73.281c8.681-8.681 22.795-8.681 31.476 0s8.681 22.795 0 31.476l-89.041 89.041c-4.32 4.318-10.017 6.499-15.716 6.499z"></path>
<path fill="#000" d="M1001.721 578.78c-5.699 0-11.396-2.181-15.76-6.501l-73.281-73.325-73.281 73.281c-8.681 8.681-22.795 8.681-31.476 0s-8.681-22.795 0-31.476l89.041-89.041c8.681-8.681 22.795-8.681 31.476 0l89.041 89.041c8.681 8.681 8.681 22.795 0 31.476-4.364 4.364-10.063 6.544-15.76 6.544z"></path>
<path fill="#000" d="M473.414 249.053l-28.695 98.603h111.368l-28.692-98.603h-53.981z"></path>
<path fill="#000" d="M710.018 724.137c0-4.95-5.52-8.963-12.329-8.963h-394.566c-6.809 0-12.329 4.013-12.329 8.963v26.892h419.227v-26.892z"></path>
<path fill="#000" d="M410.811 464.185h179.186l-28.695-98.603h-121.796l-28.695 98.603z"></path>
<path fill="#000" d="M342.996 697.246h314.818l-28.695-98.603h-257.431l-28.692 98.603z"></path>
<path fill="#000" d="M376.904 580.715h247.001l-28.695-98.603h-189.614l-28.692 98.603z"></path>
</svg>
