<svg id="Capa_1" data-name="Capa 1" xmlns="http://www.w3.org/2000/svg" viewBox="0 0 512 512"><defs><style>.cls-1{fill:#191919;}</style></defs><title>Program</title><path class="cls-1" d="M491.57,400.06,380.44,121.84a21.83,21.83,0,0,0-6.93-8.78,16.25,16.25,0,0,0-10.13-3.74H273a8.66,8.66,0,0,1,6.13,2.52,9,9,0,0,1,2.94,6l4,51.17a7.43,7.43,0,0,1-2.13,6.12,8,8,0,0,1-5.86,2.4H233.88a8,8,0,0,1-5.86-2.4,7.43,7.43,0,0,1-2.13-6.12l4-51.17a9,9,0,0,1,2.92-6,8.69,8.69,0,0,1,6.13-2.52H148.61a16.22,16.22,0,0,0-10.13,3.74,21.83,21.83,0,0,0-6.93,8.78L20.43,400.06Q13.51,416.59,13.5,431q0,19.45,12.27,19.45H213.36a7.77,7.77,0,0,1-5.86-2.54,7.55,7.55,0,0,1-2.12-6l5.33-68.21a9,9,0,0,1,2.92-6,8.61,8.61,0,0,1,6.13-2.52h72.48a8.61,8.61,0,0,1,6.13,2.52,9.13,9.13,0,0,1,2.94,6l5.33,68.21a7.56,7.56,0,0,1-2.14,6,7.74,7.74,0,0,1-5.86,2.54H486.25q12.24,0,12.25-19.45,0-14.4-6.93-30.92ZM296.25,306.51a6.12,6.12,0,0,1-2.14,5.34,8.15,8.15,0,0,1-5.59,2.13h-65a8.15,8.15,0,0,1-5.59-2.13,6.12,6.12,0,0,1-2.14-5.34v-1.07l6.4-85.27a9,9,0,0,1,2.94-6,8.62,8.62,0,0,1,6.12-2.54h49.57a8.67,8.67,0,0,1,6.13,2.54,9,9,0,0,1,2.92,6l6.4,85.27Zm0,0"/></svg>