<!-- Generated by IcoMoon.io -->
<svg version="1.1" xmlns="http://www.w3.org/2000/svg" width="1024" height="1024" viewBox="0 0 1024 1024">
<title></title>
<g id="icomoon-ignore">
</g>
<path d="M1009.342 765.722l-234.628-587.402c-3.308-7.509-8.297-13.752-14.515-18.453l-0.116-0.084c-5.766-4.809-13.219-7.77-21.36-7.896h-190.845c0.015 0 0.032 0 0.049 0 5.031 0 9.589 2.032 12.895 5.322l-0.001-0.001c3.506 3.178 5.816 7.621 6.203 12.602l0.004 0.065 8.445 108.034c0.068 0.547 0.106 1.179 0.106 1.82 0 4.336-1.759 8.262-4.603 11.1v0c-3.068 3.13-7.34 5.070-12.065 5.070-0.108 0-0.215-0.001-0.323-0.003h-93.303c-0.092 0.002-0.2 0.003-0.307 0.003-4.725 0-8.996-1.94-12.062-5.067l-0.003-0.003c-2.844-2.84-4.603-6.765-4.603-11.101 0-0.642 0.038-1.274 0.113-1.895l-0.007 0.075 8.445-108.034c0.38-5.042 2.675-9.485 6.15-12.654l0.015-0.014c3.315-3.288 7.88-5.321 12.92-5.321 0.007 0 0.016 0 0.023 0h-190.713c-8.17 0.12-15.624 3.084-21.443 7.941l0.055-0.044c-6.334 4.785-11.323 11.028-14.515 18.243l-0.116 0.295-234.607 587.402q-14.61 34.899-14.631 65.323 0 41.064 25.906 41.064h396.056c-0.071 0.001-0.154 0.002-0.239 0.002-4.802 0-9.122-2.063-12.122-5.351l-0.012-0.013c-2.812-2.872-4.549-6.808-4.549-11.15 0-0.534 0.026-1.063 0.078-1.583l-0.005 0.065 11.253-144.011c0.38-5.042 2.675-9.485 6.15-12.654l0.015-0.014c3.289-3.287 7.832-5.321 12.851-5.321 0.033 0 0.064 0 0.097 0h153.021c0.027 0 0.059 0 0.092 0 5.018 0 9.561 2.033 12.851 5.321v0c3.485 3.193 5.786 7.627 6.203 12.597l0.004 0.071 11.253 144.011c0.043 0.441 0.068 0.953 0.068 1.471 0 4.363-1.75 8.318-4.588 11.199l0.002-0.002c-3.001 3.301-7.313 5.365-12.106 5.365-0.094 0-0.187-0.001-0.28-0.002h396.112q25.843 0 25.864-41.064 0-30.403-14.631-65.281zM596.965 568.211c0.049 0.418 0.076 0.904 0.076 1.395 0 3.954-1.777 7.494-4.575 9.864l-0.019 0.016c-3.048 2.789-7.125 4.498-11.601 4.498-0.071 0-0.141 0-0.212-0.001h-137.223c-0.060 0.001-0.131 0.001-0.202 0.001-4.476 0-8.553-1.709-11.613-4.51l0.013 0.012c-2.818-2.386-4.594-5.925-4.594-9.88 0-0.491 0.027-0.976 0.081-1.454l-0.005 0.059v-2.259l13.512-180.029c0.392-5.047 2.701-9.49 6.191-12.653l0.016-0.015c3.297-3.313 7.859-5.363 12.901-5.363 0.007 0 0.014 0 0.021 0h104.655c5.054 0.001 9.631 2.050 12.942 5.363v0c3.49 3.183 5.785 7.626 6.161 12.605l0.004 0.063 13.512 180.029z"></path>
</svg>
