<!-- Generated by IcoMoon.io -->
<svg version="1.1" xmlns="http://www.w3.org/2000/svg" width="1024" height="1024" viewBox="0 0 1024 1024">
<title></title>
<g id="icomoon-ignore">
</g>
<path d="M973.422 590.002c-16.263 31.284-54.881 77.294-140.869 120.288-1.656 0.769-20.107 10.409-25.902-7.156-6.268-19.22 3.548-31.757 10.29-35.129 84.332-42.166 92.67-84.923 104.972-104.853-13.839-63.693-49.736-261.275-265.593-341.586v368.434c0 51.747-35.484 93.794-78.714 93.794h-131.289c-43.467-0.059-78.95-42.048-78.95-93.794v-369.853c-183.331 62.45-248.383 260.802-266.48 346.613 0.756 0.889 1.408 1.901 1.917 2.993l0.034 0.082s1.005 2.129 2.957 5.145c9.225 15.613 44.354 65.053 140.218 112.719 6.682 3.371 15.021 17.269 6.919 37.258-8.93 22.472-22.945 15.908-24.601 14.962-86.579-43.349-127.090-93.912-144.535-118.396h-83.8v66.413c36.998 35.625 77.869 67.734 121.766 95.49l3.136 1.852c17.741 11.473 37.317 23.064 58.43 34.182 7.215 3.844 14.489 7.511 22.058 11.296 80.488 39.387 180.729 71.913 293.565 71.913s252.169-46.542 332.774-81.67c7.924-3.489 15.73-6.978 23.359-10.645 26.020-12.241 43.467-25.075 64.461-37.435 70.257-41.398 104.44-78.654 104.44-78.654v-104.262z"></path>
<path d="M446.318 621.524h131.289c14.489 0 26.139-14.016 26.139-31.284v-437.626c0-17.209-11.828-31.284-26.139-31.284h-131.289c-14.489 0-26.257 14.074-26.257 31.284v437.626c0 17.269 11.828 31.284 26.257 31.284z"></path>
</svg>
