<svg id="Layer_1" data-name="Layer 1" xmlns="http://www.w3.org/2000/svg" viewBox="0 0 173.13 132.19"><title>Program briefing</title><path d="M172.48,111.67c-2.75,5.29-9.28,13.07-23.82,20.34-.28.13-3.4,1.76-4.38-1.21-1.06-3.25.6-5.37,1.74-5.94,14.26-7.13,15.67-14.36,17.75-17.73-2.34-10.77-8.41-44.18-44.91-57.76v62.3c0,8.75-6,15.86-13.31,15.86H83.35C76,127.52,70,120.42,70,111.67V49.13c-31,10.56-42,44.1-45.06,58.61a2.26,2.26,0,0,1,.33.52s.17.36.5.87c1.56,2.64,7.5,11,23.71,19.06,1.13.57,2.54,2.92,1.17,6.3-1.51,3.8-3.88,2.69-4.16,2.53C31.85,129.69,25,121.14,22.05,117H7.88v11.23A129.1,129.1,0,0,0,29,144.69c3,1.94,6.31,3.9,9.88,5.78,1.22.65,2.45,1.27,3.73,1.91,13.61,6.66,30.56,12.16,49.64,12.16s42.64-7.87,56.27-13.81c1.34-.59,2.66-1.18,3.95-1.8,4.4-2.07,7.35-4.24,10.9-6.33,11.88-7,17.66-13.3,17.66-13.3V111.67Zm0,0" transform="translate(-7.88 -32.35)"/><path d="M83.35,117h22.2c2.45,0,4.42-2.37,4.42-5.29v-74c0-2.91-2-5.29-4.42-5.29H83.35c-2.45,0-4.44,2.38-4.44,5.29v74c0,2.92,2,5.29,4.44,5.29Zm0,0" transform="translate(-7.88 -32.35)"/></svg>