<!-- Generated by IcoMoon.io -->
<svg version="1.1" xmlns="http://www.w3.org/2000/svg" width="1024" height="1024" viewBox="0 0 1024 1024">
<title></title>
<g id="icomoon-ignore">
</g>
<path d="M293.149 456.228c0.016-0.24 0.026-0.521 0.026-0.804 0-3.149-1.171-6.026-3.101-8.217l0.012 0.013-98.367-111.999c-2.287-2.603-5.623-4.236-9.34-4.236-3.152 0-6.031 1.176-8.221 3.112l0.013-0.011c-44.448 39.161-81.659 85.239-110.239 136.764l-1.334 2.621c-0.964 1.725-1.531 3.784-1.531 5.976 0 4.644 2.545 8.693 6.317 10.829l0.062 0.032 130.845 71.508c1.723 0.964 3.782 1.532 5.973 1.532 4.681 0 8.758-2.591 10.872-6.418l0.032-0.064c19.788-35.801 44.401-66.267 73.428-91.838l0.372-0.322c2.383-2.105 3.946-5.090 4.177-8.441l0.002-0.039z"></path>
<path d="M337.090 414.742c2.136 3.963 6.256 6.611 10.995 6.613v0c2.125-0.003 4.123-0.544 5.867-1.493l-0.065 0.032c32.462-17.6 70.286-30.286 110.382-35.867l1.759-0.201c6.1-0.863 10.741-6.049 10.741-12.32 0-0.584-0.041-1.159-0.119-1.723l0.007 0.065-20.043-147.764c-0.854-6.109-6.045-10.761-12.322-10.761-0.583 0-1.158 0.041-1.72 0.118l0.065-0.007c-63.549 8.776-120.977 28.041-172.954 56.102l2.694-1.33c-3.964 2.132-6.613 6.251-6.613 10.988 0 2.125 0.534 4.125 1.473 5.875l-0.032-0.066z"></path>
<path d="M177.012 614.703l-143.93-39.030c-0.971-0.272-2.084-0.428-3.236-0.428-5.707 0-10.515 3.844-11.979 9.084l-0.021 0.087c-11.323 40.218-17.832 86.405-17.832 134.11 0 0.079 0 0.157 0 0.236v-0.012c0 7.79 0.183 15.62 0.568 23.897 0.311 6.605 5.741 11.843 12.395 11.847h0.588l148.961-6.877c6.615-0.316 11.859-5.756 11.859-12.422 0-0.198-0.005-0.394-0.013-0.588l0.001 0.027c-0.264-5.599-0.385-10.792-0.385-15.864 0-0.089 0-0.195 0-0.299 0-31.478 4.288-61.955 12.311-90.878l-0.564 2.385c0.272-0.971 0.428-2.084 0.428-3.236 0-5.707-3.844-10.515-9.084-11.979l-0.087-0.021z"></path>
<path d="M734.067 257.343c-50.145-24.784-108.505-41.886-170.099-47.989l-2.11-0.169c-0.364-0.038-0.787-0.060-1.214-0.060-6.435 0-11.727 4.895-12.353 11.166l-0.004 0.052-14.383 148.433c-0.037 0.358-0.058 0.774-0.058 1.194 0 6.445 4.903 11.746 11.183 12.374l0.052 0.004c41.961 4.124 80.407 15.385 115.407 32.581l-1.968-0.873c1.574 0.772 3.426 1.224 5.384 1.224 4.903 0 9.145-2.834 11.178-6.953l0.032-0.073 64.753-134.334c0.781-1.579 1.237-3.438 1.237-5.403 0-4.902-2.841-9.14-6.966-11.159l-0.073-0.032z"></path>
<path d="M519.064 581.72c-2.15 0-4.28 0-6.39 0.183l-201.866-119.059c-1.856-1.11-4.095-1.765-6.487-1.765-7.070 0-12.801 5.731-12.801 12.801 0 2.198 0.554 4.266 1.53 6.073l-0.033-0.068 110.112 206.39c-0.392 3.604-0.62 7.795-0.629 12.037v0.013c0 64.366 52.178 116.543 116.543 116.543s116.543-52.178 116.543-116.543c0-64.357-52.166-116.532-116.522-116.543h-0.001z"></path>
<path d="M953.096 465.783c0.239-0.913 0.377-1.961 0.377-3.040 0-2.352-0.653-4.552-1.788-6.428l0.031 0.056c-31.765-52.586-70.656-97.227-116.006-134.253l-0.922-0.73c-2.118-1.731-4.851-2.781-7.831-2.781-3.879 0-7.342 1.778-9.618 4.564l-0.017 0.022-94.087 115.63c-1.732 2.12-2.782 4.858-2.782 7.84 0 3.882 1.779 7.349 4.566 9.629l0.022 0.017c30.596 24.966 56.31 54.484 76.461 87.749l0.849 1.51c2.207 3.646 6.152 6.047 10.657 6.047 2.357 0 4.56-0.657 6.438-1.797l-0.055 0.031 127.985-76.499c2.794-1.692 4.841-4.38 5.661-7.562l0.019-0.086z"></path>
<path d="M1000.605 565.508c-1.633-5.080-6.317-8.691-11.843-8.691-1.335 0-2.62 0.211-3.825 0.6l0.088-0.024-142.286 44.629c-5.077 1.635-8.685 6.317-8.685 11.841 0 1.328 0.208 2.607 0.594 3.806l-0.024-0.088c9.754 30.148 15.377 64.833 15.377 100.833 0 0.139 0 0.277 0 0.415v-0.021c0 5.092-0.122 10.285-0.385 15.864-0.008 0.167-0.012 0.364-0.012 0.561 0 6.665 5.244 12.106 11.832 12.421l0.028 0.001 149.549 6.877c6.65-0.015 12.072-5.246 12.394-11.819l0.001-0.028c0.385-8.297 0.568-16.107 0.568-23.897 0-0.12 0-0.262 0-0.403 0-54.562-8.539-107.13-24.354-156.441l1.004 3.623z"></path>
</svg>
