<svg id="Capa_1" data-name="Capa 1" xmlns="http://www.w3.org/2000/svg" xmlns:xlink="http://www.w3.org/1999/xlink" viewBox="0 0 512 512"><defs><style>.cls-1{fill:none;}.cls-2{fill:#191919;}.cls-3{clip-path:url(#clip-path);}</style><clipPath id="clip-path"><rect class="cls-1" x="3.5" y="93.38" width="505" height="353.62"/></clipPath></defs><title>Tactical</title><path class="cls-2" d="M148,215.2a6.13,6.13,0,0,0-1.51-4.44L98,155.55a6.12,6.12,0,0,0-8.65-.56,252.41,252.41,0,0,0-55,68.71A6.13,6.13,0,0,0,36.74,232l64.5,35.25a6.12,6.12,0,0,0,8.32-2.44,166.91,166.91,0,0,1,36.38-45.43A6.11,6.11,0,0,0,148,215.2Zm0,0"/><path class="cls-2" d="M169.66,194.75a6.14,6.14,0,0,0,5.42,3.26,6.07,6.07,0,0,0,2.86-.72,165,165,0,0,1,55.28-17.78,6.13,6.13,0,0,0,5.24-6.89l-9.88-72.84a6.13,6.13,0,0,0-6.89-5.25,250.35,250.35,0,0,0-83.93,27,6.13,6.13,0,0,0-2.55,8.28Zm0,0"/><g class="cls-3"><path class="cls-2" d="M90.75,293.32,19.8,274.08a6.13,6.13,0,0,0-7.51,4.31A253,253,0,0,0,3.5,344.61c0,3.84.09,7.7.28,11.78a6.12,6.12,0,0,0,6.11,5.84h.29l73.43-3.39a6.13,6.13,0,0,0,5.84-6.4c-.13-2.76-.19-5.32-.19-7.82a167.22,167.22,0,0,1,5.79-43.77,6.13,6.13,0,0,0-4.31-7.51Zm0,0"/><path class="cls-2" d="M365.35,117.16a250.47,250.47,0,0,0-84.89-23.74,6.12,6.12,0,0,0-6.69,5.5l-7.09,73.17a6.13,6.13,0,0,0,5.51,6.69,164.94,164.94,0,0,1,55.92,15.63,6.14,6.14,0,0,0,8.18-2.86l31.92-66.22a6.12,6.12,0,0,0-2.86-8.18Zm0,0"/></g><path class="cls-2" d="M473.32,219.91a6.13,6.13,0,0,0-.68-4.64A252.62,252.62,0,0,0,415,148.73a6.12,6.12,0,0,0-8.61.89l-46.38,57a6.13,6.13,0,0,0,.89,8.62,167,167,0,0,1,38.11,44,6.12,6.12,0,0,0,8.4,2.11l63.09-37.71a6.13,6.13,0,0,0,2.8-3.77Zm0,0"/><path class="cls-2" d="M496.74,269.07a6.12,6.12,0,0,0-7.68-4l-70.14,22a6.12,6.12,0,0,0-4,7.67,166.76,166.76,0,0,1,7.58,49.9c0,2.51-.06,5.07-.19,7.82a6.13,6.13,0,0,0,5.84,6.4l73.43,3.39h.29a6.13,6.13,0,0,0,6.11-5.84c.19-4.09.28-7.94.28-11.78a252.27,252.27,0,0,0-11.51-75.53Zm0,0"/><path class="cls-2" d="M255.66,331.6c-1.06,0-2.11,0-3.15.09L153,273a6.31,6.31,0,0,0-8.77,8.4l54.28,101.74a59.38,59.38,0,0,0-.31,5.94,57.45,57.45,0,1,0,57.46-57.45Zm0,0"/></svg>