<?xml version="1.0" encoding="utf-8"?>
<!-- Generator: Adobe Illustrator 23.0.1, SVG Export Plug-In . SVG Version: 6.00 Build 0)  -->
<svg version="1.1" id="Layer_1" xmlns="http://www.w3.org/2000/svg" xmlns:xlink="http://www.w3.org/1999/xlink" x="0px" y="0px"
	 viewBox="0 0 401.8 401.8" style="enable-background:new 0 0 401.8 401.8;" xml:space="preserve">
<style type="text/css">
	.st0{fill:#050505;}
	.st1{fill:#020202;}
</style>
<title>UDOT Icon</title>
<g>
	<polygon class="st0" points="121.4,240.6 123.8,240.6 120.2,247.6 130.1,240.6 133.5,240.6 124.9,246.5 126.5,254.6 123.8,254.6 
		122.6,248 118.5,250.9 116.6,254.6 114.1,254.6 121.4,240.6 	"/>
	<path class="st0" d="M137.3,248.5c0.1-0.2,0.2-0.5,0.3-0.7c0.3-1.1-0.1-2-1.6-2c-1.8,0.1-3.4,1.2-4.2,2.8L137.3,248.5z
		 M133.2,252.8c1.1,0,2.1-0.4,3-1l0.8,1.5c-1.3,0.9-2.9,1.4-4.5,1.5c-2.9,0-4.4-1.8-3.7-4.6c0.8-3.1,4.1-6.4,7.8-6.4
		c2.7,0,3.8,1.8,3.2,4.1c-0.2,0.8-0.6,1.6-1,2.2h-7.7C130.8,251.7,131.5,252.8,133.2,252.8"/>
	<path class="st0" d="M148.9,248.5c0.1-0.2,0.2-0.5,0.3-0.7c0.3-1.1-0.1-2-1.6-2c-1.8,0.1-3.4,1.2-4.2,2.8L148.9,248.5z
		 M144.8,252.8c1.1,0,2.1-0.4,3-1l0.8,1.5c-1.3,0.9-2.9,1.4-4.5,1.5c-2.9,0-4.4-1.8-3.7-4.6c0.8-3.1,4.1-6.4,7.8-6.4
		c2.7,0,3.8,1.8,3.2,4.1c-0.2,0.8-0.6,1.6-1,2.2h-7.7C142.4,251.7,143.1,252.8,144.8,252.8"/>
	<path class="st0" d="M161.6,248.5c0.4-1.6-0.4-2.6-1.9-2.6c-1.9,0-4.3,1.9-4.8,4.2c-0.4,1,0.1,2.2,1.2,2.6c0.3,0.1,0.5,0.1,0.8,0.1
		C158.9,252.7,161,250.8,161.6,248.5 M155.7,244h2.4l-0.7,1.4c1-1,2.4-1.5,3.8-1.6c2.4,0,3.7,1.7,3,4.5c-0.9,3.8-4.4,6.5-7.5,6.5
		c-1.4,0.1-2.7-0.8-3-2.1l-2.6,5.1h-2.4L155.7,244L155.7,244z"/>
	<path class="st0" d="M170.4,240.1h2.6l-1.2,2.3h-2.6L170.4,240.1L170.4,240.1z M168.5,244h2.4l-5.5,10.6H163L168.5,244z"/>
	<path class="st0" d="M173.6,244h2.4l-0.7,1.4c1-0.9,2.3-1.5,3.6-1.6c2,0,2.9,1.2,2.4,3.2c-0.2,0.6-0.5,1.3-0.8,1.9l-3,5.8h-2.4
		l3-5.9c0.2-0.3,0.3-0.7,0.4-1.1c0.3-1.1-0.3-1.7-1.4-1.7c-1.6,0.2-2.9,1.2-3.6,2.6l-3.1,6h-2.4L173.6,244L173.6,244z"/>
	<path class="st0" d="M190.9,248.2c0.3-0.9-0.2-2-1.1-2.3c-0.3-0.1-0.6-0.1-0.9-0.1c-2.1,0.1-3.9,1.6-4.5,3.6
		c-0.4,1.5,0.5,2.3,1.9,2.3C188.4,251.6,190.2,250.2,190.9,248.2 M178.7,256.2l1.8-1.7c1,0.9,2.3,1.4,3.6,1.3c1,0,2-0.3,2.8-0.9
		c0.7-0.6,1.2-1.3,1.6-2.1l0.3-0.6c-1.1,1-2.5,1.5-4,1.6c-2.1,0-3.7-1.4-3.1-3.8c0.9-3.5,4.4-6.1,7.4-6.1c1.4-0.2,2.7,0.7,3,2.1
		l1-1.9h2.3l-4.5,8.7c-0.6,1.4-1.5,2.6-2.7,3.6c-1.3,1-2.9,1.5-4.5,1.5C181.9,257.9,180.2,257.3,178.7,256.2"/>
	<path class="st0" d="M199.9,250.2c0.2-0.8,0.5-1.5,0.9-2.2l3.8-7.4h2.5l-4,7.7c-0.3,0.5-0.4,1-0.6,1.5c-0.4,1.6,0.3,2.7,2.3,2.7
		c1.1,0,2.1-0.4,2.9-1.1c1-0.8,1.7-1.8,2.3-2.9l4.1-8h2.5l-4.3,8.4c-0.8,1.6-1.9,3-3.2,4.1c-1.4,1.1-3.2,1.8-5,1.7
		C200.6,254.8,199.2,253,199.9,250.2"/>
	<path class="st0" d="M213.7,252.7c0.1-0.4,0.3-0.8,0.5-1.2l2.8-5.4h-1.3l1.1-2.1h1.3l1.5-2.9h2.4l-1.5,2.9h2.8l-1.1,2.1h-2.8
		l-2.6,5.1c-0.1,0.2-0.2,0.4-0.2,0.6c-0.1,0.5,0.2,0.8,0.9,0.8c0.6,0,1.1-0.1,1.6-0.3l-1.1,2.1c-0.7,0.3-1.4,0.4-2.1,0.4
		C214.1,254.8,213.4,253.9,213.7,252.7"/>
	<path class="st0" d="M228.4,250.5l0.2-0.5c-0.7-0.3-1.5-0.4-2.3-0.4c-1.3-0.2-2.6,0.6-3.1,1.9c-0.2,0.9,0.3,1.4,1.3,1.4
		C226.2,252.9,227.6,251.9,228.4,250.5 M220.7,251.9c0.6-2.4,2.9-3.8,5.6-3.8c1,0,2,0.2,3,0.5l0.1-0.2c0.1-0.3,0.3-0.5,0.3-0.8
		c0.2-0.9-0.3-1.6-1.9-1.6c-1,0-2,0.2-3,0.6l0.1-2c1.3-0.5,2.6-0.7,4-0.7c2.8,0,3.9,1.2,3.4,3.3c-0.1,0.5-0.3,1-0.6,1.5l-3.1,6h-2.4
		l0.7-1.4c-1,1-2.4,1.6-3.8,1.6C221.4,254.8,220.3,253.7,220.7,251.9"/>
	<path class="st0" d="M238.3,240h2.4l-2.8,5.4c1-0.9,2.3-1.5,3.6-1.6c2,0,2.9,1.2,2.4,3.2c-0.2,0.6-0.5,1.3-0.8,1.9l-3,5.8h-2.4
		l3-5.9c0.2-0.3,0.3-0.7,0.4-1.1c0.3-1.1-0.3-1.7-1.4-1.7c-1.6,0.2-2.9,1.2-3.6,2.6l-3.1,6h-2.4L238.3,240L238.3,240z"/>
	<polygon class="st0" points="255.1,240.6 257.6,240.6 258.4,247.2 266.1,240.6 268.9,240.6 261.6,254.6 259.1,254.6 264.3,244.5 
		256.5,251.1 256.5,251.1 255.5,244.6 250.3,254.6 247.9,254.6 255.1,240.6 	"/>
	<path class="st0" d="M275.2,248.7c0.4-1.8-0.4-2.8-2-2.8c-2.1,0-4.2,2.1-4.6,4s0.4,2.8,2,2.8C272.6,252.7,274.7,250.6,275.2,248.7
		 M266.1,250c0.8-3.2,4.3-6.2,7.7-6.2c3,0,4.5,2,3.8,4.9c-1,3.5-4.1,5.9-7.7,6.2C266.9,254.8,265.5,252.8,266.1,250"/>
	<polygon class="st0" points="279.9,244 282.4,244 281.2,251.7 288,244 290.6,244 280.9,254.7 278.7,254.7 279.9,244 	"/>
	<path class="st0" d="M294,240.1h2.6l-1.2,2.3h-2.6L294,240.1L294,240.1z M292.1,244h2.4l-5.5,10.6h-2.4L292.1,244L292.1,244z"/>
	<path class="st0" d="M297.3,244h2.4l-0.7,1.4c1-0.9,2.3-1.5,3.6-1.6c2,0,2.9,1.2,2.4,3.2c-0.2,0.6-0.5,1.3-0.8,1.9l-3,5.8h-2.4
		l3-5.9c0.2-0.3,0.3-0.7,0.4-1.1c0.3-1.1-0.3-1.7-1.4-1.7c-1.6,0.2-2.9,1.2-3.6,2.6l-3.1,6h-2.4L297.3,244L297.3,244z"/>
	<path class="st0" d="M314.5,248.2c0.3-0.9-0.2-2-1.1-2.3c-0.3-0.1-0.6-0.1-0.9-0.1c-2.1,0.1-3.9,1.6-4.5,3.6
		c-0.4,1.5,0.5,2.3,1.9,2.3C312,251.6,313.8,250.2,314.5,248.2 M302.3,256.2l1.8-1.7c1,0.9,2.3,1.4,3.6,1.3c1,0,2-0.3,2.8-0.9
		c0.7-0.6,1.2-1.3,1.6-2.1l0.3-0.6c-1.1,1-2.5,1.5-4,1.6c-2.1,0-3.7-1.4-3.1-3.8c0.9-3.5,4.4-6.1,7.4-6.1c1.4-0.2,2.7,0.7,3,2.1
		l1-1.9h2.4l-4.5,8.7c-0.6,1.4-1.5,2.6-2.7,3.6c-1.3,1-2.9,1.5-4.5,1.5c-1.8,0.1-3.6-0.5-5-1.6"/>
	<polygon class="st0" points="54.6,238.5 10.9,238.5 1.7,254.8 44.8,254.8 54.6,238.5 	"/>
	<polygon class="st0" points="48.2,254.8 73.5,254.8 83.2,238.5 58,238.5 48.2,254.8 	"/>
	<polygon class="st0" points="86.6,238.5 76.9,254.8 97.7,254.8 107,238.5 86.6,238.5 	"/>
	<path class="st1" d="M287,188c-5.9,10.6-22.2,19.2-36.2,19.3c-5.9,0-10.5-1.6-13.1-4.4c-3-3.3-3-8.1-0.2-13.1
		c5.9-10.6,22.2-19.2,36.2-19.3c5.9,0,10.5,1.6,13.1,4.4C289.9,178.1,289.9,182.9,287,188 M377.6,154.5h-95.5
		c-17.2,0-36.6,3.8-51.4,14.6c-3.4-10.7-15.6-14.6-32.7-14.6h-90.3l-9,16.2h19.1l-21.1,37.7l-44.1,0.1l30.3-54H57.3l-33.7,59.2
		c-3.2,5.5,1.7,12.5,8.8,12.5h79.2l31.7-55.7h46.4c5.9,0,10.5,1.6,13.1,4.4c3,3.3,3,8.1,0.2,13.2c-5.9,10.6-22.2,19.3-36.2,19.3
		h-4.5l17.1-30.4h-25.5l-27.6,49.3h32.3c17.2,0,36.4-6.8,51.2-17.6c3.4,10.7,15.8,17.3,32.9,17.3c26.8-0.1,57.8-16.4,69-36.5
		c3.8-6.8,5-13.5,3.6-19.3h16l-31.1,55.6l25.5-0.1l31.1-55.5h44.5L377.6,154.5L377.6,154.5z"/>
</g>
</svg>
