<svg id="Layer_1" data-name="Layer 1" xmlns="http://www.w3.org/2000/svg" viewBox="0 0 701.28 235.56"><defs><style>.cls-1,.cls-2{fill:#fff;}.cls-1{stroke:#231f20;stroke-miterlimit:10;}.cls-3{fill:#ef7622;}</style></defs><title>UDOT Icon</title><rect class="cls-1" x="0.5" y="0.5" width="3.5" height="3.5"/><polygon class="cls-2" points="421.4 218.29 423.88 218.29 420.22 225.38 430.19 218.29 433.58 218.29 424.96 224.28 426.56 232.32 423.83 232.32 422.64 225.74 418.55 228.59 416.64 232.32 414.16 232.32 421.4 218.29 421.4 218.29"/><path class="cls-2" d="M150.82,280.26a2.91,2.91,0,0,0,.28-.74c.27-1.1-.14-2-1.6-2a5.13,5.13,0,0,0-4.17,2.77Zm-4.07,4.31a5.29,5.29,0,0,0,3-1l.78,1.54a7.74,7.74,0,0,1-4.47,1.46c-2.95,0-4.37-1.78-3.66-4.63.77-3.13,4.13-6.41,7.82-6.41,2.71,0,3.78,1.8,3.21,4.11a7.83,7.83,0,0,1-1,2.24h-7.69c-.4,1.6.27,2.7,2.08,2.7" transform="translate(286.5 -54)"/><path class="cls-2" d="M162.46,280.26a2.94,2.94,0,0,0,.28-.74c.27-1.1-.14-2-1.6-2a5.13,5.13,0,0,0-4.17,2.77Zm-4.07,4.31a5.29,5.29,0,0,0,3-1l.78,1.54a7.74,7.74,0,0,1-4.47,1.46c-2.95,0-4.37-1.78-3.66-4.63.77-3.13,4.13-6.41,7.82-6.41,2.7,0,3.78,1.8,3.21,4.11a7.84,7.84,0,0,1-1,2.24h-7.69c-.4,1.6.27,2.7,2.08,2.7" transform="translate(286.5 -54)"/><path class="cls-2" d="M175.13,280.22c.4-1.62-.35-2.62-1.85-2.62-1.94,0-4.29,1.94-4.84,4.19a2,2,0,0,0,2,2.69c2,0,4.12-1.9,4.7-4.25m-5.92-4.49h2.43l-.73,1.4a6.09,6.09,0,0,1,3.79-1.62c2.36,0,3.7,1.72,3,4.53-.93,3.75-4.45,6.49-7.5,6.49a2.81,2.81,0,0,1-3-2.1l-2.62,5.09h-2.43l7.1-13.78Z" transform="translate(286.5 -54)"/><path class="cls-2" d="M183.91,271.81h2.62l-1.21,2.31h-2.61l1.19-2.31ZM182,275.74h2.42l-5.47,10.58h-2.42L182,275.74Z" transform="translate(286.5 -54)"/><path class="cls-2" d="M187.16,275.74h2.42l-.7,1.36a6,6,0,0,1,3.6-1.58c2,0,2.92,1.22,2.44,3.17a9.9,9.9,0,0,1-.78,1.86l-3,5.77h-2.42l3-5.87a4.93,4.93,0,0,0,.42-1.06c.26-1.06-.27-1.66-1.43-1.66a4.41,4.41,0,0,0-3.56,2.65l-3.08,6h-2.42l5.45-10.58Z" transform="translate(286.5 -54)"/><path class="cls-2" d="M204.4,279.94a1.8,1.8,0,0,0-2-2.37,5,5,0,0,0-4.47,3.65c-.37,1.5.52,2.26,1.88,2.26a5.1,5.1,0,0,0,4.56-3.55m-12.1,8,1.76-1.68a5.31,5.31,0,0,0,3.62,1.34,4.36,4.36,0,0,0,2.82-.94,6.55,6.55,0,0,0,1.63-2.14l.34-.64a6.45,6.45,0,0,1-4,1.6c-2.08,0-3.73-1.36-3.12-3.83.87-3.53,4.42-6.13,7.37-6.13a2.68,2.68,0,0,1,3,2.13l1-1.9H209l-4.49,8.74a9.73,9.73,0,0,1-2.7,3.61,6.87,6.87,0,0,1-4.53,1.48,7.54,7.54,0,0,1-5-1.62" transform="translate(286.5 -54)"/><path class="cls-2" d="M213.41,281.91a9.61,9.61,0,0,1,.87-2.22l3.8-7.39h2.46l-4,7.73a7,7,0,0,0-.58,1.54c-.39,1.58.33,2.71,2.27,2.71a4.58,4.58,0,0,0,2.89-1.06,8.77,8.77,0,0,0,2.27-2.94l4.12-8H230l-4.31,8.36a12.51,12.51,0,0,1-3.21,4.15,7.77,7.77,0,0,1-5,1.74c-3.29,0-4.75-1.78-4-4.63" transform="translate(286.5 -54)"/><path class="cls-2" d="M227.23,284.41a5.18,5.18,0,0,1,.48-1.22l2.75-5.37h-1.34l1.08-2.08h1.34l1.5-2.91h2.42l-1.5,2.91h2.82l-1.08,2.08h-2.83l-2.63,5.11a4.15,4.15,0,0,0-.23.6c-.13.54.16.82.86.82a4.72,4.72,0,0,0,1.63-.34l-1.08,2.1a5.5,5.5,0,0,1-2.08.38c-1.7,0-2.44-.82-2.13-2.08" transform="translate(286.5 -54)"/><path class="cls-2" d="M241.93,282.27l.23-.46a7.17,7.17,0,0,0-2.31-.4,2.93,2.93,0,0,0-3.08,1.9c-.23.92.28,1.44,1.33,1.44a4.76,4.76,0,0,0,3.82-2.49m-7.71,1.36c.6-2.44,2.93-3.81,5.65-3.81a8.67,8.67,0,0,1,3,.52l.11-.22a3.63,3.63,0,0,0,.33-.84c.23-.94-.29-1.56-1.92-1.56a9,9,0,0,0-3,.58l.1-2a11.4,11.4,0,0,1,4-.72c2.79,0,3.95,1.22,3.43,3.29a6.87,6.87,0,0,1-.59,1.5l-3.06,6h-2.39l.7-1.38a5.84,5.84,0,0,1-3.82,1.6c-1.82,0-2.94-1.14-2.51-2.9" transform="translate(286.5 -54)"/><path class="cls-2" d="M251.82,271.69h2.42l-2.78,5.41a6,6,0,0,1,3.6-1.58c2,0,2.92,1.22,2.44,3.17a10,10,0,0,1-.78,1.86l-3,5.77h-2.42l3-5.87a5,5,0,0,0,.42-1.06c.26-1.06-.27-1.66-1.43-1.66a4.41,4.41,0,0,0-3.56,2.64l-3.08,6h-2.42l7.53-14.63Z" transform="translate(286.5 -54)"/><polygon class="cls-2" points="555.15 218.29 557.65 218.29 558.46 224.92 566.11 218.29 568.93 218.29 561.69 232.32 559.19 232.32 564.39 222.26 556.58 228.87 556.5 228.87 555.54 222.3 550.37 232.32 547.91 232.32 555.15 218.29 555.15 218.29"/><path class="cls-2" d="M288.73,280.42c.44-1.78-.41-2.81-2-2.81-2.08,0-4.16,2.14-4.62,4s.41,2.8,2,2.8c2,0,4.15-2.1,4.63-4m-9.06,1.3c.8-3.22,4.3-6.21,7.71-6.21,3,0,4.46,2,3.77,4.85a8.67,8.67,0,0,1-7.7,6.19c-3,0-4.46-2-3.77-4.83" transform="translate(286.5 -54)"/><polygon class="cls-2" points="579.9 221.74 582.41 221.74 581.25 229.47 588.04 221.74 590.68 221.74 580.91 232.4 578.73 232.4 579.9 221.74 579.9 221.74"/><path class="cls-2" d="M307.56,271.81h2.62L309,274.11h-2.61l1.19-2.31Zm-1.94,3.93H308l-5.47,10.58h-2.42l5.47-10.58Z" transform="translate(286.5 -54)"/><path class="cls-2" d="M310.81,275.74h2.42l-.7,1.36a6,6,0,0,1,3.6-1.58c2,0,2.92,1.22,2.44,3.17a9.86,9.86,0,0,1-.78,1.86l-3,5.77h-2.42l3-5.87a5,5,0,0,0,.42-1.06c.26-1.06-.27-1.66-1.43-1.66a4.41,4.41,0,0,0-3.56,2.65l-3.08,6h-2.42l5.45-10.58Z" transform="translate(286.5 -54)"/><path class="cls-2" d="M328,279.94a1.8,1.8,0,0,0-2-2.37,5,5,0,0,0-4.47,3.65c-.37,1.5.52,2.26,1.89,2.26a5.1,5.1,0,0,0,4.56-3.55m-12.1,8,1.76-1.68a5.3,5.3,0,0,0,3.61,1.34,4.36,4.36,0,0,0,2.82-.94,6.52,6.52,0,0,0,1.63-2.14l.34-.64a6.45,6.45,0,0,1-4,1.6c-2.08,0-3.73-1.36-3.12-3.83.87-3.53,4.43-6.13,7.37-6.13a2.68,2.68,0,0,1,3,2.13l1-1.9h2.43l-4.49,8.74a9.72,9.72,0,0,1-2.7,3.61,6.87,6.87,0,0,1-4.54,1.48,7.54,7.54,0,0,1-5-1.62" transform="translate(286.5 -54)"/><polygon class="cls-3" points="354.6 216.27 310.9 216.27 301.75 232.5 344.87 232.5 354.6 216.27 354.6 216.27"/><polygon class="cls-3" points="348.28 232.5 373.55 232.5 383.28 216.27 358.01 216.27 348.28 232.5 348.28 232.5"/><polygon class="cls-3" points="386.69 216.27 376.96 232.5 397.76 232.5 407.01 216.27 386.69 216.27 386.69 216.27"/><path class="cls-2" d="M300.58,219.7c-5.93,10.58-22.16,19.22-36.18,19.25-5.86,0-10.51-1.55-13.08-4.4-3-3.28-3-8.07-.17-13.15,5.93-10.58,22.16-19.22,36.18-19.25,5.86,0,10.51,1.55,13.08,4.4,3,3.28,3,8.07.17,13.15m90.61-33.42H295.73c-17.18,0-36.59,3.78-51.41,14.58-3.4-10.69-15.59-14.62-32.71-14.58H121.28l-9,16.19h19.1l-21.14,37.71-44.11.1,30.26-54H70.89L37.16,245.49C34,251,38.88,258,45.92,258h79.22l31.7-55.69h46.37c5.87,0,10.53,1.55,13.11,4.41,3,3.28,3,8.08.17,13.17-5.94,10.6-22.2,19.25-36.24,19.28h-4.47l17.07-30.45H167.37L139.79,258h32.26c17.17,0,36.39-6.75,51.24-17.57,3.4,10.67,15.78,17.33,32.9,17.29,26.8-.07,57.75-16.43,69-36.48,3.8-6.79,5-13.47,3.61-19.3h16l-31.11,55.58,25.48-.07,31.12-55.52h44.5l-23.59-15.63Z" transform="translate(286.5 -54)"/></svg>