<!-- Generated by IcoMoon.io -->
<svg version="1.1" xmlns="http://www.w3.org/2000/svg" width="1024" height="1024" viewBox="0 0 1024 1024">
<title></title>
<g id="icomoon-ignore">
</g>
<path d="M306.735 600.138h6.15l-9.225 17.938 25.368-17.938h8.713l-22.037 15.119 4.1 20.756h-6.919l-3.075-16.912-10.506 7.432-4.869 9.482h-6.406l18.706-35.874z"></path>
<path d="M347.478 620.381c0.256-0.513 0.513-1.281 0.769-1.794 0.769-2.818-0.256-5.125-4.1-5.125-4.612 0.256-8.713 3.075-10.763 7.175l14.094-0.256zM336.972 631.4c2.818 0 5.381-1.025 7.688-2.563l2.050 3.844c-3.331 2.307-7.432 3.588-11.531 3.844-7.432 0-11.276-4.612-9.482-11.787 2.050-7.943 10.506-16.401 19.988-16.401 6.919 0 9.737 4.612 8.2 10.506-0.513 2.050-1.537 4.1-2.563 5.638h-19.732c-0.769 4.1 1.025 6.919 5.381 6.919z"></path>
<path d="M377.203 620.381c0.256-0.513 0.513-1.281 0.769-1.794 0.769-2.818-0.256-5.125-4.1-5.125-4.612 0.256-8.713 3.075-10.763 7.175l14.094-0.256zM366.697 631.4c2.818 0 5.381-1.025 7.688-2.563l2.050 3.844c-3.331 2.307-7.432 3.588-11.531 3.844-7.432 0-11.276-4.612-9.482-11.787 2.050-7.943 10.506-16.401 19.988-16.401 6.919 0 9.737 4.612 8.2 10.506-0.513 2.050-1.537 4.1-2.563 5.638h-19.732c-0.769 4.1 1.025 6.919 5.381 6.919z"></path>
<path d="M409.747 620.381c1.025-4.1-1.025-6.662-4.869-6.662-4.869 0-11.019 4.869-12.3 10.763-1.025 2.563 0.256 5.638 3.075 6.662 0.769 0.256 1.281 0.256 2.050 0.256 5.125-0.256 10.506-5.125 12.044-11.019zM394.628 608.851h6.15l-1.794 3.588c2.563-2.563 6.15-3.844 9.737-4.1 6.15 0 9.482 4.357 7.688 11.531-2.307 9.737-11.276 16.656-19.219 16.656-3.588 0.256-6.919-2.050-7.688-5.381l-6.662 13.069h-6.15l17.938-35.362z"></path>
<path d="M432.297 598.856h6.662l-3.075 5.894h-6.662l3.075-5.894zM427.428 608.851h6.15l-14.094 27.162h-6.15l14.094-27.162z"></path>
<path d="M440.497 608.851h6.15l-1.794 3.588c2.563-2.307 5.894-3.844 9.225-4.1 5.125 0 7.432 3.075 6.15 8.2-0.513 1.537-1.281 3.331-2.050 4.869l-7.688 14.862h-6.15l7.688-15.119c0.513-0.769 0.769-1.794 1.025-2.818 0.769-2.818-0.769-4.357-3.588-4.357-4.1 0.513-7.432 3.075-9.225 6.662l-7.943 15.375h-6.15l14.35-27.162z"></path>
<path d="M484.828 619.612c0.769-2.307-0.513-5.125-2.818-5.894-0.769-0.256-1.537-0.256-2.307-0.256-5.381 0.256-9.994 4.1-11.531 9.225-1.025 3.844 1.281 5.894 4.869 5.894 5.381-0.256 9.994-3.844 11.787-8.969zM453.566 640.112l4.612-4.357c2.563 2.307 5.894 3.588 9.225 3.331 2.563 0 5.125-0.769 7.175-2.307 1.794-1.537 3.075-3.331 4.1-5.381l0.769-1.537c-2.818 2.563-6.406 3.844-10.25 4.1-5.381 0-9.482-3.588-7.943-9.737 2.307-8.969 11.276-15.631 18.963-15.631 3.588-0.513 6.919 1.794 7.688 5.381l2.563-4.869h5.894l-11.531 22.294c-1.537 3.588-3.844 6.662-6.919 9.225-3.331 2.563-7.432 3.844-11.531 3.844-4.612 0-8.969-1.537-12.813-4.357z"></path>
<path d="M507.89 624.737c0.513-2.050 1.281-3.844 2.307-5.638l9.737-18.963h6.406l-10.25 19.732c-0.769 1.281-1.025 2.563-1.537 3.844-1.025 4.1 0.769 6.919 5.894 6.919 2.818 0 5.381-1.025 7.432-2.818 2.563-2.050 4.357-4.612 5.894-7.432l10.506-20.5h6.406l-11.019 21.526c-2.050 4.1-4.869 7.688-8.2 10.506-3.588 2.818-8.2 4.612-12.813 4.357-8.969 0.256-12.557-4.357-10.763-11.531z"></path>
<path d="M543.253 631.143c0.256-1.025 0.769-2.050 1.281-3.075l7.175-13.838h-3.331l2.818-5.381h3.331l3.844-7.432h6.15l-3.844 7.432h7.175l-2.818 5.381h-7.175l-6.662 13.069c-0.256 0.513-0.513 1.025-0.513 1.537-0.256 1.281 0.513 2.050 2.307 2.050 1.537 0 2.818-0.256 4.1-0.769l-2.818 5.381c-1.794 0.769-3.588 1.025-5.381 1.025-4.612 0-6.406-2.307-5.638-5.381z"></path>
<path d="M580.921 625.506l0.513-1.281c-1.794-0.769-3.844-1.025-5.894-1.025-3.331-0.513-6.662 1.537-7.943 4.869-0.513 2.307 0.769 3.588 3.331 3.588 4.357 0 7.943-2.563 9.994-6.15zM561.19 629.093c1.537-6.15 7.432-9.737 14.35-9.737 2.563 0 5.125 0.513 7.688 1.281l0.256-0.513c0.256-0.769 0.769-1.281 0.769-2.050 0.513-2.307-0.769-4.1-4.869-4.1-2.563 0-5.125 0.513-7.688 1.537l0.256-5.125c3.331-1.281 6.662-1.794 10.25-1.794 7.175 0 9.994 3.075 8.713 8.456-0.256 1.281-0.769 2.563-1.537 3.844l-7.943 15.375h-6.15l1.794-3.588c-2.563 2.563-6.15 4.1-9.737 4.1-4.357-0.256-7.175-3.075-6.15-7.688z"></path>
<path d="M606.29 598.601h6.15l-7.175 13.838c2.563-2.307 5.894-3.844 9.225-4.1 5.125 0 7.432 3.075 6.15 8.2-0.513 1.537-1.281 3.331-2.050 4.869l-7.688 14.862h-6.15l7.688-15.119c0.513-0.769 0.769-1.794 1.025-2.818 0.769-2.818-0.769-4.357-3.588-4.357-4.1 0.513-7.432 3.075-9.225 6.662l-7.943 15.375h-6.15l19.732-37.412z"></path>
<path d="M649.339 600.138h6.406l2.050 16.912 19.732-16.912h7.175l-18.706 35.874h-6.406l13.325-25.881-19.988 16.912-2.563-16.656-13.325 25.625h-6.15l18.45-35.874z"></path>
<path d="M700.845 620.893c1.025-4.612-1.025-7.175-5.125-7.175-5.381 0-10.763 5.381-11.787 10.25s1.025 7.175 5.125 7.175c5.125 0 10.506-5.381 11.787-10.25zM677.527 624.225c2.050-8.2 11.019-15.888 19.732-15.888 7.688 0 11.531 5.125 9.737 12.557-2.563 8.969-10.506 15.119-19.732 15.888-7.688-0.256-11.276-5.381-9.737-12.557z"></path>
<path d="M712.889 608.851h6.406l-3.075 19.732 17.425-19.732h6.662l-24.857 27.419h-5.638l3.075-27.419z"></path>
<path d="M749.020 598.856h6.662l-3.075 5.894h-6.662l3.075-5.894zM744.151 608.851h6.15l-14.094 27.162h-6.15l14.094-27.162z"></path>
<path d="M757.475 608.851h6.15l-1.794 3.588c2.563-2.307 5.894-3.844 9.225-4.1 5.125 0 7.432 3.075 6.15 8.2-0.513 1.537-1.281 3.331-2.050 4.869l-7.688 14.862h-6.15l7.688-15.119c0.513-0.769 0.769-1.794 1.025-2.818 0.769-2.818-0.769-4.357-3.588-4.357-4.1 0.513-7.432 3.075-9.225 6.662l-7.943 15.375h-6.15l14.35-27.162z"></path>
<path d="M801.551 619.612c0.769-2.307-0.513-5.125-2.818-5.894-0.769-0.256-1.537-0.256-2.307-0.256-5.381 0.256-9.994 4.1-11.531 9.225-1.025 3.844 1.281 5.894 4.869 5.894 5.381-0.256 9.994-3.844 11.787-8.969zM770.288 640.112l4.612-4.357c2.563 2.307 5.894 3.588 9.225 3.331 2.563 0 5.125-0.769 7.175-2.307 1.794-1.537 3.075-3.331 4.1-5.381l0.769-1.537c-2.818 2.563-6.406 3.844-10.25 4.1-5.381 0-9.482-3.588-7.943-9.737 2.307-8.969 11.276-15.631 18.963-15.631 3.588-0.513 6.919 1.794 7.688 5.381l2.563-4.869h6.15l-11.531 22.294c-1.537 3.588-3.844 6.662-6.919 9.225-3.331 2.563-7.432 3.844-11.531 3.844-4.612 0.256-9.225-1.281-12.813-4.1z"></path>
<path d="M135.561 594.757h-111.98l-23.575 41.768h110.443l25.113-41.768z"></path>
<path d="M119.161 636.525h64.831l24.857-41.768h-64.575l-25.113 41.768z"></path>
<path d="M217.561 594.757l-24.857 41.768h53.299l23.831-41.768h-52.274z"></path>
<path d="M731.083 465.351c-15.119 27.162-56.887 49.2-92.762 49.456-15.119 0-26.907-4.1-33.569-11.276-7.688-8.456-7.688-20.756-0.513-33.569 15.119-27.162 56.887-49.2 92.762-49.456 15.119 0 26.907 4.1 33.569 11.276 7.943 8.2 7.943 20.5 0.513 33.569zM963.244 379.508h-244.717c-44.075 0-93.787 9.737-131.712 37.412-8.713-27.419-39.974-37.412-83.793-37.412h-231.392l-23.063 41.512h48.943l-54.068 96.606-113.005 0.256 77.644-138.374h-65.599l-86.356 151.699c-8.2 14.094 4.357 32.032 22.55 32.032h202.949l81.23-142.73h118.899c15.119 0 26.907 4.1 33.569 11.276 7.688 8.456 7.688 20.756 0.513 33.826-15.119 27.162-56.887 49.456-92.762 49.456h-11.531l43.818-77.899h-65.344l-70.724 126.331h82.769c44.075 0 93.275-17.425 131.199-45.099 8.713 27.419 40.487 44.331 84.306 44.331 68.675-0.256 148.112-42.024 176.811-93.531 9.737-17.425 12.813-34.593 9.225-49.456h41l-79.693 142.474 65.344-0.256 79.693-142.218h114.031l-60.731-40.231z"></path>
</svg>
