<?xml version="1.0" encoding="utf-8"?>
<!-- Generator: Adobe Illustrator 21.0.0, SVG Export Plug-In . SVG Version: 6.00 Build 0)  -->
<svg version="1.1" id="Layer_1" xmlns="http://www.w3.org/2000/svg" xmlns:xlink="http://www.w3.org/1999/xlink" x="0px" y="0px"
	 viewBox="0 0 1128.3 1221.5" style="enable-background:new 0 0 1128.3 1221.5;" xml:space="preserve">
<path d="M829.6,650.3H281c-9.4,0-17.1,7.6-17.1,17.1v69.4c0,9.2,7.2,17.5,16.3,17.1c9.8-0.4,17.8,7.4,17.8,17.1v68.3
	c0,9.4,7.6,17.1,17.1,17.1h52.4c9.4,0,17.1-7.6,17.1-17.1v-68.3c0-18.9,15.3-34.1,34.1-34.1h273.2c18.9,0,34.1,15.3,34.1,34.1v68.3
	c0,9.4,7.6,17.1,17.1,17.1h52.4c9.4,0,17.1-7.6,17.1-17.1v-68.3c0-9.1,7.2-17.5,16.3-17.1c9.8,0.4,17.9-7.4,17.9-17.1v-69.4
	C846.7,657.9,839,650.3,829.6,650.3L829.6,650.3z M829.6,650.3"/>
<path d="M676.7,829.5c-0.9-1.2-1.4-2.6-1.4-4v-0.9l-16.6-57.8h-88.4v19.6c0,5.4-6.7,9.8-15,9.8s-15-4.4-15-9.8v-19.6h-88.4
	l-16.6,57.8v0.9c0,1.5-0.5,2.8-1.4,4l-43.3,151.4c-0.8,2.9,0.3,5.8,3.2,8.1c2.9,2.2,7.1,3.5,11.5,3.5h300c4.5,0,8.7-1.3,11.5-3.5
	c2.9-2.2,4-5.2,3.2-8.1L676.7,829.5z M570.3,963.1c0,5.4-6.7,9.8-15,9.8s-15-4.4-15-9.8v-19.6c0-5.4,6.7-9.8,15-9.8s15,4.4,15,9.8
	V963.1z M570.3,903.8c0,5.4-6.7,9.8-15,9.8s-15-4.4-15-9.8v-19.6c0-5.4,6.7-9.8,15-9.8s15,4.4,15,9.8V903.8z M570.3,845
	c0,5.4-6.7,9.8-15,9.8s-15-4.4-15-9.8v-19.6c0-5.4,6.7-9.8,15-9.8s15,4.4,15,9.8V845z M570.3,845"/>
<g>
	<rect x="461.7" y="299.9" width="145" height="310.9"/>
	<rect x="540" y="364.2" width="161" height="246.5"/>
</g>
</svg>
