<!-- Generated by IcoMoon.io -->
<svg version="1.1" xmlns="http://www.w3.org/2000/svg" width="1024" height="1024" viewBox="0 0 1024 1024">
<title></title>
<g id="icomoon-ignore">
</g>
<path d="M917.467 518.059h-811.080c-13.897 0-25.281 11.236-25.281 25.281v102.605c0 13.601 10.645 25.872 24.099 25.281 14.488-0.591 26.316 10.941 26.316 25.281v100.978c0 13.897 11.236 25.281 25.281 25.281h77.472c13.897 0 25.281-11.236 25.281-25.281v-100.978c0-27.942 22.62-50.415 50.415-50.415h403.913c27.942 0 50.415 22.62 50.415 50.415v100.978c0 13.897 11.236 25.281 25.281 25.281h77.472c13.897 0 25.281-11.236 25.281-25.281v-100.978c0-13.454 10.645-25.872 24.099-25.281 14.488 0.591 26.464-10.941 26.464-25.281v-102.605c-0.148-14.045-11.532-25.281-25.429-25.281v0z"></path>
<path d="M691.412 782.998c-1.33-1.774-2.070-3.845-2.070-5.913v-1.33l-24.542-85.455h-130.696v28.977c0 7.984-9.906 14.488-22.177 14.488s-22.177-6.506-22.177-14.488v-28.977h-130.696l-24.542 85.455v1.33c0 2.217-0.739 4.139-2.070 5.913l-64.017 223.838c-1.183 4.287 0.443 8.575 4.732 11.975 4.287 3.252 10.497 5.174 17.003 5.174h443.536c6.652 0 12.862-1.922 17.003-5.174 4.287-3.252 5.913-7.687 4.732-11.975l-64.017-223.838zM534.103 980.52c0 7.984-9.906 14.488-22.177 14.488s-22.177-6.506-22.177-14.488v-28.977c0-7.984 9.906-14.488 22.177-14.488s22.177 6.506 22.177 14.488v28.977zM534.103 892.848c0 7.984-9.906 14.488-22.177 14.488s-22.177-6.506-22.177-14.488v-28.977c0-7.984 9.906-14.488 22.177-14.488s22.177 6.506 22.177 14.488v28.977zM534.103 805.914c0 7.984-9.906 14.488-22.177 14.488s-22.177-6.506-22.177-14.488v-28.977c0-7.984 9.906-14.488 22.177-14.488s22.177 6.506 22.177 14.488v28.977z"></path>
<path d="M373.543 0.009h214.375v459.652h-214.375v-459.652z"></path>
<path d="M489.306 95.074h238.030v364.438h-238.030v-364.438z"></path>
</svg>
