<!-- Generated by IcoMoon.io -->
<svg version="1.1" xmlns="http://www.w3.org/2000/svg" width="1024" height="1024" viewBox="0 0 1024 1024">
<title></title>
<g id="icomoon-ignore">
</g>
<path d="M342.533 250.851c-26.003 8.070-44.832 19.009-62.407 36.583-64.2 64.2-58.82 169.646 11.298 225.776 14.705 11.657 39.632 24.209 57.386 28.693 17.575 4.304 53.082 4.125 69.939-0.179 47.702-12.374 87.513-48.419 103.832-93.969 2.511-7.173 4.662-13.808 4.662-14.884 0-0.897-19.726-1.614-49.495-1.614h-49.674l-7.173 6.456c-11.118 10.222-21.52 14.167-37.121 14.167-10.76 0-15.422-0.897-23.313-4.662-11.118-5.38-22.058-15.422-27.079-25.465l-3.407-6.635h200.491l1.255-8.966c2.511-18.292-3.228-51.468-12.553-72.45-13.629-31.024-39.453-57.923-70.297-73.525-21.878-10.939-35.149-13.629-65.993-13.45-22.775 0-28.872 0.717-40.349 4.125zM408.168 343.923c11.657 5.918 27.617 22.954 27.617 29.41 0 1.793-11.118 2.331-52.902 2.331h-52.902l3.587-7.173c6.456-12.553 20.264-23.671 35.866-28.872 8.429-2.869 29.231-0.538 38.735 4.304z"></path>
<path d="M833.897 251.209c-44.474 13.271-80.878 47.702-96.659 91.1-30.486 84.464 15.422 174.309 101.142 198.518 11.836 3.407 18.65 4.125 38.556 4.125 21.161-0.179 26.362-0.717 40.349-5.021 40.708-12.374 72.45-39.273 91.458-77.291 10.76-21.878 15.243-41.246 15.243-67.249s-4.304-45.371-15.243-67.249c-17.575-35.686-47.522-62.048-85.361-75.677-12.015-4.304-16.14-4.662-43.757-5.38-28.513-0.538-31.562-0.179-45.729 4.125zM892.717 340.695c13.091 3.945 26.899 15.781 33.535 28.693 4.662 9.325 5.38 12.374 5.38 25.823 0 18.471-3.766 28.334-15.602 39.99-11.657 11.657-22.775 16.319-39.094 16.498-11.836 0.179-15.064-0.538-25.465-5.739-45.729-22.416-40.887-88.051 7.532-104.908 10.401-3.766 22.058-3.766 33.714-0.359z"></path>
<path d="M10.773 292.275v40.349l50.033 0.359 50.033 0.538-55.413 79.802-55.234 79.802-0.179 26.362v26.541h236.715v-80.699h-54.696c-30.127 0-54.696-0.359-54.696-0.897 0-0.717 24.209-36.583 53.799-79.802l53.799-78.726v-53.978h-224.162v40.349z"></path>
<path d="M684.157 260.534c-21.161 7.353-38.377 22.416-47.343 41.604l-5.021 10.76-1.255-22.058c-0.717-12.015-1.614-23.313-2.152-25.106-0.897-2.869-4.662-3.048-45.908-3.048h-44.832l1.255 3.945c0.538 2.331 1.614 65.993 2.152 141.671l1.076 137.725h103.474v-74.422c0-47.881 0.717-77.47 1.973-83.568 2.69-12.374 14.705-24.748 28.334-29.41 9.863-3.228 35.508-4.304 46.446-1.793l5.739 1.255-0.359-50.033-0.538-49.854-17.036-0.359c-12.553-0.359-19.367 0.359-26.003 2.69z"></path>
<path d="M478.824 680.525v93.251h48.419v-186.503h-48.419v93.251z"></path>
<path d="M557.55 591.398c-4.125 2.69-6.815 6.635-8.608 11.657-2.152 6.815-1.973 8.608 0.717 15.781 3.766 10.043 11.298 15.064 22.058 15.064 15.781 0 25.465-8.966 25.465-23.313 0-15.064-8.608-23.313-24.748-23.313-6.097 0-10.58 1.255-14.884 4.125z"></path>
<path d="M720.561 590.322c-12.194 7.532-13.988 26.541-3.587 36.942 4.662 4.662 7.353 5.559 15.961 6.276 8.787 0.538 11.477 0 16.678-3.587 12.553-8.429 13.808-25.644 2.69-36.763-5.38-5.38-6.815-5.918-16.319-5.918-6.635 0-12.374 1.255-15.422 3.048z"></path>
<path d="M4.855 597.495c-0.717 0.538-1.255 40.529-1.255 88.769v87.513h50.213v-65.455h60.076l0.538-20.264 0.538-20.085h-61.151v-28.693h64.559v-43.039h-56.13c-31.024 0-56.848 0.538-57.386 1.255z"></path>
<path d="M282.099 614.711l-20.264 5.559v24.389h-16.14v35.866h16.14v27.796c0 32.28 1.793 42.86 9.146 52.902 9.684 13.271 31.741 19.009 54.158 14.346l10.222-1.973v-38.377h-9.684c-5.739 0-10.939-1.076-12.194-2.331-1.614-1.614-2.511-9.863-2.869-27.258l-0.717-25.106h25.465v-35.866h-25.106v-17.933c0-21.34 1.973-20.444-28.155-12.015z"></path>
<path d="M642.911 614.89l-19.726 5.559-0.538 12.194-0.538 12.015h-14.167v35.866h13.808l0.897 30.845c1.076 35.328 3.048 43.218 13.629 53.978 9.146 9.325 21.52 12.912 40.17 11.477 21.52-1.793 21.34-1.614 20.802-23.313l-0.538-18.292-8.070 0.538c-6.097 0.538-9.325-0.359-12.553-2.869-4.304-3.407-4.483-4.662-5.021-27.976l-0.717-24.389h27.258v-35.866h-26.899v-17.933c0-21.34 1.973-20.444-27.796-11.836z"></path>
<path d="M162.307 642.148c-8.249 1.255-24.568 6.097-29.948 8.966l-4.842 2.511 4.304 15.422c4.662 17.216 5.201 18.112 8.429 15.602 9.684-7.532 40.708-10.401 48.24-4.483 3.945 3.407 3.945 3.407-11.118 5.38-35.149 4.483-54.337 19.009-58.103 43.577-1.435 9.863 1.255 21.52 7.353 30.666 12.015 18.471 43.936 23.313 64.2 9.504 5.918-4.125 6.456-4.125 6.456-0.897 0 1.793 0.717 3.766 1.435 4.304 0.897 0.538 10.939 1.076 22.595 1.255l21.161 0.179-0.179-39.094c-0.359-53.799-2.869-65.993-16.678-79.084-10.043-9.684-21.52-13.629-40.887-14.167-9.325-0.179-19.367 0-22.416 0.359zM193.69 724.281c0 5.918-1.076 8.787-4.662 12.553-9.504 9.504-24.209 3.587-21.161-8.608 1.435-6.097 11.118-11.298 21.878-11.657 3.587-0.179 3.945 0.717 3.945 7.711z"></path>
<path d="M384.676 642.148c-8.249 1.255-24.568 6.097-29.948 8.966l-4.842 2.511 4.304 15.422c4.662 17.216 5.201 18.112 8.429 15.602 9.684-7.532 40.708-10.401 48.060-4.483 4.125 3.228 3.945 3.407-11.657 5.559-35.149 4.842-53.44 18.65-57.206 42.681-1.435 9.863 1.435 22.954 6.994 31.383 12.194 18.471 44.115 23.313 64.2 9.684l6.276-4.304 1.076 4.304c1.076 4.304 1.435 4.304 21.699 4.304 11.298 0 21.161 0.179 21.699 0.359 1.793 0.897 0.717-77.65-1.255-88.947-5.021-28.693-22.775-42.501-55.413-43.398-9.325-0.179-19.367 0-22.416 0.359zM416.058 724.461c0 6.635-0.897 9.146-4.662 12.553-9.146 8.429-24.030 3.048-21.34-7.711 0.538-2.69 1.793-5.559 2.511-6.276 2.152-2.152 14.884-6.456 19.547-6.635 3.587 0 3.945 0.897 3.945 8.070z"></path>
<path d="M940.958 642.866c-22.595 5.739-37.121 22.416-37.121 42.86 0 11.298 2.331 17.575 9.504 24.927 6.635 6.994 11.836 9.863 29.052 16.498 9.325 3.766 12.732 5.918 13.091 8.608 1.076 7.353-17.216 7.353-36.404 0-5.559-1.973-10.222-3.407-10.58-3.048-0.179 0.359-2.331 8.249-4.483 17.575-3.048 13.45-3.407 17.216-1.614 18.471 13.091 8.608 55.413 10.58 73.525 3.407 28.693-11.298 37.3-43.936 17.216-65.814-5.559-6.097-10.58-9.146-24.030-14.346-9.325-3.587-17.395-7.173-17.933-8.070-3.945-6.635 13.808-9.325 27.976-4.304 4.125 1.435 8.608 2.69 9.684 2.69 1.255 0 3.587-5.918 5.201-13.091 1.793-6.994 3.587-14.705 4.125-16.857 0.897-3.407 0-4.304-8.608-6.815-11.477-3.587-39.273-5.021-48.599-2.69z"></path>
<path d="M548.763 709.218v64.559h48.419v-129.117h-48.419v64.559z"></path>
<path d="M710.16 709.218v64.559h50.213v-129.117h-50.213v64.559z"></path>
<path d="M813.992 646.452c-11.477 3.587-19.906 8.429-27.617 16.14-28.334 28.334-26.003 74.96 5.021 99.887 6.456 5.201 17.575 10.76 25.285 12.732s23.492 1.793 30.845 0c21.161-5.559 38.735-21.34 45.908-41.604 1.076-3.228 1.973-6.097 1.973-6.635 0-0.359-8.787-0.717-21.878-0.717h-21.699l-3.228 2.869c-4.842 4.483-9.504 6.276-16.498 6.276-4.842 0-6.815-0.359-10.222-1.973-4.842-2.331-9.684-6.815-12.015-11.298l-1.435-2.869h88.589l0.538-3.945c1.076-8.070-1.435-22.775-5.559-32.1-6.097-13.629-17.395-25.644-31.024-32.459-9.684-4.842-15.602-6.097-29.231-5.918-9.863-0.179-12.553 0.179-17.753 1.614zM843.043 687.698c5.201 2.69 12.194 10.222 12.194 13.091 0 0.717-4.842 1.076-23.313 1.076h-23.313l1.614-3.228c2.869-5.559 8.966-10.401 15.781-12.732 3.766-1.435 12.912-0.359 17.036 1.793z"></path>
</svg>
