<?xml version="1.0" encoding="utf-8"?>
<!-- Generator: Adobe Illustrator 23.0.1, SVG Export Plug-In . SVG Version: 6.00 Build 0)  -->
<svg version="1.1" id="Layer_1" xmlns="http://www.w3.org/2000/svg" xmlns:xlink="http://www.w3.org/1999/xlink" x="0px" y="0px"
	 viewBox="0 0 696 297" style="enable-background:new 0 0 696 297;" xml:space="preserve">
<path d="M255,2.4c-14.5,4.5-25,10.6-34.8,20.4c-35.8,35.8-32.8,94.6,6.3,125.9c8.2,6.5,22.1,13.5,32,16c9.8,2.4,29.6,2.3,39-0.1
	c26.6-6.9,48.8-27,57.9-52.4c1.4-4,2.6-7.7,2.6-8.3c0-0.5-11-0.9-27.6-0.9h-27.7l-4,3.6c-6.2,5.7-12,7.9-20.7,7.9
	c-6,0-8.6-0.5-13-2.6c-6.2-3-12.3-8.6-15.1-14.2L248,94h55.9h55.9l0.7-5c1.4-10.2-1.8-28.7-7-40.4c-7.6-17.3-22-32.3-39.2-41
	c-12.2-6.1-19.6-7.6-36.8-7.5C264.8,0.1,261.4,0.5,255,2.4z M291.6,54.3c6.5,3.3,15.4,12.8,15.4,16.4c0,1-6.2,1.3-29.5,1.3H248l2-4
	c3.6-7,11.3-13.2,20-16.1C274.7,50.3,286.3,51.6,291.6,54.3z"/>
<path d="M529,2.6c-24.8,7.4-45.1,26.6-53.9,50.8c-17,47.1,8.6,97.2,56.4,110.7c6.6,1.9,10.4,2.3,21.5,2.3
	c11.8-0.1,14.7-0.4,22.5-2.8c22.7-6.9,40.4-21.9,51-43.1c6-12.2,8.5-23,8.5-37.5s-2.4-25.3-8.5-37.5c-9.8-19.9-26.5-34.6-47.6-42.2
	c-6.7-2.4-9-2.6-24.4-3C538.6,0,536.9,0.2,529,2.6z M561.8,52.5c7.3,2.2,15,8.8,18.7,16c2.6,5.2,3,6.9,3,14.4
	c0,10.3-2.1,15.8-8.7,22.3c-6.5,6.5-12.7,9.1-21.8,9.2c-6.6,0.1-8.4-0.3-14.2-3.2C513.3,98.7,516,62.1,543,52.7
	C548.8,50.6,555.3,50.6,561.8,52.5z"/>
<path d="M70,25.5V48l27.9,0.2l27.9,0.3L94.9,93l-30.8,44.5L64,152.2V167h66h66v-22.5V122h-30.5c-16.8,0-30.5-0.2-30.5-0.5
	c0-0.4,13.5-20.4,30-44.5l30-43.9V18V3h-62.5H70V25.5z"/>
<path d="M445.5,7.8c-11.8,4.1-21.4,12.5-26.4,23.2l-2.8,6l-0.7-12.3c-0.4-6.7-0.9-13-1.2-14c-0.5-1.6-2.6-1.7-25.6-1.7h-25l0.7,2.2
	c0.3,1.3,0.9,36.8,1.2,79l0.6,76.8h28.8H424v-41.5c0-26.7,0.4-43.2,1.1-46.6c1.5-6.9,8.2-13.8,15.8-16.4c5.5-1.8,19.8-2.4,25.9-1
	l3.2,0.7l-0.2-27.9l-0.3-27.8L460,6.3C453,6.1,449.2,6.5,445.5,7.8z"/>
<path d="M331,242v52h13.5H358v-52v-52h-13.5H331V242z"/>
<path d="M374.9,192.3c-2.3,1.5-3.8,3.7-4.8,6.5c-1.2,3.8-1.1,4.8,0.4,8.8c2.1,5.6,6.3,8.4,12.3,8.4c8.8,0,14.2-5,14.2-13
	c0-8.4-4.8-13-13.8-13C379.8,190,377.3,190.7,374.9,192.3z"/>
<path d="M465.8,191.7c-6.8,4.2-7.8,14.8-2,20.6c2.6,2.6,4.1,3.1,8.9,3.5c4.9,0.3,6.4,0,9.3-2c7-4.7,7.7-14.3,1.5-20.5
	c-3-3-3.8-3.3-9.1-3.3C470.7,190,467.5,190.7,465.8,191.7z"/>
<path d="M66.7,195.7c-0.4,0.3-0.7,22.6-0.7,49.5V294h14h14v-18.3v-18.2h16.7h16.8l0.3-11.3l0.3-11.2H111H94v-8v-8h18h18v-12v-12
	H98.7C81.4,195,67,195.3,66.7,195.7z"/>
<path d="M221.3,205.3l-11.3,3.1v6.8v6.8h-4.5H201v10v10h4.5h4.5v15.5c0,18,1,23.9,5.1,29.5c5.4,7.4,17.7,10.6,30.2,8l5.7-1.1v-10.7
	v-10.7h-5.4c-3.2,0-6.1-0.6-6.8-1.3c-0.9-0.9-1.4-5.5-1.6-15.2l-0.4-14h7.1h7.1v-10v-10h-7h-7v-10
	C237,200.1,238.1,200.6,221.3,205.3z"/>
<path d="M422.5,205.4l-11,3.1l-0.3,6.8l-0.3,6.7H407h-4v10v10h3.9h3.8l0.5,17.2c0.6,19.7,1.7,24.1,7.6,30.1c5.1,5.2,12,7.2,22.4,6.4
	c12-1,11.9-0.9,11.6-13l-0.3-10.2l-4.5,0.3c-3.4,0.3-5.2-0.2-7-1.6c-2.4-1.9-2.5-2.6-2.8-15.6l-0.4-13.6h7.6h7.6v-10v-10h-7.5H438
	v-10C438,200.1,439.1,200.6,422.5,205.4z"/>
<path d="M154.5,220.6c-4.6,0.7-13.7,3.4-16.7,5l-2.7,1.4l2.4,8.6c2.6,9.6,2.9,10.1,4.7,8.7c5.4-4.2,22.7-5.8,26.9-2.5
	c2.2,1.9,2.2,1.9-6.2,3c-19.6,2.5-30.3,10.6-32.4,24.3c-0.8,5.5,0.7,12,4.1,17.1c6.7,10.3,24.5,13,35.8,5.3c3.3-2.3,3.6-2.3,3.6-0.5
	c0,1,0.4,2.1,0.8,2.4c0.5,0.3,6.1,0.6,12.6,0.7l11.8,0.1l-0.1-21.8c-0.2-30-1.6-36.8-9.3-44.1c-5.6-5.4-12-7.6-22.8-7.9
	C161.8,220.3,156.2,220.4,154.5,220.6z M172,266.4c0,3.3-0.6,4.9-2.6,7c-5.3,5.3-13.5,2-11.8-4.8c0.8-3.4,6.2-6.3,12.2-6.5
	C171.8,262,172,262.5,172,266.4z"/>
<path d="M278.5,220.6c-4.6,0.7-13.7,3.4-16.7,5l-2.7,1.4l2.4,8.6c2.6,9.6,2.9,10.1,4.7,8.7c5.4-4.2,22.7-5.8,26.8-2.5
	c2.3,1.8,2.2,1.9-6.5,3.1c-19.6,2.7-29.8,10.4-31.9,23.8c-0.8,5.5,0.8,12.8,3.9,17.5c6.8,10.3,24.6,13,35.8,5.4l3.5-2.4l0.6,2.4
	c0.6,2.4,0.8,2.4,12.1,2.4c6.3,0,11.8,0.1,12.1,0.2c1,0.5,0.4-43.3-0.7-49.6c-2.8-16-12.7-23.7-30.9-24.2
	C285.8,220.3,280.2,220.4,278.5,220.6z M296,266.5c0,3.7-0.5,5.1-2.6,7c-5.1,4.7-13.4,1.7-11.9-4.3c0.3-1.5,1-3.1,1.4-3.5
	c1.2-1.2,8.3-3.6,10.9-3.7C295.8,262,296,262.5,296,266.5z"/>
<path d="M588.7,221c-12.6,3.2-20.7,12.5-20.7,23.9c0,6.3,1.3,9.8,5.3,13.9c3.7,3.9,6.6,5.5,16.2,9.2c5.2,2.1,7.1,3.3,7.3,4.8
	c0.6,4.1-9.6,4.1-20.3,0c-3.1-1.1-5.7-1.9-5.9-1.7c-0.1,0.2-1.3,4.6-2.5,9.8c-1.7,7.5-1.9,9.6-0.9,10.3c7.3,4.8,30.9,5.9,41,1.9
	c16-6.3,20.8-24.5,9.6-36.7c-3.1-3.4-5.9-5.1-13.4-8c-5.2-2-9.7-4-10-4.5c-2.2-3.7,7.7-5.2,15.6-2.4c2.3,0.8,4.8,1.5,5.4,1.5
	c0.7,0,2-3.3,2.9-7.3c1-3.9,2-8.2,2.3-9.4c0.5-1.9,0-2.4-4.8-3.8C609.4,220.5,593.9,219.7,588.7,221z"/>
<path d="M370,258v36h13.5H397v-36v-36h-13.5H370V258z"/>
<path d="M460,258v36h14h14v-36v-36h-14h-14V258z"/>
<path d="M517.9,223c-6.4,2-11.1,4.7-15.4,9c-15.8,15.8-14.5,41.8,2.8,55.7c3.6,2.9,9.8,6,14.1,7.1c4.3,1.1,13.1,1,17.2,0
	c11.8-3.1,21.6-11.9,25.6-23.2c0.6-1.8,1.1-3.4,1.1-3.7c0-0.2-4.9-0.4-12.2-0.4H539l-1.8,1.6c-2.7,2.5-5.3,3.5-9.2,3.5
	c-2.7,0-3.8-0.2-5.7-1.1c-2.7-1.3-5.4-3.8-6.7-6.3l-0.8-1.6h24.7h24.7l0.3-2.2c0.6-4.5-0.8-12.7-3.1-17.9
	c-3.4-7.6-9.7-14.3-17.3-18.1c-5.4-2.7-8.7-3.4-16.3-3.3C522.3,222,520.8,222.2,517.9,223z M534.1,246c2.9,1.5,6.8,5.7,6.8,7.3
	c0,0.4-2.7,0.6-13,0.6h-13l0.9-1.8c1.6-3.1,5-5.8,8.8-7.1C526.7,244.2,531.8,244.8,534.1,246z"/>
</svg>
