<?xml version="1.0" encoding="iso-8859-1"?>
<!-- Generator: Adobe Illustrator 21.0.0, SVG Export Plug-In . SVG Version: 6.00 Build 0)  -->
<svg version="1.1" id="Layer_1" xmlns="http://www.w3.org/2000/svg" xmlns:xlink="http://www.w3.org/1999/xlink" x="0px" y="0px"
	 viewBox="-49 141 512 512" style="enable-background:new -49 141 512 512;" xml:space="preserve">
<path d="M207,599.667c-84.779,0-161.237-53.632-190.293-133.461c-2.027-5.525,0.832-11.648,6.379-13.675
	c5.525-2.027,11.648,0.853,13.675,6.379c25.984,71.424,94.4,119.424,170.24,119.424c99.989,0,181.333-81.344,181.333-181.333
	c0-5.888,4.779-10.667,10.667-10.667c5.888,0,10.667,4.779,10.667,10.667C409.667,508.744,318.744,599.667,207,599.667z"/>
<path d="M15,407.667c-5.888,0-10.667-4.779-10.667-10.667c0-111.744,90.923-202.667,202.667-202.667
	c84.779,0,161.237,53.632,190.293,133.461c2.027,5.525-0.832,11.648-6.379,13.675c-5.525,2.005-11.669-0.832-13.675-6.379
	c-25.984-71.424-94.4-119.424-170.24-119.424c-99.989,0-181.333,81.344-181.333,181.333C25.667,402.888,20.888,407.667,15,407.667z"
	/>
<path style="fill:none;stroke:#000000;stroke-linecap:round;stroke-linejoin:round;stroke-miterlimit:10;" d="M399,418.333"/>
<path d="M15,429c-2.731,0-5.461-1.045-7.552-3.115l-42.667-42.667c-4.16-4.16-4.16-10.923,0-15.083s10.923-4.16,15.083,0L15,403.251
	l35.115-35.115c4.16-4.16,10.923-4.16,15.083,0c4.16,4.16,4.16,10.923,0,15.083l-42.667,42.667C20.461,427.955,17.731,429,15,429z"
	/>
<path d="M441.667,429c-2.731,0-5.461-1.045-7.552-3.115L399,390.749l-35.115,35.115c-4.16,4.16-10.923,4.16-15.083,0
	c-4.16-4.16-4.16-10.923,0-15.083l42.667-42.667c4.16-4.16,10.923-4.16,15.083,0l42.667,42.667c4.16,4.16,4.16,10.923,0,15.083
	C447.128,427.955,444.397,429,441.667,429z"/>
<g>
	<g>
		<defs>
			<rect id="SVGID_1_" x="101" y="271" width="200.887" height="240.539"/>
		</defs>
		<clipPath id="SVGID_2_">
			<use xlink:href="#SVGID_1_"  style="overflow:visible;"/>
		</clipPath>
		<path style="clip-path:url(#SVGID_2_);" d="M188.51,271l-13.75,47.249h53.366L214.377,271H188.51z M188.51,271"/>
		<path style="clip-path:url(#SVGID_2_);" d="M301.887,498.653c0-2.372-2.645-4.295-5.908-4.295h-189.07
			c-3.263,0-5.908,1.923-5.908,4.295v12.886h200.887V498.653z M301.887,498.653"/>
	</g>
	<path d="M158.512,374.088h85.863l-13.75-47.249h-58.363L158.512,374.088z M158.512,374.088"/>
	<path d="M126.016,485.767h150.856l-13.75-47.249H139.765L126.016,485.767z M126.016,485.767"/>
	<path d="M142.264,429.927h118.359l-13.75-47.249h-90.86L142.264,429.927z M142.264,429.927"/>
</g>
</svg>
