<svg id="Layer_1" data-name="Layer 1" xmlns="http://www.w3.org/2000/svg" xmlns:xlink="http://www.w3.org/1999/xlink" viewBox="0 0 132.86 159.08"><defs><style>.cls-1{fill:none;}.cls-2{clip-path:url(#clip-path);}</style><clipPath id="clip-path" transform="translate(-4.16 -8.97)"><rect class="cls-1" x="4.16" y="8.97" width="132.86" height="159.08"/></clipPath></defs><title>program briefing 2</title><g class="cls-2"><path d="M62,9,52.94,40.22H88.24L79.14,9Zm0,0" transform="translate(-4.16 -8.97)"/><path d="M137,159.53c0-1.57-1.75-2.84-3.91-2.84H8.07c-2.16,0-3.91,1.27-3.91,2.84v8.52H137Zm0,0" transform="translate(-4.16 -8.97)"/></g><path d="M42.2,77.15H99L89.89,45.9H51.29Zm0,0" transform="translate(-4.16 -8.97)"/><path d="M20.71,151h99.77l-9.09-31.25H29.8Zm0,0" transform="translate(-4.16 -8.97)"/><path d="M31.45,114.08h78.28l-9.09-31.25H40.54Zm0,0" transform="translate(-4.16 -8.97)"/></svg>