<?xml version="1.0" encoding="utf-8"?>
<!-- Generator: Adobe Illustrator 23.0.1, SVG Export Plug-In . SVG Version: 6.00 Build 0)  -->
<svg version="1.1" id="Layer_1" xmlns="http://www.w3.org/2000/svg" xmlns:xlink="http://www.w3.org/1999/xlink" x="0px" y="0px"
	 viewBox="0 0 122.9 69.1" style="enable-background:new 0 0 122.9 69.1;" xml:space="preserve">
<style type="text/css">
	.st0{opacity:0.5;fill:#FFFFFF;enable-background:new    ;}
	.st1{opacity:0.42;fill:#FFFFFF;enable-background:new    ;}
	.st2{opacity:0.38;fill:#FFFFFF;enable-background:new    ;}
	.st3{opacity:0.43;fill:#FFFFFF;}
</style>
<path class="st0" d="M6.3,14.9c-0.2,0.2-0.1,0.5,0,1.1c0.1,0.5,0,1.4-0.1,3.3c-0.1,1.5-0.1,1.6-0.1,2.6c0,0,0,0,0,1.7c0,0.3,0,1,0,1
	c0.7,0.4,1.2,0.5,1.6,0.5c0.4,0,0.5,0,1.5,0c0.7,0,1.1,0.1,1.2,0.1c0.5,0.1,0.6,0.1,1,0.1c0.7,0.1,1.2,0.1,1.6,0.1s0.8,0,1.5-0.1
	c0.5,0,0.8-0.1,0.9-0.1c0.5-0.1,0.6-0.2,1.6-0.6c0.7-0.3,0.8-0.3,1-0.2c0.2,0.1,0.2,0.3,0.4,0.8c0.3,0.6,0.5,0.5,0.8,1.1
	c0,0,0.1,0.1,0.4,0.7c0,0.5,0.2,0.7,0.3,0.7c0.5,0.2,1.4-1.4,1.4-1.5l0,0c0,0-0.6,0.3-0.5,0.5c0.1,0.3,1.3,0.4,1.5,0.1
	c0.1-0.2-0.2-0.6-0.1-0.7c0.1,0,0.5,0.9,1,0.9c0.3,0,0.4-0.3,0.7-0.2c0.2,0,0.3,0.1,0.7,0.4c0.4,0.2,0.6,0.4,0.7,0.3
	c0,0,0.1-0.1,0.1-0.7l-0.2-1.4c0.1-0.5,0.3-0.7,0.4-0.8c0.2-0.2,0.4-0.1,0.9-0.4c0.5-0.2,0.4-0.3,0.7-0.4c0.5-0.2,0.7,0,1-0.2
	c0.4-0.2,0.5-0.5,0.6-0.7c0.2-0.4,0.2-0.8,0.1-1.3c0-0.6-0.2-0.7-0.2-1.3c-0.1-0.7,0.1-0.8,0.1-1.6c0-1-0.3-1-0.2-1.6
	c0.1-0.6,0.4-0.8,0.3-1.3c0-0.1-0.1-0.4-0.4-0.7c-0.4-0.4-0.9-0.3-2.2-0.2c-0.6,0-1.2,0-1.8,0.1c-0.7,0-1.3,0-2.6,0
	c-2.4-0.1-3.2-0.1-5.1-0.1c-2.2-0.1-2,0-4.2-0.1c-1.2,0-2.4,0-3.6-0.1C7.7,14.7,6.7,14.4,6.3,14.9z"/>
<path class="st1" d="M15.3,24.9c-0.8,0.2-0.9,0-3.1,0c-1.4,0-1.2,0.1-2.1,0.1c-0.2,0-0.7,0-2.7-0.2c-1-0.1-1.3-0.1-1.5,0.1
	c-0.3,0.3-0.1,0.7,0,1.9c0,0.5,0,1.1-0.1,2.1c-0.2,1.5-0.3,1.4-0.3,2.2c-0.1,1.3,0.2,1.3,0.1,2.4c-0.1,0.7-0.1,1-0.1,1.7
	c0,0.5,0,0.7,0.1,0.8c0.2,0.2,0.5,0.2,1.6,0.1c0.4,0,1-0.1,1.3-0.1c1.5-0.2,2.8-0.1,3.5,0c1.4,0.1,1.1,0.2,2.1,0.3
	c1.8,0.1,2.1-0.3,3.3-0.1c0.2,0,0.6,0.1,1,0c0.3-0.1,0.5-0.2,0.9-0.5c0.5-0.4,0.8-0.6,0.9-0.8c0.1-0.2,0.1-0.3,0-1.4
	c-0.1-0.8-0.1-1.2-0.1-1.4c-0.1-0.8-0.3-1-0.1-1.3c0.2-0.3,0.7-0.4,1-0.2c0.3,0.2,0.3,0.6,0.5,0.7s0.4-0.2,1-0.6
	c0.1,0,0.4-0.2,1.2-0.6c0.9-0.4,0.9-0.4,1-0.5c0.5-0.3,0.6-0.4,0.9-0.5c0.5-0.1,0.9,0,1,0s0.4,0.2,0.9,0.4c0,0,0.2,0.1,0.7,0.4
	c0.6-0.1,1-0.3,1.2-0.5c0.3-0.4,0.2-0.6,0.6-1c0.3-0.2,0.6-0.3,1.1-0.4c0.4-0.1,0.7-0.1,1-0.1c0.8-0.1,0.9,0,1.3-0.1
	s0.4-0.2,0.9-0.4c0.1,0,0.5-0.2,1-0.2c0,0,0.1,0,1,0c0.8,0.1,0.9,0.1,0.9,0.1c0.5-0.3,0.4-1.5-0.1-1.9c-0.3-0.2-0.5,0-1.2,0
	c-0.8,0-0.9-0.1-1.9-0.1c-0.9,0-0.8,0.1-2.1,0.1c-1.2,0-1.3-0.1-1.9,0s-0.9,0.3-1.1,0.1c-0.1-0.1-0.2-0.3,0-1.5
	c0.1-0.9,0.2-1.2,0.1-1.3c-0.2-0.1-0.4,0.5-1.1,0.9c-0.5,0.3-0.7,0.1-1.2,0.4c-0.4,0.2-0.3,0.3-1,0.8c-0.4,0.3-0.6,0.5-0.8,0.5
	c-0.1,0-0.1,0-0.1,0.1c-0.1,0.2,0.9,0.8,0.8,1.4c0,0.3-0.3,0.7-0.6,0.7c-0.4,0-0.4-0.8-1-0.9c-0.4-0.1-0.6,0.3-1.3,0.4
	c-0.1,0-0.6,0-1-0.3c-0.3-0.3-0.2-0.7-0.4-0.8c-0.3-0.1-0.8,0.4-1.1,0.8c-0.3,0.5-0.3,0.9-0.4,0.9s-0.2-0.2-0.9-1.4
	c-0.3-0.5-0.4-0.7-0.5-1c-0.4-0.6-0.5-0.9-0.7-1C16.9,23.8,16.5,24.5,15.3,24.9z"/>
<path class="st0" d="M5.6,36c-0.2,0.2,0,0.4,0.1,1.3c0,0.6,0,1.1,0,1.2c-0.1,0.9-0.2,1.1-0.1,1.3c0.2,0.3,0.7,0.1,1.6,0.1
	C8.1,39.8,7.9,40,9.9,40c0.3,0,0.1,0,2.5,0c0.2,0,1,0,2.5,0c0.6,0,1.1,0,1.7,0c1.7-0.1,2.4-0.4,2.9,0.1c0.2,0.1,0.2,0.3,0.4,0.7
	c0.3,0.8,0.3,1.6,0.2,1.6c-0.1,0-0.3-0.5-0.2-0.6c0.1-0.1,0.5,0.7,1,0.7c0.3,0,0.4-0.3,0.8-0.5c0.7-0.3,1.1,0.2,1.6-0.1
	c0.4-0.3,0.5-1.1,0.4-1.6c-0.1-0.6-0.4-0.7-0.3-1.1c0.1-0.3,0.7-1,0.5-0.7c0.4-0.1,0.8-0.2,0.8-0.4c0.1-0.3-0.7-0.6-0.6-0.8
	c0.1-0.2,1.3-0.1,2.2,0.1c0.5,0.1,0.8,0.2,1,0.1c0.3-0.3-0.2-0.9,0.1-1.2c0.3-0.3,0.8,0.3,1.7,0.1c0.5-0.1,0.7-0.4,1-0.2
	c0.3,0.1,0.2,0.5,0.4,0.9c0.2,0.3,0.6,0.5,0.9,0.6c0.4,0.1,0.6,0.1,2.1,0.1c1.2-0.1,1.2-0.1,1.6-0.1c0.8,0,0.8,0.1,1.6,0.1
	c0.9,0,1.3-0.1,1.3,0.1c0.1,0.2-0.3,0.3-0.5,1c0,0.1-0.1,0.2-0.2,1c-0.2,1-0.2,1.1-0.1,1.2c0.2,0.2,0.7,0,1.6-0.1
	c1.1-0.1,1.1,0.2,2.5,0.2c0.9,0,0.9-0.1,1.6-0.1c1,0.1,1.3,0.3,1.6,0.1c0.4-0.3,0.3-1,0.2-2.2c-0.1-1.6,0.1-1.1,0.1-3.4
	c-0.1-2.7-0.3-2.4-0.3-4.2c0-1.5-0.1-3,0-4.5c0-0.4,0.1-1.2-0.4-1.5c-0.3-0.2-0.7-0.1-1,0c-0.2,0-1.1,0-2.9-0.1
	c-2.3-0.1-2.9-0.2-3,0.1c-0.2,0.4,0.5,1.1,0.1,1.6c-0.2,0.3-0.8,0.4-0.9,0.4c-0.5,0-0.6-0.3-1-0.2c-0.4,0-0.4,0.2-1,0.5
	c-0.4,0.2-0.8,0.3-1.2,0.4c-1,0.2-1.2-0.1-1.9,0.1c-0.2,0.1-0.6,0.2-1,0.6c-0.3,0.4-0.3,0.7-0.7,1c-0.3,0.3-0.7,0.3-0.9,0.4
	c-0.8,0.1-1.4-0.2-1.6-0.3c-0.6-0.3-0.6-0.6-1-0.6s-0.5,0.4-1.3,0.8c-0.1,0-0.6,0.2-1.6,0.5c-0.7,0.2-0.9,0.3-1.1,0.5
	c-0.2,0.3-0.3,0.6-0.4,0.6c-0.2,0-0.3-0.2-0.7-0.5c-0.1-0.1-0.6-0.4-0.8-0.3c-0.1,0.1,0,0.4,0.1,1.2c0,0.3,0,0.6,0.1,1.2
	c0,0.7,0,1.1,0,1.4c-0.1,0.4-0.1,0.7-0.4,1.1s-0.7,0.6-0.8,0.7c-0.4,0.2-0.7,0.2-1,0.2c-1,0-1.5-0.1-2.4-0.2c-0.2,0-0.1,0-2,0
	c-2.1,0-1.8,0-2.2,0c-1,0-1.2,0.1-1.8,0s-0.7-0.1-1.2-0.1c-0.8,0-0.8,0.1-1.5,0.1C6.1,36.1,5.8,35.8,5.6,36z"/>
<path class="st2" d="M5.4,39.3c0.4-0.3,1,0,2.1,0.1c0.7,0.1,0.7,0,2.6-0.1c1.8-0.1,1.7,0,4.5,0c0.8,0,1.5,0.1,2.3,0
	c0.3,0,0.9-0.1,1.7,0.1c0.7,0.2,0.8,0.4,0.9,0.4c0.1,0.2,0.2,0.5,0.2,1.1c0.1,0.6,0,0.7,0.1,0.9c0.2,0.3,0.7,0.2,0.9,0.2
	c0.4,0,0.5-0.2,1.2-0.4c0.5-0.1,0.6-0.1,0.9-0.2s0.6-0.3,0.7-0.5c0.2-0.4-0.2-0.6-0.2-1.3c0-0.4-0.1-0.7,0.1-1s0.4-0.3,0.6-0.6
	c0.2-0.4,0-0.6,0.1-0.8c0.2-0.2,0.6-0.1,1.5,0c0.7,0.1,0.9,0.2,1.1,0.1c0.2-0.2,0.1-0.5,0.4-0.9s0.7-0.6,0.8-0.6
	c0.5-0.2,1.1,0,1.5,0.2c0.5,0.3,0.4,0.6,0.9,1c0.3,0.2,0.6,0.3,0.9,0.3c0.7,0.1,0.9-0.1,1.8-0.1c0.3,0,0.9-0.1,1.6,0
	c0.9,0.1,1.1,0.3,1.8,0.3c0.7,0,1.1-0.3,1.2-0.1c0.1,0.1-0.5,0.4-0.8,1c-0.1,0.3-0.1,0.6-0.1,1.1c0,0.6,0,0.8,0.1,1
	c0.2,0.3,0.6,0.3,1,0.4c0.6,0.1,0.8-0.1,1.5-0.1c0.8-0.1,0.9,0.2,2.1,0.1c0.5,0,0.9,0,1.3-0.1c0.7-0.1,0.9-0.3,1.3-0.1
	c0.3,0.2,0.4,0.6,0.5,0.9c0.2,0.8,0,1.2-0.1,2.3c0,0.5,0,0.9,0,1.8c0,1.1,0.1,1.1,0.1,2.2c0,0.9,0.1,1.4,0,2.1
	c-0.1,1.1-0.2,1.2-0.2,2s0.2,0.8,0.2,1.7c0,0.6,0,0.8-0.1,1.9c0,0.8-0.1,1.4-0.1,2c0,1.2,0,1.8,0,2.3c0.1,0.8,0.1,0.7,0.2,1.6
	c0.1,1.2,0,1.2,0.1,2.1c0.1,1.2,0.5,1.5,0.2,1.9c-0.1,0.2-0.4,0.2-2,0.1c-1.1-0.1-1.5-0.1-2.1-0.1c-1.1-0.1-1.9,0-2.4,0.1
	c-1.8,0.1-3.2,0-6.4,0c-4.3,0-3.8,0.2-8,0.1c-2.2,0-2.5-0.1-6.9-0.1c-3.7-0.1-4.3-0.1-5-0.1c-1.2,0-2.5-0.1-3.7,0
	c-0.7,0.1-1.3,0-2.7-0.1c-0.7,0-1-0.1-1.3-0.4c-0.3-0.4-0.1-1,0.1-1.8c0.2-0.9,0-0.8,0.1-3.2c0.1-2.2,0.2-2.3,0.3-4.2
	c0.1-1.6-0.1-1.5-0.1-4c0-2.9,0-4.3,0.1-5.6c0.2-1.4,0.4-2.3,0.3-3.6C5,42,5,41.7,5,41.1C5.2,39.6,5.4,39.4,5.4,39.3z"/>
<rect x="99" y="33.9" class="st3" width="20" height="27.9"/>
</svg>
