<svg version="1" id="Layer_1" xmlns="http://www.w3.org/2000/svg" viewBox="0 0 123 69"><style>.st0{fill:none;stroke:#fff;stroke-miterlimit:10}</style><path class="st0" d="M38 25v2h-1l-1-1-1 1h-2l-1 1h-1v1h-1v1l-1-1h-1l-1-1-1 1a10 10 0 0 1-1 1h-1l-1 1-1-1-1 1v1l1 1-1 1a2 2 0 0 1 0 1l-1 1h-5-6l-2-1v-5-1-2-1-2h2l1 1h7l2-1 1 1v1l1 1 1-1h1l1 1 1-1 1 1 1-1-1-1 1-1h1v-1h2v2h8z"/><path class="st0" d="M6 40h15v2h2l1-1 1-1v-1-1h1l2-1v-1h3v1h8l-1 1v3h7v-1l1-3-1-2v-2l1-2-1-2v-2-2h-7v2h-1-1-1l-1 1h-1-1l-1 1-1 1h-2l-1-1h-1l-1 1h-1l-1 1h-2v4l-1 1H9 7l-1 1v3z"/><path class="st0" d="M6 40l1-1 2 1h12v2h3v-1l1-1v-1-1l1-1h2l1-1h2v1h8l-1 1v3h6l1-1 1 1v24H33l-3 1H19a170 170 0 0 1-8-1H6l-1-1 1-2v-3-2-2-2-2-3-4-2-2z"/><path class="st0" d="M16 25h-2-5-1-1v-1-2-1-1a11 11 0 0 1 0-2v-2-1l1-1 1 1h21v7l-1 1v1h-2l-1 1v2h-1v-1l-1 1h-1v-1h-1l-1 1h-1v-1-1l-1-1-1 1h-2z"/></svg>