<svg id="Layer_1" xmlns="http://www.w3.org/2000/svg" viewBox="0 0 122.9 69.1"><style>.st0{opacity:.5;fill:#fff;enable-background:new}</style><path class="st0" d="M6.3 14.9c-.2.2-.1.5 0 1.1.1.5 0 1.4-.1 3.3l-.1 2.6v2.7c.7.4 1.2.5 1.6.5h1.5l1.2.1 1 .1 1.6.1 1.5-.1.9-.1 1.6-.6c.7-.3.8-.3 1-.2.2.1.2.3.4.8.3.6.5.5.8 1.1l.4.7c0 .5.2.7.3.7.5.2 1.4-1.4 1.4-1.5 0 0-.6.3-.5.5.1.3 1.3.4 1.5.1.1-.2-.2-.6-.1-.7.1 0 .5.9 1 .9.3 0 .4-.3.7-.2l.7.4c.4.2.6.4.7.3l.1-.7-.2-1.4c.1-.5.3-.7.4-.8.2-.2.4-.1.9-.4l.7-.4c.5-.2.7 0 1-.2.4-.2.5-.5.6-.7.2-.4.2-.8.1-1.3l-.2-1.3c-.1-.7.1-.8.1-1.6 0-1-.3-1-.2-1.6.1-.6.4-.8.3-1.3 0-.1-.1-.4-.4-.7-.4-.4-.9-.3-2.2-.2l-1.8.1h-2.6l-5.1-.1-4.2-.1-3.6-.1c-1.3 0-2.3-.3-2.7.2z"/><path d="M15.3 24.9c-.8.2-.9 0-3.1 0l-2.1.1-2.7-.2c-1-.1-1.3-.1-1.5.1-.3.3-.1.7 0 1.9l-.1 2.1c-.2 1.5-.3 1.4-.3 2.2-.1 1.3.2 1.3.1 2.4l-.1 1.7.1.8c.2.2.5.2 1.6.1l1.3-.1c1.5-.2 2.8-.1 3.5 0l2.1.3c1.8.1 2.1-.3 3.3-.1h1l.9-.5.9-.8v-1.4l-.1-1.4c-.1-.8-.3-1-.1-1.3.2-.3.7-.4 1-.2.3.2.3.6.5.7s.4-.2 1-.6l1.2-.6 1-.5.9-.5h1l.9.4.7.4c.6-.1 1-.3 1.2-.5.3-.4.2-.6.6-1l1.1-.4 1-.1 1.3-.1.9-.4 1-.2h1l.9.1c.5-.3.4-1.5-.1-1.9-.3-.2-.5 0-1.2 0l-1.9-.1-2.1.1H30c-.6.1-.9.3-1.1.1-.1-.1-.2-.3 0-1.5.1-.9.2-1.2.1-1.3-.2-.1-.4.5-1.1.9-.5.3-.7.1-1.2.4l-1 .8c-.4.3-.6.5-.8.5l-.1.1c-.1.2.9.8.8 1.4 0 .3-.3.7-.6.7-.4 0-.4-.8-1-.9-.4-.1-.6.3-1.3.4-.1 0-.6 0-1-.3-.3-.3-.2-.7-.4-.8-.3-.1-.8.4-1.1.8l-.4.9-.9-1.4-.5-1c-.4-.6-.5-.9-.7-1-.8-.4-1.2.3-2.4.7z" opacity=".4" fill="#fff"/><path class="st0" d="M5.6 36c-.2.2 0 .4.1 1.3v1.2c-.1.9-.2 1.1-.1 1.3.2.3.7.1 1.6.1.9-.1.7.1 2.7.1h6.7c1.7-.1 2.4-.4 2.9.1.2.1.2.3.4.7.3.8.3 1.6.2 1.6-.1 0-.3-.5-.2-.6.1-.1.5.7 1 .7.3 0 .4-.3.8-.5.7-.3 1.1.2 1.6-.1.4-.3.5-1.1.4-1.6-.1-.6-.4-.7-.3-1.1l.5-.7c.4-.1.8-.2.8-.4.1-.3-.7-.6-.6-.8.1-.2 1.3-.1 2.2.1.5.1.8.2 1 .1.3-.3-.2-.9.1-1.2.3-.3.8.3 1.7.1.5-.1.7-.4 1-.2.3.1.2.5.4.9.2.3.6.5.9.6l2.1.1 1.6-.1 1.6.1c.9 0 1.3-.1 1.3.1.1.2-.3.3-.5 1l-.2 1c-.2 1-.2 1.1-.1 1.2.2.2.7 0 1.6-.1 1.1-.1 1.1.2 2.5.2l1.6-.1c1 .1 1.3.3 1.6.1.4-.3.3-1 .2-2.2-.1-1.6.1-1.1.1-3.4-.1-2.7-.3-2.4-.3-4.2v-4.5c0-.4.1-1.2-.4-1.5-.3-.2-.7-.1-1 0l-2.9-.1c-2.3-.1-2.9-.2-3 .1-.2.4.5 1.1.1 1.6-.2.3-.8.4-.9.4-.5 0-.6-.3-1-.2-.4 0-.4.2-1 .5l-1.2.4c-1 .2-1.2-.1-1.9.1-.2.1-.6.2-1 .6-.3.4-.3.7-.7 1-.3.3-.7.3-.9.4-.8.1-1.4-.2-1.6-.3-.6-.3-.6-.6-1-.6s-.5.4-1.3.8l-1.6.5c-.7.2-.9.3-1.1.5l-.4.6c-.2 0-.3-.2-.7-.5-.1-.1-.6-.4-.8-.3-.1.1 0 .4.1 1.2l.1 1.2v1.4c-.1.4-.1.7-.4 1.1s-.7.6-.8.7c-.4.2-.7.2-1 .2l-2.4-.2h-6l-1.2-.1-1.5.1c-1-.4-1.3-.7-1.5-.5z"/><path d="M5.4 39.3c.4-.3 1 0 2.1.1.7.1.7 0 2.6-.1h6.8c.3 0 .9-.1 1.7.1.7.2.8.4.9.4.1.2.2.5.2 1.1l.1.9c.2.3.7.2.9.2.4 0 .5-.2 1.2-.4l.9-.2c.3-.1.6-.3.7-.5.2-.4-.2-.6-.2-1.3 0-.4-.1-.7.1-1l.6-.6c.2-.4 0-.6.1-.8.2-.2.6-.1 1.5 0 .7.1.9.2 1.1.1.2-.2.1-.5.4-.9s.7-.6.8-.6c.5-.2 1.1 0 1.5.2.5.3.4.6.9 1l.9.3c.7.1.9-.1 1.8-.1.3 0 .9-.1 1.6 0 .9.1 1.1.3 1.8.3s1.1-.3 1.2-.1c.1.1-.5.4-.8 1l-.1 1.1.1 1c.2.3.6.3 1 .4.6.1.8-.1 1.5-.1.8-.1.9.2 2.1.1l1.3-.1c.7-.1.9-.3 1.3-.1.3.2.4.6.5.9.2.8 0 1.2-.1 2.3v1.8l.1 2.2V50l-.2 2c0 .8.2.8.2 1.7l-.1 1.9-.1 2v2.3l.2 1.6.1 2.1c.1 1.2.5 1.5.2 1.9-.1.2-.4.2-2 .1l-2.1-.1c-1.1-.1-1.9 0-2.4.1-1.8.1-3.2 0-6.4 0-4.3 0-3.8.2-8 .1l-6.9-.1-5-.1H8.3c-.7.1-1.3 0-2.7-.1-.7 0-1-.1-1.3-.4-.3-.4-.1-1 .1-1.8.2-.9 0-.8.1-3.2l.3-4.2c.1-1.6-.1-1.5-.1-4l.1-5.6c.2-1.4.4-2.3.3-3.6L5 41.1c.2-1.5.4-1.7.4-1.8z" opacity=".4" fill="#fff"/><path opacity=".4" fill="#fff" d="M99 33.9h20v27.9H99z"/></svg>